<svg width="70" height="71" viewBox="0 0 70 71" fill="none" xmlns="http://www.w3.org/2000/svg">
<g clip-path="url(#clip0_2265_15545)">
<path d="M8.75 23.8337C8.75 25.4378 10.0625 26.7503 11.6667 26.7503C13.2708 26.7503 14.5833 25.4378 14.5833 23.8337V18.0003H20.4167C22.0208 18.0003 23.3333 16.6878 23.3333 15.0837C23.3333 13.4795 22.0208 12.167 20.4167 12.167H14.5833V6.33366C14.5833 4.72949 13.2708 3.41699 11.6667 3.41699C10.0625 3.41699 8.75 4.72949 8.75 6.33366V12.167H2.91667C1.3125 12.167 0 13.4795 0 15.0837C0 16.6878 1.3125 18.0003 2.91667 18.0003H8.75V23.8337Z" fill="#C0C0C0"/>
<path d="M37.9141 50.083C42.7466 50.083 46.6641 46.1655 46.6641 41.333C46.6641 36.5005 42.7466 32.583 37.9141 32.583C33.0816 32.583 29.1641 36.5005 29.1641 41.333C29.1641 46.1655 33.0816 50.083 37.9141 50.083Z" fill="#C0C0C0"/>
<path d="M61.25 18.0003H52.0042L48.3875 14.0628C47.3083 12.867 45.7333 12.167 44.1 12.167H25.4333C25.9292 13.042 26.25 14.0045 26.25 15.0837C26.25 18.292 23.625 20.917 20.4167 20.917H17.5V23.8337C17.5 27.042 14.875 29.667 11.6667 29.667C10.5875 29.667 9.625 29.3462 8.75 28.8503V58.8337C8.75 62.042 11.375 64.667 14.5833 64.667H61.25C64.4583 64.667 67.0833 62.042 67.0833 58.8337V23.8337C67.0833 20.6253 64.4583 18.0003 61.25 18.0003ZM37.9167 55.917C29.8667 55.917 23.3333 49.3837 23.3333 41.3337C23.3333 33.2837 29.8667 26.7503 37.9167 26.7503C45.9667 26.7503 52.5 33.2837 52.5 41.3337C52.5 49.3837 45.9667 55.917 37.9167 55.917Z" fill="#C0C0C0"/>
</g>
<defs>
<clipPath id="clip0_2265_15545">
<rect width="70" height="70" fill="white" transform="translate(0 0.5)"/>
</clipPath>
</defs>
</svg>
