<svg width="25" height="25" viewBox="0 0 25 25" fill="none" xmlns="http://www.w3.org/2000/svg">
<path d="M9.375 14.5837C10.8135 14.5837 12.1156 14.0003 13.0583 13.0576C14 12.116 14.5833 10.8139 14.5833 9.37533C14.5833 7.93678 14 6.6347 13.0583 5.69303C12.1156 4.75033 10.8135 4.16699 9.375 4.16699C7.93646 4.16699 6.63438 4.75033 5.69167 5.69303C4.75 6.6347 4.16667 7.93678 4.16667 9.37533C4.16667 10.8139 4.75 12.116 5.69167 13.0576C6.1748 13.5421 6.74893 13.9263 7.38104 14.1882C8.01315 14.4501 8.69078 14.5845 9.375 14.5837ZM9.375 21.8753C13.0396 21.8753 15.625 20.8337 15.625 19.792C15.625 17.7087 13.1729 15.6253 9.375 15.6253C5.46875 15.6253 3.125 17.7087 3.125 19.792C3.125 20.8337 5.46875 21.8753 9.375 21.8753ZM21.875 12.5003H19.7917V10.417C19.7917 10.1407 19.6819 9.87577 19.4866 9.68042C19.2912 9.48507 19.0263 9.37533 18.75 9.37533C18.4737 9.37533 18.2088 9.48507 18.0134 9.68042C17.8181 9.87577 17.7083 10.1407 17.7083 10.417V12.5003H15.625C15.3487 12.5003 15.0838 12.6101 14.8884 12.8054C14.6931 13.0008 14.5833 13.2657 14.5833 13.542C14.5833 13.8183 14.6931 14.0832 14.8884 14.2786C15.0838 14.4739 15.3487 14.5837 15.625 14.5837H17.7083V16.667C17.7083 16.9433 17.8181 17.2082 18.0134 17.4036C18.2088 17.5989 18.4737 17.7087 18.75 17.7087C19.0263 17.7087 19.2912 17.5989 19.4866 17.4036C19.6819 17.2082 19.7917 16.9433 19.7917 16.667V14.5837H21.875C22.1513 14.5837 22.4162 14.4739 22.6116 14.2786C22.8069 14.0832 22.9167 13.8183 22.9167 13.542C22.9167 13.2657 22.8069 13.0008 22.6116 12.8054C22.4162 12.6101 22.1513 12.5003 21.875 12.5003Z" fill="white"/>
</svg>
