<svg width="25" height="25" viewBox="0 0 25 25" fill="none" xmlns="http://www.w3.org/2000/svg">
<path d="M21.4098 16.6682C19.3198 16.6088 17.6076 18.3442 17.6076 20.4869H16.8726C16.6878 20.4869 16.5975 20.716 16.7288 20.8475L17.8744 22.0356C17.9566 22.1204 18.0839 22.1204 18.166 22.0356L19.3116 20.8475C19.4389 20.716 19.3485 20.4869 19.1638 20.4869H18.4288C18.4288 18.8321 19.7345 17.4956 21.3441 17.5168C22.8716 17.538 24.1568 18.866 24.1773 20.4444C24.1978 22.1035 22.9044 23.457 21.303 23.457C20.642 23.457 20.0301 23.2236 19.5456 22.829C19.3814 22.6975 19.1514 22.7102 19.0036 22.863C18.8312 23.0412 18.8435 23.3424 19.0365 23.4952C19.6606 24.0043 20.4449 24.3056 21.303 24.3056C23.3766 24.3056 25.056 22.5362 24.9985 20.3766C24.9451 18.3866 23.3356 16.7233 21.4098 16.6682ZM21.2004 18.7897C21.032 18.7897 20.8924 18.9339 20.8924 19.1079V20.6693C20.8924 20.8178 20.9704 20.9578 21.0936 21.0342L22.3747 21.8192C22.5225 21.9083 22.7114 21.8574 22.7977 21.7089C22.8839 21.5561 22.8346 21.3609 22.6909 21.2718L21.5083 20.5463V19.1037C21.5083 18.9339 21.3687 18.7897 21.2004 18.7897Z" fill="#01A2B0"/>
<path fill-rule="evenodd" clip-rule="evenodd" d="M12.9275 12.8472C14.2219 12.8472 15.2712 13.8966 15.2712 15.191L15.27 16.3603C15.4308 19.2299 13.2205 20.661 9.12188 20.661C5.03646 20.661 2.77783 19.2486 2.77783 16.4013V15.191C2.77783 13.8966 3.82716 12.8472 5.12158 12.8472H12.9275ZM19.1784 12.8472C20.4729 12.8472 21.5222 13.8966 21.5222 15.191L21.5216 15.637C19.072 15.7978 17.0565 17.5536 16.4968 19.874C16.3796 19.877 16.2606 19.8785 16.1397 19.8785C15.6551 19.8785 15.1996 19.8549 14.7742 19.8076C15.6128 19.0332 16.0614 17.9823 16.0598 16.6544L16.0501 16.3166L16.0525 15.191C16.0525 14.2573 15.643 13.4192 14.9938 12.8466L19.1784 12.8472ZM17.8095 19.7678C18.351 18.1979 19.7698 17.0398 21.483 16.88C21.2329 18.4939 19.951 19.4574 17.8095 19.7678ZM9.02783 3.47223C11.1855 3.47223 12.9347 5.2214 12.9347 7.37911C12.9347 9.53682 11.1855 11.286 9.02783 11.286C6.87012 11.286 5.12095 9.53682 5.12095 7.37911C5.12095 5.2214 6.87012 3.47223 9.02783 3.47223ZM16.8403 5.03473C18.5662 5.03473 19.9653 6.43384 19.9653 8.15973C19.9653 9.88562 18.5662 11.2847 16.8403 11.2847C15.1144 11.2847 13.7153 9.88562 13.7153 8.15973C13.7153 6.43384 15.1144 5.03473 16.8403 5.03473Z" fill="#01A2B0"/>
</svg>
