<svg width="25" height="25" viewBox="0 0 25 25" fill="none" xmlns="http://www.w3.org/2000/svg">
<path d="M21.4098 16.6681C19.3198 16.6087 17.6076 18.3441 17.6076 20.4868H16.8726C16.6878 20.4868 16.5975 20.716 16.7289 20.8475L17.8745 22.0355C17.9566 22.1204 18.0839 22.1204 18.166 22.0355L19.3116 20.8475C19.4389 20.716 19.3486 20.4868 19.1638 20.4868H18.4288C18.4288 18.8321 19.7345 17.4955 21.3441 17.5167C22.8716 17.538 24.1568 18.866 24.1773 20.4444C24.1979 22.1034 22.9044 23.4569 21.3031 23.4569C20.642 23.4569 20.0302 23.2236 19.5457 22.829C19.3814 22.6974 19.1515 22.7102 19.0037 22.8629C18.8312 23.0411 18.8435 23.3424 19.0365 23.4951C19.6606 24.0043 20.4449 24.3055 21.3031 24.3055C23.3766 24.3055 25.056 22.5362 24.9986 20.3765C24.9452 18.3866 23.3356 16.7233 21.4098 16.6681ZM21.2004 18.7896C21.0321 18.7896 20.8925 18.9339 20.8925 19.1079V20.6693C20.8925 20.8178 20.9705 20.9578 21.0937 21.0342L22.3748 21.8191C22.5226 21.9082 22.7115 21.8573 22.7977 21.7088C22.8839 21.5561 22.8346 21.3609 22.6909 21.2718L21.5084 20.5462V19.1036C21.5084 18.9339 21.3688 18.7896 21.2004 18.7896Z" fill="#DDDDDD"/>
<path fill-rule="evenodd" clip-rule="evenodd" d="M12.9274 12.8472C14.2219 12.8472 15.2712 13.8966 15.2712 15.191L15.27 16.3603C15.4307 19.2299 13.2205 20.661 9.12182 20.661C5.03639 20.661 2.77777 19.2486 2.77777 16.4013V15.191C2.77777 13.8966 3.8271 12.8472 5.12152 12.8472H12.9274ZM19.1784 12.8472C20.4728 12.8472 21.5221 13.8966 21.5221 15.191L21.5215 15.637C19.072 15.7978 17.0564 17.5536 16.4967 19.874C16.3796 19.877 16.2605 19.8785 16.1396 19.8785C15.6551 19.8785 15.1995 19.8549 14.7741 19.8076C15.6127 19.0332 16.0613 17.9823 16.0598 16.6544L16.05 16.3166L16.0524 15.191C16.0524 14.2573 15.6429 13.4192 14.9938 12.8466L19.1784 12.8472ZM17.8095 19.7678C18.3509 18.1979 19.7698 17.0398 21.4829 16.88C21.2328 18.4939 19.951 19.4574 17.8095 19.7678ZM9.02777 3.47223C11.1855 3.47223 12.9347 5.2214 12.9347 7.37911C12.9347 9.53682 11.1855 11.286 9.02777 11.286C6.87006 11.286 5.12089 9.53682 5.12089 7.37911C5.12089 5.2214 6.87006 3.47223 9.02777 3.47223ZM16.8403 5.03473C18.5662 5.03473 19.9653 6.43384 19.9653 8.15973C19.9653 9.88562 18.5662 11.2847 16.8403 11.2847C15.1144 11.2847 13.7153 9.88562 13.7153 8.15973C13.7153 6.43384 15.1144 5.03473 16.8403 5.03473Z" fill="#DDDDDD"/>
</svg>
