<svg width="86" height="85" viewBox="0 0 86 85" fill="none" xmlns="http://www.w3.org/2000/svg">
<ellipse cx="39.4203" cy="39.7556" rx="39.4203" ry="39.7556" fill="#53C5E0" fill-opacity="0.14"/>
<path d="M37.7942 43.9912C37.7942 47.4761 34.9931 50.301 31.5378 50.301C28.0823 50.301 25.2812 47.4761 25.2812 43.9912C25.2812 40.5066 28.0823 37.6816 31.5378 37.6816C34.9931 37.6816 37.7942 40.5066 37.7942 43.9912Z" fill="#00A9B8"/>
<path fill-rule="evenodd" clip-rule="evenodd" d="M24.2173 64.7113C23.236 66.2934 21.1683 66.7752 19.599 65.7861C18.0295 64.7968 17.5523 62.7116 18.5333 61.1286L18.5395 61.1186L18.5514 61.0995L18.5918 61.0352C18.626 60.9811 18.6744 60.9049 18.7356 60.8096C18.858 60.6194 19.0324 60.3521 19.2474 60.0332C19.6743 59.4003 20.2764 58.5415 20.96 57.6693C21.6279 56.817 22.4492 55.8545 23.3173 55.0737C23.7512 54.6835 24.2747 54.2674 24.865 53.9335C25.4219 53.6185 26.2926 53.2305 27.3556 53.2305H35.7282C36.7915 53.2305 37.6622 53.6185 38.219 53.9335C38.8094 54.2674 39.3328 54.6835 39.7667 55.0737C40.6349 55.8545 41.4561 56.817 42.124 57.6693C42.8077 58.5415 43.4098 59.4003 43.8366 60.0332C44.0516 60.3521 44.226 60.6194 44.3484 60.8096C44.4097 60.9049 44.458 60.9811 44.4921 61.0352L44.5327 61.0995L44.5446 61.1186L44.5498 61.1271C44.5498 61.1271 44.4921 61.0352 44.5508 61.1286C45.5317 62.7116 45.0545 64.7968 43.4851 65.7861C41.9156 66.7752 39.8483 66.2944 38.8672 64.712L38.8623 64.7042L38.8365 64.663C38.8124 64.6248 38.7747 64.5655 38.7249 64.4881C38.6845 64.4252 38.6363 64.3507 38.5808 64.266V68.4637L39.7928 81.2992C39.9654 83.1267 38.66 84.759 36.8525 84.9758C35.0451 85.1926 33.3963 83.9149 33.1388 82.0975L31.4294 70.0301L29.72 82.0975C29.4627 83.9149 27.8139 85.1926 26.0064 84.9758C24.1989 84.759 22.8935 83.1267 23.0661 81.2992L24.4721 66.41H24.5037V64.2653C24.4481 64.3502 24.3996 64.425 24.359 64.4881C24.3093 64.5655 24.2717 64.6248 24.2476 64.663L24.2217 64.7042L24.2173 64.7113Z" fill="#00A9B8"/>
<path d="M71.3049 43.9907C71.3049 47.4752 68.504 50.3 65.0488 50.3C61.5939 50.3 58.793 47.4752 58.793 43.9907C58.793 40.5064 61.5939 37.6816 65.0488 37.6816C68.504 37.6816 71.3049 40.5064 71.3049 43.9907Z" fill="#00A9B8"/>
<path fill-rule="evenodd" clip-rule="evenodd" d="M57.7339 64.3577C56.7604 65.9451 54.6952 66.437 53.121 65.4557C51.5465 64.4742 51.0592 62.3913 52.0323 60.8036L52.0385 60.7936L52.0502 60.7745L52.0903 60.7101C52.124 60.6561 52.1719 60.5797 52.2324 60.4845C52.3534 60.2944 52.5258 60.0272 52.7384 59.7083C53.1605 59.0756 53.7561 58.2166 54.4322 57.3444C55.0926 56.4924 55.9053 55.5291 56.7653 54.7472C57.195 54.3564 57.7146 53.9385 58.3023 53.6026C58.8556 53.286 59.7281 52.8916 60.7974 52.8916H69.0772C70.1464 52.8916 71.0189 53.286 71.5723 53.6026C72.1599 53.9385 72.6797 54.3564 73.1094 54.7472C73.9692 55.5291 74.7819 56.4924 75.4425 57.3444C76.1184 58.2166 76.714 59.0756 77.1361 59.7083C77.3487 60.0272 77.5212 60.2944 77.6421 60.4845C77.7026 60.5797 77.7506 60.6561 77.7844 60.7101L77.8243 60.7745C77.8553 60.8247 77.8422 60.8036 77.8422 60.8036C78.8155 62.3913 78.328 64.4742 76.7535 65.4557C75.1795 66.4369 73.1151 65.9458 72.1415 64.3591L72.1363 64.3506L72.1107 64.3094C72.0869 64.2712 72.0497 64.2119 72.0004 64.1345C71.9019 63.9797 71.7563 63.7539 71.5744 63.4813C71.499 63.3683 71.4179 63.2481 71.3321 63.1224C72.1154 67.0608 73.6604 72.4604 74.4694 75.1923C74.7477 76.1323 74.1845 77.1209 73.2325 77.3212C67.3046 78.5672 63.1556 78.5347 56.7199 77.2987C55.7393 77.1103 55.1508 76.0954 55.4467 75.134C56.2914 72.3907 57.8657 67.0468 58.6113 63.0218C58.4997 63.1842 58.3954 63.3384 58.3001 63.4813C58.1183 63.7539 57.9726 63.9797 57.8741 64.1345C57.8249 64.2119 57.7877 64.2712 57.7639 64.3094L57.7382 64.3506L57.7339 64.3577ZM57.5641 80.187V82.4657C57.5641 83.7369 58.4976 84.8115 59.7472 84.9785C60.9968 85.1456 62.1758 84.3535 62.5044 83.1263L63.1668 80.6514C61.3535 80.5895 59.5119 80.4354 57.5641 80.187ZM67.0405 80.6429L67.7053 83.1261C68.0337 84.3534 69.2127 85.1455 70.4623 84.9783C71.7119 84.8112 72.6454 83.7365 72.6454 82.4654V80.1635C70.6969 80.4133 68.8546 80.5736 67.0405 80.6429Z" fill="#00A9B8"/>
<path fill-rule="evenodd" clip-rule="evenodd" d="M76.8773 18.2788C76.8773 17.4997 76.2457 16.8682 75.4666 16.8682C74.6875 16.8682 74.0559 17.4997 74.0559 18.2788L74.056 24.097H67.5005C66.7214 24.097 66.0898 24.7285 66.0898 25.5076C66.0898 26.2867 66.7214 26.9183 67.5005 26.9183H74.056L74.056 35.5361C74.056 36.3152 74.6875 36.9468 75.4666 36.9468C76.2457 36.9468 76.8773 36.3152 76.8773 35.5361V26.9183H84.5885C85.3675 26.9183 85.9991 26.2867 85.9991 25.5076C85.9991 24.7285 85.3675 24.097 84.5885 24.097H76.8773V18.2788Z" fill="#FFBB0C"/>
</svg>
