<svg width="20" height="16" viewBox="0 0 20 16" fill="none" xmlns="http://www.w3.org/2000/svg">
<path d="M10.0013 9.16732C11.1521 9.16732 12.1938 8.70065 12.948 7.94648C13.7013 7.19315 14.168 6.15148 14.168 5.00065C14.168 3.84982 13.7013 2.80815 12.948 2.05482C12.1938 1.30065 11.1521 0.833984 10.0013 0.833984C8.85047 0.833984 7.8088 1.30065 7.05464 2.05482C6.3013 2.80815 5.83464 3.84982 5.83464 5.00065C5.83464 6.15148 6.3013 7.19315 7.05464 7.94648C7.44114 8.33408 7.90044 8.64146 8.40613 8.85097C8.91182 9.06048 9.45393 9.16799 10.0013 9.16732ZM16.668 10.0007C16.9417 10.0012 17.2129 9.94769 17.4659 9.84318C17.7189 9.73868 17.9488 9.58525 18.1423 9.39168C18.3359 9.19812 18.4893 8.96823 18.5938 8.71522C18.6983 8.46221 18.7519 8.19106 18.7513 7.91732C18.7513 7.34232 18.5188 6.82148 18.1413 6.44398C17.948 6.25025 17.7184 6.09662 17.4655 5.99193C17.2127 5.88725 16.9416 5.83357 16.668 5.83398C16.3942 5.83344 16.1231 5.88695 15.8701 5.99145C15.6171 6.09595 15.3872 6.24939 15.1936 6.44295C15 6.63652 14.8466 6.8664 14.7421 7.11941C14.6376 7.37242 14.5841 7.64358 14.5846 7.91732C14.5842 8.19103 14.6378 8.46213 14.7423 8.71509C14.8469 8.96805 15.0003 9.19789 15.1939 9.39144C15.3874 9.58498 15.6172 9.73842 15.8702 9.84296C16.1232 9.9475 16.3943 10.0011 16.668 10.0007ZM16.668 10.4923C15.5588 10.4923 14.7246 10.8307 14.2371 11.299C13.308 10.5348 11.8388 10.0007 10.0013 10.0007C8.11297 10.0007 6.67214 10.5407 5.75797 11.304C5.2613 10.8331 4.41797 10.4923 3.33464 10.4923C1.5113 10.4923 0.417969 11.4007 0.417969 12.3106C0.417969 12.7648 1.5113 13.2207 3.33464 13.2207C3.83797 13.2207 4.28964 13.1782 4.68714 13.1098L4.6538 13.3348C4.6538 14.1681 6.6588 15.0015 10.0013 15.0015C13.1363 15.0015 15.3488 14.1681 15.3488 13.3348L15.3321 13.1223C15.718 13.1832 16.1613 13.2207 16.668 13.2207C18.3771 13.2207 19.5846 12.7648 19.5846 12.3106C19.5846 11.4007 18.4405 10.4923 16.668 10.4923ZM3.33464 10.0007C3.90964 10.0007 4.43047 9.76815 4.80797 9.39065C5.00171 9.19738 5.15534 8.96771 5.26002 8.71487C5.36471 8.46202 5.41838 8.19098 5.41797 7.91732C5.41852 7.64358 5.36501 7.37242 5.2605 7.11941C5.156 6.8664 5.00256 6.63652 4.809 6.44295C4.61543 6.24939 4.38555 6.09595 4.13254 5.99145C3.87953 5.88695 3.60838 5.83344 3.33464 5.83398C3.06092 5.83355 2.78982 5.88713 2.53686 5.99167C2.2839 6.09622 2.05406 6.24966 1.86052 6.4432C1.66697 6.63674 1.51353 6.86658 1.40899 7.11954C1.30445 7.3725 1.25086 7.64361 1.2513 7.91732C1.25075 8.19106 1.30427 8.46221 1.40877 8.71522C1.51327 8.96823 1.66671 9.19812 1.86027 9.39168C2.05384 9.58525 2.28372 9.73868 2.53673 9.84318C2.78974 9.94769 3.06089 10.0012 3.33464 10.0007Z" fill="#53C5E0"/>
</svg>
