<svg width="25" height="25" viewBox="0 0 25 25" fill="none" xmlns="http://www.w3.org/2000/svg">
<path d="M12.4987 14.5827C13.9372 14.5827 15.2393 13.9993 16.182 13.0566C17.1237 12.115 17.707 10.8129 17.707 9.37435C17.707 7.93581 17.1237 6.63372 16.182 5.69206C15.2393 4.74935 13.9372 4.16602 12.4987 4.16602C11.0602 4.16602 9.75807 4.74935 8.81536 5.69206C7.8737 6.63372 7.29036 7.93581 7.29036 9.37435C7.29036 10.8129 7.8737 12.115 8.81536 13.0566C9.2985 13.5411 9.87262 13.9254 10.5047 14.1873C11.1368 14.4491 11.8145 14.5835 12.4987 14.5827ZM20.832 15.6243C21.1742 15.625 21.5132 15.5581 21.8294 15.4275C22.1457 15.2969 22.433 15.1051 22.675 14.8631C22.9169 14.6212 23.1087 14.3338 23.2394 14.0176C23.37 13.7013 23.4369 13.3624 23.4362 13.0202C23.4362 12.3014 23.1456 11.6504 22.6737 11.1785C22.4321 10.9363 22.145 10.7443 21.829 10.6135C21.5129 10.4826 21.1741 10.4155 20.832 10.416C20.4899 10.4153 20.1509 10.4822 19.8346 10.6128C19.5184 10.7435 19.231 10.9353 18.9891 11.1772C18.7471 11.4192 18.5553 11.7065 18.4247 12.0228C18.2941 12.3391 18.2272 12.678 18.2279 13.0202C18.2273 13.3623 18.2943 13.7012 18.425 14.0174C18.5557 14.3336 18.7475 14.6209 18.9894 14.8628C19.2313 15.1048 19.5186 15.2966 19.8348 15.4272C20.151 15.5579 20.4899 15.6249 20.832 15.6243ZM20.832 16.2389C19.4456 16.2389 18.4029 16.6619 17.7935 17.2473C16.632 16.2921 14.7956 15.6243 12.4987 15.6243C10.1383 15.6243 8.33724 16.2993 7.19453 17.2535C6.5737 16.665 5.51953 16.2389 4.16536 16.2389C1.8862 16.2389 0.519531 17.3743 0.519531 18.5118C0.519531 19.0796 1.8862 19.6494 4.16536 19.6494C4.79453 19.6494 5.35911 19.5962 5.85599 19.5108L5.81432 19.7921C5.81432 20.8337 8.32057 21.8754 12.4987 21.8754C16.4174 21.8754 19.1831 20.8337 19.1831 19.7921L19.1622 19.5264C19.6445 19.6025 20.1987 19.6494 20.832 19.6494C22.9685 19.6494 24.4779 19.0796 24.4779 18.5118C24.4779 17.3743 23.0477 16.2389 20.832 16.2389V16.2389ZM4.16536 15.6243C4.88411 15.6243 5.53516 15.3337 6.00703 14.8618C6.2492 14.6203 6.44124 14.3332 6.5721 14.0171C6.70295 13.7011 6.77005 13.3623 6.76953 13.0202C6.77022 12.678 6.70333 12.3391 6.5727 12.0228C6.44207 11.7065 6.25028 11.4192 6.00832 11.1772C5.76636 10.9353 5.47901 10.7435 5.16275 10.6128C4.84649 10.4822 4.50754 10.4153 4.16536 10.416C3.82323 10.4155 3.48434 10.4825 3.16814 10.6131C2.85194 10.7438 2.56465 10.9356 2.32272 11.1775C2.08079 11.4195 1.88899 11.7068 1.75831 12.023C1.62763 12.3392 1.56065 12.678 1.5612 13.0202C1.56051 13.3624 1.6274 13.7013 1.75803 14.0176C1.88866 14.3338 2.08045 14.6212 2.32241 14.8631C2.56437 15.1051 2.85172 15.2969 3.16798 15.4275C3.48424 15.5581 3.82319 15.625 4.16536 15.6243V15.6243Z" fill="#C0C0C0"/>
</svg>
