<svg width="35" height="36" viewBox="0 0 35 36" fill="none" xmlns="http://www.w3.org/2000/svg">
<path d="M12.9798 10.5144C12.9798 12.018 11.7609 13.2369 10.2574 13.2369C8.75379 13.2369 7.53491 12.018 7.53491 10.5144C7.53491 9.01087 8.75379 7.79199 10.2574 7.79199C11.7609 7.79199 12.9798 9.01087 12.9798 10.5144Z" fill="white"/>
<path fill-rule="evenodd" clip-rule="evenodd" d="M7.06995 19.4546C6.64298 20.1373 5.74322 20.3452 5.06037 19.9184C4.37738 19.4915 4.16975 18.5918 4.59662 17.9088L4.59932 17.9045L4.6045 17.8963L4.62208 17.8685C4.63694 17.8452 4.65801 17.8123 4.68466 17.7711C4.7379 17.6891 4.81379 17.5738 4.90737 17.4362C5.0931 17.1631 5.3551 16.7925 5.65256 16.4162C5.94321 16.0485 6.30059 15.6332 6.67834 15.2963C6.86716 15.1279 7.09493 14.9484 7.35183 14.8043C7.59413 14.6684 7.97301 14.501 8.43559 14.501H12.0789C12.5415 14.501 12.9204 14.6684 13.1627 14.8043C13.4196 14.9484 13.6474 15.1279 13.8362 15.2963C14.2139 15.6332 14.5713 16.0485 14.862 16.4162C15.1595 16.7925 15.4214 17.1631 15.6072 17.4362C15.7007 17.5738 15.7766 17.6891 15.8299 17.7711C15.8565 17.8123 15.8775 17.8452 15.8924 17.8685L15.9101 17.8963L15.9152 17.9045L15.9175 17.9082C15.9175 17.9082 15.8924 17.8685 15.9179 17.9088C16.3448 18.5918 16.1371 19.4915 15.4542 19.9184C14.7712 20.3452 13.8717 20.1377 13.4447 19.4549L13.4426 19.4516L13.4314 19.4338C13.4209 19.4173 13.4045 19.3917 13.3828 19.3583C13.3653 19.3312 13.3443 19.299 13.3201 19.2625V21.0737L13.8475 26.6118C13.9226 27.4004 13.3546 28.1047 12.5681 28.1982C11.7816 28.2918 11.0642 27.7405 10.9521 26.9563L10.2083 21.7495L9.46444 26.9563C9.35244 27.7405 8.63502 28.2918 7.84846 28.1982C7.06196 28.1047 6.49393 27.4004 6.56902 26.6118L7.18085 20.1876H7.19461V19.2622C7.1704 19.2988 7.1493 19.3311 7.13165 19.3583C7.11001 19.3917 7.09365 19.4173 7.08314 19.4338L7.07189 19.4516L7.06995 19.4546Z" fill="white"/>
<path d="M27.5626 10.5142C27.5626 12.0177 26.3438 13.2365 24.8404 13.2365C23.337 13.2365 22.1182 12.0177 22.1182 10.5142C22.1182 9.01079 23.337 7.79199 24.8404 7.79199C26.3438 7.79199 27.5626 9.01079 27.5626 10.5142Z" fill="white"/>
<path fill-rule="evenodd" clip-rule="evenodd" d="M21.6573 19.3018C21.2337 19.9867 20.335 20.199 19.65 19.7756C18.9649 19.3521 18.7529 18.4534 19.1763 17.7683L19.179 17.764L19.1841 17.7558L19.2015 17.728C19.2162 17.7046 19.237 17.6717 19.2633 17.6306C19.316 17.5486 19.391 17.4333 19.4836 17.2957C19.6672 17.0227 19.9264 16.6521 20.2206 16.2758C20.508 15.9081 20.8616 15.4925 21.2358 15.1551C21.4228 14.9865 21.6489 14.8062 21.9046 14.6613C22.1454 14.5247 22.5251 14.3545 22.9903 14.3545H26.5932C27.0585 14.3545 27.4382 14.5247 27.6789 14.6613C27.9347 14.8062 28.1609 14.9865 28.3478 15.1551C28.7219 15.4925 29.0756 15.9081 29.363 16.2758C29.6572 16.6521 29.9163 17.0227 30.1 17.2957C30.1925 17.4333 30.2676 17.5486 30.3202 17.6306C30.3465 17.6717 30.3674 17.7046 30.3821 17.728L30.3995 17.7558C30.413 17.7774 30.4073 17.7683 30.4073 17.7683C30.8308 18.4534 30.6187 19.3521 29.9335 19.7756C29.2486 20.1989 28.3503 19.987 27.9266 19.3024L27.9244 19.2988L27.9132 19.281C27.9029 19.2645 27.8867 19.2389 27.8652 19.2055C27.8224 19.1387 27.759 19.0413 27.6799 18.9237C27.6471 18.8749 27.6118 18.823 27.5745 18.7688C27.9153 20.4681 28.5876 22.7979 28.9396 23.9766C29.0607 24.3822 28.8156 24.8088 28.4014 24.8952C25.8219 25.4328 24.0165 25.4188 21.2161 24.8855C20.7893 24.8042 20.5333 24.3663 20.662 23.9515C21.0296 22.7678 21.7147 20.4621 22.0391 18.7254C21.9905 18.7955 21.9451 18.862 21.9037 18.9237C21.8245 19.0413 21.7612 19.1387 21.7183 19.2055C21.6969 19.2389 21.6807 19.2645 21.6703 19.281L21.6592 19.2988L21.6573 19.3018ZM21.5834 26.1317V27.1149C21.5834 27.6634 21.9896 28.1271 22.5334 28.1991C23.0771 28.2712 23.5901 27.9295 23.7331 27.3999L24.0214 26.3321C23.2323 26.3054 22.431 26.2389 21.5834 26.1317ZM25.707 26.3284L25.9963 27.3999C26.1392 27.9294 26.6522 28.2711 27.1959 28.199C27.7397 28.1269 28.1459 27.6632 28.1459 27.1148V26.1216C27.298 26.2293 26.4964 26.2985 25.707 26.3284Z" fill="white"/>
</svg>
