<svg width="11" height="18" viewBox="0 0 11 18" fill="none" xmlns="http://www.w3.org/2000/svg">
<path d="M10.3535 3.14513C10.9859 2.39763 10.8926 1.27896 10.1451 0.646528C9.39763 0.0140904 8.27896 0.107369 7.64653 0.854871L10.3535 3.14513ZM3 9.09164L1.64652 7.94651L0.677667 9.09164L1.64652 10.2368L3 9.09164ZM7.64653 17.3284C8.27896 18.0759 9.39763 18.1692 10.1451 17.5368C10.8926 16.9043 10.9859 15.7857 10.3535 15.0381L7.64653 17.3284ZM7.64653 0.854871L1.64652 7.94651L4.35347 10.2368L10.3535 3.14513L7.64653 0.854871ZM1.64652 10.2368L7.64653 17.3284L10.3535 15.0381L4.35347 7.94651L1.64652 10.2368Z" fill="white"/>
</svg>
