<svg width="11" height="19" viewBox="0 0 11 19" fill="none" xmlns="http://www.w3.org/2000/svg">
<path d="M0.646528 15.4467C0.0140903 16.1942 0.107369 17.3128 0.854871 17.9453C1.60237 18.5777 2.72104 18.4844 3.35347 17.7369L0.646528 15.4467ZM8 9.50016L9.35348 10.6453L10.3223 9.50016L9.35348 8.35503L8 9.50016ZM3.35347 1.26339C2.72104 0.515888 1.60237 0.422609 0.854871 1.05505C0.107369 1.68748 0.0140903 2.80615 0.646528 3.55365L3.35347 1.26339ZM3.35347 17.7369L9.35348 10.6453L6.64653 8.35503L0.646528 15.4467L3.35347 17.7369ZM9.35348 8.35503L3.35347 1.26339L0.646528 3.55365L6.64653 10.6453L9.35348 8.35503Z" fill="#232323"/>
</svg>
