<svg width="38" height="38" viewBox="0 0 38 38" fill="none" xmlns="http://www.w3.org/2000/svg">
<circle cx="19" cy="19" r="19" fill="white" fill-opacity="0.8"/>
<path d="M23.3535 13.1451C23.9859 12.3976 23.8926 11.279 23.1451 10.6465C22.3976 10.0141 21.279 10.1074 20.6465 10.8549L23.3535 13.1451ZM16 19.0916L14.6465 17.9465L13.6777 19.0916L14.6465 20.2368L16 19.0916ZM20.6465 27.3284C21.279 28.0759 22.3976 28.1692 23.1451 27.5368C23.8926 26.9043 23.9859 25.7857 23.3535 25.0381L20.6465 27.3284ZM20.6465 10.8549L14.6465 17.9465L17.3535 20.2368L23.3535 13.1451L20.6465 10.8549ZM14.6465 20.2368L20.6465 27.3284L23.3535 25.0381L17.3535 17.9465L14.6465 20.2368Z" fill="#232323"/>
</svg>
