<svg width="30" height="30" viewBox="0 0 30 30" fill="none" xmlns="http://www.w3.org/2000/svg">
<path d="M22.3652 13.2363C22.3652 7.51758 19.2891 5.57227 16.4121 5.13867C16.4121 5.10937 16.418 5.08008 16.418 5.04492C16.418 4.32422 15.7793 3.75 15 3.75C14.2207 3.75 13.6055 4.32422 13.6055 5.04492C13.6055 5.08008 13.6055 5.10937 13.6113 5.13867C10.7285 5.57812 7.63477 7.5293 7.63477 13.248C7.63477 19.916 5.97656 20.6309 3.75 22.5059H26.25C24.0352 20.625 22.3652 19.9043 22.3652 13.2363Z" fill="white"/>
<path d="M15.0137 26.25C16.584 26.25 17.873 25.084 18.043 23.7305H11.9844C12.1484 25.084 13.4434 26.25 15.0137 26.25Z" fill="white"/>
</svg>
