<svg width="10" height="11" viewBox="0 0 10 11" fill="none" xmlns="http://www.w3.org/2000/svg">
<g clip-path="url(#clip0_302_2268)">
<path d="M5.02232 2.8055C5.61875 2.8055 6.10225 2.322 6.10225 1.72557C6.10225 1.12913 5.61875 0.64563 5.02232 0.64563C4.42589 0.64563 3.94238 1.12913 3.94238 1.72557C3.94238 2.322 4.42589 2.8055 5.02232 2.8055Z" fill="white"/>
<path d="M8.51244 3.1141H1.53143C1.39333 3.1141 1.26089 3.16896 1.16325 3.26661C1.0656 3.36426 1.01074 3.49669 1.01074 3.63479C1.01074 3.77288 1.0656 3.90532 1.16325 4.00297C1.26089 4.10061 1.39333 4.15547 1.53143 4.15547H3.49614C3.62939 4.15547 3.78541 4.21506 3.87373 4.44474C3.9769 4.71144 3.92638 5.22654 3.86274 5.62553L3.77943 6.09704C3.77958 6.09827 3.77945 6.09951 3.77905 6.10068C3.77865 6.10185 3.77799 6.10292 3.77711 6.10379L3.10987 9.89919C3.08567 10.037 3.11703 10.1787 3.19708 10.2934C3.27713 10.4081 3.39936 10.4865 3.53702 10.5113C3.60508 10.5233 3.67485 10.5217 3.74229 10.5066C3.80972 10.4914 3.87348 10.463 3.92985 10.423C3.98622 10.383 4.03409 10.3322 4.07067 10.2736C4.10725 10.215 4.13181 10.1496 4.14294 10.0814L4.60404 7.4433C4.60404 7.4433 4.75195 6.81674 5.02193 6.81674C5.29635 6.81674 5.44118 7.4433 5.44118 7.4433L5.90227 10.0837C5.91343 10.1526 5.93817 10.2185 5.97505 10.2776C6.01193 10.3368 6.06022 10.388 6.1171 10.4283C6.17398 10.4686 6.23832 10.4972 6.30635 10.5124C6.37439 10.5276 6.44477 10.5291 6.5134 10.5168C6.58202 10.5045 6.64751 10.4787 6.70605 10.4408C6.76459 10.403 6.81501 10.3538 6.85438 10.2963C6.89374 10.2388 6.92126 10.174 6.93532 10.1057C6.94939 10.0374 6.94973 9.96702 6.93631 9.89861L6.26887 6.10321C6.26901 6.102 6.2689 6.10077 6.26853 6.09961C6.26816 6.09845 6.26756 6.09737 6.26675 6.09646L6.18325 5.62495C6.11961 5.22596 6.06908 4.71087 6.17226 4.44416C6.26019 4.21506 6.42122 4.15489 6.54406 4.15489H8.51244C8.65053 4.15489 8.78297 4.10003 8.88062 4.00239C8.97826 3.90474 9.03312 3.7723 9.03312 3.63421C9.03312 3.49611 8.97826 3.36368 8.88062 3.26603C8.78297 3.16838 8.65053 3.11353 8.51244 3.11353V3.1141Z" fill="white"/>
</g>
<defs>
<clipPath id="clip0_302_2268">
<rect width="9.8737" height="9.8737" fill="white" transform="translate(0.0849609 0.64563)"/>
</clipPath>
</defs>
</svg>
