<svg width="23" height="22" viewBox="0 0 23 22" fill="none" xmlns="http://www.w3.org/2000/svg">
<path d="M22.5344 12.1237L21.0747 10.6687C20.8863 10.4775 20.5788 10.4756 20.3903 10.6687L17.3144 13.7428L13.795 17.2696L11.0697 14.5415C10.8784 14.3493 10.5709 14.3493 10.3816 14.5415L8.92469 15.9975C8.73344 16.1896 8.73344 16.4971 8.92469 16.6875L13.4491 21.2156C13.6412 21.4078 13.9525 21.4078 14.1391 21.2156L22.5325 12.8137C22.7266 12.6243 22.7266 12.3168 22.5344 12.1237ZM6.94281 14.0156L8.39875 12.5559C9.64281 11.3146 11.8075 11.3128 13.0506 12.5578L13.7922 13.2993L17.125 10.124V0.749023H0.25V21.374H9.625L6.94375 18.675C5.66125 17.3878 5.66125 15.2981 6.94375 14.0146L6.94281 14.0156ZM5.87406 2.62496H15.2491V4.49996H5.87406V2.62496ZM5.87406 6.37496H15.2491V8.24996H5.87406V6.37496ZM3.99906 12H2.12406V10.125H3.99906V12ZM3.99906 8.24996H2.12406V6.37496H3.99906V8.24996ZM3.99906 4.49996H2.12406V2.62496H3.99906V4.49996ZM5.87406 10.125H7.74906V12H5.87406V10.125Z" fill="white"/>
</svg>
