<svg width="251" height="114" viewBox="0 0 251 114" fill="none" xmlns="http://www.w3.org/2000/svg">
<path d="M3.49034 6.34545L3.45612 6.34657L3.44392 6.34688L3.42001 6.3474C3.40116 6.34774 3.38227 6.34793 3.36338 6.34793C1.61051 6.34793 0.189415 4.9269 0.189415 3.17396C0.189415 1.42103 1.61051 0 3.36338 0L3.40008 0.000247966C3.43021 0.000557924 3.46033 0.00130182 3.49034 0.00247966V0H95.0275C106.737 0 116.23 9.49251 116.23 21.2021C116.23 28.8151 112.217 35.4909 106.192 39.2302C112.217 42.9695 116.23 49.6453 116.23 57.2583C116.23 68.9679 106.737 78.4604 95.0275 78.4604H3.49034V78.45C3.43529 78.4546 3.37987 78.4576 3.3242 78.4592L3.31114 78.4595L3.29226 78.4599C3.27369 78.4602 3.25508 78.4604 3.23642 78.4604C1.5536 78.4604 0.189415 77.0962 0.189415 75.4134C0.189415 73.7306 1.5536 72.3664 3.23642 72.3664C3.32197 72.3664 3.40665 72.3699 3.49034 72.3768V72.3664H94.3927C102.667 72.3664 109.374 65.6592 109.374 57.3853C109.374 49.1115 102.667 42.4042 94.3927 42.4042H3.49034V42.4017C3.46765 42.4026 3.44484 42.4032 3.42202 42.4036C3.41034 42.4038 3.39861 42.404 3.38686 42.4041L3.36338 42.4042C1.61051 42.4042 0.189415 40.9831 0.189415 39.2302C0.189415 37.4773 1.61051 36.0562 3.36338 36.0562C3.40591 36.0562 3.44818 36.0571 3.49034 36.0587V36.0562H95.0275C95.6082 36.0562 96.1834 36.0796 96.7523 36.1254C103.905 34.9937 109.374 28.8 109.374 21.329C109.374 13.0552 102.667 6.34793 94.3927 6.34793H3.49034V6.34545Z" fill="white"/>
<path d="M0.189415 58.274C0.189415 57.2222 1.04205 56.3696 2.09379 56.3696H77.7611C78.8129 56.3696 79.6655 57.2222 79.6655 58.274C79.6655 59.3257 78.8129 60.1784 77.7611 60.1784H2.09379C1.04205 60.1784 0.189415 59.3257 0.189415 58.274Z" fill="white"/>
<path d="M0.189415 21.2021C0.189415 20.1503 1.04205 19.2977 2.09379 19.2977H77.7611C78.8129 19.2977 79.6655 20.1503 79.6655 21.2021C79.6655 22.2538 78.8129 23.1065 77.7611 23.1065H2.09379C1.04205 23.1065 0.189415 22.2538 0.189415 21.2021Z" fill="white"/>
<path fill-rule="evenodd" clip-rule="evenodd" d="M130.526 78.9276C127.941 78.9276 125.714 78.4449 123.845 77.4793C121.976 76.5137 120.528 75.1432 119.5 73.3678C118.503 71.5925 118.005 69.49 118.005 67.0605C118.005 64.6934 118.488 62.6221 119.453 60.8467C120.45 59.0713 121.805 57.6852 123.518 56.6885C125.262 55.6607 127.24 55.1467 129.452 55.1467C131.071 55.1467 132.52 55.4115 133.797 55.941C135.105 56.4705 136.21 57.2336 137.114 58.2303C138.048 59.227 138.749 60.4418 139.216 61.8746C139.715 63.2761 139.964 64.8647 139.964 66.6401C139.964 67.2007 139.761 67.6368 139.356 67.9482C138.983 68.2286 138.438 68.3687 137.721 68.3687H123.593C123.787 70.1888 124.353 71.606 125.293 72.6203C126.508 73.8662 128.284 74.4891 130.62 74.4891C131.429 74.4891 132.333 74.3957 133.329 74.2088C134.357 73.9908 135.323 73.6326 136.226 73.1343C136.88 72.7605 137.456 72.6048 137.955 72.667C138.453 72.6982 138.842 72.8695 139.123 73.181C139.434 73.4924 139.621 73.8818 139.683 74.349C139.746 74.7851 139.652 75.2367 139.403 75.7039C139.185 76.1711 138.796 76.576 138.235 76.9186C137.145 77.6039 135.883 78.1178 134.451 78.4604C133.049 78.7719 131.741 78.9276 130.526 78.9276ZM124.219 62.6221C123.917 63.3256 123.713 64.1198 123.606 65.0048H135.086C135.026 63.8774 134.814 62.9119 134.451 62.1081C134.046 61.1426 133.438 60.4106 132.629 59.9123C131.85 59.3828 130.869 59.118 129.685 59.118C128.377 59.118 127.256 59.4295 126.321 60.0524C125.418 60.6442 124.717 61.5008 124.219 62.6221Z" fill="white"/>
<path d="M147.579 78.8342C146.613 78.8342 145.866 78.585 145.336 78.0866C144.838 77.5571 144.589 76.8096 144.589 75.8441V58.1836C144.589 57.218 144.838 56.4861 145.336 55.9877C145.835 55.4894 146.535 55.2402 147.439 55.2402C148.342 55.2402 149.043 55.4894 149.541 55.9877C150.039 56.4861 150.289 57.218 150.289 58.1836V59.6586C150.772 58.4974 151.473 57.5696 152.391 56.8754C153.668 55.9099 155.366 55.3336 157.484 55.1467C158.138 55.0845 158.652 55.2558 159.025 55.6607C159.43 56.0345 159.664 56.6262 159.726 57.4361C159.789 58.2148 159.602 58.8533 159.166 59.3516C158.761 59.8188 158.138 60.0991 157.297 60.1926L156.269 60.286C154.369 60.4729 152.936 61.0647 151.971 62.0614C151.005 63.027 150.522 64.3975 150.522 66.1729V75.8441C150.522 76.8096 150.273 77.5571 149.775 78.0866C149.276 78.585 148.544 78.8342 147.579 78.8342Z" fill="white"/>
<path fill-rule="evenodd" clip-rule="evenodd" d="M176.06 78.9276C174.129 78.9276 172.431 78.4449 170.967 77.4793C169.941 76.7875 169.162 75.9279 168.631 74.9005V75.8441C168.631 76.8096 168.382 77.5571 167.884 78.0866C167.385 78.585 166.685 78.8342 165.781 78.8342C164.847 78.8342 164.131 78.585 163.632 78.0866C163.134 77.5571 162.885 76.8096 162.885 75.8441V48.0919C162.885 47.1263 163.134 46.3944 163.632 45.896C164.131 45.3977 164.847 45.1485 165.781 45.1485C166.716 45.1485 167.432 45.3977 167.93 45.896C168.46 46.3944 168.725 47.1263 168.725 48.0919V58.97C169.271 58.0153 170.049 57.2081 171.061 56.5484C172.494 55.614 174.16 55.1467 176.06 55.1467C178.084 55.1467 179.844 55.6295 181.339 56.5951C182.834 57.5607 184.002 58.9311 184.843 60.7065C185.684 62.4508 186.105 64.5532 186.105 67.0138C186.105 69.4433 185.684 71.5613 184.843 73.3678C184.002 75.1432 182.819 76.5137 181.293 77.4793C179.798 78.4449 178.053 78.9276 176.06 78.9276ZM174.425 74.4891C175.577 74.4891 176.589 74.2088 177.462 73.6482C178.334 73.0875 179.003 72.2621 179.471 71.172C179.969 70.0507 180.218 68.6646 180.218 67.0138C180.218 64.5221 179.689 62.6688 178.63 61.4541C177.571 60.2082 176.169 59.5852 174.425 59.5852C173.272 59.5852 172.26 59.8655 171.388 60.4262C170.516 60.9557 169.83 61.7811 169.332 62.9024C168.865 63.9926 168.631 65.363 168.631 67.0138C168.631 69.4745 169.161 71.3433 170.22 72.6203C171.279 73.8662 172.68 74.4891 174.425 74.4891Z" fill="white"/>
<path fill-rule="evenodd" clip-rule="evenodd" d="M198.421 78.9276C196.77 78.9276 195.291 78.6161 193.982 77.9932C192.705 77.3391 191.693 76.467 190.946 75.3768C190.229 74.2867 189.871 73.0564 189.871 71.6859C189.871 70.004 190.307 68.6802 191.179 67.7146C192.051 66.7179 193.468 66.0015 195.431 65.5655C197.393 65.1294 200.025 64.9114 203.327 64.9114H204.962V63.9303C204.962 62.3729 204.619 61.2516 203.934 60.5663C203.249 59.8811 202.096 59.5385 200.477 59.5385C199.573 59.5385 198.592 59.6475 197.533 59.8655C196.505 60.0836 195.415 60.4573 194.263 60.9868C193.671 61.2672 193.141 61.345 192.674 61.2205C192.238 61.0958 191.896 60.8467 191.646 60.4729C191.397 60.068 191.273 59.632 191.273 59.1647C191.273 58.6975 191.397 58.2459 191.646 57.8098C191.896 57.3426 192.316 57 192.908 56.782C194.341 56.1902 195.711 55.7697 197.019 55.5205C198.359 55.2713 199.573 55.1467 200.663 55.1467C202.906 55.1467 204.744 55.4894 206.177 56.1746C207.64 56.8598 208.731 57.9033 209.447 59.3049C210.163 60.6754 210.522 62.4508 210.522 64.6311V75.8441C210.522 76.8096 210.288 77.5571 209.821 78.0866C209.354 78.585 208.684 78.8342 207.812 78.8342C206.94 78.8342 206.254 78.585 205.756 78.0866C205.289 77.5571 205.055 76.8096 205.055 75.8441V74.8609C204.821 75.4405 204.509 75.9706 204.121 76.4514C203.498 77.2301 202.704 77.8375 201.738 78.2735C200.772 78.7096 199.667 78.9276 198.421 78.9276ZM204.962 69.3032V68.2753H203.373C201.442 68.2753 199.9 68.3687 198.748 68.5556C197.595 68.7425 196.77 69.0695 196.272 69.5367C195.805 69.9728 195.571 70.5957 195.571 71.4056C195.571 72.4334 195.929 73.2744 196.646 73.9285C197.362 74.5826 198.359 74.9096 199.636 74.9096C200.663 74.9096 201.567 74.676 202.345 74.2088C203.155 73.7105 203.794 73.0408 204.261 72.1998C204.728 71.3588 204.962 70.3933 204.962 69.3032Z" fill="white"/>
<path fill-rule="evenodd" clip-rule="evenodd" d="M227.102 87.3373C225.42 87.3373 223.784 87.1816 222.196 86.8701C220.639 86.5587 219.221 86.0759 217.944 85.4218C217.353 85.1103 216.948 84.7366 216.73 84.3005C216.543 83.8645 216.48 83.4128 216.543 82.9456C216.636 82.5095 216.823 82.1202 217.103 81.7776C217.415 81.435 217.789 81.2014 218.225 81.0768C218.661 80.9522 219.112 81.0145 219.58 81.2637C220.95 81.9489 222.243 82.385 223.457 82.5718C224.703 82.7899 225.762 82.8989 226.634 82.8989C228.721 82.8989 230.279 82.385 231.306 81.3571C232.365 80.3604 232.895 78.8653 232.895 76.8719V73.7474C232.353 74.8453 231.512 75.7622 230.372 76.4981C228.908 77.4326 227.242 77.8998 225.373 77.8998C223.317 77.8998 221.526 77.4326 220 76.4981C218.474 75.5326 217.29 74.1933 216.449 72.4802C215.608 70.7671 215.188 68.7737 215.188 66.4999C215.188 64.7868 215.421 63.245 215.889 61.8746C216.387 60.4729 217.072 59.2738 217.944 58.277C218.848 57.2803 219.922 56.5172 221.168 55.9877C222.445 55.4271 223.847 55.1467 225.373 55.1467C227.304 55.1467 228.986 55.6295 230.419 56.5951C231.486 57.2765 232.281 58.1236 232.802 59.1363V58.1836C232.802 57.218 233.051 56.4861 233.549 55.9877C234.079 55.4894 234.795 55.2402 235.698 55.2402C236.633 55.2402 237.349 55.4894 237.847 55.9877C238.346 56.4861 238.595 57.218 238.595 58.1836V76.1711C238.595 79.8776 237.614 82.6653 235.651 84.5341C233.689 86.4029 230.839 87.3373 227.102 87.3373ZM226.961 73.4613C228.176 73.4613 229.22 73.181 230.092 72.6203C230.964 72.0597 231.633 71.2654 232.101 70.2375C232.599 69.1786 232.848 67.9327 232.848 66.4999C232.848 64.3507 232.319 62.6688 231.26 61.4541C230.201 60.2082 228.768 59.5852 226.961 59.5852C225.747 59.5852 224.703 59.8655 223.831 60.4262C222.959 60.9868 222.274 61.7811 221.775 62.809C221.308 63.8368 221.075 65.0671 221.075 66.4999C221.075 68.649 221.604 70.3466 222.663 71.5925C223.722 72.8383 225.155 73.4613 226.961 73.4613Z" fill="white"/>
<path d="M247.543 78.7874C246.608 78.7874 245.892 78.5071 245.394 77.9465C244.895 77.3858 244.646 76.6071 244.646 75.6104V58.4639C244.646 57.4361 244.895 56.6574 245.394 56.1279C245.892 55.5672 246.608 55.2869 247.543 55.2869C248.477 55.2869 249.193 55.5672 249.692 56.1279C250.221 56.6574 250.486 57.4361 250.486 58.4639V75.6104C250.486 76.6071 250.237 77.3858 249.739 77.9465C249.24 78.5071 248.508 78.7874 247.543 78.7874Z" fill="white"/>
<path d="M247.543 50.9419C246.453 50.9419 245.596 50.6771 244.973 50.1476C244.381 49.587 244.085 48.8239 244.085 47.8583C244.085 46.8616 244.381 46.0985 244.973 45.569C245.596 45.0395 246.453 44.7747 247.543 44.7747C248.664 44.7747 249.521 45.0395 250.112 45.569C250.704 46.0985 251 46.8616 251 47.8583C251 48.8239 250.704 49.587 250.112 50.1476C249.521 50.6771 248.664 50.9419 247.543 50.9419Z" fill="white"/>
<path fill-rule="evenodd" clip-rule="evenodd" d="M1.4656 113.924C0.989586 113.924 0.626316 113.792 0.375792 113.529C0.125254 113.266 0 112.897 0 112.421V101.992C0 101.504 0.125254 101.134 0.375792 100.884C0.638853 100.633 1.00838 100.508 1.48439 100.508H6.05032C7.52846 100.508 8.6684 100.884 9.47009 101.635C10.2718 102.374 10.6726 103.408 10.6726 104.736C10.6726 106.064 10.2718 107.103 9.47009 107.855C8.6684 108.606 7.52846 108.982 6.05032 108.982H2.91242V112.421C2.91242 112.897 2.78715 113.266 2.53663 113.529C2.29861 113.792 1.94162 113.924 1.4656 113.924ZM2.91242 106.727H5.5618C6.31339 106.727 6.88335 106.558 7.27168 106.22C7.67252 105.882 7.87295 105.387 7.87295 104.736C7.87295 104.084 7.67252 103.596 7.27168 103.27C6.88335 102.944 6.31339 102.782 5.5618 102.782H2.91242V106.727Z" fill="white"/>
<path d="M28.9376 113.755C28.449 113.755 28.0732 113.623 27.8102 113.36C27.5471 113.097 27.4156 112.721 27.4156 112.233V102.03C27.4156 101.541 27.5471 101.166 27.8102 100.903C28.0732 100.64 28.449 100.508 28.9376 100.508H35.4952C35.871 100.508 36.1529 100.608 36.3408 100.809C36.5412 100.997 36.6414 101.272 36.6414 101.635C36.6414 102.011 36.5412 102.299 36.3408 102.5C36.1529 102.688 35.871 102.782 35.4952 102.782H30.1965V105.882H35.0631C35.4514 105.882 35.7395 105.982 35.9274 106.183C36.1278 106.37 36.228 106.652 36.228 107.028C36.228 107.404 36.1278 107.692 35.9274 107.892C35.7395 108.08 35.4514 108.174 35.0631 108.174H30.1965V111.481H35.4952C35.871 111.481 36.1529 111.582 36.3408 111.782C36.5412 111.97 36.6414 112.245 36.6414 112.609C36.6414 112.984 36.5412 113.273 36.3408 113.473C36.1529 113.661 35.871 113.755 35.4952 113.755H28.9376Z" fill="white"/>
<path d="M55.0831 113.924C54.6447 113.924 54.3064 113.805 54.0684 113.567C53.843 113.316 53.7302 112.966 53.7302 112.515V101.805C53.7302 101.329 53.843 100.965 54.0684 100.715C54.3064 100.464 54.6196 100.339 55.0079 100.339C55.3462 100.339 55.603 100.408 55.7783 100.546C55.9662 100.671 56.1792 100.884 56.4172 101.184L62.5051 108.937V101.729C62.5051 101.291 62.6178 100.953 62.8433 100.715C63.0813 100.464 63.4195 100.339 63.858 100.339C64.2964 100.339 64.6283 100.464 64.8538 100.715C65.0918 100.953 65.2108 101.291 65.2108 101.729V112.571C65.2108 112.984 65.1044 113.316 64.8914 113.567C64.6784 113.805 64.3903 113.924 64.0271 113.924C63.6763 113.924 63.3945 113.855 63.1815 113.717C62.9811 113.58 62.7619 113.36 62.5239 113.06L56.436 105.285V112.515C56.436 112.966 56.3232 113.316 56.0977 113.567C55.8723 113.805 55.534 113.924 55.0831 113.924Z" fill="white"/>
<path fill-rule="evenodd" clip-rule="evenodd" d="M84.3376 113.755C83.8491 113.755 83.4733 113.623 83.2102 113.36C82.9471 113.097 82.8156 112.721 82.8156 112.233V102.03C82.8156 101.541 82.9471 101.166 83.2102 100.903C83.4733 100.64 83.8491 100.508 84.3376 100.508H88.0016C90.2689 100.508 92.0164 101.084 93.244 102.237C94.4841 103.377 95.1042 105.005 95.1042 107.122C95.1042 108.187 94.9413 109.133 94.6156 109.959C94.3025 110.774 93.8453 111.463 93.244 112.026C92.6427 112.59 91.9037 113.022 91.0268 113.323C90.1499 113.611 89.1415 113.755 88.0016 113.755H84.3376ZM85.7281 111.369H87.8325C88.5465 111.369 89.1666 111.281 89.6927 111.106C90.2188 110.93 90.6573 110.667 91.008 110.316C91.3587 109.966 91.6218 109.527 91.7972 109.001C91.9725 108.462 92.0602 107.836 92.0602 107.122C92.0602 105.694 91.7032 104.636 90.9892 103.947C90.2877 103.245 89.2355 102.894 87.8325 102.894H85.7281V111.369Z" fill="white"/>
<path d="M113.77 113.924C113.294 113.924 112.931 113.792 112.68 113.529C112.43 113.266 112.305 112.897 112.305 112.421V101.842C112.305 101.366 112.43 100.997 112.68 100.734C112.931 100.47 113.294 100.339 113.77 100.339C114.234 100.339 114.591 100.47 114.841 100.734C115.092 100.997 115.217 101.366 115.217 101.842V112.421C115.217 112.897 115.092 113.266 114.841 113.529C114.603 113.792 114.246 113.924 113.77 113.924Z" fill="white"/>
<path fill-rule="evenodd" clip-rule="evenodd" d="M134.343 113.755C133.854 113.755 133.479 113.623 133.215 113.36C132.952 113.097 132.821 112.721 132.821 112.233V102.03C132.821 101.541 132.952 101.166 133.215 100.903C133.479 100.64 133.854 100.508 134.343 100.508H138.007C140.274 100.508 142.022 101.084 143.249 102.237C144.489 103.377 145.109 105.005 145.109 107.122C145.109 108.187 144.947 109.133 144.621 109.959C144.308 110.774 143.851 111.463 143.249 112.026C142.648 112.59 141.909 113.022 141.032 113.323C140.155 113.611 139.147 113.755 138.007 113.755H134.343ZM135.733 111.369H137.838C138.552 111.369 139.172 111.281 139.698 111.106C140.224 110.93 140.663 110.667 141.013 110.316C141.364 109.966 141.627 109.527 141.802 109.001C141.978 108.462 142.066 107.836 142.066 107.122C142.066 105.694 141.709 104.636 140.994 103.947C140.293 103.245 139.241 102.894 137.838 102.894H135.733V111.369Z" fill="white"/>
<path d="M163.776 113.924C163.3 113.924 162.936 113.792 162.686 113.529C162.435 113.266 162.31 112.897 162.31 112.421V101.842C162.31 101.366 162.435 100.997 162.686 100.734C162.936 100.47 163.3 100.339 163.776 100.339C164.239 100.339 164.596 100.47 164.847 100.734C165.097 100.997 165.222 101.366 165.222 101.842V112.421C165.222 112.897 165.097 113.266 164.847 113.529C164.609 113.792 164.252 113.924 163.776 113.924Z" fill="white"/>
<path d="M184.292 113.924C183.816 113.924 183.452 113.792 183.202 113.529C182.951 113.266 182.826 112.897 182.826 112.421V101.823C182.826 101.347 182.951 100.984 183.202 100.734C183.452 100.47 183.816 100.339 184.292 100.339C184.755 100.339 185.112 100.47 185.363 100.734C185.613 100.984 185.739 101.347 185.739 101.823V106.277H185.776L190.774 101.053C190.987 100.827 191.206 100.658 191.432 100.546C191.67 100.42 191.939 100.358 192.24 100.358C192.678 100.358 192.992 100.47 193.179 100.696C193.38 100.921 193.468 101.184 193.442 101.485C193.417 101.786 193.28 102.068 193.029 102.331L188.624 106.835L193.292 111.82C193.58 112.133 193.724 112.452 193.724 112.778C193.737 113.104 193.63 113.379 193.405 113.605C193.192 113.818 192.872 113.924 192.447 113.924C192.083 113.924 191.789 113.849 191.563 113.699C191.351 113.548 191.113 113.329 190.849 113.041L185.776 107.705H185.739V112.421C185.739 112.897 185.613 113.266 185.363 113.529C185.125 113.792 184.768 113.924 184.292 113.924Z" fill="white"/>
<path fill-rule="evenodd" clip-rule="evenodd" d="M210.636 113.924C210.285 113.924 209.997 113.843 209.772 113.68C209.559 113.517 209.421 113.298 209.358 113.022C209.308 112.747 209.364 112.44 209.527 112.101L214.338 101.56C214.538 101.134 214.776 100.827 215.052 100.64C215.327 100.439 215.647 100.339 216.01 100.339C216.373 100.339 216.693 100.439 216.968 100.64C217.244 100.827 217.475 101.134 217.663 101.56L222.511 112.101C222.674 112.44 222.73 112.753 222.68 113.041C222.643 113.316 222.517 113.536 222.304 113.699C222.091 113.849 221.816 113.924 221.478 113.924C221.052 113.924 220.72 113.824 220.482 113.623C220.256 113.423 220.056 113.11 219.881 112.684L219.102 110.88H212.905L212.139 112.684C211.951 113.122 211.751 113.442 211.538 113.642C211.337 113.83 211.037 113.924 210.636 113.924ZM215.972 103.608L213.875 108.606H218.124L216.01 103.608H215.972Z" fill="white"/>
<path d="M240.698 113.924C240.26 113.924 239.922 113.805 239.684 113.567C239.458 113.316 239.346 112.966 239.346 112.515V101.805C239.346 101.329 239.458 100.965 239.684 100.715C239.922 100.464 240.235 100.339 240.623 100.339C240.961 100.339 241.218 100.408 241.394 100.546C241.582 100.671 241.794 100.884 242.032 101.184L248.12 108.937V101.729C248.12 101.291 248.233 100.953 248.459 100.715C248.697 100.464 249.035 100.339 249.473 100.339C249.912 100.339 250.244 100.464 250.469 100.715C250.707 100.953 250.826 101.291 250.826 101.729V112.571C250.826 112.984 250.72 113.316 250.507 113.567C250.294 113.805 250.006 113.924 249.642 113.924C249.292 113.924 249.01 113.855 248.797 113.717C248.596 113.58 248.377 113.36 248.139 113.06L242.051 105.285V112.515C242.051 112.966 241.939 113.316 241.713 113.567C241.488 113.805 241.149 113.924 240.698 113.924Z" fill="white"/>
</svg>
