<svg width="29" height="29" viewBox="0 0 29 29" fill="none" xmlns="http://www.w3.org/2000/svg">
<circle cx="14.4974" cy="14.4974" r="13.2548" fill="white" stroke="#00A9B8" stroke-width="2.48527"/>
<path fill-rule="evenodd" clip-rule="evenodd" d="M14.4957 8.11816C14.1755 8.11816 13.9158 8.37779 13.9158 8.69806V13.9174H8.69708C8.37682 13.9174 8.11719 14.177 8.11719 14.4973C8.11719 14.8175 8.37682 15.0771 8.69708 15.0771H13.9158V20.296C13.9158 20.6163 14.1755 20.8759 14.4957 20.8759C14.816 20.8759 15.0756 20.6163 15.0756 20.296V15.0771H20.295C20.6153 15.0771 20.8749 14.8175 20.8749 14.4973C20.8749 14.177 20.6153 13.9174 20.295 13.9174H15.0756V8.69806C15.0756 8.37779 14.816 8.11816 14.4957 8.11816Z" fill="#00A9B8"/>
</svg>
