<svg width="20" height="20" viewBox="0 0 20 20" fill="none" xmlns="http://www.w3.org/2000/svg">
<path d="M16.6654 18.3337V1.66699H5.83203C5.16899 1.66699 4.53311 1.93038 4.06426 2.39923C3.59542 2.86807 3.33203 3.50395 3.33203 4.16699V15.8337C3.33203 16.4967 3.59542 17.1326 4.06426 17.6014C4.53311 18.0703 5.16899 18.3337 5.83203 18.3337H16.6654ZM6.66536 5.00033H13.332V6.66699H6.66536V5.00033ZM4.9987 15.8337C5.00024 15.7228 5.02388 15.6134 5.06824 15.5118C5.1126 15.4102 5.17678 15.3185 5.25703 15.242C5.33091 15.1641 5.42016 15.1024 5.51915 15.0608C5.61813 15.0192 5.72468 14.9986 5.83203 15.0003H14.9987V16.667H5.83203C5.61102 16.667 5.39906 16.5792 5.24278 16.4229C5.0865 16.2666 4.9987 16.0547 4.9987 15.8337Z" fill="#C0C0C0"/>
</svg>
