<svg width="25" height="25" viewBox="0 0 25 25" fill="none" xmlns="http://www.w3.org/2000/svg">
<path d="M20.8346 22.9163V2.08301H7.29297C6.46417 2.08301 5.66931 2.41225 5.08326 2.9983C4.49721 3.58435 4.16797 4.37921 4.16797 5.20801V19.7913C4.16797 20.6201 4.49721 21.415 5.08326 22.001C5.66931 22.5871 6.46417 22.9163 7.29297 22.9163H20.8346ZM8.33464 6.24967H16.668V8.33301H8.33464V6.24967ZM6.2513 19.7913C6.25323 19.6528 6.28278 19.516 6.33823 19.389C6.39368 19.262 6.47391 19.1474 6.57422 19.0518C6.66656 18.9544 6.77813 18.8772 6.90186 18.8252C7.02559 18.7732 7.15877 18.7475 7.29297 18.7497H18.7513V20.833H7.29297C7.0167 20.833 6.75175 20.7233 6.5564 20.5279C6.36105 20.3326 6.2513 20.0676 6.2513 19.7913Z" fill="#232323"/>
</svg>
