<svg width="24" height="30" viewBox="0 0 24 30" fill="none" xmlns="http://www.w3.org/2000/svg">
<g clip-path="url(#clip0_1656_15066)">
<path d="M23.0344 15.1237L21.5747 13.6687C21.3863 13.4775 21.0787 13.4756 20.8903 13.6687L17.8144 16.7428L14.295 20.2696L11.5697 17.5415C11.3784 17.3493 11.0709 17.3493 10.8816 17.5415L9.42469 18.9975C9.23344 19.1896 9.23344 19.4971 9.42469 19.6875L13.9491 24.2156C14.1412 24.4078 14.4525 24.4078 14.6391 24.2156L23.0325 15.8137C23.2266 15.6243 23.2266 15.3168 23.0344 15.1237ZM7.44281 17.0156L8.89875 15.5559C10.1428 14.3146 12.3075 14.3128 13.5506 15.5578L14.2922 16.2993L17.625 13.124V3.74902H0.75V24.374H10.125L7.44375 21.675C6.16125 20.3878 6.16125 18.2981 7.44375 17.0146L7.44281 17.0156ZM6.37406 5.62496H15.7491V7.49996H6.37406V5.62496ZM6.37406 9.37496H15.7491V11.25H6.37406V9.37496ZM4.49906 15H2.62406V13.125H4.49906V15ZM4.49906 11.25H2.62406V9.37496H4.49906V11.25ZM4.49906 7.49996H2.62406V5.62496H4.49906V7.49996ZM6.37406 13.125H8.24906V15H6.37406V13.125Z" fill="white"/>
</g>
<defs>
<clipPath id="clip0_1656_15066">
<rect width="22.5" height="30" fill="white" transform="translate(0.75)"/>
</clipPath>
</defs>
</svg>
