<svg width="30" height="30" viewBox="0 0 30 30" fill="none" xmlns="http://www.w3.org/2000/svg">
<path d="M13.3803 21.66C12.6603 21.78 11.6403 21.9 10.2603 21.9C9.24033 21.9 8.34033 21.84 7.62033 21.72C7.44033 21.72 7.26033 21.66 7.08033 21.6L4.38033 26.82C4.02033 27.6 4.38033 28.5 5.16033 28.8C7.62033 29.58 12.9003 29.58 15.3603 28.8C16.2003 28.56 16.5603 27.6 16.1403 26.82L13.3803 21.66ZM7.32033 18.9H7.50033C7.50033 19.74 7.56033 20.28 7.26033 21.06C7.86033 21.18 8.82033 21.3 10.2003 21.3C11.5203 21.3 12.4803 21.18 13.0803 21.06C12.7803 20.22 12.8403 19.74 12.8403 18.9H13.0203C13.4403 18.9 13.8003 18.54 13.8003 18.12C13.8003 17.7 13.4403 17.34 13.0203 17.34H10.5003C10.5003 17.28 10.6803 16.44 10.6803 16.38C10.5003 16.56 10.4403 16.68 10.3803 16.74C10.3803 16.62 10.3203 16.32 10.2603 15.78C10.2003 15.9 10.0803 17.16 10.0803 17.28V17.34H7.32033C6.90033 17.34 6.54033 17.7 6.54033 18.12C6.60033 18.54 6.96033 18.9 7.32033 18.9Z" fill="#00A9B8"/>
<path d="M24.7201 2.58004L25.6801 2.22004C25.5601 1.98004 25.2601 1.68004 24.8401 1.38004C23.5201 0.480041 21.9601 0.420041 20.4001 0.960041L21.4801 1.62004L19.6801 1.26004C18.6001 1.68004 17.4001 2.46004 16.3201 3.42004C16.8601 3.72004 17.5201 4.08004 17.7001 4.14004C17.4601 4.08004 16.5601 3.96004 15.7801 3.90004C15.0001 4.62004 14.1601 5.46004 13.4401 6.42004C13.8601 6.72004 14.3401 7.08004 14.3401 7.08004H12.9001L12.8401 7.14004C12.0001 8.22004 11.4601 9.30004 11.1001 10.32C12.4201 10.14 12.4801 9.90004 10.8601 11.1C10.2601 13.08 10.2601 14.76 10.3801 15.78C10.9801 13.32 11.8201 10.92 14.2801 8.28004C15.9001 6.72004 17.4601 5.34004 19.7401 4.38004C19.8601 4.32004 19.9201 4.32004 19.9801 4.26004C16.5601 6.36004 15.4201 7.92004 14.7001 8.64004C12.7801 10.86 11.4001 13.44 10.8001 16.38C11.3401 15.72 12.6001 14.22 14.4001 12.36L13.6201 11.88L14.7001 12C15.6001 11.1 16.5601 10.14 17.6401 9.12004L16.6201 9.00004L18.2401 8.58004C19.0201 7.86004 19.8601 7.26004 20.7001 6.72004L19.6801 6.42004C19.6801 6.42004 20.5801 6.36004 21.3601 6.30004C22.4401 5.58004 23.4601 5.04004 24.3001 4.50004L23.6401 3.96004L24.7201 4.14004C25.4401 3.60004 25.8001 3.12004 25.8001 2.64004L24.7201 2.58004Z" fill="#00A9B8"/>
</svg>
