<svg width="79" height="63" viewBox="0 0 79 63" fill="none" xmlns="http://www.w3.org/2000/svg">
<circle cx="26.93" cy="31.6155" r="26.93" fill="#53C5E0" fill-opacity="0.15"/>
<path d="M41.4441 45.0363C39.9471 45.2858 37.8263 45.5353 34.957 45.5353C32.8362 45.5353 30.9649 45.4105 29.4679 45.161C29.0936 45.161 28.7194 45.0363 28.3451 44.9115L22.7312 55.765C21.9827 57.3868 22.7312 59.2581 24.353 59.8818C29.4679 61.5036 40.4461 61.5036 45.5609 59.8818C47.3075 59.3828 48.056 57.3868 47.1827 55.765L41.4441 45.0363ZM28.8441 39.2977H29.2184C29.2184 41.0442 29.3431 42.167 28.7194 43.7888C29.9669 44.0383 31.9629 44.2878 34.8322 44.2878C37.5768 44.2878 39.5728 44.0383 40.8203 43.7888C40.1966 42.0422 40.3213 41.0442 40.3213 39.2977H40.6956C41.5689 39.2977 42.3174 38.5492 42.3174 37.6759C42.3174 36.8026 41.5689 36.0541 40.6956 36.0541H35.456C35.456 35.9294 35.8302 34.1828 35.8302 34.0581C35.456 34.4323 35.3312 34.6818 35.2065 34.8066C35.2065 34.5571 35.0817 33.9333 34.957 32.8105C34.8322 33.0601 34.5827 35.6799 34.5827 35.9294V36.0541H28.8441C27.9708 36.0541 27.2223 36.8026 27.2223 37.6759C27.3471 38.5492 28.0956 39.2977 28.8441 39.2977Z" fill="#53C5E0"/>
<path d="M65.0214 5.36328L67.0175 4.61477C66.768 4.11576 66.1442 3.492 65.2709 2.86823C62.5264 0.996946 59.2828 0.872193 56.0392 1.99497L58.2848 3.36724L54.5422 2.61873C52.2967 3.49199 49.8016 5.11378 47.5561 7.10982C48.6788 7.73358 50.0511 8.48209 50.4254 8.60685C49.9264 8.48209 48.0551 8.23259 46.4333 8.10784C44.8115 9.60487 43.065 11.3514 41.5679 13.3474C42.4412 13.9712 43.4392 14.7197 43.4392 14.7197H40.4452L40.3204 14.8445C38.5739 17.09 37.4511 19.3356 36.7026 21.4564C39.4472 21.0821 39.5719 20.5831 36.2036 23.0781C34.9561 27.195 34.9561 30.688 35.2056 32.8088C36.4531 27.694 38.1996 22.7039 43.3145 17.2148C46.6828 13.9712 49.9264 11.1019 54.667 9.10586C54.9165 8.9811 55.0412 8.9811 55.166 8.85635C48.0551 13.2227 45.6848 16.4663 44.1878 17.9633C40.1957 22.5791 37.3264 27.9435 36.0788 34.0564C37.2016 32.6841 39.8214 29.5653 43.564 25.6979L41.9422 24.6999L44.1878 24.9494C46.059 23.0781 48.0551 21.0821 50.3006 18.9613L48.1798 18.7118L51.5481 17.8385C53.1699 16.3415 54.9165 15.094 56.663 13.9712L54.5422 13.3474C54.5422 13.3474 56.4135 13.2227 58.0353 13.0979C60.2808 11.6009 62.4016 10.4781 64.1482 9.35536L62.7759 8.23259L65.0214 8.60685C66.5184 7.48407 67.267 6.48605 67.267 5.48803L65.0214 5.36328Z" fill="#00A9B8"/>
<path d="M15.337 16.109L19.2827 14.6485L20.7561 9.81957C20.7839 9.72886 20.8401 9.64948 20.9164 9.59309C20.9927 9.53669 21.0851 9.50625 21.1799 9.50625C21.2748 9.50625 21.3672 9.53669 21.4435 9.59309C21.5198 9.64948 21.576 9.72886 21.6038 9.81957L23.0768 14.6485L27.0229 16.109C27.1078 16.1405 27.181 16.1972 27.2326 16.2715C27.2843 16.3459 27.312 16.4342 27.312 16.5247C27.312 16.6152 27.2843 16.7036 27.2326 16.7779C27.181 16.8522 27.1078 16.9089 27.0229 16.9404L23.0785 18.4005L21.6052 23.3766C21.578 23.4684 21.522 23.5489 21.4453 23.6061C21.3687 23.6634 21.2756 23.6943 21.1799 23.6943C21.0843 23.6943 20.9912 23.6634 20.9145 23.6061C20.8379 23.5489 20.7818 23.4684 20.7547 23.3766L19.2809 18.4005L15.3365 16.9404C15.2513 16.9092 15.1777 16.8526 15.1258 16.7782C15.0738 16.7039 15.0459 16.6153 15.046 16.5246C15.046 16.4338 15.074 16.3453 15.126 16.271C15.1781 16.1966 15.2517 16.1401 15.337 16.109Z" fill="#FFBB0C"/>
<path d="M24.2047 20.9866L25.2302 20.607L25.6293 19.1439C25.6548 19.0499 25.7105 18.967 25.7879 18.9079C25.8652 18.8488 25.9598 18.8168 26.0572 18.8168C26.1545 18.8168 26.2491 18.8488 26.3265 18.9079C26.4038 18.967 26.4595 19.0499 26.485 19.1439L26.8841 20.607L27.9096 20.9866C27.9945 21.0181 28.0677 21.0748 28.1194 21.1491C28.171 21.2234 28.1987 21.3117 28.1987 21.4023C28.1987 21.4928 28.171 21.5811 28.1194 21.6554C28.0677 21.7297 27.9945 21.7864 27.9096 21.8179L26.8894 22.1961L26.4872 23.8021C26.4632 23.898 26.4078 23.9831 26.3299 24.0439C26.252 24.1047 26.156 24.1377 26.0572 24.1377C25.9583 24.1377 25.8623 24.1047 25.7844 24.0439C25.7065 23.9831 25.6511 23.898 25.6271 23.8021L25.2249 22.1961L24.2047 21.8179C24.1198 21.7864 24.0466 21.7297 23.995 21.6554C23.9433 21.5811 23.9156 21.4928 23.9156 21.4023C23.9156 21.3117 23.9433 21.2234 23.995 21.1491C24.0466 21.0748 24.1198 21.0181 24.2047 20.9866Z" fill="#FFBB0C"/>
<path d="M26.1279 11.3815L27.1765 10.9936L27.5645 9.94494C27.5959 9.85994 27.6526 9.7866 27.727 9.73481C27.8013 9.68302 27.8898 9.65525 27.9804 9.65525C28.071 9.65525 28.1595 9.68302 28.2338 9.73481C28.3082 9.7866 28.3649 9.85994 28.3963 9.94494L28.7847 10.9936L29.8329 11.3815C29.9179 11.4129 29.9912 11.4696 30.043 11.544C30.0948 11.6184 30.1226 11.7068 30.1226 11.7974C30.1226 11.888 30.0948 11.9765 30.043 12.0508C29.9912 12.1252 29.9179 12.1819 29.8329 12.2133L28.7847 12.6013L28.3963 13.6499C28.3651 13.7351 28.3084 13.8086 28.2341 13.8606C28.1597 13.9126 28.0711 13.9404 27.9804 13.9404C27.8897 13.9404 27.8011 13.9126 27.7267 13.8606C27.6523 13.8086 27.5957 13.7351 27.5645 13.6499L27.1765 12.6013L26.1279 12.2133C26.0429 12.1819 25.9696 12.1252 25.9178 12.0508C25.866 11.9765 25.8382 11.888 25.8382 11.7974C25.8382 11.7068 25.866 11.6184 25.9178 11.544C25.9696 11.4696 26.0429 11.4129 26.1279 11.3815Z" fill="#FFBB0C"/>
</svg>
