<svg width="47" height="47" viewBox="0 0 47 47" fill="none" xmlns="http://www.w3.org/2000/svg">
<path d="M9 10.5188C9 8.57542 10.5754 7 12.5188 7V28.1128H10.8767C9.84023 28.1128 9 27.2726 9 26.2361V10.5188Z" fill="#00A9B8"/>
<path d="M12.5195 7.00049H33.6323C36.2235 7.00049 38.3241 9.10105 38.3241 11.6922V35.1509C38.3241 37.7421 36.2235 39.8426 33.6323 39.8426H17.2113C14.6201 39.8426 12.5195 37.7421 12.5195 35.1509V7.00049Z" fill="#53C5E0"/>
<rect x="17.2109" y="14.0356" width="16.4211" height="2.34587" rx="1.17293" fill="#00A9B8"/>
<rect x="17.2109" y="21.0737" width="16.4211" height="2.34587" rx="1.17293" fill="#00A9B8"/>
<rect x="17.2109" y="28.1113" width="16.4211" height="2.34587" rx="1.17293" fill="#00A9B8"/>
<path d="M34.2638 16C34.2544 16 34.2449 15.9998 34.2354 15.9994C34.1521 15.9959 34.0706 15.9768 33.9966 15.9434C33.9226 15.91 33.8578 15.8631 33.8066 15.806L33.1218 15.042C33.0276 14.9367 32.9854 14.8033 33.0045 14.6711C33.0235 14.5388 33.1022 14.4186 33.2233 14.3366L33.2478 14.3201C33.3692 14.2383 33.5229 14.2017 33.6753 14.2182C33.8277 14.2347 33.9663 14.303 34.0608 14.4081C34.0915 14.4424 34.1304 14.4705 34.1749 14.4906C34.2193 14.5106 34.2682 14.5221 34.3183 14.5242C34.3684 14.5267 34.4185 14.5197 34.465 14.5034C34.5116 14.4872 34.5535 14.4623 34.5876 14.4304L35.978 13.1567C36.0837 13.0601 36.2293 13.0038 36.3828 13.0002C36.5362 12.9966 36.6851 13.0459 36.7967 13.1375L36.8193 13.156C36.9307 13.2477 36.9956 13.3741 36.9998 13.5073C37.004 13.6406 36.9471 13.7698 36.8416 13.8666L34.6841 15.843C34.63 15.8926 34.5648 15.9321 34.4926 15.9591C34.4203 15.9861 34.3425 16 34.2638 16Z" fill="#FFBB0C"/>
<circle cx="23.2757" cy="23.2757" r="23.2757" fill="#53C5E0" fill-opacity="0.14"/>
<path d="M34.2638 23C34.2544 23 34.2449 22.9998 34.2354 22.9994C34.1521 22.9959 34.0706 22.9768 33.9966 22.9434C33.9226 22.91 33.8578 22.8631 33.8066 22.806L33.1218 22.042C33.0276 21.9367 32.9854 21.8033 33.0045 21.6711C33.0235 21.5388 33.1022 21.4186 33.2233 21.3366L33.2478 21.3201C33.3692 21.2383 33.5229 21.2017 33.6753 21.2182C33.8277 21.2347 33.9663 21.303 34.0608 21.4081C34.0915 21.4424 34.1304 21.4705 34.1749 21.4906C34.2193 21.5106 34.2682 21.5221 34.3183 21.5242C34.3684 21.5267 34.4185 21.5197 34.465 21.5034C34.5116 21.4872 34.5535 21.4623 34.5876 21.4304L35.978 20.1567C36.0837 20.0601 36.2293 20.0038 36.3828 20.0002C36.5362 19.9966 36.6851 20.0459 36.7967 20.1375L36.8193 20.156C36.9307 20.2477 36.9956 20.3741 36.9998 20.5073C37.004 20.6406 36.9471 20.7698 36.8416 20.8666L34.6841 22.843C34.63 22.8926 34.5648 22.9321 34.4926 22.9591C34.4203 22.9861 34.3425 23 34.2638 23Z" fill="#FFBB0C"/>
<path d="M34.2638 30C34.2544 30 34.2449 29.9998 34.2354 29.9994C34.1521 29.9959 34.0706 29.9768 33.9966 29.9434C33.9226 29.91 33.8578 29.8631 33.8066 29.806L33.1218 29.042C33.0276 28.9367 32.9854 28.8033 33.0045 28.6711C33.0235 28.5388 33.1022 28.4186 33.2233 28.3366L33.2478 28.3201C33.3692 28.2383 33.5229 28.2017 33.6753 28.2182C33.8277 28.2347 33.9663 28.303 34.0608 28.4081C34.0915 28.4424 34.1304 28.4705 34.1749 28.4906C34.2193 28.5106 34.2682 28.5221 34.3183 28.5242C34.3684 28.5267 34.4185 28.5197 34.465 28.5034C34.5116 28.4872 34.5535 28.4623 34.5876 28.4304L35.978 27.1567C36.0837 27.0601 36.2293 27.0038 36.3828 27.0002C36.5362 26.9966 36.6851 27.0459 36.7967 27.1375L36.8193 27.156C36.9307 27.2477 36.9956 27.3741 36.9998 27.5073C37.004 27.6406 36.9471 27.7698 36.8416 27.8666L34.6841 29.843C34.63 29.8926 34.5648 29.9321 34.4926 29.9591C34.4203 29.9861 34.3425 30 34.2638 30Z" fill="#FFBB0C"/>
</svg>
