<svg width="30" height="30" viewBox="0 0 30 30" fill="none" xmlns="http://www.w3.org/2000/svg">
<path d="M25.3125 3.75H24.375V2.8125C24.375 2.25 24 1.875 23.4375 1.875C22.875 1.875 22.5 2.25 22.5 2.8125V3.75H18.75V2.8125C18.75 2.25 18.375 1.875 17.8125 1.875C17.25 1.875 16.875 2.25 16.875 2.8125V3.75H13.125V2.8125C13.125 2.25 12.75 1.875 12.1875 1.875C11.625 1.875 11.25 2.25 11.25 2.8125V3.75H7.5V2.8125C7.5 2.25 7.125 1.875 6.5625 1.875C6 1.875 5.625 2.25 5.625 2.8125V3.75H4.6875C3.09375 3.75 1.875 4.96875 1.875 6.5625V9.375H28.125V6.5625C28.125 4.96875 26.9062 3.75 25.3125 3.75ZM20.625 7.5H9.375C8.8125 7.5 8.4375 7.125 8.4375 6.5625C8.4375 6 8.8125 5.625 9.375 5.625H20.625C21.1875 5.625 21.5625 6 21.5625 6.5625C21.5625 7.125 21.1875 7.5 20.625 7.5Z" fill="#C0C0C0"/>
<path fill-rule="evenodd" clip-rule="evenodd" d="M2 11H28V25C28 26.6569 26.6569 28 25 28H5C3.34315 28 2 26.6569 2 25V11ZM8 13H13V18H8V13ZM13 20H8V25H13V20ZM17 13H22V18H17V13ZM22 20H17V25H22V20Z" fill="#C0C0C0"/>
</svg>
