<svg width="26" height="26" viewBox="0 0 26 26" fill="none" xmlns="http://www.w3.org/2000/svg">
<path d="M17.5403 2.16699C20.8867 2.16699 22.75 4.09533 22.75 7.39949V18.5903C22.75 21.9487 20.8867 23.8337 17.5403 23.8337H8.46083C5.1675 23.8337 3.25 21.9487 3.25 18.5903V7.39949C3.25 4.09533 5.1675 2.16699 8.46083 2.16699H17.5403ZM8.75333 17.052C8.42833 17.0195 8.11417 17.1712 7.94083 17.4528C7.7675 17.7237 7.7675 18.0812 7.94083 18.3628C8.11417 18.6337 8.42833 18.7962 8.75333 18.7528H17.2467C17.6789 18.7095 18.005 18.3401 18.005 17.9078C18.005 17.4637 17.6789 17.0953 17.2467 17.052H8.75333ZM17.2467 12.1109H8.75333C8.28642 12.1109 7.90833 12.4912 7.90833 12.957C7.90833 13.4228 8.28642 13.802 8.75333 13.802H17.2467C17.7125 13.802 18.0917 13.4228 18.0917 12.957C18.0917 12.4912 17.7125 12.1109 17.2467 12.1109ZM11.9914 7.20449H8.75333V7.21532C8.28642 7.21532 7.90833 7.59449 7.90833 8.06033C7.90833 8.52616 8.28642 8.90532 8.75333 8.90532H11.9914C12.4583 8.90532 12.8375 8.52616 12.8375 8.04841C12.8375 7.58366 12.4583 7.20449 11.9914 7.20449Z" fill="white"/>
</svg>
