<svg width="65" height="22" viewBox="0 0 65 22" fill="none" xmlns="http://www.w3.org/2000/svg">
<path d="M18.815 2.25H1.31498C-0.0600222 2.25 -0.435022 3 0.564978 4L5.81498 9.25C6.81498 10.25 7.56498 12.125 7.56498 13.5V19.75L12.565 17.25V12.875C12.565 11.875 13.315 10.25 14.315 9.25L19.565 4C20.565 3 20.19 2.25 18.815 2.25Z" fill="white"/>
<path d="M36.9049 5.77V7.072H32.7749V9.942H35.9949V11.244H32.7749V15.5H31.1789V5.77H36.9049ZM39.196 6.764C38.9067 6.764 38.664 6.666 38.468 6.47C38.272 6.274 38.174 6.03133 38.174 5.742C38.174 5.45267 38.272 5.21 38.468 5.014C38.664 4.818 38.9067 4.72 39.196 4.72C39.476 4.72 39.714 4.818 39.91 5.014C40.106 5.21 40.204 5.45267 40.204 5.742C40.204 6.03133 40.106 6.274 39.91 6.47C39.714 6.666 39.476 6.764 39.196 6.764ZM39.98 7.786V15.5H38.384V7.786H39.98ZM43.6714 5.14V15.5H42.0754V5.14H43.6714ZM47.6288 9.088V13.358C47.6288 13.6473 47.6941 13.8573 47.8248 13.988C47.9648 14.1093 48.1981 14.17 48.5248 14.17H49.5048V15.5H48.2448C47.5261 15.5 46.9755 15.332 46.5928 14.996C46.2101 14.66 46.0188 14.114 46.0188 13.358V9.088H45.1088V7.786H46.0188V5.868H47.6288V7.786H49.5048V9.088H47.6288ZM58.0458 11.454C58.0458 11.7433 58.0271 12.0047 57.9898 12.238H52.0958C52.1424 12.854 52.3711 13.3487 52.7818 13.722C53.1924 14.0953 53.6964 14.282 54.2938 14.282C55.1524 14.282 55.7591 13.9227 56.1138 13.204H57.8358C57.6024 13.9133 57.1778 14.4967 56.5618 14.954C55.9551 15.402 55.1991 15.626 54.2938 15.626C53.5564 15.626 52.8938 15.4627 52.3058 15.136C51.7271 14.8 51.2698 14.3333 50.9338 13.736C50.6071 13.1293 50.4438 12.4293 50.4438 11.636C50.4438 10.8427 50.6024 10.1473 50.9198 9.55C51.2464 8.94333 51.6991 8.47667 52.2778 8.15C52.8658 7.82333 53.5378 7.66 54.2938 7.66C55.0218 7.66 55.6704 7.81867 56.2398 8.136C56.8091 8.45333 57.2524 8.90133 57.5698 9.48C57.8871 10.0493 58.0458 10.7073 58.0458 11.454ZM56.3798 10.95C56.3704 10.362 56.1604 9.89067 55.7498 9.536C55.3391 9.18133 54.8304 9.004 54.2238 9.004C53.6731 9.004 53.2018 9.18133 52.8098 9.536C52.4178 9.88133 52.1844 10.3527 52.1098 10.95H56.3798ZM61.2124 8.906C61.4457 8.514 61.7537 8.21067 62.1364 7.996C62.5284 7.772 62.9904 7.66 63.5224 7.66V9.312H63.1164C62.4911 9.312 62.0151 9.47067 61.6884 9.788C61.3711 10.1053 61.2124 10.656 61.2124 11.44V15.5H59.6164V7.786H61.2124V8.906Z" fill="white"/>
</svg>
