<svg width="30" height="30" viewBox="0 0 30 30" fill="none" xmlns="http://www.w3.org/2000/svg">
<path d="M15.8929 2.50045C16.5804 2.48795 17.2316 2.7367 17.7179 3.21295C18.2066 3.6742 18.4679 4.31295 18.4679 4.98795C18.4679 6.36295 19.6054 7.4767 21.0191 7.4767C21.4554 7.4767 21.8929 7.35045 22.2816 7.13795C23.4929 6.4867 25.0054 6.90045 25.6929 8.06295L26.5441 9.52545C26.7566 9.90045 26.8804 10.3254 26.8804 10.7629C26.8804 11.6504 26.3941 12.4767 25.6066 12.9129C25.2179 13.1254 24.8929 13.4504 24.6691 13.8267C24.0054 15.0004 24.4191 16.4867 25.6066 17.1642C26.8054 17.8504 27.2179 19.3517 26.5441 20.5379L25.6929 21.9517C25.2429 22.7254 24.4054 23.2017 23.5054 23.2017C23.0554 23.2017 22.6054 23.0879 22.2316 22.8629C21.8304 22.6504 21.3941 22.5254 20.9554 22.5254C20.2804 22.5254 19.6304 22.7892 19.1566 23.2629C18.6679 23.7267 18.4054 24.3629 18.4054 25.0254C18.4054 26.3879 17.2691 27.5005 15.8554 27.5005H14.1441C13.4679 27.5005 12.8304 27.2255 12.3679 26.763C11.8929 26.288 11.6441 25.663 11.6441 25.013C11.6441 23.638 10.5179 22.5254 9.10662 22.5254C8.64287 22.5254 8.19287 22.6504 7.80537 22.8892C7.21787 23.2129 6.51787 23.3005 5.86787 23.138C5.21787 22.963 4.65537 22.5379 4.31787 21.9754L3.51912 20.563C3.14287 19.9767 3.03037 19.2754 3.20662 18.6129C3.38037 17.9504 3.83162 17.3879 4.44287 17.0504C4.83162 16.8379 5.15537 16.5254 5.38037 16.1379C6.03162 14.9629 5.61787 13.4879 4.44287 12.8004C3.25537 12.1254 2.84287 10.6379 3.51912 9.46295L4.31787 8.06295C4.65537 7.4767 5.21787 7.05045 5.88037 6.87545C6.54412 6.70045 7.24287 6.7992 7.83037 7.13795C8.23037 7.35045 8.66787 7.46295 9.10662 7.46295C9.78162 7.46295 10.4304 7.20045 10.9054 6.73795C11.3804 6.27545 11.6441 5.63795 11.6441 4.98795C11.6441 3.61295 12.7804 2.50045 14.1929 2.50045H15.8929ZM16.3941 11.8517C15.0816 11.3129 13.5679 11.6004 12.5554 12.5879C11.5554 13.5629 11.2429 15.0504 11.7929 16.3267C12.3316 17.6129 13.6054 18.4504 15.0304 18.4504H15.0441C15.9816 18.4629 16.8566 18.1017 17.5179 17.4504C18.1804 16.8129 18.5554 15.9379 18.5554 15.0254C18.5679 13.6379 17.7054 12.3754 16.3941 11.8517Z" fill="#232323"/>
</svg>
