<svg width="21" height="21" viewBox="0 0 21 21" fill="none" xmlns="http://www.w3.org/2000/svg">
<path d="M19.0327 7.09245V9.85709C19.0327 9.91164 19.011 9.96397 18.9724 10.0025C18.9338 10.0411 18.8815 10.0628 18.827 10.0628H17.9836C17.929 10.0628 17.8767 10.0411 17.8381 10.0025C17.7995 9.96397 17.7779 9.91164 17.7779 9.85709V9.03017L16.9427 9.86532C17.5384 10.6561 17.8604 11.6193 17.8602 12.6094C17.8602 12.7493 17.8519 12.8891 17.8437 13.0249C17.8507 13.0503 17.8535 13.0767 17.8519 13.1031C17.7668 13.9607 17.44 14.7765 16.9094 15.4556C16.3789 16.1347 15.6664 16.6492 14.8549 16.9393C14.0433 17.2293 13.1661 17.283 12.3253 17.094C11.4845 16.905 10.7146 16.4812 10.1052 15.8718C9.34508 15.1073 8.87892 14.0992 8.78869 13.0249C8.78458 12.9796 8.78046 12.9344 8.78046 12.8891C9.25331 12.67 9.68913 12.3785 10.0723 12.0252C10.0357 12.2178 10.0178 12.4134 10.0188 12.6094C10.0183 13.1515 10.1515 13.6855 10.4067 14.1638C10.6619 14.6421 11.0312 15.0501 11.4818 15.3516C11.9324 15.653 12.4504 15.8386 12.99 15.892C13.5295 15.9453 14.0739 15.8647 14.5748 15.6573C15.0757 15.4499 15.5177 15.1221 15.8616 14.703C16.2055 14.2839 16.4407 13.7864 16.5463 13.2546C16.652 12.7228 16.6248 12.1732 16.4671 11.6545C16.3095 11.1358 16.0263 10.6639 15.6427 10.2808C15.4113 10.0528 15.1497 9.85759 14.8651 9.70076H14.861C14.5779 9.54951 14.2745 9.44004 13.96 9.37575C13.7472 9.33445 13.5309 9.31378 13.3141 9.31404C12.6621 9.31613 12.0252 9.51078 11.4834 9.87355C11.3039 9.99181 11.1371 10.1283 10.9856 10.2808C10.91 10.355 10.8386 10.4333 10.7717 10.5153C10.6593 10.6533 10.5588 10.8006 10.4713 10.9555C10.4631 10.9597 10.459 10.9638 10.4631 10.9679C10.2029 11.3419 9.88646 11.6736 9.5251 11.9511C9.29438 12.1286 9.04945 12.2869 8.7928 12.4243C8.78869 12.4284 8.78458 12.4284 8.78046 12.4325C8.76478 12.4411 8.74823 12.448 8.73109 12.453C8.29944 12.6696 7.83529 12.8141 7.357 12.8809C7.35218 12.8842 7.34635 12.8856 7.34055 12.885V13.8271H8.25386C8.30842 13.8271 8.36074 13.8488 8.39932 13.8874C8.43789 13.926 8.45957 13.9783 8.45957 14.0328V14.8762C8.45957 14.9308 8.43789 14.9831 8.39932 15.0217C8.36074 15.0602 8.30842 15.0819 8.25386 15.0819H7.34055V16.0076C7.3397 16.0619 7.31775 16.1137 7.27936 16.1521C7.24097 16.1905 7.18914 16.2124 7.13485 16.2133H6.29147C6.23691 16.2133 6.18459 16.1916 6.14601 16.153C6.10744 16.1145 6.08576 16.0621 6.08576 16.0076V15.0819H5.17656C5.12201 15.0819 5.06968 15.0602 5.03111 15.0217C4.99253 14.9831 4.97086 14.9308 4.97086 14.8762V14.0328C4.97086 13.9783 4.99253 13.926 5.03111 13.8874C5.06968 13.8488 5.12201 13.8271 5.17656 13.8271H6.08576V12.885C4.9967 12.7382 3.99828 12.2001 3.27683 11.3711C2.55539 10.5422 2.16022 9.47906 2.16508 8.38015C2.16708 7.43701 2.46018 6.51748 3.00435 5.74716C3.42385 5.15377 3.98008 4.67014 4.62599 4.33715C5.27191 4.00417 5.98852 3.83163 6.71521 3.83413C6.94661 3.83477 7.17763 3.85265 7.40637 3.88762C8.09359 3.98952 8.74791 4.24904 9.31816 4.64586C9.88841 5.04268 10.3591 5.56604 10.6935 6.17502V6.17914C10.993 6.71983 11.1778 7.31643 11.2365 7.93172V7.95229C11.2407 8.00166 11.2489 8.05103 11.2489 8.10039C11.0593 8.18514 10.8763 8.28416 10.7017 8.3966C10.4336 8.56015 10.1828 8.75036 9.95296 8.96434C10.0463 8.44204 10.012 7.90491 9.85293 7.39874C9.69388 6.89256 9.41482 6.43234 9.03951 6.05729C8.66421 5.68225 8.20379 5.4035 7.69751 5.24479C7.19122 5.08609 6.65407 5.05214 6.13183 5.14584C5.6096 5.23954 5.11775 5.45811 4.69822 5.78292C4.27868 6.10773 3.94389 6.52916 3.72238 7.01128C3.50087 7.49341 3.3992 8.02194 3.42604 8.55184C3.45288 9.08173 3.60743 9.59729 3.87652 10.0546C4.305 10.7732 4.98775 11.3047 5.78955 11.5438C5.90872 11.5776 6.02956 11.605 6.15159 11.6261C6.72873 11.7271 7.32238 11.6716 7.8708 11.4654C8.41922 11.2592 8.90238 10.9098 9.27003 10.4536C9.27415 10.4495 9.27415 10.4495 9.27415 10.4454C9.31529 10.396 9.35643 10.3425 9.39345 10.2891C9.39757 10.2849 9.39757 10.2808 9.4058 10.2767C9.41444 10.259 9.53251 10.0904 9.54156 10.0628C9.54156 10.0628 9.54403 10.0599 9.54567 10.0587C9.85608 9.60044 10.2479 9.20303 10.7017 8.88618C10.8102 8.80879 10.9228 8.73737 11.0391 8.67225C11.2885 8.52329 11.5533 8.4019 11.829 8.31021C12.5344 8.06825 13.2884 8.00286 14.025 8.11977C14.7615 8.23667 15.4582 8.5323 16.0541 8.9808L16.8892 8.14153H16.0623C16.0078 8.14153 15.9554 8.11986 15.9169 8.08128C15.8783 8.04271 15.8566 7.99039 15.8566 7.93583V7.09245C15.8566 7.0379 15.8783 6.98558 15.9169 6.947C15.9554 6.90842 16.0078 6.88675 16.0623 6.88675H18.827C18.8815 6.88675 18.9338 6.90842 18.9724 6.947C19.011 6.98558 19.0327 7.0379 19.0327 7.09245Z" fill="white"/>
</svg>
