<svg width="31" height="30" viewBox="0 0 31 30" fill="none" xmlns="http://www.w3.org/2000/svg">
<path d="M28.3126 9.79379V13.9938C28.3126 14.0767 28.2796 14.1562 28.221 14.2148C28.1624 14.2734 28.0829 14.3063 28.0001 14.3063H26.7188C26.6359 14.3063 26.5565 14.2734 26.4978 14.2148C26.4392 14.1562 26.4063 14.0767 26.4063 13.9938V12.7375L25.1376 14.0063C26.0425 15.2077 26.5317 16.671 26.5313 18.175C26.5313 18.3875 26.5188 18.6 26.5063 18.8063C26.517 18.8449 26.5212 18.885 26.5188 18.925C26.3896 20.2279 25.8931 21.4673 25.087 22.499C24.281 23.5307 23.1986 24.3123 21.9657 24.753C20.7328 25.1936 19.4002 25.2751 18.1228 24.988C16.8454 24.701 15.6758 24.0571 14.7501 23.1313C13.5953 21.9698 12.8871 20.4384 12.7501 18.8063C12.7438 18.7375 12.7376 18.6688 12.7376 18.6C13.4559 18.2671 14.118 17.8243 14.7001 17.2875C14.6446 17.5801 14.6174 17.8773 14.6188 18.175C14.618 18.9987 14.8204 19.8098 15.2081 20.5365C15.5958 21.2632 16.1568 21.883 16.8414 22.3409C17.526 22.7989 18.313 23.0809 19.1326 23.1619C19.9523 23.2429 20.7792 23.1205 21.5402 22.8054C22.3012 22.4903 22.9727 21.9923 23.4952 21.3556C24.0176 20.7189 24.3749 19.9631 24.5354 19.1553C24.6959 18.3474 24.6545 17.5124 24.415 16.7244C24.1756 15.9363 23.7454 15.2195 23.1626 14.6375C22.811 14.2911 22.4136 13.9945 21.9813 13.7563H21.9751C21.545 13.5265 21.084 13.3602 20.6063 13.2625C20.283 13.1998 19.9544 13.1684 19.6251 13.1688C18.6345 13.172 17.6669 13.4677 16.8438 14.0188C16.5711 14.1985 16.3177 14.4058 16.0876 14.6375C15.9728 14.7502 15.8643 14.8692 15.7626 14.9938C15.5918 15.2034 15.4392 15.4271 15.3063 15.6625C15.2938 15.6688 15.2876 15.675 15.2938 15.6813C14.8984 16.2495 14.4178 16.7534 13.8688 17.175C13.5183 17.4447 13.1462 17.6851 12.7563 17.8938C12.7501 17.9 12.7438 17.9 12.7376 17.9063C12.7137 17.9193 12.6886 17.9298 12.6626 17.9375C12.0068 18.2665 11.3017 18.4861 10.5751 18.5875C10.5677 18.5925 10.5589 18.5947 10.5501 18.5938V20.025H11.9376C12.0204 20.025 12.0999 20.058 12.1585 20.1166C12.2171 20.1752 12.2501 20.2547 12.2501 20.3375V21.6188C12.2501 21.7017 12.2171 21.7812 12.1585 21.8398C12.0999 21.8984 12.0204 21.9313 11.9376 21.9313H10.5501V23.3375C10.5488 23.42 10.5154 23.4988 10.4571 23.5571C10.3988 23.6154 10.32 23.6488 10.2376 23.65H8.95632C8.87344 23.65 8.79395 23.6171 8.73535 23.5585C8.67674 23.4999 8.64382 23.4204 8.64382 23.3375V21.9313H7.26257C7.17969 21.9313 7.1002 21.8984 7.0416 21.8398C6.98299 21.7812 6.95007 21.7017 6.95007 21.6188V20.3375C6.95007 20.2547 6.98299 20.1752 7.0416 20.1166C7.1002 20.058 7.17969 20.025 7.26257 20.025H8.64382V18.5938C6.98932 18.3707 5.47253 17.5532 4.37652 16.2939C3.28052 15.0346 2.68018 13.4195 2.68757 11.75C2.69059 10.3172 3.13587 8.9203 3.96257 7.75004C4.59986 6.84857 5.44488 6.11384 6.42615 5.60797C7.40742 5.1021 8.49609 4.83999 9.60007 4.84379C9.9516 4.84476 10.3026 4.87192 10.6501 4.92504C11.6941 5.07986 12.6881 5.47411 13.5544 6.07695C14.4208 6.6798 15.1359 7.47489 15.6438 8.40004V8.40629C16.0988 9.22771 16.3796 10.134 16.4688 11.0688V11.1C16.4751 11.175 16.4876 11.25 16.4876 11.325C16.1995 11.4538 15.9216 11.6042 15.6563 11.775C15.2491 12.0235 14.868 12.3125 14.5188 12.6375C14.6606 11.8441 14.6085 11.0281 14.3669 10.2591C14.1252 9.49011 13.7013 8.79095 13.1311 8.22119C12.561 7.65142 11.8615 7.22795 11.0924 6.98685C10.3232 6.74575 9.50718 6.69418 8.71381 6.83652C7.92043 6.97887 7.17323 7.31091 6.53587 7.80436C5.89852 8.29781 5.38991 8.93804 5.05339 9.67047C4.71688 10.4029 4.56242 11.2059 4.6032 12.0109C4.64397 12.8159 4.87876 13.5991 5.28757 14.2938C5.9385 15.3856 6.97573 16.193 8.19382 16.5563C8.37485 16.6075 8.55843 16.6492 8.74382 16.6813C9.6206 16.8347 10.5225 16.7504 11.3556 16.4371C12.1888 16.1238 12.9228 15.5931 13.4813 14.9C13.4876 14.8938 13.4876 14.8938 13.4876 14.8875C13.5501 14.8125 13.6126 14.7313 13.6688 14.65C13.6751 14.6438 13.6751 14.6375 13.6876 14.6313C13.7007 14.6044 13.8801 14.3482 13.8938 14.3063C13.8938 14.3063 13.8976 14.3019 13.9001 14.3C14.3716 13.6039 14.9669 13.0001 15.6563 12.5188C15.8211 12.4012 15.9922 12.2927 16.1688 12.1938C16.5477 11.9675 16.9501 11.7831 17.3688 11.6438C18.4405 11.2762 19.586 11.1769 20.705 11.3545C21.8239 11.5321 22.8823 11.9812 23.7876 12.6625L25.0563 11.3875H23.8001C23.7172 11.3875 23.6377 11.3546 23.5791 11.296C23.5205 11.2374 23.4876 11.1579 23.4876 11.075V9.79379C23.4876 9.71091 23.5205 9.63142 23.5791 9.57282C23.6377 9.51421 23.7172 9.48129 23.8001 9.48129H28.0001C28.0829 9.48129 28.1624 9.51421 28.221 9.57282C28.2796 9.63142 28.3126 9.71091 28.3126 9.79379Z" fill="#C0C0C0"/>
</svg>
