<svg width="18" height="15" viewBox="0 0 18 15" fill="none" xmlns="http://www.w3.org/2000/svg">
<path d="M17.0331 4.14604V6.91068C17.0331 6.96523 17.0115 7.01755 16.9729 7.05613C16.9343 7.09471 16.882 7.11638 16.8274 7.11638H15.9841C15.9295 7.11638 15.8772 7.09471 15.8386 7.05613C15.8 7.01755 15.7784 6.96523 15.7784 6.91068V6.08376L14.9432 6.91891C15.5389 7.70971 15.8609 8.67293 15.8606 9.66297C15.8606 9.80285 15.8524 9.94273 15.8442 10.0785C15.8512 10.1039 15.854 10.1303 15.8524 10.1567C15.7673 11.0143 15.4405 11.8301 14.9099 12.5092C14.3794 13.1883 13.6669 13.7028 12.8553 13.9929C12.0438 14.2829 11.1666 14.3366 10.3258 14.1476C9.48495 13.9586 8.71506 13.5348 8.10567 12.9254C7.34557 12.1609 6.87941 11.1528 6.78918 10.0785C6.78506 10.0332 6.78095 9.98798 6.78095 9.94273C7.2538 9.72356 7.68962 9.43208 8.07276 9.07878C8.03624 9.27134 8.01833 9.46698 8.01928 9.66297C8.01875 10.2051 8.15199 10.739 8.40719 11.2174C8.66239 11.6957 9.03167 12.1037 9.48229 12.4052C9.9329 12.7066 10.4509 12.8922 10.9905 12.9456C11.53 12.9989 12.0743 12.9183 12.5753 12.7109C13.0762 12.5035 13.5182 12.1757 13.8621 11.7566C14.206 11.3375 14.4412 10.84 14.5468 10.3082C14.6525 9.77643 14.6252 9.22682 14.4676 8.70809C14.31 8.18935 14.0268 7.71752 13.6432 7.33442C13.4118 7.10636 13.1501 6.91117 12.8656 6.75434H12.8615C12.5784 6.6031 12.275 6.49363 11.9605 6.42933C11.7477 6.38804 11.5314 6.36737 11.3146 6.36762C10.6626 6.36972 10.0257 6.56437 9.48387 6.92713C9.30436 7.0454 9.13754 7.18188 8.98608 7.33442C8.91053 7.40861 8.83911 7.4869 8.77215 7.56892C8.65974 7.70688 8.55927 7.85415 8.47182 8.00913C8.46359 8.01324 8.45948 8.01736 8.46359 8.02147C8.20334 8.3955 7.88695 8.72715 7.52559 9.00472C7.29487 9.18223 7.04994 9.34046 6.79329 9.47784C6.78918 9.48195 6.78506 9.48195 6.78095 9.48607C6.76527 9.49466 6.74872 9.50155 6.73158 9.50664C6.29993 9.72319 5.83578 9.86771 5.35749 9.9345C5.35266 9.93777 5.34683 9.93923 5.34104 9.93861V10.8807H6.25435C6.30891 10.8807 6.36123 10.9024 6.39981 10.941C6.43838 10.9796 6.46005 11.0319 6.46005 11.0864V11.9298C6.46005 11.9844 6.43838 12.0367 6.39981 12.0753C6.36123 12.1138 6.30891 12.1355 6.25435 12.1355H5.34104V13.0612C5.34019 13.1155 5.31824 13.1673 5.27985 13.2057C5.24145 13.2441 5.18962 13.266 5.13533 13.2669H4.29196C4.2374 13.2669 4.18508 13.2452 4.1465 13.2066C4.10793 13.168 4.08625 13.1157 4.08625 13.0612V12.1355H3.17705C3.12249 12.1355 3.07017 12.1138 3.0316 12.0753C2.99302 12.0367 2.97135 11.9844 2.97135 11.9298V11.0864C2.97135 11.0319 2.99302 10.9796 3.0316 10.941C3.07017 10.9024 3.12249 10.8807 3.17705 10.8807H4.08625V9.93861C2.99719 9.79177 1.99877 9.25366 1.27732 8.42472C0.555879 7.59578 0.160711 6.53265 0.165572 5.43374C0.167563 4.4906 0.460663 3.57107 1.00484 2.80075C1.42433 2.20736 1.98056 1.72372 2.62648 1.39074C3.2724 1.05776 3.98901 0.885219 4.7157 0.887722C4.9471 0.888362 5.17812 0.906239 5.40686 0.941205C6.09408 1.04311 6.7484 1.30263 7.31865 1.69945C7.8889 2.09627 8.35962 2.61963 8.69398 3.22861V3.23273C8.99345 3.77342 9.17831 4.37001 9.23703 4.98531V5.00588C9.24115 5.05525 9.24937 5.10461 9.24937 5.15398C9.05975 5.23873 8.87683 5.33775 8.70221 5.45019C8.43414 5.61374 8.18328 5.80395 7.95345 6.01793C8.04679 5.49563 8.01247 4.9585 7.85342 4.45233C7.69437 3.94615 7.4153 3.48593 7.04 3.11088C6.6647 2.73584 6.20428 2.45708 5.698 2.29838C5.19171 2.13968 4.65456 2.10573 4.13232 2.19943C3.61008 2.29313 3.11824 2.5117 2.69871 2.83651C2.27917 3.16132 1.94438 3.58274 1.72287 4.06487C1.50136 4.54699 1.39969 5.07553 1.42653 5.60542C1.45337 6.13532 1.60792 6.65088 1.87701 7.10815C2.30548 7.82681 2.98824 8.35833 3.79004 8.59743C3.9092 8.63116 4.03005 8.65862 4.15208 8.67972C4.72922 8.78068 5.32287 8.72518 5.87129 8.51898C6.41971 8.31278 6.90287 7.96341 7.27052 7.50721C7.27463 7.5031 7.27463 7.5031 7.27463 7.49899C7.31578 7.44962 7.35692 7.39614 7.39394 7.34265C7.39806 7.33854 7.39806 7.33442 7.40628 7.33031C7.41492 7.31262 7.533 7.14394 7.54205 7.11638C7.54205 7.11638 7.54452 7.1135 7.54616 7.11227C7.85657 6.65403 8.2484 6.25662 8.70221 5.93976C8.81069 5.86238 8.9233 5.79096 9.03956 5.72583C9.28895 5.57688 9.55381 5.45549 9.82945 5.3638C10.5349 5.12184 11.2889 5.05645 12.0255 5.17335C12.762 5.29026 13.4587 5.58589 14.0546 6.03439L14.8897 5.19512H14.0628C14.0082 5.19512 13.9559 5.17345 13.9173 5.13487C13.8788 5.0963 13.8571 5.04398 13.8571 4.98942V4.14604C13.8571 4.09149 13.8788 4.03917 13.9173 4.00059C13.9559 3.96201 14.0082 3.94034 14.0628 3.94034H16.8274C16.882 3.94034 16.9343 3.96201 16.9729 4.00059C17.0115 4.03917 17.0331 4.09149 17.0331 4.14604Z" fill="#232323"/>
</svg>
