<svg width="21" height="21" viewBox="0 0 21 21" fill="none" xmlns="http://www.w3.org/2000/svg">
<path d="M7.5248 19.6477V16.4531C7.52479 15.6435 8.18307 14.9858 8.99845 14.9807H11.9924C12.8114 14.9807 13.4754 15.6399 13.4754 16.4531V19.6384C13.4753 20.3406 14.0459 20.9112 14.7531 20.9163H16.7957C17.7497 20.9188 18.6654 20.5443 19.3409 19.8754C20.0163 19.2066 20.3959 18.2984 20.3959 17.3513V8.2766C20.3959 7.51154 20.0543 6.78583 19.4632 6.29499L12.524 0.785371C11.311 -0.178323 9.5786 -0.147192 8.40153 0.85945L1.61155 6.29499C0.99252 6.77136 0.622532 7.49922 0.604248 8.2766V17.342C0.604248 19.316 2.2161 20.9163 4.20443 20.9163H6.20038C6.54089 20.9188 6.8683 20.7862 7.10995 20.548C7.3516 20.3099 7.4875 19.9858 7.4875 19.6477H7.5248Z" fill="#DDDDDD"/>
</svg>
