<svg width="100" height="100" viewBox="0 0 100 100" fill="none" xmlns="http://www.w3.org/2000/svg">
<path fill-rule="evenodd" clip-rule="evenodd" d="M46.6018 59.7249L39.2767 72.4118C39.1919 72.5583 39.0635 72.6747 38.9095 72.7449C38.7555 72.8152 38.5835 72.8357 38.4172 72.8038C38.251 72.7719 38.0988 72.689 37.9818 72.5667C37.8648 72.4444 37.7888 72.2887 37.7642 72.1212V72.1212L36.892 66.183L31.3137 68.3952C31.1551 68.4582 30.9807 68.4698 30.8152 68.4283C30.6497 68.3868 30.5014 68.2943 30.3913 68.1639C30.2812 68.0335 30.2148 67.8718 30.2017 67.7017C30.1885 67.5315 30.2291 67.3615 30.3178 67.2157L37.5846 54.6248C37.6471 54.5164 37.7337 54.4238 37.8377 54.3542C37.9417 54.2847 38.0604 54.24 38.1845 54.2237C38.3086 54.2074 38.4347 54.2199 38.5532 54.2603C38.6716 54.3006 38.7792 54.3677 38.8676 54.4563V54.4563C39.8552 55.454 40.978 56.3081 42.203 56.9937C43.4208 57.6763 44.7288 58.1835 46.0884 58.5003C46.2147 58.5294 46.3324 58.5882 46.4315 58.6718C46.5306 58.7554 46.6084 58.8614 46.6584 58.9811C46.7084 59.1007 46.7292 59.2306 46.7191 59.3598C46.709 59.4891 46.6682 59.6141 46.6002 59.7245M61.3816 54.6982L68.6714 67.3248C68.7555 67.4712 68.792 67.6402 68.7758 67.8082C68.7596 67.9763 68.6915 68.1352 68.581 68.2629C68.4705 68.3906 68.323 68.4807 68.159 68.5208C67.995 68.5609 67.8225 68.5491 67.6656 68.4868V68.4868L62.0873 66.2745L61.2151 72.2128C61.19 72.384 61.1112 72.5429 60.9899 72.6664C60.8687 72.79 60.7114 72.8718 60.5406 72.9001C60.3699 72.9285 60.1945 72.9018 60.0399 72.824C59.8853 72.7462 59.7594 72.6213 59.6804 72.4673L52.3153 59.715C52.2513 59.6045 52.2143 59.4804 52.207 59.3529C52.1997 59.2254 52.2225 59.098 52.2734 58.9809C52.3244 58.8638 52.4021 58.7603 52.5003 58.6786C52.5985 58.597 52.7145 58.5396 52.839 58.511C54.2007 58.1991 55.5114 57.6963 56.7323 57.0175C57.9588 56.3352 59.0835 55.484 60.0733 54.4888C60.1644 54.3969 60.2761 54.3279 60.3992 54.2877C60.5222 54.2475 60.6531 54.2371 60.7809 54.2575C60.9088 54.2779 61.0299 54.3284 61.1344 54.4049C61.2388 54.4814 61.3236 54.5816 61.3816 54.6974V54.6982Z" fill="#00A9B8"/>
<path fill-rule="evenodd" clip-rule="evenodd" d="M49.4871 28.4531C52.6027 28.4531 55.6483 29.377 58.2389 31.1079C60.8294 32.8389 62.8484 35.2991 64.0407 38.1775C65.233 41.056 65.545 44.2233 64.9372 47.2791C64.3293 50.3348 62.829 53.1417 60.626 55.3447C58.4229 57.5478 55.616 59.0481 52.5603 59.6559C49.5046 60.2637 46.3372 59.9518 43.4588 58.7595C40.5804 57.5672 38.1201 55.5481 36.3892 52.9576C34.6583 50.3671 33.7344 47.3215 33.7344 44.2059C33.7343 42.1372 34.1417 40.0887 34.9334 38.1775C35.725 36.2663 36.8853 34.5297 38.3481 33.0669C39.8109 31.6041 41.5475 30.4438 43.4587 29.6521C45.37 28.8605 47.4184 28.4531 49.4871 28.4531" fill="#53C5E0"/>
<path d="M57.4852 36.2082C55.635 34.3579 53.2004 33.2063 50.5963 32.9497C47.9921 32.6932 45.3796 33.3475 43.2039 34.8013C41.0281 36.255 39.4237 38.4182 38.6641 40.9223C37.9045 43.4263 38.0366 46.1163 39.038 48.5338C40.0393 50.9514 41.848 52.9469 44.1557 54.1804C46.4635 55.414 49.1276 55.8091 51.694 55.2986C54.2605 54.7881 56.5705 53.4034 58.2305 51.3807C59.8905 49.3579 60.7978 46.8221 60.7977 44.2053C60.7996 42.7199 60.5079 41.2486 59.9395 39.8762C59.371 38.5038 58.537 37.2573 57.4852 36.2082M49.4878 31.2608C52.4827 31.2607 55.3849 32.2991 57.7 34.199C60.0152 36.0989 61.5999 38.7428 62.1842 41.6802C62.7685 44.6175 62.3162 47.6666 60.9044 50.3079C59.4927 52.9492 57.2087 55.0192 54.4418 56.1653C51.6749 57.3114 48.5962 57.4627 45.7302 56.5933C42.8643 55.7239 40.3884 53.8877 38.7246 51.3975C37.0607 48.9073 36.3118 45.9173 36.6053 42.9368C36.8989 39.9563 38.2168 37.1698 40.3346 35.0521C41.5353 33.8484 42.962 32.8937 44.5328 32.2431C46.1036 31.5924 47.7875 31.2586 49.4878 31.2608V31.2608Z" fill="#00A9B8"/>
<path d="M50.4732 37.6587L51.6832 41.4069L55.6316 41.3994C55.8488 41.4002 56.0601 41.4696 56.2355 41.5976C56.4109 41.7257 56.5414 41.9058 56.6083 42.1124C56.6752 42.319 56.6752 42.5414 56.6083 42.748C56.5413 42.9546 56.4108 43.1347 56.2354 43.2628V43.2648L53.038 45.5785L54.267 49.3303C54.3369 49.5439 54.335 49.7745 54.2616 49.987C54.1883 50.1995 54.0475 50.3822 53.8607 50.5072C53.6739 50.6323 53.4514 50.6928 53.227 50.6797C53.0026 50.6666 52.7886 50.5804 52.6177 50.4344L49.4888 48.1524L46.2985 50.4796C46.1228 50.6076 45.911 50.6767 45.6937 50.6769C45.4763 50.677 45.2645 50.6083 45.0886 50.4806C44.9127 50.3529 44.7818 50.1727 44.7147 49.966C44.6475 49.7592 44.6476 49.5365 44.715 49.3299H44.7122L45.9412 45.5781L42.7434 43.264C42.5615 43.1325 42.4274 42.9452 42.3617 42.7306C42.2959 42.516 42.3019 42.2858 42.3789 42.075C42.4559 41.8642 42.5996 41.6842 42.7882 41.5625C42.9767 41.4408 43.1999 41.3839 43.4237 41.4006L47.2971 41.4081L48.5091 37.6528C48.5764 37.4449 48.7081 37.2638 48.885 37.1356C49.062 37.0073 49.2751 36.9387 49.4936 36.9395C49.7121 36.9403 49.9247 37.0105 50.1007 37.14C50.2767 37.2695 50.407 37.4516 50.4728 37.6599" fill="#00A9B8"/>
<g clip-path="url(#clip0_1885_11026)">
<path d="M75.7588 30.5308L71.9847 29.1338L70.5754 24.515C70.5488 24.4282 70.495 24.3523 70.4221 24.2984C70.3491 24.2444 70.2607 24.2153 70.17 24.2153C70.0792 24.2153 69.9909 24.2444 69.9179 24.2984C69.8449 24.3523 69.7912 24.4282 69.7645 24.515L68.3557 29.1338L64.5812 30.5308C64.5 30.561 64.43 30.6152 64.3806 30.6863C64.3312 30.7573 64.3047 30.8418 64.3047 30.9284C64.3047 31.015 64.3312 31.0995 64.3806 31.1706C64.43 31.2416 64.5 31.2959 64.5812 31.326L68.354 32.7226L69.7633 37.4822C69.7892 37.57 69.8428 37.647 69.9161 37.7018C69.9894 37.7565 70.0785 37.7861 70.17 37.7861C70.2615 37.7861 70.3505 37.7565 70.4238 37.7018C70.4971 37.647 70.5508 37.57 70.5767 37.4822L71.9864 32.7226L75.7592 31.326C75.8407 31.2962 75.9111 31.2421 75.9608 31.1709C76.0105 31.0998 76.0371 31.0151 76.0371 30.9283C76.037 30.8415 76.0103 30.7568 75.9605 30.6857C75.9107 30.6146 75.8403 30.5605 75.7588 30.5308" fill="#FFBB0C"/>
<path d="M67.2773 35.1969L66.2964 34.8339L65.9147 33.4344C65.8903 33.3445 65.837 33.2652 65.763 33.2087C65.689 33.1521 65.5985 33.1215 65.5054 33.1215C65.4123 33.1215 65.3218 33.1521 65.2479 33.2087C65.1739 33.2652 65.1206 33.3445 65.0962 33.4344L64.7145 34.8339L63.7335 35.1969C63.6524 35.227 63.5824 35.2813 63.533 35.3524C63.4835 35.4234 63.457 35.5079 63.457 35.5945C63.457 35.6811 63.4835 35.7656 63.533 35.8367C63.5824 35.9077 63.6524 35.962 63.7335 35.9921L64.7094 36.3539L65.0941 37.8899C65.117 37.9816 65.17 38.063 65.2445 38.1212C65.3191 38.1794 65.4109 38.2109 65.5054 38.2109C65.6 38.2109 65.6918 38.1794 65.7663 38.1212C65.8409 38.063 65.8938 37.9816 65.9168 37.8899L66.3015 36.3539L67.2773 35.9921C67.3585 35.962 67.4285 35.9077 67.4779 35.8367C67.5273 35.7656 67.5538 35.6811 67.5538 35.5945C67.5538 35.5079 67.5273 35.4234 67.4779 35.3524C67.4285 35.2813 67.3585 35.227 67.2773 35.1969" fill="#FFBB0C"/>
<path d="M65.438 26.0094L64.4351 25.6384L64.064 24.6354C64.0339 24.5541 63.9797 24.4839 63.9086 24.4344C63.8374 24.3848 63.7528 24.3583 63.6662 24.3583C63.5795 24.3583 63.4949 24.3848 63.4238 24.4344C63.3526 24.4839 63.2984 24.5541 63.2684 24.6354L62.8968 25.6384L61.8943 26.0094C61.813 26.0395 61.7428 26.0937 61.6933 26.1649C61.6437 26.236 61.6172 26.3206 61.6172 26.4073C61.6172 26.4939 61.6437 26.5785 61.6933 26.6496C61.7428 26.7208 61.813 26.775 61.8943 26.8051L62.8968 27.1761L63.2684 28.1791C63.2982 28.2606 63.3524 28.331 63.4235 28.3807C63.4947 28.4304 63.5794 28.457 63.6662 28.457C63.753 28.457 63.8376 28.4304 63.9088 28.3807C63.9799 28.331 64.0341 28.2606 64.064 28.1791L64.4351 27.1761L65.438 26.8051C65.5194 26.775 65.5895 26.7208 65.639 26.6496C65.6886 26.5785 65.7151 26.4939 65.7151 26.4073C65.7151 26.3206 65.6886 26.236 65.639 26.1649C65.5895 26.0937 65.5194 26.0395 65.438 26.0094" fill="#FFBB0C"/>
</g>
<rect x="7.5" y="6.5" width="86" height="86" rx="9.5" stroke="#EBEAEA"/>
<defs>
<clipPath id="clip0_1885_11026">
<rect width="16.1158" height="16.1158" fill="white" transform="translate(60.7695 22.9434)"/>
</clipPath>
</defs>
</svg>
