<svg width="30" height="30" viewBox="0 0 30 30" fill="none" xmlns="http://www.w3.org/2000/svg">
<path d="M2.8125 20.625V8.4375C2.31522 8.4375 1.83831 8.63504 1.48667 8.98668C1.13504 9.33831 0.9375 9.81522 0.9375 10.3125V23.4375C0.9375 23.9348 1.13504 24.4117 1.48667 24.7633C1.83831 25.115 2.31522 25.3125 2.8125 25.3125H11.6062C9.85018 24.0925 7.76324 23.4383 5.625 23.4375C4.87908 23.4375 4.16371 23.1412 3.63626 22.6137C3.10882 22.0863 2.8125 21.3709 2.8125 20.625ZM27.1875 8.4375V20.625C27.1875 21.3709 26.8912 22.0863 26.3637 22.6137C25.8363 23.1412 25.1209 23.4375 24.375 23.4375C22.2368 23.4383 20.1498 24.0925 18.3938 25.3125H27.1875C27.6848 25.3125 28.1617 25.115 28.5133 24.7633C28.865 24.4117 29.0625 23.9348 29.0625 23.4375V10.3125C29.0625 9.81522 28.865 9.33831 28.5133 8.98668C28.1617 8.63504 27.6848 8.4375 27.1875 8.4375Z" fill="#232323"/>
<path d="M5.625 4.6875C5.37636 4.6875 5.1379 4.78627 4.96209 4.96209C4.78627 5.1379 4.6875 5.37636 4.6875 5.625V20.625C4.6875 20.8736 4.78627 21.1121 4.96209 21.2879C5.1379 21.4637 5.37636 21.5625 5.625 21.5625C8.4454 21.5654 11.1816 22.5238 13.3875 24.2812L14.0625 24.825V4.85625C13.7619 4.7471 13.4448 4.69004 13.125 4.6875H5.625ZM25.3125 20.625V5.625C25.3125 5.37636 25.2137 5.1379 25.0379 4.96209C24.8621 4.78627 24.6236 4.6875 24.375 4.6875H16.875C16.5552 4.69004 16.2381 4.7471 15.9375 4.85625V24.825L16.6125 24.2812C18.8184 22.5238 21.5546 21.5654 24.375 21.5625C24.6236 21.5625 24.8621 21.4637 25.0379 21.2879C25.2137 21.1121 25.3125 20.8736 25.3125 20.625Z" fill="#232323"/>
</svg>
