<svg width="30" height="30" viewBox="0 0 30 30" fill="none" xmlns="http://www.w3.org/2000/svg">
<path d="M15.375 16.5C17.1013 16.5 18.6638 15.8 19.795 14.6687C20.925 13.5387 21.625 11.9763 21.625 10.25C21.625 8.52375 20.925 6.96125 19.795 5.83125C18.6638 4.7 17.1013 4 15.375 4C13.6487 4 12.0862 4.7 10.955 5.83125C9.825 6.96125 9.125 8.52375 9.125 10.25C9.125 11.9763 9.825 13.5387 10.955 14.6687C11.5348 15.2501 12.2237 15.7112 12.9822 16.0255C13.7408 16.3398 14.5539 16.501 15.375 16.5ZM25.375 17.75C25.7856 17.7508 26.1923 17.6706 26.5719 17.5138C26.9514 17.357 27.2962 17.1269 27.5865 16.8365C27.8769 16.5462 28.107 16.2014 28.2638 15.8219C28.4206 15.4423 28.5008 15.0356 28.5 14.625C28.5 13.7625 28.1512 12.9813 27.585 12.415C27.2951 12.1244 26.9506 11.8939 26.5713 11.7369C26.1921 11.5799 25.7855 11.4994 25.375 11.5C24.9644 11.4992 24.5577 11.5794 24.1781 11.7362C23.7986 11.893 23.4538 12.1231 23.1635 12.4135C22.8731 12.7038 22.643 13.0486 22.4862 13.4281C22.3294 13.8077 22.2492 14.2144 22.25 14.625C22.2493 15.0356 22.3297 15.4422 22.4865 15.8217C22.6433 16.2011 22.8735 16.5459 23.1638 16.8362C23.4541 17.1265 23.7989 17.3567 24.1783 17.5135C24.5578 17.6703 24.9644 17.7507 25.375 17.75ZM25.375 18.4875C23.7113 18.4875 22.46 18.995 21.7288 19.6975C20.335 18.5513 18.1312 17.75 15.375 17.75C12.5425 17.75 10.3813 18.56 9.01 19.705C8.265 18.9987 7 18.4875 5.375 18.4875C2.64 18.4875 1 19.85 1 21.215C1 21.8963 2.64 22.58 5.375 22.58C6.13 22.58 6.8075 22.5163 7.40375 22.4138L7.35375 22.7512C7.35375 24.0012 10.3612 25.2512 15.375 25.2512C20.0775 25.2512 23.3962 24.0012 23.3962 22.7512L23.3713 22.4325C23.95 22.5238 24.615 22.58 25.375 22.58C27.9388 22.58 29.75 21.8963 29.75 21.215C29.75 19.85 28.0338 18.4875 25.375 18.4875ZM5.375 17.75C6.2375 17.75 7.01875 17.4012 7.585 16.835C7.87561 16.5451 8.10605 16.2006 8.26308 15.8213C8.42011 15.4421 8.50062 15.0355 8.5 14.625C8.50082 14.2144 8.42056 13.8077 8.2638 13.4281C8.10705 13.0486 7.87689 12.7038 7.58655 12.4135C7.2962 12.1231 6.95137 11.893 6.57186 11.7362C6.19235 11.5794 5.78561 11.4992 5.375 11.5C4.96443 11.4993 4.55778 11.5797 4.17834 11.7365C3.7989 11.8933 3.45414 12.1235 3.16382 12.4138C2.87351 12.7041 2.64335 13.0489 2.48654 13.4283C2.32972 13.8078 2.24934 14.2144 2.25 14.625C2.24918 15.0356 2.32944 15.4423 2.4862 15.8219C2.64295 16.2014 2.87311 16.5462 3.16345 16.8365C3.4538 17.1269 3.79863 17.357 4.17814 17.5138C4.55765 17.6706 4.96439 17.7508 5.375 17.75Z" fill="white"/>
</svg>
