<svg width="100" height="160" viewBox="0 0 140 200" fill="none" xmlns="http://www.w3.org/2000/svg">
<path d="M15.6602 144.076C16.5722 144.22 17.4002 144.592 18.1442 145.192C18.9122 145.792 19.5122 146.536 19.9442 147.424C20.4002 148.312 20.6282 149.26 20.6282 150.268C20.6282 151.54 20.3042 152.692 19.6562 153.724C19.0082 154.732 18.0602 155.536 16.8122 156.136C15.5882 156.712 14.1362 157 12.4562 157H3.09622V131.908H12.0962C13.8002 131.908 15.2522 132.196 16.4522 132.772C17.6522 133.324 18.5522 134.08 19.1522 135.04C19.7522 136 20.0522 137.08 20.0522 138.28C20.0522 139.768 19.6442 141.004 18.8282 141.988C18.0362 142.948 16.9802 143.644 15.6602 144.076ZM6.37222 142.744H11.8802C13.4162 142.744 14.6042 142.384 15.4442 141.664C16.2842 140.944 16.7042 139.948 16.7042 138.676C16.7042 137.404 16.2842 136.408 15.4442 135.688C14.6042 134.968 13.3922 134.608 11.8082 134.608H6.37222V142.744ZM12.1682 154.3C13.8002 154.3 15.0722 153.916 15.9842 153.148C16.8962 152.38 17.3522 151.312 17.3522 149.944C17.3522 148.552 16.8722 147.46 15.9122 146.668C14.9522 145.852 13.6682 145.444 12.0602 145.444H6.37222V154.3H12.1682ZM43.1743 146.38C43.1743 147.004 43.1383 147.664 43.0663 148.36H27.2983C27.4183 150.304 28.0783 151.828 29.2783 152.932C30.5023 154.012 31.9783 154.552 33.7063 154.552C35.1223 154.552 36.2983 154.228 37.2343 153.58C38.1943 152.908 38.8663 152.02 39.2503 150.916H42.7783C42.2503 152.812 41.1943 154.36 39.6103 155.56C38.0263 156.736 36.0583 157.324 33.7063 157.324C31.8343 157.324 30.1543 156.904 28.6663 156.064C27.2023 155.224 26.0503 154.036 25.2103 152.5C24.3703 150.94 23.9503 149.14 23.9503 147.1C23.9503 145.06 24.3583 143.272 25.1743 141.736C25.9903 140.2 27.1303 139.024 28.5943 138.208C30.0823 137.368 31.7863 136.948 33.7063 136.948C35.5783 136.948 37.2343 137.356 38.6743 138.172C40.1143 138.988 41.2183 140.116 41.9863 141.556C42.7783 142.972 43.1743 144.58 43.1743 146.38ZM39.7903 145.696C39.7903 144.448 39.5143 143.38 38.9623 142.492C38.4103 141.58 37.6543 140.896 36.6943 140.44C35.7583 139.96 34.7143 139.72 33.5623 139.72C31.9063 139.72 30.4903 140.248 29.3143 141.304C28.1623 142.36 27.5023 143.824 27.3343 145.696H39.7903ZM50.7746 140.476C51.3506 139.348 52.1666 138.472 53.2226 137.848C54.3026 137.224 55.6106 136.912 57.1466 136.912V140.296H56.2826C52.6106 140.296 50.7746 142.288 50.7746 146.272V157H47.4986V137.272H50.7746V140.476ZM64.2043 140.944C64.8763 139.768 65.8603 138.808 67.1562 138.064C68.4523 137.32 69.9283 136.948 71.5843 136.948C73.3603 136.948 74.9563 137.368 76.3723 138.208C77.7883 139.048 78.9043 140.236 79.7203 141.772C80.5363 143.284 80.9443 145.048 80.9443 147.064C80.9443 149.056 80.5363 150.832 79.7203 152.392C78.9043 153.952 77.7762 155.164 76.3362 156.028C74.9203 156.892 73.3363 157.324 71.5843 157.324C69.8803 157.324 68.3803 156.952 67.0843 156.208C65.8123 155.464 64.8523 154.516 64.2043 153.364V157H60.9283V130.36H64.2043V140.944ZM77.5963 147.064C77.5963 145.576 77.2963 144.28 76.6963 143.176C76.0963 142.072 75.2803 141.232 74.2483 140.656C73.2403 140.08 72.1243 139.792 70.9003 139.792C69.7003 139.792 68.5843 140.092 67.5523 140.692C66.5443 141.268 65.7283 142.12 65.1043 143.248C64.5043 144.352 64.2043 145.636 64.2043 147.1C64.2043 148.588 64.5043 149.896 65.1043 151.024C65.7283 152.128 66.5443 152.98 67.5523 153.58C68.5843 154.156 69.7003 154.444 70.9003 154.444C72.1243 154.444 73.2403 154.156 74.2483 153.58C75.2803 152.98 76.0963 152.128 76.6963 151.024C77.2963 149.896 77.5963 148.576 77.5963 147.064ZM84.0324 147.064C84.0324 145.048 84.4404 143.284 85.2564 141.772C86.0724 140.236 87.1884 139.048 88.6044 138.208C90.0444 137.368 91.6404 136.948 93.3924 136.948C95.1204 136.948 96.6204 137.32 97.8924 138.064C99.1644 138.808 100.112 139.744 100.736 140.872V137.272H104.048V157H100.736V153.328C100.088 154.48 99.1164 155.44 97.8204 156.208C96.5484 156.952 95.0604 157.324 93.3564 157.324C91.6044 157.324 90.0204 156.892 88.6044 156.028C87.1884 155.164 86.0724 153.952 85.2564 152.392C84.4404 150.832 84.0324 149.056 84.0324 147.064ZM100.736 147.1C100.736 145.612 100.436 144.316 99.8364 143.212C99.2364 142.108 98.4204 141.268 97.3884 140.692C96.3804 140.092 95.2644 139.792 94.0404 139.792C92.8164 139.792 91.7004 140.08 90.6924 140.656C89.6844 141.232 88.8804 142.072 88.2804 143.176C87.6804 144.28 87.3804 145.576 87.3804 147.064C87.3804 148.576 87.6804 149.896 88.2804 151.024C88.8804 152.128 89.6844 152.98 90.6924 153.58C91.7004 154.156 92.8164 154.444 94.0404 154.444C95.2644 154.444 96.3804 154.156 97.3884 153.58C98.4204 152.98 99.2364 152.128 99.8364 151.024C100.436 149.896 100.736 148.588 100.736 147.1ZM117.721 136.948C119.425 136.948 120.913 137.32 122.185 138.064C123.481 138.808 124.441 139.744 125.065 140.872V137.272H128.377V157.432C128.377 159.232 127.993 160.828 127.225 162.22C126.457 163.636 125.353 164.74 123.913 165.532C122.497 166.324 120.841 166.72 118.945 166.72C116.353 166.72 114.193 166.108 112.465 164.884C110.737 163.66 109.717 161.992 109.405 159.88H112.645C113.005 161.08 113.749 162.04 114.877 162.76C116.005 163.504 117.361 163.876 118.945 163.876C120.745 163.876 122.209 163.312 123.337 162.184C124.489 161.056 125.065 159.472 125.065 157.432V153.292C124.417 154.444 123.457 155.404 122.185 156.172C120.913 156.94 119.425 157.324 117.721 157.324C115.969 157.324 114.373 156.892 112.933 156.028C111.517 155.164 110.401 153.952 109.585 152.392C108.769 150.832 108.361 149.056 108.361 147.064C108.361 145.048 108.769 143.284 109.585 141.772C110.401 140.236 111.517 139.048 112.933 138.208C114.373 137.368 115.969 136.948 117.721 136.948ZM125.065 147.1C125.065 145.612 124.765 144.316 124.165 143.212C123.565 142.108 122.749 141.268 121.717 140.692C120.709 140.092 119.593 139.792 118.369 139.792C117.145 139.792 116.029 140.08 115.021 140.656C114.013 141.232 113.209 142.072 112.609 143.176C112.009 144.28 111.709 145.576 111.709 147.064C111.709 148.576 112.009 149.896 112.609 151.024C113.209 152.128 114.013 152.98 115.021 153.58C116.029 154.156 117.145 154.444 118.369 154.444C119.593 154.444 120.709 154.156 121.717 153.58C122.749 152.98 123.565 152.128 124.165 151.024C124.765 149.896 125.065 148.588 125.065 147.1ZM135.605 134.068C134.981 134.068 134.453 133.852 134.021 133.42C133.589 132.988 133.373 132.46 133.373 131.836C133.373 131.212 133.589 130.684 134.021 130.252C134.453 129.82 134.981 129.604 135.605 129.604C136.205 129.604 136.709 129.82 137.117 130.252C137.549 130.684 137.765 131.212 137.765 131.836C137.765 132.46 137.549 132.988 137.117 133.42C136.709 133.852 136.205 134.068 135.605 134.068ZM137.189 137.272V157H133.913V137.272H137.189Z" fill="white"/>
<path d="M16.6485 178.937C16.6485 179.888 16.4304 180.76 15.9941 181.555C15.5578 182.334 14.8878 182.965 13.9841 183.448C13.0804 183.931 11.9586 184.172 10.6186 184.172H8.14122V190.062H4.14466V173.655H10.6186C11.9274 173.655 13.0337 173.881 13.9374 174.333C14.8411 174.785 15.5189 175.408 15.9707 176.203C16.4226 176.997 16.6485 177.909 16.6485 178.937ZM10.3148 180.994C11.0783 180.994 11.647 180.815 12.0209 180.456C12.3949 180.098 12.5818 179.591 12.5818 178.937C12.5818 178.283 12.3949 177.776 12.0209 177.418C11.647 177.06 11.0783 176.88 10.3148 176.88H8.14122V180.994H10.3148ZM31.0226 183.331C31.0226 183.705 30.9993 184.094 30.9525 184.5H21.9077C21.97 185.31 22.2271 185.933 22.679 186.369C23.1464 186.79 23.7151 187 24.3851 187C25.3823 187 26.0756 186.58 26.4652 185.738H30.7188C30.5007 186.595 30.1034 187.366 29.5269 188.052C28.9659 188.738 28.257 189.275 27.4 189.665C26.5431 190.054 25.5848 190.249 24.5253 190.249C23.2477 190.249 22.1102 189.976 21.113 189.431C20.1159 188.886 19.3368 188.107 18.7759 187.094C18.215 186.081 17.9345 184.897 17.9345 183.541C17.9345 182.186 18.2072 181.002 18.7525 179.989C19.3134 178.976 20.0925 178.197 21.0897 177.652C22.0869 177.106 23.2321 176.834 24.5253 176.834C25.7874 176.834 26.9092 177.099 27.8908 177.628C28.8724 178.158 29.6359 178.914 30.1813 179.895C30.7422 180.877 31.0226 182.022 31.0226 183.331ZM26.9326 182.279C26.9326 181.594 26.6989 181.048 26.2314 180.643C25.764 180.238 25.1797 180.036 24.4786 180.036C23.8086 180.036 23.2399 180.23 22.7724 180.62C22.3206 181.009 22.0401 181.563 21.9311 182.279H26.9326ZM41.0774 176.88C42.6043 176.88 43.8197 177.379 44.7234 178.376C45.6427 179.358 46.1023 180.713 46.1023 182.443V190.062H42.1291V182.98C42.1291 182.108 41.9032 181.43 41.4513 180.947C40.9995 180.464 40.3918 180.223 39.6284 180.223C38.8649 180.223 38.2572 180.464 37.8054 180.947C37.3535 181.43 37.1276 182.108 37.1276 182.98V190.062H33.131V177.021H37.1276V178.75C37.5327 178.174 38.078 177.722 38.7636 177.395C39.4492 177.052 40.2204 176.88 41.0774 176.88ZM48.0849 183.518C48.0849 182.178 48.3342 181.002 48.8328 179.989C49.347 178.976 50.0403 178.197 50.9129 177.652C51.7854 177.106 52.7592 176.834 53.8343 176.834C54.6913 176.834 55.4703 177.013 56.1715 177.371C56.8882 177.73 57.4491 178.213 57.8542 178.82V172.767H61.8508V190.062H57.8542V188.192C57.4803 188.816 56.9428 189.314 56.2416 189.688C55.556 190.062 54.7536 190.249 53.8343 190.249C52.7592 190.249 51.7854 189.976 50.9129 189.431C50.0403 188.87 49.347 188.083 48.8328 187.07C48.3342 186.042 48.0849 184.858 48.0849 183.518ZM57.8542 183.541C57.8542 182.544 57.5738 181.757 57.0129 181.181C56.4675 180.604 55.7975 180.316 55.0029 180.316C54.2083 180.316 53.5305 180.604 52.9696 181.181C52.4242 181.742 52.1516 182.521 52.1516 183.518C52.1516 184.515 52.4242 185.31 52.9696 185.902C53.5305 186.478 54.2083 186.767 55.0029 186.767C55.7975 186.767 56.4675 186.478 57.0129 185.902C57.5738 185.325 57.8542 184.539 57.8542 183.541ZM66.7521 175.665C66.0509 175.665 65.4744 175.463 65.0226 175.057C64.5863 174.637 64.3682 174.123 64.3682 173.515C64.3682 172.892 64.5863 172.377 65.0226 171.972C65.4744 171.552 66.0509 171.341 66.7521 171.341C67.4377 171.341 67.9986 171.552 68.4349 171.972C68.8867 172.377 69.1126 172.892 69.1126 173.515C69.1126 174.123 68.8867 174.637 68.4349 175.057C67.9986 175.463 67.4377 175.665 66.7521 175.665ZM68.7387 177.021V190.062H64.7421V177.021H68.7387ZM70.8403 183.518C70.8403 182.178 71.0896 181.002 71.5882 179.989C72.1024 178.976 72.7958 178.197 73.6683 177.652C74.5408 177.106 75.5147 176.834 76.5898 176.834C77.4467 176.834 78.2258 177.013 78.9269 177.371C79.6437 177.73 80.2046 178.213 80.6097 178.82V172.767H84.6062V190.062H80.6097V188.192C80.2357 188.816 79.6982 189.314 78.997 189.688C78.3115 190.062 77.509 190.249 76.5898 190.249C75.5147 190.249 74.5408 189.976 73.6683 189.431C72.7958 188.87 72.1024 188.083 71.5882 187.07C71.0896 186.042 70.8403 184.858 70.8403 183.518ZM80.6097 183.541C80.6097 182.544 80.3292 181.757 79.7683 181.181C79.223 180.604 78.553 180.316 77.7583 180.316C76.9637 180.316 76.2859 180.604 75.725 181.181C75.1797 181.742 74.907 182.521 74.907 183.518C74.907 184.515 75.1797 185.31 75.725 185.902C76.2859 186.478 76.9637 186.767 77.7583 186.767C78.553 186.767 79.223 186.478 79.7683 185.902C80.3292 185.325 80.6097 184.539 80.6097 183.541ZM89.5075 175.665C88.8064 175.665 88.2299 175.463 87.778 175.057C87.3418 174.637 87.1236 174.123 87.1236 173.515C87.1236 172.892 87.3418 172.377 87.778 171.972C88.2299 171.552 88.8064 171.341 89.5075 171.341C90.1931 171.341 90.754 171.552 91.1903 171.972C91.6422 172.377 91.8681 172.892 91.8681 173.515C91.8681 174.123 91.6422 174.637 91.1903 175.057C90.754 175.463 90.1931 175.665 89.5075 175.665ZM91.4941 177.021V190.062H87.4976V177.021H91.4941ZM102.36 190.062L98.3869 184.593V190.062H94.3904V172.767H98.3869V182.326L102.337 177.021H107.268L101.846 183.565L107.315 190.062H102.36ZM108.043 183.518C108.043 182.178 108.293 181.002 108.791 179.989C109.305 178.976 109.999 178.197 110.871 177.652C111.744 177.106 112.718 176.834 113.793 176.834C114.712 176.834 115.514 177.021 116.2 177.395C116.901 177.769 117.439 178.259 117.813 178.867V177.021H121.809V190.062H117.813V188.216C117.423 188.823 116.878 189.314 116.177 189.688C115.491 190.062 114.689 190.249 113.769 190.249C112.71 190.249 111.744 189.976 110.871 189.431C109.999 188.87 109.305 188.083 108.791 187.07C108.293 186.042 108.043 184.858 108.043 183.518ZM117.813 183.541C117.813 182.544 117.532 181.757 116.971 181.181C116.426 180.604 115.756 180.316 114.961 180.316C114.167 180.316 113.489 180.604 112.928 181.181C112.383 181.742 112.11 182.521 112.11 183.518C112.11 184.515 112.383 185.31 112.928 185.902C113.489 186.478 114.167 186.767 114.961 186.767C115.756 186.767 116.426 186.478 116.971 185.902C117.532 185.325 117.813 184.539 117.813 183.541ZM132.647 176.88C134.174 176.88 135.389 177.379 136.293 178.376C137.212 179.358 137.672 180.713 137.672 182.443V190.062H133.699V182.98C133.699 182.108 133.473 181.43 133.021 180.947C132.569 180.464 131.961 180.223 131.198 180.223C130.434 180.223 129.827 180.464 129.375 180.947C128.923 181.43 128.697 182.108 128.697 182.98V190.062H124.701V177.021H128.697V178.75C129.102 178.174 129.648 177.722 130.333 177.395C131.019 177.052 131.79 176.88 132.647 176.88Z" fill="white"/>
<path d="M112.523 97.0539C98.9206 108.559 101.132 107.437 90.5019 112.134C85.7345 114.24 74.4331 117.82 68.5 117.078C68.5 107.19 69.223 100.844 72.2082 94.829C75.1934 88.8143 81.5001 83.6842 87.1194 80.3834C92.7386 77.0826 100.446 71.6788 102.689 69.4539C104.27 66.8621 109.479 62.0454 112.523 62.0454C116.604 62.0454 116.523 66.6176 115.977 68.7204C115.313 70.9209 112.406 76.1582 106.084 79.503C99.7627 82.8478 97.4378 86.3011 97.4768 88.2082C110.823 81.3137 118.878 77.0685 122.449 66.5792C127.858 50.6894 132.951 51.1165 135 53.6104C128.912 81.1169 120.414 90.3792 112.523 97.0539Z" fill="white"/>
<path d="M24.477 97.0539C38.0794 108.559 35.868 107.437 46.4981 112.134C51.2655 114.24 62.5669 117.82 68.5 117.078C68.5 107.19 67.777 100.844 64.7918 94.829C61.8066 88.8143 55.4999 83.6842 49.8806 80.3834C44.2614 77.0826 36.5545 71.6788 34.3107 69.4539C32.7302 66.8621 27.5207 62.0454 24.477 62.0454C20.3963 62.0454 20.4772 66.6176 21.0235 68.7204C21.6869 70.9209 24.594 76.1582 30.9157 79.503C37.2373 82.8478 39.5622 86.3011 39.5232 88.2082C26.1775 81.3137 18.1216 77.0685 14.5511 66.5792C9.14218 50.6894 4.04868 51.1165 2 53.6104C8.08752 81.1169 16.5855 90.3792 24.477 97.0539Z" fill="white"/>
<path d="M64.8517 77.5576C66.3212 75.4651 68.0602 75.3295 68.7459 75.5232V59.3936L31.4209 28.1152L21.2812 39.5949L64.8517 77.5576Z" fill="white" stroke="white"/>
<path d="M72.6021 77.5576C71.1479 75.4651 69.4271 75.3295 68.7485 75.5232V59.3936L105.685 28.1152L115.719 39.5949L72.6021 77.5576Z" fill="white" stroke="white"/>
<circle cx="68.5029" cy="17.0576" r="17.0576" fill="white"/>
</svg>
