<svg width="87" height="87" viewBox="0 0 87 87" fill="none" xmlns="http://www.w3.org/2000/svg">
<path d="M44.9832 57.2081C43.4472 57.4641 41.2712 57.7201 38.3272 57.7201C36.1512 57.7201 34.2312 57.5921 32.6952 57.3361C32.3112 57.3361 31.9272 57.2081 31.5432 57.0801L25.7832 68.2161C25.0152 69.8801 25.7832 71.8001 27.4472 72.4401C32.6952 74.1041 43.9592 74.1041 49.2072 72.4401C50.9992 71.9281 51.7672 69.8801 50.8712 68.2161L44.9832 57.2081ZM32.0552 51.3201H32.4392C32.4392 53.1121 32.5672 54.2641 31.9272 55.9281C33.2072 56.1841 35.2552 56.4401 38.1992 56.4401C41.0152 56.4401 43.0632 56.1841 44.3432 55.9281C43.7032 54.1361 43.8312 53.1121 43.8312 51.3201H44.2152C45.1112 51.3201 45.8792 50.5521 45.8792 49.6561C45.8792 48.7601 45.1112 47.9921 44.2152 47.9921H38.8392C38.8392 47.8641 39.2232 46.0721 39.2232 45.9441C38.8392 46.3281 38.7112 46.5841 38.5832 46.7121C38.5832 46.4561 38.4552 45.8161 38.3272 44.6641C38.1992 44.9201 37.9432 47.6081 37.9432 47.8641V47.9921H32.0552C31.1592 47.9921 30.3912 48.7601 30.3912 49.6561C30.5192 50.5521 31.2872 51.3201 32.0552 51.3201Z" fill="#53C5E0"/>
<path d="M69.175 16.5028L71.223 15.7348C70.967 15.2228 70.327 14.5828 69.431 13.9428C66.615 12.0228 63.287 11.8948 59.959 13.0468L62.263 14.4548L58.423 13.6868C56.119 14.5828 53.559 16.2468 51.255 18.2948C52.407 18.9348 53.815 19.7028 54.199 19.8308C53.687 19.7028 51.767 19.4468 50.103 19.3188C48.439 20.8548 46.647 22.6468 45.111 24.6948C46.007 25.3348 47.031 26.1028 47.031 26.1028H43.959L43.831 26.2308C42.039 28.5348 40.887 30.8389 40.119 33.0149C42.935 32.6308 43.063 32.1188 39.607 34.6789C38.327 38.9028 38.327 42.4868 38.583 44.6628C39.863 39.4148 41.655 34.2948 46.903 28.6628C50.359 25.3349 53.687 22.3908 58.551 20.3428C58.807 20.2148 58.935 20.2148 59.063 20.0868C51.767 24.5668 49.335 27.8948 47.799 29.4308C43.703 34.1668 40.759 39.6708 39.479 45.9428C40.631 44.5348 43.319 41.3349 47.159 37.3668L45.495 36.3428L47.799 36.5989C49.719 34.6789 51.767 32.6308 54.071 30.4548L51.895 30.1989L55.351 29.3029C57.015 27.7668 58.807 26.4868 60.599 25.3348L58.423 24.6948C58.423 24.6948 60.343 24.5668 62.007 24.4388C64.311 22.9029 66.487 21.7508 68.279 20.5988L66.871 19.4468L69.175 19.8308C70.711 18.6788 71.479 17.6548 71.479 16.6308L69.175 16.5028Z" fill="#00A9B8"/>
<path d="M18.1976 27.5288L22.246 26.0302L23.7578 21.0756C23.7863 20.9825 23.844 20.9011 23.9223 20.8432C24.0006 20.7853 24.0953 20.7541 24.1927 20.7541C24.29 20.7541 24.3848 20.7853 24.4631 20.8432C24.5414 20.9011 24.599 20.9825 24.6276 21.0756L26.1389 26.0302L30.1878 27.5288C30.2748 27.5611 30.3499 27.6193 30.4029 27.6955C30.456 27.7717 30.4844 27.8624 30.4844 27.9553C30.4844 28.0481 30.456 28.1388 30.4029 28.215C30.3499 28.2912 30.2748 28.3494 30.1878 28.3818L26.1407 29.8798L24.629 34.9855C24.6011 35.0797 24.5436 35.1623 24.465 35.221C24.3864 35.2798 24.2908 35.3115 24.1927 35.3115C24.0945 35.3115 23.999 35.2798 23.9204 35.221C23.8417 35.1623 23.7842 35.0797 23.7564 34.9855L22.2442 29.8798L18.1972 28.3818C18.1097 28.3498 18.0342 28.2917 17.9809 28.2154C17.9276 28.1391 17.899 28.0482 17.899 27.9551C17.8991 27.862 17.9278 27.7712 17.9812 27.6949C18.0346 27.6186 18.1101 27.5606 18.1976 27.5288Z" fill="#FFBB0C"/>
<path d="M27.2965 32.5335L28.3488 32.144L28.7582 30.6428C28.7844 30.5464 28.8416 30.4613 28.9209 30.4007C29.0002 30.34 29.0973 30.3071 29.1972 30.3071C29.2971 30.3071 29.3942 30.34 29.4735 30.4007C29.5529 30.4613 29.61 30.5464 29.6362 30.6428L30.0457 32.144L31.0979 32.5335C31.185 32.5658 31.2601 32.624 31.3131 32.7002C31.3661 32.7764 31.3945 32.8671 31.3945 32.96C31.3945 33.0528 31.3661 33.1435 31.3131 33.2197C31.2601 33.2959 31.185 33.3541 31.0979 33.3865L30.0511 33.7745L29.6385 35.4223C29.6138 35.5206 29.557 35.6079 29.4771 35.6703C29.3971 35.7327 29.2986 35.7666 29.1972 35.7666C29.0958 35.7666 28.9973 35.7327 28.9173 35.6703C28.8374 35.6079 28.7806 35.5206 28.7559 35.4223L28.3433 33.7745L27.2965 33.3865C27.2094 33.3541 27.1344 33.2959 27.0813 33.2197C27.0283 33.1435 26.9999 33.0528 26.9999 32.96C26.9999 32.8671 27.0283 32.7764 27.0813 32.7002C27.1344 32.624 27.2094 32.5658 27.2965 32.5335Z" fill="#FFBB0C"/>
<path d="M29.2725 22.6782L30.3484 22.2801L30.7464 21.2042C30.7787 21.117 30.8368 21.0418 30.9131 20.9886C30.9894 20.9355 31.0802 20.907 31.1732 20.907C31.2661 20.907 31.3569 20.9355 31.4332 20.9886C31.5095 21.0418 31.5677 21.117 31.5999 21.2042L31.9984 22.2801L33.0739 22.6782C33.1611 22.7104 33.2363 22.7686 33.2895 22.8449C33.3426 22.9212 33.3711 23.0119 33.3711 23.1049C33.3711 23.1979 33.3426 23.2886 33.2895 23.3649C33.2363 23.4412 33.1611 23.4994 33.0739 23.5316L31.9984 23.9297L31.5999 25.0056C31.5679 25.093 31.5097 25.1685 31.4334 25.2218C31.3571 25.2751 31.2663 25.3037 31.1732 25.3037C31.0801 25.3037 30.9892 25.2751 30.9129 25.2218C30.8366 25.1685 30.7785 25.093 30.7464 25.0056L30.3484 23.9297L29.2725 23.5316C29.1852 23.4994 29.11 23.4412 29.0569 23.3649C29.0037 23.2886 28.9752 23.1979 28.9752 23.1049C28.9752 23.0119 29.0037 22.9212 29.0569 22.8449C29.11 22.7686 29.1852 22.7104 29.2725 22.6782Z" fill="#FFBB0C"/>
<rect x="0.5" y="0.5" width="86" height="86" rx="9.5" stroke="#EBEAEA"/>
</svg>
