<svg width="87" height="87" viewBox="0 0 87 87" fill="none" xmlns="http://www.w3.org/2000/svg">
<g clip-path="url(#clip0_1885_11045)">
<path fill-rule="evenodd" clip-rule="evenodd" d="M26.0723 32.239C26.0723 33.8689 27.3875 35.184 29.0193 35.1859H29.6072L35.4918 35.1988L35.4805 29.3132V28.7252C35.48 27.9435 35.1691 27.1939 34.6161 26.6413C34.0631 26.0887 33.3134 25.7774 32.5316 25.7774C32.1456 25.7756 31.7631 25.8513 31.4061 25.9982C31.0492 26.1451 30.7247 26.361 30.4518 26.6339C30.1788 26.9069 29.9627 27.2311 29.8158 27.5881C29.6689 27.945 29.5942 28.3273 29.5959 28.7133V29.303L29.008 29.3012C28.6217 29.2992 28.2388 29.3742 27.8815 29.5211C27.5242 29.668 27.1995 29.8846 26.9264 30.1578C26.6532 30.431 26.4368 30.7555 26.2899 31.1128C26.143 31.4701 26.0684 31.8526 26.0704 32.239H26.0723Z" fill="#FFBB0C"/>
<path fill-rule="evenodd" clip-rule="evenodd" d="M61.6011 32.2478C61.6011 33.0296 61.2907 33.7797 60.7381 34.3327C60.1855 34.8856 59.4359 35.1961 58.6541 35.1966H58.0662L52.1797 35.2086L52.1911 29.3239V28.7359C52.1948 27.1042 53.5101 25.7909 55.14 25.7871C55.5263 25.7852 55.9092 25.8592 56.2665 26.0061C56.6238 26.153 56.9484 26.3696 57.2216 26.6428C57.4948 26.916 57.711 27.2405 57.8579 27.5978C58.0049 27.9551 58.0795 28.3376 58.0775 28.724V29.3119H58.6654C59.0514 29.3102 59.4339 29.3849 59.7909 29.5318C60.1478 29.6787 60.4723 29.8955 60.7452 30.1685C61.0182 30.4414 61.2343 30.7656 61.3812 31.1226C61.5281 31.4795 61.6028 31.8618 61.6011 32.2478Z" fill="#FFBB0C"/>
<path fill-rule="evenodd" clip-rule="evenodd" d="M38.2504 19.638C37.7784 20.2899 37.5846 21.1025 37.7116 21.8973C37.8386 22.692 38.2761 23.4032 38.9278 23.8756L39.4155 24.2315L44.3135 27.7958L47.8605 22.8854L48.215 22.3913C48.6864 21.7395 48.8798 20.9271 48.7528 20.1328C48.6258 19.3385 48.1886 18.6278 47.5375 18.1555C47.2167 17.9209 46.8528 17.7517 46.4665 17.6585C46.0802 17.5653 45.6793 17.5501 45.2869 17.6127C44.8945 17.6753 44.5184 17.8143 44.1802 18.0231C43.8421 18.2318 43.5486 18.506 43.3168 18.8288L42.9627 19.3202L42.4711 18.9638C42.1504 18.7292 41.7863 18.5609 41.4 18.4677C41.0137 18.3745 40.6128 18.3593 40.2204 18.4219C39.828 18.4845 39.4519 18.6235 39.1138 18.8323C38.7757 19.041 38.4822 19.3152 38.2504 19.638Z" fill="#FFBB0C"/>
<path d="M62.223 41.6221H24.5374C22.9764 41.6221 21.7109 42.8875 21.7109 44.4485V67.0599C21.7109 68.6209 22.9764 69.8863 24.5374 69.8863H62.223C63.784 69.8863 65.0494 68.6209 65.0494 67.0599V44.4485C65.0494 42.8875 63.784 41.6221 62.223 41.6221Z" fill="#53C5E0"/>
<path d="M24.6558 41.6221C23.8512 41.6221 23.1277 41.9573 22.6133 42.4943L22.8752 42.705L41.2356 55.8729C42.5075 56.7849 43.964 56.7849 45.2359 55.8729L64.0675 42.3664L64.156 42.2965C63.6504 41.8636 63.0071 41.6252 62.3415 41.6239H24.6558V41.6221Z" fill="#00A9B8"/>
<path fill-rule="evenodd" clip-rule="evenodd" d="M38.7746 51.6639C38.206 52.2331 37.8867 53.0041 37.8867 53.8086C37.8867 54.6131 38.206 55.385 38.7746 55.9542L39.2003 56.3838L43.4777 60.6759L47.7513 56.3838L48.179 55.9542C48.7475 55.385 49.0668 54.6131 49.0668 53.8086C49.0668 53.0041 48.7475 52.2331 48.179 51.6639C47.8992 51.3815 47.5663 51.1572 47.1993 51.0043C46.8324 50.8513 46.4389 50.7724 46.0413 50.7724C45.6438 50.7724 45.2501 50.8513 44.8832 51.0043C44.5163 51.1572 44.1833 51.3815 43.9036 51.6639L43.4759 52.0936L43.05 51.6639C42.7702 51.3813 42.4371 51.1565 42.07 51.0033C41.7029 50.8502 41.3091 50.7715 40.9113 50.7715C40.5135 50.7715 40.1197 50.8502 39.7526 51.0033C39.3855 51.1565 39.0524 51.3813 38.7726 51.6639H38.7746Z" fill="#FFBB0C"/>
</g>
<rect x="0.5" y="0.5" width="86" height="86" rx="9.5" stroke="#EBEAEA"/>
<defs>
<clipPath id="clip0_1885_11045">
<rect width="60.297" height="60.297" fill="white" transform="translate(13.3516 13.3516)"/>
</clipPath>
</defs>
</svg>
