<svg width="63" height="63" viewBox="0 0 63 63" fill="none" xmlns="http://www.w3.org/2000/svg">
<circle cx="29.2972" cy="29.2982" r="23.2757" fill="#53C5E0" fill-opacity="0.14"/>
<g clip-path="url(#clip0_1656_14244)">
<path d="M33.7189 45.0211L12.613 35.3482C11.853 34.9995 11.853 33.9203 12.613 33.5716L32.9046 24.2722C33.6802 23.9171 34.5718 23.9171 35.3474 24.2722L55.6381 33.5725C56.3981 33.9212 56.3981 35.0004 55.6381 35.3492L34.5322 45.0211C34.2746 45.1398 33.9765 45.1398 33.7189 45.0211Z" fill="#00A9B8"/>
<path d="M46.0824 35.9675C46.0824 33.935 40.7275 32.2871 34.1213 32.2871C27.5151 32.2871 22.1602 33.935 22.1602 35.9675C22.1602 37.0679 22.1602 42.2277 22.1602 43.3282H46.0824C46.0824 42.2277 46.0824 37.0679 46.0824 35.9675Z" fill="#53C5E0"/>
<path d="M34.1213 47.0091C40.7273 47.0091 46.0824 45.3614 46.0824 43.3288C46.0824 41.2962 40.7273 39.6484 34.1213 39.6484C27.5153 39.6484 22.1602 41.2962 22.1602 43.3288C22.1602 45.3614 27.5153 47.0091 34.1213 47.0091Z" fill="#53C5E0"/>
<path d="M34.1249 45.6299C39.7145 45.6299 44.2458 44.3941 44.2458 42.8696C44.2458 41.3452 39.7145 40.1094 34.1249 40.1094C28.5352 40.1094 24.0039 41.3452 24.0039 42.8696C24.0039 44.3941 28.5352 45.6299 34.1249 45.6299Z" fill="#00A9B8"/>
<path d="M52.5256 48.8498C52.0167 48.8498 51.6055 48.4376 51.6055 47.9297V32.2883C51.6055 31.7804 52.0167 31.3682 52.5256 31.3682C53.0344 31.3682 53.4456 31.7804 53.4456 32.2883V47.9297C53.4456 48.4376 53.0344 48.8498 52.5256 48.8498Z" fill="#FFBB0C"/>
<path d="M52.5257 47.0085C53.542 47.0085 54.3659 46.1846 54.3659 45.1683C54.3659 44.152 53.542 43.3281 52.5257 43.3281C51.5094 43.3281 50.6855 44.152 50.6855 45.1683C50.6855 46.1846 51.5094 47.0085 52.5257 47.0085Z" fill="#FFBB0C"/>
</g>
<path fill-rule="evenodd" clip-rule="evenodd" d="M51.689 15.3013C51.689 14.5222 51.0574 13.8906 50.2783 13.8906C49.4993 13.8906 48.8677 14.5222 48.8677 15.3013V18.123H45.5747C44.7956 18.123 44.1641 18.7546 44.1641 19.5336C44.1641 20.3127 44.7956 20.9443 45.5747 20.9443H48.8677V24.2354C48.8677 25.0145 49.4993 25.646 50.2783 25.646C51.0574 25.646 51.689 25.0145 51.689 24.2354V20.9443H54.5088C55.2879 20.9443 55.9195 20.3127 55.9195 19.5336C55.9195 18.7546 55.2879 18.123 54.5088 18.123H51.689V15.3013Z" fill="#FFBB0C"/>
<defs>
<clipPath id="clip0_1656_14244">
<rect width="44.1642" height="44.1642" fill="white" transform="translate(12.043 12.0449)"/>
</clipPath>
</defs>
</svg>
