<svg width="35" height="35" viewBox="0 0 35 35" fill="none" xmlns="http://www.w3.org/2000/svg">
<path d="M12.9801 10.0144C12.9801 11.518 11.7612 12.7369 10.2576 12.7369C8.75403 12.7369 7.53516 11.518 7.53516 10.0144C7.53516 8.51087 8.75403 7.29199 10.2576 7.29199C11.7612 7.29199 12.9801 8.51087 12.9801 10.0144Z" fill="white"/>
<path fill-rule="evenodd" clip-rule="evenodd" d="M7.07019 18.9546C6.64322 19.6373 5.74347 19.8452 5.06062 19.4184C4.37762 18.9915 4.17 18.0918 4.59687 17.4088L4.59956 17.4045L4.60474 17.3963L4.62233 17.3685C4.63719 17.3452 4.65825 17.3123 4.6849 17.2711C4.73814 17.1891 4.81403 17.0738 4.90761 16.9362C5.09335 16.6631 5.35534 16.2925 5.65281 15.9162C5.94345 15.5485 6.30083 15.1332 6.67859 14.7963C6.8674 14.6279 7.09517 14.4484 7.35207 14.3043C7.59437 14.1684 7.97325 14.001 8.43583 14.001H12.0791C12.5418 14.001 12.9206 14.1684 13.1629 14.3043C13.4198 14.4484 13.6476 14.6279 13.8364 14.7963C14.2142 15.1332 14.5716 15.5485 14.8622 15.9162C15.1597 16.2925 15.4217 16.6631 15.6074 16.9362C15.701 17.0738 15.7769 17.1891 15.8301 17.2711C15.8568 17.3123 15.8778 17.3452 15.8927 17.3685L15.9103 17.3963L15.9155 17.4045L15.9177 17.4082C15.9177 17.4082 15.8927 17.3685 15.9182 17.4088C16.345 18.0918 16.1374 18.9915 15.4544 19.4184C14.7715 19.8452 13.8719 19.6377 13.445 18.9549L13.4429 18.9516L13.4316 18.9338C13.4211 18.9173 13.4047 18.8917 13.3831 18.8583C13.3655 18.8312 13.3445 18.799 13.3204 18.7625V20.5737L13.8478 26.1118C13.9229 26.9004 13.3549 27.6047 12.5683 27.6982C11.7818 27.7918 11.0644 27.2405 10.9523 26.4563L10.2085 21.2495L9.46469 26.4563C9.35269 27.2405 8.63526 27.7918 7.84871 27.6982C7.0622 27.6047 6.49417 26.9004 6.56927 26.1118L7.1811 19.6876H7.19485V18.7622C7.17064 18.7988 7.14955 18.8311 7.13189 18.8583C7.11026 18.8917 7.09389 18.9173 7.08338 18.9338L7.07213 18.9516L7.07019 18.9546Z" fill="white"/>
<path d="M27.5617 10.0142C27.5617 11.5177 26.3429 12.7365 24.8394 12.7365C23.336 12.7365 22.1172 11.5177 22.1172 10.0142C22.1172 8.51079 23.336 7.29199 24.8394 7.29199C26.3429 7.29199 27.5617 8.51079 27.5617 10.0142Z" fill="white"/>
<path fill-rule="evenodd" clip-rule="evenodd" d="M21.658 18.8018C21.2344 19.4867 20.3357 19.699 19.6508 19.2756C18.9656 18.8521 18.7536 17.9534 19.177 17.2683L19.1797 17.264L19.1848 17.2558L19.2022 17.228C19.2169 17.2046 19.2378 17.1717 19.2641 17.1306C19.3167 17.0486 19.3918 16.9333 19.4843 16.7957C19.668 16.5227 19.9271 16.1521 20.2213 15.7758C20.5087 15.4081 20.8623 14.9925 21.2365 14.6551C21.4235 14.4865 21.6496 14.3062 21.9053 14.1613C22.1461 14.0247 22.5258 13.8545 22.9911 13.8545H26.594C27.0592 13.8545 27.4389 14.0247 27.6797 14.1613C27.9354 14.3062 28.1616 14.4865 28.3485 14.6551C28.7227 14.9925 29.0763 15.4081 29.3638 15.7758C29.6579 16.1521 29.9171 16.5227 30.1007 16.7957C30.1933 16.9333 30.2683 17.0486 30.3209 17.1306C30.3473 17.1717 30.3681 17.2046 30.3828 17.228L30.4002 17.2558C30.4137 17.2774 30.408 17.2683 30.408 17.2683C30.8315 17.9534 30.6194 18.8521 29.9343 19.2756C29.2494 19.6989 28.351 19.487 27.9274 18.8024L27.9251 18.7988L27.914 18.781C27.9036 18.7645 27.8874 18.7389 27.866 18.7055C27.8231 18.6387 27.7597 18.5413 27.6806 18.4237C27.6478 18.3749 27.6125 18.323 27.5752 18.2688C27.916 19.9681 28.5883 22.2979 28.9403 23.4766C29.0615 23.8822 28.8164 24.3088 28.4021 24.3952C25.8226 24.9328 24.0172 24.9188 21.2168 24.3855C20.7901 24.3042 20.534 23.8663 20.6628 23.4515C21.0303 22.2678 21.7154 19.9621 22.0398 18.2254C21.9912 18.2955 21.9459 18.362 21.9044 18.4237C21.8253 18.5413 21.7619 18.6387 21.719 18.7055C21.6976 18.7389 21.6814 18.7645 21.6711 18.781L21.6599 18.7988L21.658 18.8018ZM21.5841 25.6317V26.6149C21.5841 27.1634 21.9904 27.6271 22.5341 27.6991C23.0778 27.7712 23.5909 27.4295 23.7339 26.8999L24.0221 25.8321C23.2331 25.8054 22.4317 25.7389 21.5841 25.6317ZM25.7077 25.8284L25.997 26.8999C26.1399 27.4294 26.6529 27.7711 27.1967 27.699C27.7404 27.6269 28.1466 27.1632 28.1466 26.6148V25.6216C27.2988 25.7293 26.4971 25.7985 25.7077 25.8284Z" fill="white"/>
</svg>
