<svg width="87" height="87" viewBox="0 0 87 87" fill="none" xmlns="http://www.w3.org/2000/svg">
<path d="M43.5015 40.2188C48.4837 40.2188 52.5225 36.18 52.5225 31.1978C52.5225 26.2156 48.4837 22.1768 43.5015 22.1768C38.5193 22.1768 34.4805 26.2156 34.4805 31.1978C34.4805 36.18 38.5193 40.2188 43.5015 40.2188Z" fill="#53C5E0"/>
<path d="M43.5 41.8604C39.5849 41.8604 35.8302 43.4156 33.0619 46.1839C30.2935 48.9523 28.7383 52.707 28.7383 56.622V63.1828C28.7383 63.6178 28.9111 64.035 29.2187 64.3426C29.5263 64.6501 29.9435 64.823 30.3785 64.823H56.6214C57.0564 64.823 57.4736 64.6501 57.7812 64.3426C58.0888 64.035 58.2616 63.6178 58.2616 63.1828V56.622C58.2616 52.707 56.7064 48.9523 53.938 46.1839C51.1697 43.4156 47.415 41.8604 43.5 41.8604Z" fill="#53C5E0"/>
<path d="M43.5 22.1768V40.2188C45.8925 40.2188 48.1871 39.2684 49.8788 37.5766C51.5706 35.8848 52.521 33.5903 52.521 31.1978C52.521 28.8053 51.5706 26.5107 49.8788 24.819C48.1871 23.1272 45.8925 22.1768 43.5 22.1768Z" fill="#00A9B8"/>
<path d="M43.5 41.8604V64.823H56.6215C57.0565 64.823 57.4737 64.6501 57.7813 64.3426C58.0889 64.035 58.2617 63.6178 58.2617 63.1828V56.622C58.2617 52.707 56.7064 48.9523 53.9381 46.1839C51.1697 43.4156 47.415 41.8604 43.5 41.8604Z" fill="#00A9B8"/>
<rect x="0.5" y="0.5" width="86" height="86" rx="9.5" stroke="#EBEAEA"/>
</svg>
