<svg width="62" height="62" viewBox="0 0 62 62" fill="none" xmlns="http://www.w3.org/2000/svg">
<circle cx="29.3539" cy="29.9056" r="23.2757" fill="#53C5E0" fill-opacity="0.14"/>
<path fill-rule="evenodd" clip-rule="evenodd" d="M51.4121 16.0092C51.4121 15.2641 50.8081 14.6602 50.063 14.6602C49.318 14.6602 48.714 15.2641 48.714 16.0092V18.7057H45.5658C44.8208 18.7057 44.2168 19.3097 44.2168 20.0548C44.2168 20.7998 44.8208 21.4038 45.5658 21.4038H48.714V24.5531C48.714 25.2982 49.318 25.9022 50.063 25.9022C50.8081 25.9022 51.4121 25.2982 51.4121 24.5531V21.4038H54.1098C54.8548 21.4038 55.4588 20.7998 55.4588 20.0548C55.4588 19.3097 54.8548 18.7057 54.1098 18.7057H51.4121V16.0092Z" fill="#FFBB0C"/>
<g clip-path="url(#clip0_1656_14271)">
<path d="M21.5632 43.0272C21.5632 43.0272 22.1001 43.4645 22.3907 43.9533C22.6086 44.3198 22.7918 44.9718 22.7918 44.9718L22.8105 45.1984C22.8105 46.0872 20.3281 46.9759 16.8105 46.9759C13.0602 46.9759 10.8105 46.0872 10.8105 45.1984L10.8479 44.9585C10.8479 44.9585 11.0642 44.3152 11.2752 43.9533C11.5191 43.5351 12.0494 43.0326 12.0494 43.0326C13.0752 42.2185 14.6918 41.6426 16.8105 41.6426C18.8723 41.6426 20.5207 42.2123 21.5632 43.0272Z" fill="#00A9B8"/>
<path d="M18.4402 40.287C17.9342 40.496 17.3919 40.603 16.8444 40.6019C16.297 40.6028 15.7548 40.4956 15.2489 40.2865C14.7429 40.0774 14.2833 39.7706 13.8962 39.3835C13.5091 38.9964 13.2022 38.5367 12.9931 38.0308C12.784 37.5249 12.6769 36.9827 12.6777 36.4352C12.6766 35.8877 12.7837 35.3454 12.9927 34.8394C13.2017 34.3334 13.5086 33.8736 13.8957 33.4865C14.2828 33.0994 14.7426 32.7925 15.2486 32.5835C15.7546 32.3745 16.2969 32.2675 16.8444 32.2686C17.3917 32.2677 17.9338 32.3751 18.4395 32.5845C18.9452 32.7938 19.4045 33.1011 19.7911 33.4886C20.5461 34.2436 21.0111 35.2852 21.0111 36.4352C21.0122 36.9827 20.9052 37.525 20.6961 38.031C20.4871 38.5371 20.1803 38.9968 19.7931 39.384C19.406 39.7711 18.9462 40.078 18.4402 40.287Z" fill="#00A9B8"/>
<path d="M48.2273 43.0272C48.2273 43.0272 48.7642 43.4645 49.0548 43.9533C49.2727 44.3198 49.4559 44.9718 49.4559 44.9718L49.4746 45.1984C49.4746 46.0872 46.9921 46.9759 43.4746 46.9759C39.7243 46.9759 37.4746 46.0872 37.4746 45.1984L37.512 44.9585C37.512 44.9585 37.7283 44.3152 37.9393 43.9533C38.1832 43.5351 38.7135 43.0326 38.7135 43.0326C39.7392 42.2185 41.3559 41.6426 43.4746 41.6426C45.5363 41.6426 47.1848 42.2123 48.2273 43.0272Z" fill="#00A9B8"/>
<path d="M45.1043 40.287C44.5983 40.496 44.056 40.603 43.5085 40.6019C42.9611 40.6028 42.4188 40.4956 41.9129 40.2865C41.407 40.0774 40.9473 39.7706 40.5602 39.3835C40.1731 38.9964 39.8663 38.5367 39.6572 38.0308C39.4481 37.5249 39.3409 36.9827 39.3418 36.4352C39.3407 35.8877 39.4477 35.3454 39.6567 34.8394C39.8657 34.3334 40.1726 33.8736 40.5597 33.4865C40.9469 33.0994 41.4066 32.7925 41.9127 32.5835C42.4187 32.3745 42.961 32.2675 43.5085 32.2686C44.0558 32.2677 44.5979 32.3751 45.1036 32.5845C45.6093 32.7938 46.0686 33.1011 46.4551 33.4886C47.2101 34.2436 47.6751 35.2852 47.6751 36.4352C47.6762 36.9827 47.5692 37.525 47.3602 38.031C47.1512 38.5371 46.8443 38.9968 46.4572 39.384C46.0701 39.7711 45.6103 40.078 45.1043 40.287Z" fill="#00A9B8"/>
<path d="M30.1423 38.9362C32.4439 38.9362 34.5273 38.0029 36.0356 36.4945C37.5423 34.9879 38.4756 32.9045 38.4756 30.6029C38.4756 28.3012 37.5423 26.2179 36.0356 24.7112C34.5273 23.2029 32.4439 22.2695 30.1423 22.2695C27.8406 22.2695 25.7573 23.2029 24.2489 24.7112C22.7423 26.2179 21.8089 28.3012 21.8089 30.6029C21.8089 32.9045 22.7423 34.9879 24.2489 36.4945C25.022 37.2697 25.9405 37.8845 26.9519 38.3035C27.9633 38.7225 29.0475 38.9375 30.1423 38.9362ZM40.0889 44.9362C39.571 44.0196 38.6139 43.1995 38.6139 43.1995C36.7556 41.6712 33.8173 40.6029 30.1423 40.6029C26.3656 40.6029 23.4839 41.6829 21.6556 43.2095C21.6556 43.2095 20.7103 44.152 20.2756 44.9362C19.8994 45.6149 19.5139 46.8212 19.5139 46.8212L19.4473 47.2712C19.4473 48.9379 23.4573 50.6045 30.1423 50.6045C36.4123 50.6045 40.8373 48.9379 40.8373 47.2712L40.8039 46.8462C40.8039 46.8462 40.4773 45.6235 40.0889 44.9362Z" fill="#53C5E0"/>
</g>
<defs>
<clipPath id="clip0_1656_14271">
<rect width="40" height="40" fill="white" transform="translate(10.1426 15.6025)"/>
</clipPath>
</defs>
</svg>
