<svg width="87" height="87" viewBox="0 0 87 87" fill="none" xmlns="http://www.w3.org/2000/svg">
<path d="M65.185 36.9939H16.9922V58.6806C16.9922 60.5979 17.7538 62.4366 19.1095 63.7923C20.4652 65.1479 22.3039 65.9096 24.2211 65.9096H57.956C59.8733 65.9096 61.712 65.1479 63.0677 63.7923C64.4233 62.4366 65.185 60.5979 65.185 58.6806V36.9939ZM29.0404 32.1746C28.4013 32.1746 27.7884 31.9208 27.3365 31.4689C26.8846 31.017 26.6307 30.4041 26.6307 29.765V20.1264C26.6307 19.4874 26.8846 18.8745 27.3365 18.4226C27.7884 17.9707 28.4013 17.7168 29.0404 17.7168C29.6795 17.7168 30.2924 17.9707 30.7443 18.4226C31.1961 18.8745 31.45 19.4874 31.45 20.1264V29.765C31.45 30.4041 31.1961 31.017 30.7443 31.4689C30.2924 31.9208 29.6795 32.1746 29.0404 32.1746ZM53.1368 32.1746C52.4977 32.1746 51.8848 31.9208 51.4329 31.4689C50.981 31.017 50.7271 30.4041 50.7271 29.765V20.1264C50.7271 19.4874 50.981 18.8745 51.4329 18.4226C51.8848 17.9707 52.4977 17.7168 53.1368 17.7168C53.7758 17.7168 54.3887 17.9707 54.8406 18.4226C55.2925 18.8745 55.5464 19.4874 55.5464 20.1264V29.765C55.5464 30.4041 55.2925 31.017 54.8406 31.4689C54.3887 31.9208 53.7758 32.1746 53.1368 32.1746Z" fill="#53C5E0"/>
<path d="M57.956 22.5361H55.5464V29.765C55.5464 30.4041 55.2925 31.017 54.8406 31.4689C54.3887 31.9208 53.7758 32.1747 53.1368 32.1747C52.4977 32.1747 51.8848 31.9208 51.4329 31.4689C50.981 31.017 50.7271 30.4041 50.7271 29.765V22.5361H31.45V29.765C31.45 30.4041 31.1961 31.017 30.7443 31.4689C30.2924 31.9208 29.6795 32.1747 29.0404 32.1747C28.4013 32.1747 27.7884 31.9208 27.3365 31.4689C26.8846 31.017 26.6307 30.4041 26.6307 29.765V22.5361H24.2211C22.3039 22.5361 20.4652 23.2977 19.1095 24.6534C17.7538 26.0091 16.9922 27.8478 16.9922 29.765V36.994H65.185V29.765C65.185 27.8478 64.4233 26.0091 63.0677 24.6534C61.712 23.2977 59.8733 22.5361 57.956 22.5361Z" fill="#00A9B8"/>
<path d="M55.5465 42.7764C52.3901 42.7845 49.3625 44.0289 47.1128 46.2428V43.9812C47.1128 43.6616 46.9858 43.3552 46.7599 43.1293C46.5339 42.9033 46.2275 42.7764 45.9079 42.7764C45.5884 42.7764 45.282 42.9033 45.056 43.1293C44.8301 43.3552 44.7031 43.6616 44.7031 43.9812V49.4029C44.7031 49.5611 44.7342 49.7178 44.7948 49.864C44.8553 50.0102 44.944 50.143 45.0559 50.2549C45.1678 50.3668 45.3006 50.4555 45.4468 50.5161C45.593 50.5766 45.7497 50.6077 45.9079 50.6077H51.3296C51.6492 50.6077 51.9556 50.4808 52.1816 50.2548C52.4075 50.0289 52.5345 49.7224 52.5345 49.4029C52.5345 49.0833 52.4075 48.7769 52.1816 48.5509C51.9556 48.325 51.6492 48.1981 51.3296 48.1981H48.5808C49.6795 47.0432 51.0477 46.1792 52.5626 45.6835C54.0776 45.1879 55.6919 45.0761 57.2607 45.3582C58.8295 45.6404 60.3038 46.3075 61.5511 47.2999C62.7985 48.2923 63.78 49.5789 64.4075 51.0441C65.035 52.5094 65.289 54.1075 65.1465 55.6951C65.0041 57.2828 64.4697 58.8102 63.5913 60.1403C62.713 61.4705 61.5182 62.5617 60.1141 63.3162C58.7099 64.0707 57.1405 64.4648 55.5465 64.4631C55.227 64.4631 54.9205 64.59 54.6946 64.816C54.4686 65.0419 54.3417 65.3484 54.3417 65.6679C54.3417 65.9875 54.4686 66.2939 54.6946 66.5199C54.9205 66.7458 55.227 66.8728 55.5465 66.8728C58.7419 66.8728 61.8064 65.6034 64.0659 63.3439C66.3253 61.0844 67.5947 58.0199 67.5947 54.8246C67.5947 51.6292 66.3253 48.5647 64.0659 46.3052C61.8064 44.0457 58.7419 42.7764 55.5465 42.7764Z" fill="#00A9B8"/>
<path d="M57.9582 56.03H55.5486C55.3903 56.03 55.2337 55.9989 55.0875 55.9383C54.9413 55.8778 54.8084 55.789 54.6965 55.6772C54.5847 55.5653 54.4959 55.4324 54.4354 55.2862C54.3748 55.1401 54.3437 54.9834 54.3438 54.8251V51.2107C54.3438 50.8911 54.4707 50.5847 54.6966 50.3587C54.9226 50.1328 55.229 50.0059 55.5486 50.0059C55.8681 50.0059 56.1746 50.1328 56.4005 50.3587C56.6265 50.5847 56.7534 50.8911 56.7534 51.2107V53.6203H57.9582C58.2777 53.6203 58.5842 53.7473 58.8101 53.9732C59.0361 54.1991 59.163 54.5056 59.163 54.8251C59.163 55.1447 59.0361 55.4511 58.8101 55.6771C58.5842 55.903 58.2777 56.03 57.9582 56.03Z" fill="#00A9B8"/>
<path d="M55.5482 45.1865C54.2438 45.1916 52.954 45.4612 51.7568 45.9789C50.5595 46.4966 49.4797 47.2517 48.5825 48.1986H51.3314C51.6509 48.1986 51.9573 48.3255 52.1833 48.5515C52.4092 48.7774 52.5362 49.0839 52.5362 49.4034C52.5362 49.7229 52.4092 50.0294 52.1833 50.2553C51.9573 50.4813 51.6509 50.6082 51.3314 50.6082H45.9097C45.6178 50.6061 45.3369 50.497 45.1202 50.3016C44.9035 50.1061 44.766 49.8379 44.734 49.5478C43.8316 51.3826 43.4122 53.4171 43.5153 55.4592C43.6184 57.5012 44.2408 59.4832 45.3234 61.2177C46.406 62.9522 47.9132 64.3818 49.7024 65.3715C51.4916 66.3611 53.5036 66.878 55.5482 66.8733C55.2287 66.8733 54.9222 66.7463 54.6963 66.5204C54.4703 66.2944 54.3434 65.988 54.3434 65.6685C54.3434 65.3489 54.4703 65.0425 54.6963 64.8165C54.9222 64.5906 55.2287 64.4636 55.5482 64.4636C58.1045 64.4636 60.5561 63.4481 62.3637 61.6406C64.1713 59.833 65.1868 57.3814 65.1868 54.8251C65.1868 52.2688 64.1713 49.8172 62.3637 48.0096C60.5561 46.202 58.1045 45.1865 55.5482 45.1865ZM57.9579 56.0299H55.5482C55.39 56.0299 55.2333 55.9988 55.0871 55.9383C54.9409 55.8777 54.8081 55.789 54.6962 55.6771C54.5843 55.5652 54.4956 55.4324 54.435 55.2862C54.3745 55.14 54.3434 54.9833 54.3434 54.8251V51.2106C54.3434 50.8911 54.4703 50.5846 54.6963 50.3587C54.9222 50.1327 55.2287 50.0058 55.5482 50.0058C55.8678 50.0058 56.1742 50.1327 56.4002 50.3587C56.6261 50.5846 56.753 50.8911 56.753 51.2106V53.6203H57.9579C58.2774 53.6203 58.5838 53.7472 58.8098 53.9731C59.0357 54.1991 59.1627 54.5055 59.1627 54.8251C59.1627 55.1446 59.0357 55.4511 58.8098 55.677C58.5838 55.903 58.2774 56.0299 57.9579 56.0299Z" fill="#FFBB0C"/>
<path d="M25.4734 39.5C24.2011 39.5 23.1602 40.541 23.1602 41.8133V42.9699C23.1602 44.2422 24.2011 45.2831 25.4734 45.2831C26.7457 45.2831 27.7867 44.2422 27.7867 42.9699V41.8133C27.7867 40.541 26.7457 39.5 25.4734 39.5Z" fill="#00A9B8"/>
<path d="M25.4734 48.1748C24.2011 48.1748 23.1602 49.2158 23.1602 50.4881V51.6447C23.1602 52.917 24.2011 53.9579 25.4734 53.9579C26.7457 53.9579 27.7867 52.917 27.7867 51.6447V50.4881C27.7867 49.2158 26.7457 48.1748 25.4734 48.1748Z" fill="#00A9B8"/>
<path d="M25.4734 56.8496C24.2011 56.8496 23.1602 57.8906 23.1602 59.1629V60.3195C23.1602 61.5918 24.2011 62.6327 25.4734 62.6327C26.7457 62.6327 27.7867 61.5918 27.7867 60.3195V59.1629C27.7867 57.8906 26.7457 56.8496 25.4734 56.8496Z" fill="#00A9B8"/>
<path d="M35.8836 39.5C34.6113 39.5 33.5703 40.541 33.5703 41.8133V42.9699C33.5703 44.2422 34.6113 45.2831 35.8836 45.2831C37.1559 45.2831 38.1968 44.2422 38.1968 42.9699V41.8133C38.1968 40.541 37.1559 39.5 35.8836 39.5Z" fill="#00A9B8"/>
<path d="M35.8836 48.1748C34.6113 48.1748 33.5703 49.2158 33.5703 50.4881V51.6447C33.5703 52.917 34.6113 53.9579 35.8836 53.9579C37.1559 53.9579 38.1968 52.917 38.1968 51.6447V50.4881C38.1968 49.2158 37.1559 48.1748 35.8836 48.1748Z" fill="#00A9B8"/>
<path d="M35.8836 56.8496C34.6113 56.8496 33.5703 57.8906 33.5703 59.1629V60.3195C33.5703 61.5918 34.6113 62.6327 35.8836 62.6327C37.1559 62.6327 38.1968 61.5918 38.1968 60.3195V59.1629C38.1968 57.8906 37.1559 56.8496 35.8836 56.8496Z" fill="#00A9B8"/>
<rect x="0.5" y="0.5" width="86" height="86" rx="9.5" stroke="#EBEAEA"/>
</svg>
