<svg width="64" height="63" viewBox="0 0 64 63" fill="none" xmlns="http://www.w3.org/2000/svg">
<circle cx="29.5277" cy="29.5091" r="23.2757" fill="#53C5E0" fill-opacity="0.14"/>
<path d="M28.566 31.989C28.566 34.0293 26.9121 35.6832 24.8719 35.6832C22.8316 35.6832 21.1777 34.0293 21.1777 31.989C21.1777 29.9488 22.8316 28.2949 24.8719 28.2949C26.9121 28.2949 28.566 29.9488 28.566 31.989Z" fill="#00A9B8"/>
<path fill-rule="evenodd" clip-rule="evenodd" d="M20.5478 44.1201C19.9684 45.0464 18.7475 45.3285 17.8209 44.7494C16.8942 44.1702 16.6125 42.9493 17.1917 42.0226L17.1953 42.0167L17.2024 42.0055L17.2262 41.9679C17.2464 41.9362 17.275 41.8916 17.3111 41.8358C17.3834 41.7245 17.4864 41.5679 17.6133 41.3812C17.8654 41.0107 18.2209 40.5079 18.6245 39.9972C19.0189 39.4983 19.5038 38.9347 20.0164 38.4776C20.2726 38.2491 20.5817 38.0055 20.9302 37.81C21.259 37.6256 21.7731 37.3984 22.4008 37.3984H27.3444C27.9722 37.3984 28.4863 37.6256 28.8151 37.81C29.1637 38.0055 29.4728 38.2491 29.7289 38.4776C30.2415 38.9347 30.7264 39.4983 31.1208 39.9972C31.5245 40.5079 31.88 41.0107 32.132 41.3812C32.2589 41.5679 32.3619 41.7245 32.4342 41.8358C32.4704 41.8916 32.4989 41.9362 32.5191 41.9679L32.543 42.0055L32.55 42.0167L32.5531 42.0217C32.5531 42.0217 32.5191 41.9679 32.5537 42.0226C33.1329 42.9493 32.8511 44.1702 31.9244 44.7494C30.9977 45.3285 29.7771 45.047 29.1978 44.1205L29.1949 44.116L29.1797 44.0918C29.1654 44.0695 29.1432 44.0347 29.1138 43.9894C29.09 43.9526 29.0615 43.909 29.0287 43.8594V46.317L29.7443 53.8318C29.8463 54.9018 29.0755 55.8575 28.0082 55.9844C26.941 56.1113 25.9676 55.3632 25.8155 54.2992L24.8062 47.2341L23.7969 54.2992C23.6449 55.3632 22.6714 56.1113 21.6041 55.9844C20.5369 55.8575 19.7662 54.9018 19.8681 53.8318L20.6983 45.1147H20.7169V43.859C20.6841 43.9087 20.6554 43.9525 20.6315 43.9894C20.6021 44.0347 20.5799 44.0695 20.5657 44.0918L20.5504 44.116L20.5478 44.1201Z" fill="#00A9B8"/>
<path d="M48.3545 31.9887C48.3545 34.0288 46.7007 35.6826 44.6606 35.6826C42.6206 35.6826 40.9668 34.0288 40.9668 31.9887C40.9668 29.9487 42.6206 28.2949 44.6606 28.2949C46.7007 28.2949 48.3545 29.9487 48.3545 31.9887Z" fill="#00A9B8"/>
<path fill-rule="evenodd" clip-rule="evenodd" d="M40.3401 43.9123C39.7653 44.8417 38.5459 45.1297 37.6164 44.5551C36.6867 43.9805 36.399 42.761 36.9736 41.8315L36.9772 41.8256L36.9842 41.8144L37.0078 41.7767C37.0277 41.7451 37.056 41.7004 37.0917 41.6447C37.1632 41.5333 37.265 41.3769 37.3905 41.1902C37.6398 40.8198 37.9914 40.3169 38.3906 39.8062C38.7805 39.3074 39.2604 38.7434 39.7682 38.2856C40.0219 38.0568 40.3287 37.8122 40.6757 37.6155C41.0024 37.4301 41.5176 37.1992 42.1489 37.1992H47.0377C47.6691 37.1992 48.1842 37.4301 48.5109 37.6155C48.8579 37.8122 49.1648 38.0568 49.4185 38.2856C49.9262 38.7434 50.4061 39.3074 50.7961 39.8062C51.1952 40.3169 51.5469 40.8198 51.7961 41.1902C51.9217 41.3769 52.0235 41.5333 52.0949 41.6447C52.1306 41.7004 52.1589 41.7451 52.1789 41.7767L52.2025 41.8144C52.2208 41.8438 52.213 41.8315 52.213 41.8315C52.7877 42.761 52.4999 43.9805 51.5702 44.5551C50.6409 45.1296 49.4219 44.842 48.8471 43.9131L48.844 43.9081L48.8288 43.884C48.8148 43.8616 48.7928 43.8269 48.7637 43.7816C48.7056 43.691 48.6196 43.5588 48.5122 43.3992C48.4677 43.333 48.4198 43.2626 48.3692 43.189C48.8316 45.4949 49.7439 48.6561 50.2215 50.2556C50.3859 50.8059 50.0533 51.3847 49.4913 51.502C45.9911 52.2315 43.5413 52.2125 39.7414 51.4888C39.1624 51.3785 38.8149 50.7844 38.9896 50.2215C39.4884 48.6154 40.4179 45.4867 40.8581 43.1302C40.7922 43.2252 40.7307 43.3155 40.6744 43.3992C40.567 43.5588 40.4811 43.691 40.4229 43.7816C40.3938 43.8269 40.3718 43.8616 40.3578 43.884L40.3426 43.9081L40.3401 43.9123ZM40.2398 53.1798V54.514C40.2398 55.2582 40.791 55.8874 41.5288 55.9851C42.2667 56.083 42.9628 55.6192 43.1568 54.9007L43.5479 53.4517C42.4773 53.4155 41.3899 53.3253 40.2398 53.1798ZM45.8352 53.4468L46.2277 54.9006C46.4216 55.6191 47.1178 56.0829 47.8556 55.985C48.5934 55.8872 49.1446 55.258 49.1446 54.5138V53.1661C47.9941 53.3123 46.9063 53.4062 45.8352 53.4468Z" fill="#00A9B8"/>
<path fill-rule="evenodd" clip-rule="evenodd" d="M52.8042 17.52C52.8042 16.7409 52.1727 16.1094 51.3936 16.1094C50.6145 16.1094 49.9829 16.7409 49.9829 17.52V20.3417H46.6899C45.9109 20.3417 45.2793 20.9733 45.2793 21.7524C45.2793 22.5315 45.9109 23.163 46.6899 23.163H49.9829V26.4541C49.9829 27.2332 50.6145 27.8648 51.3936 27.8648C52.1727 27.8648 52.8042 27.2332 52.8042 26.4541V23.163H55.6241C56.4031 23.163 57.0347 22.5315 57.0347 21.7524C57.0347 20.9733 56.4031 20.3417 55.6241 20.3417H52.8042V17.52Z" fill="#FFBB0C"/>
</svg>
