<svg width="87" height="87" viewBox="0 0 87 87" fill="none" xmlns="http://www.w3.org/2000/svg">
<path d="M48.0025 60.1032H23.7306V61.531C23.7306 62.2883 23.4298 63.0146 22.8943 63.5501C22.3587 64.0857 21.6324 64.3865 20.8751 64.3865C20.1178 64.3865 19.3915 64.0857 18.8559 63.5501C18.3204 63.0146 18.0196 62.2883 18.0196 61.531V24.4092C18.0196 23.6519 17.7187 22.9256 17.1832 22.3901C16.6477 21.8546 15.9214 21.5537 15.1641 21.5537H43.7193C44.8553 21.5537 45.9447 22.005 46.748 22.8083C47.5513 23.6115 48.0025 24.701 48.0025 25.837V60.1032Z" fill="#53C5E0"/>
<path d="M43.0054 28.3356C43.006 26.0479 42.7182 23.7693 42.1487 21.5537H15.1641C15.9214 21.5537 16.6477 21.8546 17.1832 22.3901C17.7187 22.9256 18.0196 23.6519 18.0196 24.4092V55.6772C24.8308 55.0231 31.157 51.8646 35.7729 46.8135C40.3888 41.7624 42.966 35.178 43.0054 28.3356V28.3356Z" fill="#53C5E0"/>
<path d="M48.0026 60.1032H23.7307V61.531C23.7307 62.2883 23.4298 63.0146 22.8943 63.5501C22.3588 64.0857 21.6325 64.3865 20.8752 64.3865H48.0026C48.7599 64.3865 49.4862 64.0857 50.0218 63.5501C50.5573 63.0146 50.8581 62.2883 50.8581 61.531V60.1032H48.0026ZM15.1641 21.5537C15.9214 21.5537 16.6478 21.8546 17.1833 22.3901C17.7188 22.9256 18.0196 23.6519 18.0196 24.4092V30.1203H12.3086V24.4092C12.3086 23.6519 12.6094 22.9256 13.145 22.3901C13.6805 21.8546 14.4068 21.5537 15.1641 21.5537Z" fill="#00A9B8"/>
<path d="M28.0137 33.6895H23.7305V50.8226H28.0137V33.6895Z" fill="#00A9B8"/>
<path d="M35.1544 40.8281H30.8711V50.8224H35.1544V40.8281Z" fill="#00A9B8"/>
<path d="M42.2911 37.9727H38.0078V50.8225H42.2911V37.9727Z" fill="#00A9B8"/>
<g clip-path="url(#clip0_1885_16760)">
<path d="M58.5819 50.8362C58.8168 50.5115 58.955 50.1177 58.955 49.6894C58.955 48.6117 58.0845 47.7412 57.0068 47.7412C55.9291 47.7412 55.0586 48.6117 55.0586 49.6894C55.0586 50.1177 55.1968 50.5115 55.4317 50.8362C55.4317 50.8362 57.4213 54.3181 55.4317 58.5461H57.0068H58.5819C56.5923 54.3181 58.5819 50.8362 58.5819 50.8362Z" fill="#FABD3B"/>
<path d="M63.4856 31.042H56.9778H50.47C50.47 31.042 48.7705 49.5983 56.9778 49.5983C65.4615 49.5983 63.4856 31.042 63.4856 31.042Z" fill="#FFD759"/>
<path d="M60.5281 59.1056C60.5281 59.4095 60.2794 59.6582 59.9754 59.6582H54.041C53.737 59.6582 53.4883 59.4095 53.4883 59.1056C53.4883 58.8016 53.737 58.5529 54.041 58.5529H59.9754C60.2794 58.546 60.5281 58.7947 60.5281 59.1056Z" fill="#FAB72F"/>
<path d="M61.1325 59.6572H52.8906V63.3187H61.1325V59.6572Z" fill="#FFD759"/>
<path d="M61.1231 63.3184H57.0057H52.8882L52.0039 65.0317H57.0057H62.0074L61.1231 63.3184Z" fill="#FFD759"/>
<path d="M64.0663 31.0429C64.0663 31.3469 63.8176 31.5956 63.5136 31.5956H50.498C50.194 31.5956 49.9453 31.3469 49.9453 31.0429C49.9453 30.7389 50.194 30.4902 50.498 30.4902H63.5136C63.8176 30.4902 64.0663 30.7389 64.0663 31.0429Z" fill="#FAB72F"/>
<path d="M60.5311 60.2451H53.4844V62.8634H60.5311V60.2451Z" fill="#FAB72F"/>
<path d="M57.008 42.683C59.4308 42.683 61.3949 40.7189 61.3949 38.2961C61.3949 35.8733 59.4308 33.9092 57.008 33.9092C54.5852 33.9092 52.6211 35.8733 52.6211 38.2961C52.6211 40.7189 54.5852 42.683 57.008 42.683Z" fill="#FAB72F"/>
<path d="M56.5978 41.0524V37.4324C56.5978 37.2458 56.6048 37.0662 56.6393 36.8728L55.4372 37.1837L55.3059 36.4237L56.5978 35.9125H57.7308V41.0524H56.5978ZM51.4855 43.5948C48.5494 41.7986 45.5166 37.3564 45.3646 34.6413C45.3231 33.9367 45.5166 33.3149 45.8758 33.0316C46.4561 32.5826 46.9812 32.5757 47.5408 32.6862C48.4596 32.8727 49.2403 33.4876 49.786 34.0886C49.7653 34.0886 49.7515 34.0817 49.7308 34.0817C49.3715 34.0817 49.0814 34.3719 49.0814 34.7311C49.0814 35.0904 49.3715 35.3805 49.7308 35.3805C50.0486 35.3805 50.318 35.1457 50.3664 34.8417C50.4631 34.9937 50.5391 35.1318 50.5874 35.2355L50.6565 34.7933C50.6151 34.6897 49.5373 32.327 47.7411 31.8779C47.1608 31.7328 46.5943 31.7398 46.0278 31.9746C45.9933 31.4496 45.558 31.042 45.033 31.042C44.4803 31.042 44.0312 31.491 44.0312 32.0437C44.0312 32.5273 44.3767 32.9349 44.8326 33.0316C44.6254 33.4323 44.4872 33.9781 44.5287 34.6828C44.6807 37.3978 47.1815 41.0248 50.4424 43.2493C50.0486 43.2908 49.7377 43.6293 49.7377 44.0369C49.7377 44.4721 50.09 44.8245 50.5253 44.8245C50.9605 44.8245 51.3128 44.4721 51.3128 44.0369C51.3128 43.9471 51.299 43.8573 51.2645 43.7744C51.3336 43.8158 51.4095 43.8573 51.4786 43.8987V43.5948H51.4855ZM69.9796 32.0437C69.9796 31.491 69.5306 31.042 68.9779 31.042C68.4459 31.042 68.0107 31.4565 67.9762 31.9816C67.3959 31.7259 66.8155 31.719 66.2214 31.8641C64.4252 32.3132 63.3475 34.6828 63.306 34.7795L63.3751 35.2216C63.4235 35.118 63.4995 34.9868 63.5962 34.8279C63.6445 35.1318 63.914 35.3667 64.2318 35.3667C64.591 35.3667 64.8812 35.0766 64.8812 34.7173C64.8812 34.3581 64.591 34.0679 64.2318 34.0679C64.211 34.0679 64.1972 34.0748 64.1765 34.0748C64.7223 33.4738 65.5029 32.8658 66.4218 32.6724C66.9813 32.555 67.5064 32.5619 68.0867 33.0178C68.4529 33.3011 68.6394 33.9228 68.5979 34.6275C68.4459 37.3495 65.42 41.7847 62.477 43.5809V43.8849C62.5461 43.8435 62.6221 43.802 62.6912 43.7606C62.6635 43.8435 62.6428 43.9333 62.6428 44.0231C62.6428 44.4583 62.9951 44.8107 63.4304 44.8107C63.8656 44.8107 64.2179 44.4583 64.2179 44.0231C64.2179 43.6155 63.9071 43.2839 63.5133 43.2355C66.7741 41.011 69.2819 37.3909 69.427 34.669C69.4684 33.9712 69.3233 33.4254 69.123 33.0247C69.6135 32.9626 69.9796 32.548 69.9796 32.0437Z" fill="#FFD759"/>
</g>
<rect x="0.5" y="0.5" width="86" height="86" rx="9.5" stroke="#EBEAEA"/>
<defs>
<clipPath id="clip0_1885_16760">
<rect width="35.3716" height="35.3716" fill="white" transform="translate(39.3203 30.0752)"/>
</clipPath>
</defs>
</svg>
