<svg width="62" height="63" viewBox="0 0 62 63" fill="none" xmlns="http://www.w3.org/2000/svg">
<circle cx="29.2972" cy="29.2982" r="23.2757" fill="#53C5E0" fill-opacity="0.14"/>
<path fill-rule="evenodd" clip-rule="evenodd" d="M51.3595 13.3949C51.3595 12.6499 50.7555 12.0459 50.0104 12.0459C49.2654 12.0459 48.6614 12.6499 48.6614 13.3949V16.0915H45.5151C44.77 16.0915 44.166 16.6955 44.166 17.4405C44.166 18.1856 44.77 18.7896 45.5151 18.7896H48.6614V21.9389C48.6614 22.6839 49.2654 23.2879 50.0104 23.2879C50.7555 23.2879 51.3595 22.6839 51.3595 21.9389V18.7896H54.059C54.804 18.7896 55.408 18.1856 55.408 17.4405C55.408 16.6955 54.804 16.0915 54.059 16.0915H51.3595V13.3949Z" fill="#FFBB0C"/>
<path d="M32.2911 47.4697H19.1172C18.251 47.4697 17.5488 48.1719 17.5488 49.0381C17.5488 49.9042 18.251 50.6064 19.1172 50.6064H32.2911C33.1573 50.6064 33.8595 49.9042 33.8595 49.0381C33.8595 48.1719 33.1573 47.4697 32.2911 47.4697Z" fill="#00A9B8"/>
<path d="M15.8054 21.0781H42.1534C42.4862 21.0781 42.8053 21.2103 43.0406 21.4456C43.2759 21.6809 43.4081 22 43.4081 22.3328V48.6808H19.2742C16.6655 48.6808 14.5508 46.566 14.5508 43.9573V22.3328C14.5508 22 14.683 21.6809 14.9183 21.4456C15.1536 21.2103 15.4727 21.0781 15.8054 21.0781Z" fill="#53C5E0"/>
<path d="M15.8054 21.0781H42.1534C42.4862 21.0781 42.8053 21.2103 43.0406 21.4456C43.2759 21.6809 43.4081 22 43.4081 22.3328V26.0968H14.5508V22.3328C14.5508 22 14.683 21.6809 14.9183 21.4456C15.1536 21.2103 15.4727 21.0781 15.8054 21.0781Z" fill="#00A9B8"/>
<path d="M19.5711 32.3697C20.264 32.3697 20.8257 31.8079 20.8257 31.115C20.8257 30.4221 20.264 29.8604 19.5711 29.8604C18.8781 29.8604 18.3164 30.4221 18.3164 31.115C18.3164 31.8079 18.8781 32.3697 19.5711 32.3697Z" fill="#00A9B8"/>
<path d="M25.8426 32.3697C26.5355 32.3697 27.0972 31.8079 27.0972 31.115C27.0972 30.4221 26.5355 29.8604 25.8426 29.8604C25.1496 29.8604 24.5879 30.4221 24.5879 31.115C24.5879 31.8079 25.1496 32.3697 25.8426 32.3697Z" fill="#00A9B8"/>
<path d="M32.116 32.3697C32.8089 32.3697 33.3707 31.8079 33.3707 31.115C33.3707 30.4221 32.8089 29.8604 32.116 29.8604C31.4231 29.8604 30.8613 30.4221 30.8613 31.115C30.8613 31.8079 31.4231 32.3697 32.116 32.3697Z" fill="#00A9B8"/>
<path d="M19.5711 37.3892C20.264 37.3892 20.8257 36.8275 20.8257 36.1345C20.8257 35.4416 20.264 34.8799 19.5711 34.8799C18.8781 34.8799 18.3164 35.4416 18.3164 36.1345C18.3164 36.8275 18.8781 37.3892 19.5711 37.3892Z" fill="#00A9B8"/>
<path d="M25.8426 37.3892C26.5355 37.3892 27.0972 36.8275 27.0972 36.1345C27.0972 35.4416 26.5355 34.8799 25.8426 34.8799C25.1496 34.8799 24.5879 35.4416 24.5879 36.1345C24.5879 36.8275 25.1496 37.3892 25.8426 37.3892Z" fill="#FFBB0C"/>
<path d="M19.5711 42.4078C20.264 42.4078 20.8257 41.846 20.8257 41.1531C20.8257 40.4602 20.264 39.8984 19.5711 39.8984C18.8781 39.8984 18.3164 40.4602 18.3164 41.1531C18.3164 41.846 18.8781 42.4078 19.5711 42.4078Z" fill="#00A9B8"/>
<path d="M25.8426 42.4078C26.5355 42.4078 27.0972 41.846 27.0972 41.1531C27.0972 40.4602 26.5355 39.8984 25.8426 39.8984C25.1496 39.8984 24.5879 40.4602 24.5879 41.1531C24.5879 41.846 25.1496 42.4078 25.8426 42.4078Z" fill="#00A9B8"/>
<path d="M39.6428 53.0727C45.1862 53.0727 49.6801 48.5788 49.6801 43.0354C49.6801 37.4919 45.1862 32.998 39.6428 32.998C34.0993 32.998 29.6055 37.4919 29.6055 43.0354C29.6055 48.5788 34.0993 53.0727 39.6428 53.0727Z" fill="#00A9B8"/>
<path d="M39.6432 50.5628C43.8008 50.5628 47.1712 47.1924 47.1712 43.0348C47.1712 38.8772 43.8008 35.5068 39.6432 35.5068C35.4856 35.5068 32.1152 38.8772 32.1152 43.0348C32.1152 47.1924 35.4856 50.5628 39.6432 50.5628Z" fill="white"/>
<path d="M39.6438 44.2901C39.6135 44.2903 39.5833 44.288 39.5535 44.2832C39.4665 44.2706 39.3831 44.2398 39.3087 44.1929C39.2344 44.146 39.1707 44.084 39.1219 44.0109L37.8672 42.1289C37.7749 41.9905 37.7413 41.821 37.7739 41.6579C37.8065 41.4947 37.9025 41.3511 38.041 41.2588C38.1794 41.1665 38.3488 41.1329 38.512 41.1655C38.6752 41.1981 38.8187 41.2941 38.9111 41.4326L39.7787 42.7343L43.0063 40.0437C43.1342 39.9372 43.2993 39.8859 43.465 39.9011C43.6308 39.9162 43.7837 39.9966 43.8902 40.1246C43.9967 40.2525 44.048 40.4175 44.0328 40.5833C44.0176 40.7491 43.9372 40.902 43.8093 41.0085L40.0453 44.1452C39.9325 44.2389 39.7905 44.2902 39.6438 44.2901Z" fill="#FFBB0C"/>
<path d="M39.6449 48.0535C39.4785 48.0535 39.319 48.1196 39.2013 48.2372C39.0837 48.3549 39.0176 48.5144 39.0176 48.6808V50.5315C39.2252 50.5484 39.4329 50.5628 39.6449 50.5628C39.8569 50.5628 40.0646 50.5484 40.2722 50.5315V48.6808C40.2722 48.5144 40.2061 48.3549 40.0885 48.2372C39.9709 48.1196 39.8113 48.0535 39.6449 48.0535ZM39.6449 35.5068C39.4329 35.5068 39.2252 35.5213 39.0176 35.5382V37.3888C39.0176 37.5552 39.0837 37.7148 39.2013 37.8324C39.319 37.9501 39.4785 38.0162 39.6449 38.0162C39.8113 38.0162 39.9709 37.9501 40.0885 37.8324C40.2061 37.7148 40.2722 37.5552 40.2722 37.3888V35.5382C40.0646 35.5213 39.8569 35.5068 39.6449 35.5068Z" fill="#00A9B8"/>
<path d="M19.5711 19.1973C19.9038 19.1973 20.223 19.3295 20.4583 19.5647C20.6935 19.8 20.8257 20.1192 20.8257 20.4519V22.9613H18.3164V20.4519C18.3164 20.1192 18.4486 19.8 18.6839 19.5647C18.9192 19.3295 19.2383 19.1973 19.5711 19.1973ZM25.8444 19.1973C26.1772 19.1973 26.4963 19.3295 26.7316 19.5647C26.9669 19.8 27.0991 20.1192 27.0991 20.4519V22.9613H24.5897V20.4519C24.5897 20.1192 24.7219 19.8 24.9572 19.5647C25.1925 19.3295 25.5116 19.1973 25.8444 19.1973ZM32.1177 19.1973C32.4505 19.1973 32.7696 19.3295 33.0049 19.5647C33.2402 19.8 33.3724 20.1192 33.3724 20.4519V22.9613H30.8631V20.4519C30.8631 20.1192 30.9952 19.8 31.2305 19.5647C31.4658 19.3295 31.785 19.1973 32.1177 19.1973ZM38.391 19.1973C38.7238 19.1973 39.0429 19.3295 39.2782 19.5647C39.5135 19.8 39.6457 20.1192 39.6457 20.4519V22.9613H37.1364V20.4519C37.1364 20.1192 37.2686 19.8 37.5039 19.5647C37.7392 19.3295 38.0583 19.1973 38.391 19.1973Z" fill="#00A9B8"/>
<path d="M33.9972 44.2898C34.1636 44.2898 34.3232 44.2237 34.4408 44.1061C34.5585 43.9884 34.6246 43.8289 34.6246 43.6625C34.6246 43.4961 34.5585 43.3365 34.4408 43.2189C34.3232 43.1012 34.1636 43.0352 33.9972 43.0352H32.1152C32.1177 43.4558 32.1555 43.8755 32.2282 44.2898H33.9972ZM44.6619 43.6625C44.6619 43.8289 44.728 43.9884 44.8456 44.1061C44.9633 44.2237 45.1228 44.2898 45.2892 44.2898H47.0583C47.131 43.8755 47.1687 43.4558 47.1712 43.0352H45.2892C45.1228 43.0352 44.9633 43.1012 44.8456 43.2189C44.728 43.3365 44.6619 43.4961 44.6619 43.6625Z" fill="#00A9B8"/>
</svg>
