<svg width="62" height="61" viewBox="0 0 62 61" fill="none" xmlns="http://www.w3.org/2000/svg">
<circle cx="29.7855" cy="29.3031" r="23.2757" fill="#53C5E0" fill-opacity="0.14"/>
<path fill-rule="evenodd" clip-rule="evenodd" d="M51.8437 15.4067C51.8437 14.6616 51.2397 14.0576 50.4947 14.0576C49.7496 14.0576 49.1456 14.6616 49.1456 15.4067V18.1032H45.9975C45.2524 18.1032 44.6484 18.7072 44.6484 19.4522C44.6484 20.1973 45.2524 20.8013 45.9975 20.8013H49.1456V23.9506C49.1456 24.6956 49.7496 25.2996 50.4947 25.2996C51.2397 25.2996 51.8437 24.6956 51.8437 23.9506V20.8013H54.5414C55.2864 20.8013 55.8904 20.1973 55.8904 19.4522C55.8904 18.7072 55.2864 18.1032 54.5414 18.1032H51.8437V15.4067Z" fill="#FFBB0C"/>
<path d="M16.5488 24.8821C16.5488 22.9387 18.1243 21.3633 20.0676 21.3633V42.4761H18.4255C17.3891 42.4761 16.5488 41.6359 16.5488 40.5994V24.8821Z" fill="#00A9B8"/>
<path d="M20.0684 21.3633H41.1812C43.7723 21.3633 45.8729 23.4638 45.8729 26.055V49.5137C45.8729 52.1049 43.7723 54.2054 41.1812 54.2054H24.7601C22.1689 54.2054 20.0684 52.1049 20.0684 49.5137V21.3633Z" fill="#53C5E0"/>
<rect x="24.7598" y="28.3984" width="16.4211" height="2.34587" rx="1.17293" fill="#00A9B8"/>
<rect x="24.7598" y="35.4365" width="16.4211" height="2.34587" rx="1.17293" fill="#00A9B8"/>
<rect x="24.7598" y="42.4746" width="16.4211" height="2.34587" rx="1.17293" fill="#00A9B8"/>
</svg>
