<svg width="41" height="45" viewBox="0 0 41 45" fill="none" xmlns="http://www.w3.org/2000/svg">
<circle cx="17.7632" cy="17.7632" r="17.7632" fill="#53C5E0" fill-opacity="0.14"/>
<path d="M37.318 32.0682V19.9053C37.318 19.4607 37.0001 19.0796 36.5627 18.9998L22.0861 16.36C21.8229 16.312 21.5519 16.3809 21.3436 16.5487L15.8896 20.9422C15.4472 21.2986 15.4301 21.9667 15.8537 22.3452L18.8652 25.0364C19.1659 25.3051 19.6063 25.3468 19.952 25.1393L21.4042 24.2681C21.5776 24.164 21.7806 24.12 21.9816 24.1428L29.2333 24.9669C29.5652 25.0046 29.8506 25.2191 29.979 25.5274L31.0807 28.1714C31.3333 28.7776 30.8879 29.4457 30.2311 29.4457H23.9328C23.898 29.4457 23.8643 29.4475 23.8299 29.4532C23.4831 29.511 21.4765 29.9516 21.6717 32.3909C21.846 34.5704 24.663 34.5203 24.9597 34.5089C24.9778 34.5082 24.994 34.5078 25.012 34.5078H33.4831C33.5239 34.5078 33.5645 34.5051 33.6049 34.499C33.8849 34.457 35.0719 34.2606 35.7533 33.8635C36.2568 33.5701 36.8155 32.974 37.11 32.6372C37.2475 32.4799 37.318 32.2771 37.318 32.0682Z" fill="#53C5E0"/>
<path d="M37.318 32.0682V19.9053C37.318 19.4607 37.0001 19.0796 36.5627 18.9998L22.0942 16.3615C21.8264 16.3126 21.5507 16.3849 21.3412 16.5588L17.1262 20.058C16.9156 20.2329 16.7937 20.4924 16.7937 20.7662V22.2197C16.7937 22.7101 17.1783 23.1144 17.6681 23.1389L24.0543 23.4582C24.1223 23.4616 24.1898 23.4725 24.2554 23.4908L29.3404 24.908C29.6122 24.9837 29.8343 25.18 29.9428 25.4405L31.0807 28.1714C31.3333 28.7776 30.8879 29.4457 30.2311 29.4457H23.9328C23.898 29.4457 23.8643 29.4475 23.8299 29.4532C23.4831 29.511 21.4765 29.9516 21.6717 32.3909C21.846 34.5704 24.663 34.5203 24.9598 34.5089C24.9778 34.5082 24.994 34.5078 25.012 34.5078H33.4831C33.524 34.5078 33.5645 34.5051 33.6049 34.499C33.885 34.457 35.0719 34.2606 35.7533 33.8635C36.2568 33.5701 36.8156 32.974 37.11 32.6372C37.2475 32.4799 37.318 32.2771 37.318 32.0682Z" stroke="#00A9B8" stroke-width="1.65667"/>
<path d="M26.5036 29.1005C26.5047 29.6532 26.4554 30.2048 26.3565 30.7485C26.3075 31.0231 26.2486 31.288 26.175 31.5528C26.069 31.9478 25.9346 32.3347 25.7728 32.7103C25.3051 33.8336 24.6181 34.8523 23.7522 35.707C22.6952 36.7563 21.4021 37.5371 19.9813 37.9839C18.5605 38.4306 17.0533 38.5305 15.586 38.2749C14.1187 38.0194 12.734 37.416 11.5478 36.5152C10.3617 35.6145 9.40866 34.4426 8.76858 33.0978L8.76368 33.0929C8.16861 31.8463 7.86185 30.4818 7.86613 29.1005C7.86613 28.8357 7.87594 28.5708 7.90047 28.3109C7.89858 28.2827 7.9019 28.2545 7.91027 28.2275C8.10943 26.1223 9.01846 24.1473 10.4881 22.6269C11.9578 21.1064 13.9007 20.1308 15.998 19.8603C16.3913 19.8068 16.7879 19.7806 17.1849 19.7818C18.8519 19.779 20.4888 20.2263 21.9227 21.0766C21.9227 21.0772 21.9228 21.0779 21.9231 21.0785C21.9233 21.0791 21.9237 21.0796 21.9241 21.0801C21.9246 21.0805 21.9252 21.0809 21.9258 21.0811C21.9264 21.0814 21.927 21.0815 21.9276 21.0815C22.1691 21.2231 22.4032 21.377 22.629 21.5425C23.3395 22.0497 23.9723 22.6577 24.5075 23.3474C24.9523 23.9048 25.3278 24.5142 25.6257 25.1621C25.6306 25.167 25.6355 25.1719 25.6355 25.1768C25.7385 25.3926 25.8366 25.6182 25.92 25.8438C26.0132 26.1038 26.1015 26.3735 26.175 26.6482C26.2192 26.8101 26.2633 26.9768 26.2927 27.1387C26.3418 27.3594 26.381 27.5801 26.4104 27.8057C26.4739 28.2344 26.505 28.6672 26.5036 29.1005V29.1005Z" fill="#FFD569"/>
<path d="M24.985 29.0801C24.9858 29.5442 24.9445 30.0075 24.8614 30.4641C24.8203 30.6947 24.7708 30.9171 24.7091 31.1395C24.6201 31.4713 24.5072 31.7961 24.3715 32.1116C23.9788 33.0549 23.4021 33.9104 22.6751 34.6282C21.7877 35.5094 20.7022 36.165 19.5094 36.5402C18.3167 36.9154 17.0514 36.9992 15.8196 36.7846C14.5878 36.5701 13.4253 36.0633 12.4295 35.3069C11.4337 34.5505 10.6337 33.5663 10.0963 32.437L10.0922 32.4328C9.59265 31.386 9.33512 30.2401 9.33872 29.0801C9.33872 28.8577 9.34696 28.6353 9.36754 28.417C9.36596 28.3934 9.36875 28.3696 9.37578 28.347C9.54297 26.5791 10.3061 24.9205 11.5399 23.6437C12.7737 22.3668 14.4048 21.5475 16.1654 21.3203C16.4956 21.2754 16.8286 21.2534 17.1618 21.2544C18.5613 21.2521 19.9355 21.6278 21.1393 22.3418C21.1393 22.3423 21.1394 22.3429 21.1396 22.3434C21.1398 22.3439 21.1401 22.3443 21.1405 22.3447C21.1408 22.3451 21.1413 22.3454 21.1418 22.3456C21.1423 22.3458 21.1428 22.3459 21.1434 22.3459C21.3461 22.4648 21.5426 22.5941 21.7322 22.7331C22.3287 23.159 22.8599 23.6696 23.3092 24.2488C23.6826 24.7169 23.9978 25.2286 24.2479 25.7727C24.252 25.7768 24.2562 25.781 24.2562 25.7851C24.3426 25.9663 24.425 26.1558 24.495 26.3452C24.5732 26.5635 24.6473 26.7901 24.7091 27.0207C24.7461 27.1566 24.7832 27.2967 24.8079 27.4326C24.8491 27.618 24.882 27.8033 24.9067 27.9928C24.96 28.3528 24.9861 28.7162 24.985 29.0801V29.0801Z" fill="#FFBE16"/>
<path d="M25.012 34.5077H32.2078C32.8528 34.5077 33.2977 33.8616 33.0677 33.259L31.8377 30.0378C31.7016 29.6812 31.3595 29.4457 30.9779 29.4457H23.9328C23.898 29.4457 23.8643 29.4474 23.8299 29.4532C23.4831 29.5109 21.4765 29.9515 21.6717 32.3909C21.846 34.5704 24.663 34.5202 24.9598 34.5089C24.9778 34.5082 24.994 34.5077 25.012 34.5077Z" fill="#53C5E0"/>
<path d="M29.7709 25.0279L31.0807 28.1714C31.3333 28.7776 30.8879 29.4457 30.2311 29.4457H23.9328C23.898 29.4457 23.8643 29.4475 23.8299 29.4532C23.4831 29.511 21.4765 29.9516 21.6717 32.3909C21.846 34.5704 24.663 34.5203 24.9598 34.5089C24.9778 34.5082 24.994 34.5078 25.012 34.5078H33.4831C33.5239 34.5078 33.5645 34.5051 33.6049 34.499C33.885 34.457 35.0719 34.2606 35.7533 33.8635C36.2568 33.5701 36.8155 32.974 37.11 32.6372C37.2475 32.4799 37.318 32.2771 37.318 32.0682V19.9053C37.318 19.4607 37.0001 19.0796 36.5627 18.9998L21.6717 16.2844" stroke="#00A9B8" stroke-width="1.65667"/>
</svg>
