<svg width="17" height="17" viewBox="0 0 13 14" fill="none" xmlns="http://www.w3.org/2000/svg">
<path d="M2.10196 13.2533H9.98534C10.2065 13.2533 10.4185 13.1709 10.5749 13.0243C10.7313 12.8777 10.8191 12.6789 10.8191 12.4716V4.26409C10.8191 4.16043 10.7752 4.06102 10.697 3.98773C10.6188 3.91443 10.5128 3.87325 10.4022 3.87325H3.33512C3.31427 3.87325 3.27342 3.87638 3.23423 3.87873L2.10196 3.87325C1.40242 3.87325 0.833779 3.3722 0.833779 2.71717C0.833779 2.06135 1.38491 1.52825 2.08445 1.52825H11.6729V10.5174C11.6729 10.7332 11.8397 10.9083 12.0706 10.9083C12.3016 10.9083 12.5067 10.7332 12.5067 10.5174V1.13742C12.5067 0.921676 12.3007 0.746582 12.0706 0.746582H2.10196C1.55017 0.74674 1.02063 0.950547 0.627888 1.31391C0.235148 1.67728 0.0107858 2.17099 0.00333512 2.68824L0 2.68434V11.2827C0.000110526 11.8053 0.221602 12.3064 0.615771 12.676C1.00994 13.0455 1.54452 13.2532 2.10196 13.2533Z" fill="#232323"/>
</svg>
