<svg width="14" height="15" viewBox="0 0 14 15" fill="none" xmlns="http://www.w3.org/2000/svg">
<g clip-path="url(#clip0_1506_13079)">
<path d="M2.85083 15H10.73C10.951 15 11.163 14.9012 11.3193 14.7254C11.4755 14.5496 11.5633 14.3111 11.5633 14.0625V4.21875C11.5633 4.09443 11.5194 3.9752 11.4413 3.88729C11.3632 3.79939 11.2572 3.75 11.1467 3.75H4.08333C4.0625 3.75 4.02167 3.75375 3.9825 3.75656L2.85083 3.75C2.15167 3.75 1.58333 3.14906 1.58333 2.36344C1.58333 1.57687 2.13417 0.9375 2.83333 0.9375H12.4167V11.7188C12.4167 11.9775 12.5833 12.1875 12.8142 12.1875C13.045 12.1875 13.25 11.9775 13.25 11.7188V0.46875C13.25 0.21 13.0442 0 12.8142 0H2.85083C2.29934 0.000189836 1.77008 0.244627 1.37755 0.680433C0.985023 1.11624 0.76078 1.70838 0.753333 2.32875L0.75 2.32406V12.6366C0.75011 13.2633 0.971483 13.8644 1.36544 14.3076C1.7594 14.7508 2.29369 14.9999 2.85083 15V15Z" fill="#C0C0C0"/>
</g>
<defs>
<clipPath id="clip0_1506_13079">
<rect width="12.5" height="15" fill="white" transform="translate(0.75)"/>
</clipPath>
</defs>
</svg>
