<svg width="20" height="20" viewBox="0 0 19 19" fill="none" xmlns="http://www.w3.org/2000/svg">
<path d="M3.19327 19H15.1696C15.5055 19 15.8277 18.8749 16.0653 18.6522C16.3028 18.4295 16.4363 18.1274 16.4363 17.8125V5.34375C16.4363 5.18628 16.3695 5.03526 16.2508 4.92391C16.132 4.81256 15.9709 4.75 15.8029 4.75H5.06667C5.035 4.75 4.97293 4.75475 4.9134 4.75831L3.19327 4.75C2.13053 4.75 1.26667 3.98881 1.26667 2.99369C1.26667 1.99737 2.10393 1.1875 3.16667 1.1875H17.7333V14.8438C17.7333 15.1715 17.9867 15.4375 18.3375 15.4375C18.6884 15.4375 19 15.1715 19 14.8438V0.59375C19 0.266 18.6871 0 18.3375 0H3.19327C2.355 0.000240459 1.55052 0.30986 0.95388 0.861882C0.357235 1.4139 0.0163856 2.16394 0.00506667 2.94975L0 2.94381V16.0063C0.00016791 16.8002 0.336654 17.5616 0.935472 18.123C1.53429 18.6844 2.34641 18.9998 3.19327 19V19Z" fill="white"/>
</svg>
