<svg width="20" height="21" viewBox="0 0 20 21" fill="none" xmlns="http://www.w3.org/2000/svg">
<path d="M11.4371 3.21545C11.1073 3.21545 10.7911 3.34209 10.5579 3.56752C10.3247 3.79294 10.1937 4.09868 10.1937 4.41747V12.4309H12.6804V4.41747C12.6804 4.09868 12.5494 3.79294 12.3163 3.56752C12.0831 3.34209 11.7668 3.21545 11.4371 3.21545V3.21545ZM8.53591 4.81814C8.20615 4.81814 7.8899 4.94478 7.65673 5.1702C7.42355 5.39563 7.29256 5.70136 7.29256 6.02016V12.4309H9.77927V6.02016C9.77927 5.70136 9.64827 5.39563 9.4151 5.1702C9.18192 4.94478 8.86567 4.81814 8.53591 4.81814ZM5.63475 6.42083C5.30499 6.42083 4.98874 6.54747 4.75557 6.77289C4.52239 6.99831 4.3914 7.30405 4.3914 7.62284V12.4309H6.8781V7.62284C6.8781 7.30405 6.74711 6.99831 6.51393 6.77289C6.28076 6.54747 5.96451 6.42083 5.63475 6.42083V6.42083ZM2.73359 8.02352C2.40383 8.02352 2.08758 8.15016 1.8544 8.37558C1.62123 8.601 1.49023 8.90674 1.49023 9.22553V12.4309H3.97694V9.22553C3.97694 8.90674 3.84595 8.601 3.61277 8.37558C3.3796 8.15016 3.06335 8.02352 2.73359 8.02352V8.02352Z" fill="white"/>
</svg>
