<svg width="26" height="22" viewBox="0 0 26 22" fill="none" xmlns="http://www.w3.org/2000/svg">
<path d="M25.994 5.79379V9.99379C25.994 10.0767 25.9608 10.1562 25.9018 10.2148C25.8429 10.2734 25.7629 10.3063 25.6794 10.3063H24.3899C24.3065 10.3063 24.2265 10.2734 24.1675 10.2148C24.1085 10.1562 24.0754 10.0767 24.0754 9.99379V8.73754L22.7984 10.0063C23.7092 11.2077 24.2016 12.671 24.2012 14.175C24.2012 14.3875 24.1886 14.6 24.176 14.8063C24.1868 14.8449 24.191 14.885 24.1886 14.925C24.0585 16.2279 23.5588 17.4673 22.7476 18.499C21.9363 19.5307 20.8469 20.3123 19.6061 20.753C18.3652 21.1936 17.024 21.2751 15.7383 20.988C14.4527 20.701 13.2755 20.0571 12.3437 19.1313C11.1815 17.9698 10.4688 16.4384 10.3308 14.8063C10.3245 14.7375 10.3182 14.6688 10.3182 14.6C11.0412 14.2671 11.7076 13.8243 12.2934 13.2875C12.2376 13.5801 12.2102 13.8773 12.2116 14.175C12.2108 14.9987 12.4145 15.8098 12.8048 16.5365C13.195 17.2632 13.7596 17.883 14.4486 18.3409C15.1376 18.7989 15.9297 19.0809 16.7546 19.1619C17.5796 19.2429 18.4119 19.1205 19.1778 18.8054C19.9437 18.4903 20.6195 17.9923 21.1454 17.3556C21.6712 16.7189 22.0309 15.9631 22.1924 15.1553C22.3539 14.3474 22.3122 13.5124 22.0712 12.7244C21.8302 11.9363 21.3972 11.2195 20.8106 10.6375C20.4569 10.2911 20.0568 9.99454 19.6218 9.75629H19.6155C19.1827 9.52652 18.7186 9.36021 18.2379 9.26254C17.9125 9.1998 17.5817 9.16841 17.2503 9.16879C16.2533 9.17198 15.2795 9.46768 14.451 10.0188C14.1765 10.1985 13.9215 10.4058 13.6899 10.6375C13.5744 10.7502 13.4652 10.8692 13.3628 10.9938C13.1909 11.2034 13.0373 11.4271 12.9036 11.6625C12.891 11.6688 12.8847 11.675 12.891 11.6813C12.4931 12.2495 12.0093 12.7534 11.4568 13.175C11.104 13.4447 10.7295 13.6851 10.3371 13.8938C10.3308 13.9 10.3245 13.9 10.3182 13.9063C10.2942 13.9193 10.2689 13.9298 10.2427 13.9375C9.58272 14.2665 8.87303 14.4861 8.14172 14.5875C8.13434 14.5925 8.12542 14.5947 8.11656 14.5938V16.025H9.51303C9.59645 16.025 9.67645 16.058 9.73543 16.1166C9.79442 16.1752 9.82755 16.2547 9.82755 16.3375V17.6188C9.82755 17.7017 9.79442 17.7812 9.73543 17.8398C9.67645 17.8984 9.59645 17.9313 9.51303 17.9313H8.11656V19.3375C8.11526 19.42 8.08171 19.4988 8.023 19.5571C7.96429 19.6154 7.88505 19.6488 7.80203 19.65H6.5125C6.42908 19.65 6.34908 19.6171 6.2901 19.5585C6.23111 19.4999 6.19797 19.4204 6.19797 19.3375V17.9313H4.80779C4.72437 17.9313 4.64437 17.8984 4.58539 17.8398C4.5264 17.7812 4.49327 17.7017 4.49327 17.6188V16.3375C4.49327 16.2547 4.5264 16.1752 4.58539 16.1166C4.64437 16.058 4.72437 16.025 4.80779 16.025H6.19797V14.5938C4.53278 14.3707 3.00617 13.5532 1.90308 12.2939C0.799978 11.0346 0.195761 9.41949 0.203193 7.75004C0.206238 6.31724 0.654392 4.9203 1.48644 3.75004C2.12786 2.84857 2.97834 2.11384 3.96596 1.60797C4.95358 1.1021 6.04929 0.839988 7.16041 0.843791C7.51422 0.844763 7.86746 0.871921 8.2172 0.925041C9.26797 1.07986 10.2684 1.47411 11.1404 2.07695C12.0123 2.6798 12.732 3.47489 13.2433 4.40004V4.40629C13.7012 5.22771 13.9838 6.13405 14.0736 7.06879V7.10004C14.0799 7.17504 14.0925 7.25004 14.0925 7.32504C13.8025 7.45378 13.5228 7.60421 13.2558 7.77504C12.846 8.02349 12.4624 8.31246 12.111 8.63754C12.2537 7.84406 12.2012 7.02807 11.958 6.25909C11.7148 5.49011 11.2881 4.79095 10.7143 4.22119C10.1405 3.65142 9.43648 3.22795 8.66236 2.98685C7.88824 2.74575 7.06693 2.69418 6.26842 2.83652C5.46991 2.97887 4.71787 3.31091 4.07639 3.80436C3.43492 4.29781 2.92302 4.93804 2.58432 5.67047C2.24563 6.40291 2.09018 7.20585 2.13121 8.01087C2.17225 8.81588 2.40856 9.5991 2.82001 10.2938C3.47515 11.3856 4.5191 12.193 5.74506 12.5563C5.92726 12.6075 6.11203 12.6492 6.29862 12.6813C7.18108 12.8347 8.08878 12.7504 8.92732 12.4371C9.76586 12.1238 10.5046 11.5931 11.0668 10.9C11.0731 10.8938 11.0731 10.8938 11.0731 10.8875C11.136 10.8125 11.1989 10.7313 11.2555 10.65C11.2618 10.6438 11.2618 10.6375 11.2744 10.6313C11.2876 10.6044 11.4681 10.3482 11.4819 10.3063C11.4819 10.3063 11.4857 10.3019 11.4882 10.3C11.9628 9.60389 12.562 9.00015 13.2558 8.51879C13.4217 8.40123 13.5939 8.29273 13.7717 8.19379C14.153 7.9675 14.558 7.78308 14.9794 7.64379C16.0581 7.27621 17.2109 7.17687 18.3371 7.35447C19.4634 7.53207 20.5286 7.98119 21.4397 8.66254L22.7167 7.38754H21.4523C21.3689 7.38754 21.2889 7.35462 21.2299 7.29601C21.1709 7.23741 21.1378 7.15792 21.1378 7.07504V5.79379C21.1378 5.71091 21.1709 5.63142 21.2299 5.57282C21.2889 5.51421 21.3689 5.48129 21.4523 5.48129H25.6794C25.7629 5.48129 25.8429 5.51421 25.9018 5.57282C25.9608 5.63142 25.994 5.71091 25.994 5.79379Z" fill="#232323"/>
</svg>
