<svg width="30" height="30" viewBox="0 0 30 30" fill="none" xmlns="http://www.w3.org/2000/svg">
<path d="M22.009 8.04344C22.0097 6.76962 21.6634 5.51967 21.007 4.42794C20.3507 3.33621 19.4093 2.44398 18.284 1.84714C17.1586 1.25031 15.8919 0.971441 14.62 1.04051C13.348 1.10958 12.1189 1.52397 11.0648 2.23916C10.0107 2.95434 9.17146 3.94327 8.63723 5.09965C8.10299 6.25603 7.894 7.53613 8.03271 8.80238C8.17142 10.0686 8.65258 11.2731 9.42449 12.2864C10.1964 13.2997 11.2299 14.0835 12.4138 14.5535V24.7831C12.4138 24.818 12.4207 24.8526 12.434 24.8848C12.4474 24.917 12.467 24.9463 12.4916 24.971L15.3787 27.8581C15.4285 27.9079 15.4961 27.9359 15.5666 27.9359C15.6371 27.9359 15.7047 27.9079 15.7545 27.8581L18.539 25.0736C18.5875 25.0251 18.6153 24.9597 18.6167 24.8911C18.6181 24.8225 18.5929 24.756 18.5464 24.7056L16.5008 22.4865C16.4765 22.4601 16.4578 22.4292 16.4458 22.3954C16.4338 22.3616 16.4288 22.3258 16.431 22.29C16.4332 22.2543 16.4426 22.2193 16.4587 22.1873C16.4747 22.1553 16.4971 22.1268 16.5244 22.1037L18.5267 20.4071C18.5787 20.3631 18.6118 20.3008 18.6191 20.233C18.6264 20.1653 18.6075 20.0973 18.5662 20.0432L16.3676 17.1625C16.3322 17.1162 16.3131 17.0595 16.3131 17.0013V14.9252C17.9148 14.6199 19.36 13.7656 20.3996 12.5095C21.4393 11.2534 22.0084 9.67401 22.009 8.04344ZM15 8.04344C14.5841 8.04345 14.1776 7.92014 13.8318 7.68909C13.486 7.45805 13.2165 7.12965 13.0573 6.74543C12.8981 6.36121 12.8565 5.93842 12.9376 5.53053C13.0188 5.12264 13.219 4.74797 13.5131 4.4539C13.8071 4.15982 14.1818 3.95955 14.5897 3.87841C14.9976 3.79727 15.4204 3.83891 15.8046 3.99805C16.1888 4.1572 16.5172 4.4267 16.7483 4.77249C16.9793 5.11828 17.1027 5.52482 17.1027 5.9407C17.1027 6.21683 17.0483 6.49026 16.9426 6.74538C16.837 7.00049 16.6821 7.2323 16.4868 7.42755C16.2916 7.62281 16.0598 7.7777 15.8047 7.88337C15.5496 7.98905 15.2761 8.04344 15 8.04344Z" fill="#232323"/>
</svg>
