<svg width="25" height="25" viewBox="0 0 25 25" fill="none" xmlns="http://www.w3.org/2000/svg">
<path d="M8.33331 7.49997C8.33331 8.88072 7.21403 10 5.83335 10C4.45259 10 3.33331 8.88072 3.33331 7.49997C3.33331 6.11928 4.45259 5 5.83335 5C7.21403 5 8.33331 6.11928 8.33331 7.49997Z" fill="#DDDDDD"/>
<path fill-rule="evenodd" clip-rule="evenodd" d="M3.12416 15.3506C2.76125 15.9731 1.99648 16.1627 1.41607 15.7735C0.835539 15.3843 0.659065 14.5638 1.02189 13.941L1.02419 13.937L1.02859 13.9295L1.04354 13.9042C1.05617 13.8829 1.07407 13.8529 1.09672 13.8154C1.14197 13.7406 1.20648 13.6354 1.28602 13.51C1.44389 13.2609 1.66658 12.923 1.91942 12.5798C2.16646 12.2445 2.47023 11.8658 2.79131 11.5586C2.9518 11.4051 3.1454 11.2413 3.36376 11.11C3.56971 10.986 3.89174 10.8333 4.28493 10.8333H7.38163C7.77488 10.8333 8.09692 10.986 8.30287 11.11C8.52121 11.2413 8.71483 11.4051 8.87529 11.5586C9.1964 11.8658 9.50015 12.2445 9.74719 12.5798C10.0001 12.923 10.2227 13.2609 10.3806 13.51C10.4601 13.6354 10.5246 13.7406 10.5699 13.8154C10.5926 13.8529 10.6104 13.8829 10.6231 13.9042L10.6381 13.9295L10.6425 13.937L10.6444 13.9404C10.6444 13.9404 10.6231 13.9042 10.6448 13.941C11.0076 14.5638 10.8311 15.3843 10.2506 15.7735C9.67009 16.1627 8.90548 15.9735 8.5426 15.3509L8.5408 15.3478L8.53125 15.3316C8.52233 15.3166 8.50839 15.2932 8.48998 15.2628C8.47504 15.238 8.45719 15.2087 8.43668 15.1754V16.827L8.88496 21.8773C8.9488 22.5963 8.46599 23.2386 7.79744 23.3239C7.12895 23.4092 6.51916 22.9065 6.4239 22.1914L5.79166 17.4433L5.15943 22.1914C5.06423 22.9065 4.45444 23.4092 3.78589 23.3239C3.11737 23.2386 2.63456 22.5963 2.69839 21.8773L3.21843 16.019H3.23012V15.1751C3.20954 15.2085 3.19161 15.238 3.17661 15.2628C3.15822 15.2932 3.14431 15.3166 3.13538 15.3316L3.12581 15.3478L3.12416 15.3506Z" fill="#DDDDDD"/>
<path d="M20.8334 7.49997C20.8334 8.8807 19.9006 10 18.75 10C17.5994 10 16.6667 8.8807 16.6667 7.49997C16.6667 6.1193 17.5994 5 18.75 5C19.9006 5 20.8334 6.1193 20.8334 7.49997Z" fill="#DDDDDD"/>
<path fill-rule="evenodd" clip-rule="evenodd" d="M15.8395 15.2971C15.4462 15.915 14.6117 16.1066 13.9756 15.7245C13.3395 15.3424 13.1426 14.5316 13.5358 13.9135L13.5383 13.9096L13.543 13.9022L13.5592 13.8771C13.5728 13.856 13.5922 13.8263 13.6166 13.7893C13.6655 13.7152 13.7352 13.6112 13.8211 13.4871C13.9916 13.2408 14.2323 12.9064 14.5054 12.5668C14.7723 12.2351 15.1006 11.8601 15.4481 11.5557C15.6217 11.4036 15.8317 11.2409 16.0691 11.1101C16.2927 10.9869 16.6452 10.8333 17.0773 10.8333H20.4227C20.8547 10.8333 21.2072 10.9869 21.4308 11.1101C21.6683 11.2409 21.8783 11.4036 22.0519 11.5557C22.3993 11.8601 22.7277 12.2351 22.9945 12.5668C23.2677 12.9064 23.5083 13.2408 23.6789 13.4871C23.7648 13.6112 23.8344 13.7152 23.8833 13.7893C23.9078 13.8263 23.9271 13.856 23.9408 13.8771L23.9569 13.9022C23.9694 13.9217 23.9642 13.9135 23.9642 13.9135C24.3574 14.5316 24.1604 15.3424 23.5243 15.7245C22.8883 16.1065 22.0542 15.9153 21.6608 15.2976L21.6587 15.2943L21.6484 15.2783C21.6387 15.2634 21.6237 15.2403 21.6038 15.2102C21.564 15.1499 21.5052 15.062 21.4317 14.9559C21.4012 14.9119 21.3685 14.8651 21.3338 14.8162C21.6502 16.3494 22.2745 18.4514 22.6014 19.515C22.7138 19.8809 22.4863 20.2658 22.1016 20.3437C19.7065 20.8288 18.0301 20.8162 15.4298 20.335C15.0336 20.2616 14.7958 19.8665 14.9153 19.4923C15.2566 18.4243 15.8927 16.3439 16.194 14.777C16.1489 14.8402 16.1068 14.9002 16.0682 14.9559C15.9948 15.062 15.9359 15.1499 15.8961 15.2102C15.8762 15.2403 15.8612 15.2634 15.8516 15.2783L15.8412 15.2943L15.8395 15.2971ZM15.7709 21.4594V22.3465C15.7709 22.8413 16.1481 23.2597 16.6529 23.3247C17.1578 23.3898 17.6342 23.0814 17.767 22.6036L18.0346 21.6402C17.302 21.6161 16.5579 21.5561 15.7709 21.4594ZM19.5998 21.6369L19.8684 22.6036C20.0011 23.0813 20.4774 23.3897 20.9823 23.3246C21.4872 23.2596 21.8644 22.8412 21.8644 22.3463V21.4502C21.0771 21.5475 20.3328 21.6099 19.5998 21.6369Z" fill="#DDDDDD"/>
</svg>
