<svg width="25" height="25" viewBox="0 0 25 25" fill="none" xmlns="http://www.w3.org/2000/svg">
<path d="M8.33325 7.49997C8.33325 8.88072 7.21397 10 5.83329 10C4.45253 10 3.33325 8.88072 3.33325 7.49997C3.33325 6.11928 4.45253 5 5.83329 5C7.21397 5 8.33325 6.11928 8.33325 7.49997Z" fill="#01A2B0"/>
<path fill-rule="evenodd" clip-rule="evenodd" d="M3.1241 15.3506C2.76119 15.9731 1.99642 16.1627 1.41601 15.7735C0.835478 15.3843 0.659003 14.5638 1.02183 13.941L1.02413 13.937L1.02853 13.9295L1.04347 13.9042C1.05611 13.8829 1.07401 13.8529 1.09666 13.8154C1.14191 13.7406 1.20642 13.6354 1.28596 13.51C1.44383 13.2609 1.66652 12.923 1.91936 12.5798C2.1664 12.2445 2.47017 11.8658 2.79125 11.5586C2.95174 11.4051 3.14534 11.2413 3.3637 11.11C3.56965 10.986 3.89168 10.8333 4.28487 10.8333H7.38157C7.77482 10.8333 8.09686 10.986 8.30281 11.11C8.52115 11.2413 8.71477 11.4051 8.87523 11.5586C9.19634 11.8658 9.50009 12.2445 9.74713 12.5798C10 12.923 10.2227 13.2609 10.3805 13.51C10.4601 13.6354 10.5246 13.7406 10.5698 13.8154C10.5925 13.8529 10.6104 13.8829 10.623 13.9042L10.638 13.9295L10.6424 13.937L10.6443 13.9404C10.6443 13.9404 10.623 13.9042 10.6447 13.941C11.0075 14.5638 10.831 15.3843 10.2505 15.7735C9.67003 16.1627 8.90541 15.9735 8.54254 15.3509L8.54074 15.3478L8.53119 15.3316C8.52227 15.3166 8.50833 15.2932 8.48992 15.2628C8.47498 15.238 8.45713 15.2087 8.43662 15.1754V16.827L8.8849 21.8773C8.94874 22.5963 8.46593 23.2386 7.79738 23.3239C7.12889 23.4092 6.51909 22.9065 6.42383 22.1914L5.7916 17.4433L5.15937 22.1914C5.06417 22.9065 4.45438 23.4092 3.78582 23.3239C3.11731 23.2386 2.6345 22.5963 2.69833 21.8773L3.21837 16.019H3.23006V15.1751C3.20948 15.2085 3.19155 15.238 3.17655 15.2628C3.15816 15.2932 3.14425 15.3166 3.13531 15.3316L3.12575 15.3478L3.1241 15.3506Z" fill="#01A2B0"/>
<path d="M20.8334 7.49997C20.8334 8.8807 19.9007 10 18.7501 10C17.5995 10 16.6667 8.8807 16.6667 7.49997C16.6667 6.1193 17.5995 5 18.7501 5C19.9007 5 20.8334 6.1193 20.8334 7.49997Z" fill="#01A2B0"/>
<path fill-rule="evenodd" clip-rule="evenodd" d="M15.8394 15.2971C15.4461 15.915 14.6116 16.1066 13.9756 15.7245C13.3394 15.3424 13.1425 14.5316 13.5357 13.9135L13.5382 13.9096L13.5429 13.9022L13.5591 13.8771C13.5727 13.856 13.5921 13.8263 13.6165 13.7893C13.6654 13.7152 13.7351 13.6112 13.821 13.4871C13.9916 13.2408 14.2322 12.9064 14.5054 12.5668C14.7722 12.2351 15.1006 11.8601 15.4481 11.5557C15.6217 11.4036 15.8316 11.2409 16.0691 11.1101C16.2926 10.9869 16.6452 10.8333 17.0772 10.8333H20.4226C20.8546 10.8333 21.2072 10.9869 21.4308 11.1101C21.6682 11.2409 21.8782 11.4036 22.0518 11.5557C22.3992 11.8601 22.7276 12.2351 22.9945 12.5668C23.2676 12.9064 23.5082 13.2408 23.6788 13.4871C23.7647 13.6112 23.8344 13.7152 23.8833 13.7893C23.9077 13.8263 23.9271 13.856 23.9407 13.8771L23.9569 13.9022C23.9694 13.9217 23.9641 13.9135 23.9641 13.9135C24.3573 14.5316 24.1604 15.3424 23.5242 15.7245C22.8883 16.1065 22.0541 15.9153 21.6608 15.2976L21.6587 15.2943L21.6483 15.2783C21.6387 15.2634 21.6236 15.2403 21.6037 15.2102C21.5639 15.1499 21.5051 15.062 21.4316 14.9559C21.4012 14.9119 21.3684 14.8651 21.3337 14.8162C21.6502 16.3494 22.2744 18.4514 22.6013 19.515C22.7138 19.8809 22.4862 20.2658 22.1016 20.3437C19.7064 20.8288 18.03 20.8162 15.4297 20.335C15.0335 20.2616 14.7957 19.8665 14.9153 19.4923C15.2566 18.4243 15.8927 16.3439 16.1939 14.777C16.1488 14.8402 16.1067 14.9002 16.0682 14.9559C15.9947 15.062 15.9359 15.1499 15.8961 15.2102C15.8762 15.2403 15.8611 15.2634 15.8515 15.2783L15.8412 15.2943L15.8394 15.2971ZM15.7708 21.4594V22.3465C15.7708 22.8413 16.148 23.2597 16.6529 23.3247C17.1578 23.3898 17.6341 23.0814 17.7669 22.6036L18.0346 21.6402C17.3019 21.6161 16.5578 21.5561 15.7708 21.4594ZM19.5997 21.6369L19.8683 22.6036C20.001 23.0813 20.4774 23.3897 20.9823 23.3246C21.4872 23.2596 21.8643 22.8412 21.8643 22.3463V21.4502C21.0771 21.5475 20.3327 21.6099 19.5997 21.6369Z" fill="#01A2B0"/>
</svg>
