<svg width="35" height="35" viewBox="0 0 25 25" fill="none" xmlns="http://www.w3.org/2000/svg">
<path d="M9.27203 7.15259C9.27203 8.2266 8.40141 9.09723 7.32745 9.09723C6.25344 9.09723 5.38281 8.2266 5.38281 7.15259C5.38281 6.07863 6.25344 5.20801 7.32745 5.20801C8.40141 5.20801 9.27203 6.07863 9.27203 7.15259Z" fill="#C0C0C0"/>
<path fill-rule="evenodd" clip-rule="evenodd" d="M5.05014 13.5393C4.74516 14.0269 4.10248 14.1754 3.61473 13.8706C3.12687 13.5657 2.97857 12.923 3.28348 12.4351L3.2854 12.4321L3.2891 12.4262L3.30166 12.4063C3.31228 12.3897 3.32732 12.3662 3.34636 12.3368C3.38439 12.2782 3.43859 12.1958 3.50544 12.0975C3.63811 11.9025 3.82525 11.6378 4.03772 11.369C4.24532 11.1063 4.50059 10.8097 4.77042 10.569C4.90529 10.4488 5.06798 10.3206 5.25148 10.2176C5.42455 10.1206 5.69518 10.001 6.02559 10.001H8.62794C8.95841 10.001 9.22903 10.1206 9.4021 10.2176C9.58559 10.3206 9.7483 10.4488 9.88315 10.569C10.153 10.8097 10.4083 11.1063 10.6159 11.369C10.8284 11.6378 11.0155 11.9025 11.1481 12.0975C11.215 12.1958 11.2692 12.2782 11.3072 12.3368C11.3263 12.3662 11.3413 12.3897 11.3519 12.4063L11.3645 12.4262L11.3682 12.4321L11.3698 12.4347C11.3698 12.4347 11.3519 12.4063 11.3701 12.4351C11.675 12.923 11.5267 13.5657 11.0389 13.8706C10.5511 14.1754 9.90851 14.0272 9.60356 13.5395L9.60205 13.5371L9.59403 13.5244C9.58653 13.5126 9.57481 13.4944 9.55934 13.4705C9.54679 13.4511 9.53179 13.4282 9.51455 13.4021V14.6958L9.89127 18.6516C9.94492 19.2148 9.53919 19.7179 8.97737 19.7847C8.41559 19.8515 7.90315 19.4577 7.82309 18.8976L7.29179 15.1785L6.76049 18.8976C6.68049 19.4577 6.16804 19.8515 5.60622 19.7847C5.04443 19.7179 4.63869 19.2148 4.69233 18.6516L5.12936 14.0629H5.13918V13.4019C5.12189 13.428 5.10682 13.4511 5.09421 13.4705C5.07876 13.4944 5.06706 13.5126 5.05956 13.5244L5.05152 13.5371L5.05014 13.5393Z" fill="#C0C0C0"/>
<path d="M19.6858 7.15244C19.6858 8.22634 18.8152 9.09691 17.7413 9.09691C16.6674 9.09691 15.7969 8.22634 15.7969 7.15244C15.7969 6.07858 16.6674 5.20801 17.7413 5.20801C18.8152 5.20801 19.6858 6.07858 19.6858 7.15244Z" fill="#C0C0C0"/>
<path fill-rule="evenodd" clip-rule="evenodd" d="M15.4708 13.4293C15.1683 13.9185 14.5264 14.0701 14.0371 13.7677C13.5477 13.4652 13.3963 12.8233 13.6987 12.3339L13.7006 12.3309L13.7043 12.325L13.7167 12.3051C13.7272 12.2885 13.7421 12.2649 13.7609 12.2356C13.7985 12.177 13.8521 12.0947 13.9182 11.9964C14.0494 11.8014 14.2345 11.5367 14.4446 11.2679C14.6499 11.0052 14.9025 10.7084 15.1698 10.4674C15.3033 10.347 15.4649 10.2182 15.6475 10.1146C15.8195 10.0171 16.0907 9.89551 16.423 9.89551H18.9965C19.3289 9.89551 19.6001 10.0171 19.772 10.1146C19.9547 10.2182 20.1163 10.347 20.2498 10.4674C20.517 10.7084 20.7696 11.0052 20.975 11.2679C21.1851 11.5367 21.3702 11.8014 21.5014 11.9964C21.5675 12.0947 21.621 12.177 21.6587 12.2356C21.6775 12.2649 21.6924 12.2885 21.7029 12.3051L21.7153 12.325C21.7249 12.3405 21.7208 12.3339 21.7208 12.3339C22.0233 12.8233 21.8718 13.4652 21.3825 13.7677C20.8932 14.0701 20.2516 13.9187 19.949 13.4297L19.9473 13.4271L19.9394 13.4144C19.932 13.4026 19.9204 13.3844 19.9051 13.3605C19.8745 13.3128 19.8292 13.2432 19.7727 13.1592C19.7493 13.1244 19.7241 13.0873 19.6974 13.0486C19.9408 14.2624 20.421 15.9265 20.6725 16.7685C20.759 17.0582 20.584 17.3629 20.2881 17.4246C18.4456 17.8086 17.156 17.7986 15.1557 17.4176C14.8509 17.3596 14.668 17.0468 14.76 16.7505C15.0225 15.905 15.5118 14.2581 15.7435 13.0176C15.7089 13.0676 15.6765 13.1151 15.6468 13.1592C15.5903 13.2432 15.5451 13.3128 15.5144 13.3605C15.4991 13.3844 15.4876 13.4026 15.4802 13.4144L15.4722 13.4271L15.4708 13.4293ZM15.4181 18.3078V19.0101C15.4181 19.4019 15.7082 19.7331 16.0966 19.7845C16.485 19.836 16.8515 19.5919 16.9536 19.2137L17.1595 18.4509C16.5959 18.4319 16.0235 18.3844 15.4181 18.3078ZM18.3635 18.4483L18.5701 19.2136C18.6722 19.5919 19.0387 19.836 19.427 19.7845C19.8154 19.733 20.1056 19.4018 20.1056 19.01V18.3006C19.5 18.3775 18.9273 18.427 18.3635 18.4483Z" fill="#C0C0C0"/>
</svg>
