<svg width="68" height="63" viewBox="0 0 68 63" fill="none" xmlns="http://www.w3.org/2000/svg">
<path d="M9.15779 24.2503C9.15791 24.2502 9.15803 24.2502 9.15815 24.2502L18.8417 22.0716C18.8418 22.0716 18.8419 22.0715 18.842 22.0715C20.5388 21.6919 22.3169 22.0008 23.7863 22.9304C25.2555 23.86 26.2962 25.3344 26.6799 27.0301C26.6799 27.0303 26.68 27.0305 26.68 27.0307L29.8333 41.0466L12.8549 44.8664L8.46354 25.3475C8.4635 25.3473 8.46347 25.3472 8.46344 25.347C8.4105 25.1096 8.45385 24.8608 8.58398 24.6552C8.71413 24.4496 8.92048 24.304 9.15779 24.2503Z" fill="white" stroke="#F2F2F2" stroke-width="1.5"/>
<path d="M27.183 40.5219L15.0248 43.2572C14.9727 43.2688 14.9234 43.2906 14.8797 43.3213C14.836 43.352 14.7988 43.3911 14.7702 43.4362C14.7416 43.4813 14.7222 43.5316 14.713 43.5842C14.7039 43.6368 14.7052 43.6907 14.7169 43.7428C14.7287 43.7949 14.7505 43.8442 14.7813 43.8878C14.8121 43.9314 14.8512 43.9686 14.8964 43.9971C14.9415 44.0256 14.9919 44.0449 15.0445 44.054C15.0971 44.063 15.151 44.0616 15.2031 44.0497L27.3613 41.3144C27.4134 41.3028 27.4628 41.2811 27.5065 41.2504C27.5503 41.2197 27.5875 41.1806 27.6162 41.1355C27.6448 41.0904 27.6642 41.0401 27.6734 40.9874C27.6825 40.9348 27.6812 40.8809 27.6695 40.8287C27.6578 40.7766 27.6358 40.7273 27.605 40.6837C27.5742 40.64 27.5351 40.6029 27.4899 40.5743C27.4447 40.5458 27.3943 40.5265 27.3417 40.5175C27.289 40.5085 27.2351 40.51 27.183 40.5219Z" fill="#E4E4E4"/>
<path d="M26.8271 38.9543L14.6689 41.6896C14.5637 41.7133 14.4722 41.7778 14.4146 41.8689C14.3569 41.96 14.3378 42.0703 14.3615 42.1755C14.3851 42.2807 14.4496 42.3722 14.5408 42.4299C14.6319 42.4875 14.7422 42.5066 14.8474 42.4829L27.0056 39.7476C27.1108 39.7239 27.2023 39.6594 27.2599 39.5683C27.3176 39.4772 27.3367 39.3669 27.313 39.2617C27.2893 39.1565 27.2248 39.065 27.1337 39.0073C27.0426 38.9497 26.9323 38.9306 26.8271 38.9543Z" fill="#E4E4E4"/>
<path d="M19.5913 38.9379L14.3209 40.1236C14.2689 40.1353 14.2197 40.1572 14.1761 40.1879C14.1325 40.2186 14.0954 40.2576 14.0668 40.3027C14.0383 40.3478 14.019 40.398 14.0099 40.4506C14.0008 40.5032 14.0021 40.557 14.0138 40.609C14.0255 40.6611 14.0474 40.7103 14.0781 40.7539C14.1088 40.7975 14.1478 40.8346 14.1929 40.8631C14.238 40.8916 14.2882 40.911 14.3408 40.9201C14.3934 40.9292 14.4472 40.9279 14.4992 40.9161L19.7696 39.7304C19.8218 39.7188 19.8711 39.6971 19.9149 39.6664C19.9586 39.6357 19.9958 39.5967 20.0245 39.5515C20.0531 39.5064 20.0726 39.4561 20.0817 39.4035C20.0909 39.3508 20.0895 39.2969 20.0778 39.2448C20.0661 39.1926 20.0442 39.1433 20.0134 39.0997C19.9825 39.056 19.9434 39.0189 19.8982 38.9904C19.853 38.9619 19.8027 38.9425 19.75 38.9335C19.6973 38.9245 19.6434 38.926 19.5913 38.9379Z" fill="#E4E4E4"/>
<path d="M25.3861 32.5403L13.2279 35.2756C13.1758 35.2872 13.1265 35.309 13.0828 35.3397C13.0391 35.3704 13.0019 35.4094 12.9733 35.4545C12.9447 35.4996 12.9253 35.5499 12.9161 35.6026C12.907 35.6552 12.9083 35.7091 12.9201 35.7612C12.9318 35.8133 12.9537 35.8626 12.9845 35.9062C13.0152 35.9498 13.0543 35.987 13.0995 36.0155C13.1447 36.044 13.195 36.0633 13.2476 36.0724C13.3003 36.0814 13.3542 36.08 13.4062 36.0681L25.5644 33.3328C25.6165 33.3211 25.6658 33.2993 25.7094 33.2686C25.753 33.2379 25.7902 33.1989 25.8188 33.1538C25.8473 33.1087 25.8667 33.0584 25.8758 33.0058C25.8849 32.9532 25.8836 32.8994 25.8719 32.8473C25.8602 32.7952 25.8383 32.746 25.8076 32.7024C25.7768 32.6587 25.7377 32.6216 25.6926 32.5931C25.6475 32.5646 25.5972 32.5452 25.5446 32.5362C25.492 32.5271 25.4382 32.5285 25.3861 32.5403Z" fill="#E4E4E4"/>
<path d="M18.1463 32.5236L12.8759 33.7093C12.7707 33.733 12.6792 33.7975 12.6216 33.8886C12.5639 33.9797 12.5448 34.09 12.5685 34.1952C12.5922 34.3004 12.6567 34.3919 12.7478 34.4496C12.8389 34.5072 12.9492 34.5263 13.0544 34.5027L18.3248 33.3169C18.43 33.2933 18.5215 33.2288 18.5791 33.1376C18.6368 33.0465 18.6559 32.9362 18.6322 32.831C18.6086 32.7258 18.5441 32.6343 18.4529 32.5767C18.3618 32.519 18.2515 32.4999 18.1463 32.5236Z" fill="#E4E4E4"/>
<path d="M24.2958 27.6916L12.1377 30.4269C12.0856 30.4386 12.0363 30.4605 11.9926 30.4912C11.949 30.522 11.9119 30.5611 11.8833 30.6062C11.8257 30.6973 11.8066 30.8076 11.8302 30.9128C11.8539 31.018 11.9184 31.1095 12.0095 31.1672C12.1006 31.2248 12.2109 31.2439 12.3161 31.2202L24.4743 28.4849C24.5264 28.4732 24.5757 28.4513 24.6193 28.4206C24.663 28.3898 24.7001 28.3507 24.7287 28.3056C24.7572 28.2605 24.7766 28.2102 24.7857 28.1576C24.7948 28.105 24.7935 28.0511 24.7817 27.999C24.77 27.9469 24.7481 27.8976 24.7174 27.854C24.6866 27.8103 24.6476 27.7732 24.6024 27.7446C24.5573 27.7161 24.507 27.6967 24.4544 27.6876C24.4018 27.6785 24.3479 27.6798 24.2958 27.6916H24.2958Z" fill="#E6E6E6"/>
<path d="M23.9443 26.1252L11.7861 28.8605C11.734 28.8722 11.6847 28.8941 11.6411 28.9248C11.5974 28.9556 11.5603 28.9947 11.5317 29.0398C11.4741 29.1309 11.455 29.2412 11.4787 29.3464C11.5023 29.4516 11.5668 29.5431 11.658 29.6008C11.7491 29.6584 11.8594 29.6775 11.9646 29.6538L24.1227 26.9185C24.2279 26.8948 24.3194 26.8303 24.3771 26.7392C24.4347 26.6481 24.4538 26.5378 24.4302 26.4326C24.4065 26.3274 24.342 26.2359 24.2509 26.1782C24.1598 26.1206 24.0495 26.1015 23.9442 26.1252H23.9443Z" fill="#E6E6E6"/>
<path d="M16.701 26.1076L11.4306 27.2933C11.3254 27.317 11.2339 27.3815 11.1763 27.4726C11.1186 27.5637 11.0995 27.674 11.1232 27.7792C11.1469 27.8844 11.2114 27.9759 11.3025 28.0336C11.3936 28.0912 11.5039 28.1103 11.6091 28.0866L16.8795 26.9009C16.9316 26.8892 16.9809 26.8673 17.0245 26.8366C17.0681 26.8058 17.1053 26.7667 17.1338 26.7216C17.1624 26.6765 17.1818 26.6262 17.1909 26.5736C17.2 26.521 17.1986 26.4671 17.1869 26.415C17.1752 26.3629 17.1533 26.3136 17.1226 26.27C17.0918 26.2263 17.0527 26.1892 17.0076 26.1606C16.9625 26.1321 16.9122 26.1127 16.8596 26.1036C16.807 26.0945 16.7531 26.0959 16.701 26.1076Z" fill="#E6E6E6"/>
<path fill-rule="evenodd" clip-rule="evenodd" d="M29.1538 28.5732L29.1485 30.5019C29.1419 34.4811 30.7141 38.3004 33.5201 41.1219C36.326 43.9434 40.1366 45.5367 44.1158 45.5522L63.0646 45.6047C63.1417 45.6049 63.2186 45.6024 63.2951 45.5973L61.3921 62.4865C61.3802 62.5927 61.3296 62.6908 61.2499 62.762C61.1703 62.8332 61.0671 62.8725 60.9603 62.8724H0.445182C0.338341 62.8725 0.235226 62.8332 0.155561 62.762C0.0758956 62.6908 0.0252742 62.5927 0.0133749 62.4865L0 29.0076C9.66709e-06 28.9506 0.0112569 28.8941 0.0331002 28.8414C0.0549436 28.7887 0.0869554 28.7408 0.127307 28.7004C0.167658 28.6601 0.215561 28.6281 0.268277 28.6063C0.320994 28.5845 0.377494 28.5732 0.434549 28.5732L29.1538 28.5732Z" fill="#3F3D56"/>
<path fill-rule="evenodd" clip-rule="evenodd" d="M29.1488 30.4268L29.1486 30.5027C29.1421 34.4819 30.7143 38.3013 33.5202 41.1228C36.3262 43.9443 40.1367 45.5376 44.1159 45.5531L60.9396 45.5997C60.3528 49.7886 58.3005 53.6408 55.1386 56.4664C51.8534 59.4022 47.6012 61.0238 43.1954 61.0208H4.78078C4.47305 61.0209 4.16837 60.9599 3.88431 60.8416C3.60026 60.7232 3.34247 60.5497 3.12582 60.3312C2.90917 60.1126 2.73796 59.8533 2.62206 59.5683C2.50616 59.2832 2.44787 58.978 2.45056 58.6703L2.375 32.7366C2.38213 32.1227 2.63056 31.5363 3.06658 31.1041C3.5026 30.6718 4.09119 30.4285 4.70514 30.4268H29.1488Z" fill="#00A9B8"/>
<path d="M21.4846 49.8559H6.60323C6.44946 49.8559 6.30199 49.7949 6.19325 49.6861C6.08452 49.5774 6.02344 49.4299 6.02344 49.2762C6.02344 49.1224 6.08452 48.9749 6.19325 48.8662C6.30199 48.7575 6.44946 48.6964 6.60323 48.6964H21.4846C22.2323 48.6859 22.2398 49.8665 21.4846 49.8559Z" fill="#E4E4E4"/>
<path d="M41.5314 52.8882H6.60323C6.44946 52.8882 6.30199 52.8271 6.19325 52.7184C6.08452 52.6096 6.02344 52.4621 6.02344 52.3084C6.02344 52.1546 6.08452 52.0071 6.19325 51.8984C6.30199 51.7897 6.44946 51.7286 6.60323 51.7286H41.5314C42.2791 51.7181 42.2866 52.8987 41.5314 52.8882Z" fill="#E4E4E4"/>
<path d="M28.1867 3.56449L28.0977 35.6775C28.0977 35.6777 28.0977 35.6778 28.0977 35.678C28.0912 39.697 29.6792 43.5545 32.5132 46.4043C35.3473 49.2541 39.1962 50.8634 43.2154 50.8791L63.2987 50.9348C64.047 50.936 64.7652 50.6404 65.2958 50.1127C65.8262 49.5853 66.1258 48.8691 66.129 48.1211C66.129 48.1208 66.129 48.1205 66.129 48.1202M28.1867 3.56449L66.879 48.1232L66.129 48.1202M28.1867 3.56449C28.1867 3.56437 28.1867 3.56425 28.1867 3.56413C28.1897 2.81599 28.4893 2.09958 29.0198 1.57203C29.5503 1.04448 30.2683 0.748863 31.0165 0.750003C31.0166 0.750004 31.0167 0.750004 31.0168 0.750004L63.4376 0.839886L63.4405 0.089892L63.4384 0.839889L63.4379 0.839888C64.1861 0.842888 64.9025 1.14248 65.4301 1.67297C65.9578 2.20354 66.2534 2.92177 66.2522 3.67006M28.1867 3.56449L66.2522 3.67006M66.129 48.1202L66.2522 3.67006M66.129 48.1202L66.2522 3.67006" fill="white" stroke="#E6E6E6" stroke-width="1.5"/>
<path d="M59.7238 14.107H34.4426C34.0404 14.107 33.6545 13.9472 33.3701 13.6627C33.0856 13.3782 32.9258 12.9924 32.9258 12.5901C32.9258 12.1878 33.0856 11.802 33.3701 11.5175C33.6545 11.2331 34.0404 11.0732 34.4426 11.0732H59.7238C60.1261 11.0732 60.5119 11.2331 60.7964 11.5175C61.0808 11.802 61.2406 12.1878 61.2406 12.5901C61.2406 12.9924 61.0808 13.3782 60.7964 13.6627C60.5119 13.9472 60.1261 14.107 59.7238 14.107Z" fill="#00A9B8"/>
<path d="M40.0045 7.11284H34.4426C34.0404 7.11284 33.6545 6.95303 33.3701 6.66856C33.0856 6.38409 32.9258 5.99827 32.9258 5.59597C32.9258 5.19367 33.0856 4.80785 33.3701 4.52338C33.6545 4.23892 34.0404 4.0791 34.4426 4.0791H40.0045C40.4068 4.0791 40.7926 4.23892 41.0771 4.52338C41.3616 4.80785 41.5214 5.19367 41.5214 5.59597C41.5214 5.99827 41.3616 6.38409 41.0771 6.66856C40.7926 6.95303 40.4068 7.11284 40.0045 7.11284Z" fill="#00A9B8"/>
<path d="M59.7238 21.1021H34.4426C34.0404 21.1021 33.6545 20.9423 33.3701 20.6578C33.0856 20.3734 32.9258 19.9875 32.9258 19.5852C32.9258 19.1829 33.0856 18.7971 33.3701 18.5126C33.6545 18.2282 34.0404 18.0684 34.4426 18.0684H59.7238C60.1261 18.0684 60.5119 18.2282 60.7964 18.5126C61.0808 18.7971 61.2406 19.1829 61.2406 19.5852C61.2406 19.9875 61.0808 20.3734 60.7964 20.6578C60.5119 20.9423 60.1261 21.1021 59.7238 21.1021Z" fill="#00A9B8"/>
<path d="M59.7238 28.0962H34.4426C34.0404 28.0962 33.6545 27.9364 33.3701 27.652C33.0856 27.3675 32.9258 26.9817 32.9258 26.5794C32.9258 26.1771 33.0856 25.7912 33.3701 25.5068C33.6545 25.2223 34.0404 25.0625 34.4426 25.0625H59.7238C60.1261 25.0625 60.5119 25.2223 60.7964 25.5068C61.0808 25.7912 61.2406 26.1771 61.2406 26.5794C61.2406 26.9817 61.0808 27.3675 60.7964 27.652C60.5119 27.9364 60.1261 28.0962 59.7238 28.0962Z" fill="#00A9B8"/>
<path d="M57.6802 46.5253C61.0135 46.5253 63.7158 43.8231 63.7158 40.4897C63.7158 37.1563 61.0135 34.4541 57.6802 34.4541C54.3468 34.4541 51.6445 37.1563 51.6445 40.4897C51.6445 43.8231 54.3468 46.5253 57.6802 46.5253Z" fill="#00A9B8"/>
<path d="M56.8575 43.632C56.7532 43.632 56.6505 43.6078 56.5572 43.5611C56.464 43.5145 56.3829 43.4468 56.3204 43.3634L54.6738 41.1679C54.6208 41.0974 54.5822 41.0171 54.5602 40.9316C54.5382 40.8462 54.5333 40.7572 54.5458 40.6699C54.5582 40.5825 54.5877 40.4985 54.6326 40.4225C54.6776 40.3466 54.737 40.2803 54.8076 40.2273C54.8782 40.1744 54.9585 40.1359 55.044 40.114C55.1295 40.0922 55.2185 40.0874 55.3058 40.0999C55.3931 40.1124 55.4772 40.1421 55.553 40.1871C55.6289 40.2321 55.6952 40.2917 55.748 40.3623L56.8253 41.7986L59.5921 37.6484C59.6409 37.5747 59.7037 37.5114 59.777 37.4621C59.8503 37.4127 59.9326 37.3784 60.0192 37.3609C60.1058 37.3434 60.195 37.3432 60.2817 37.3603C60.3684 37.3774 60.4508 37.4114 60.5243 37.4604C60.5978 37.5094 60.6609 37.5724 60.71 37.6459C60.7592 37.7193 60.7933 37.8017 60.8105 37.8884C60.8277 37.9751 60.8276 38.0643 60.8102 38.1509C60.7929 38.2375 60.7586 38.3199 60.7094 38.3932L57.4162 43.333C57.3566 43.4224 57.2765 43.4961 57.1825 43.5481C57.0886 43.6001 56.9835 43.6288 56.8762 43.6318C56.8699 43.6319 56.8637 43.632 56.8575 43.632Z" fill="white"/>
</svg>
