<svg width="40" height="42" viewBox="0 0 40 42" fill="none" xmlns="http://www.w3.org/2000/svg">
<circle cx="16.9811" cy="16.9811" r="16.9811" fill="#53C5E0" fill-opacity="0.14"/>
<path d="M12.8302 10.9433C12.8302 9.27603 14.1818 7.92444 15.8491 7.92444H24.7822C25.5316 7.92444 26.2542 8.20315 26.8095 8.70636L29.5901 11.2263L32.9908 14.3649C33.6101 14.9364 33.9623 15.7407 33.9623 16.5833V31.3206C33.9623 32.9879 32.6107 34.3395 30.9434 34.3395H15.8491C14.1818 34.3395 12.8302 32.9879 12.8302 31.3206V10.9433Z" fill="#53C5E0"/>
<path d="M17.3585 14.717H22.2641" stroke="#00A9B8" stroke-width="2.05868" stroke-linecap="round"/>
<path d="M17.3585 20H24.9057" stroke="#00A9B8" stroke-width="2.05868" stroke-linecap="round"/>
<path d="M17.3585 25.283H29.0566" stroke="#00A9B8" stroke-width="2.05868" stroke-linecap="round"/>
<path d="M34.0728 15.5823L26.6819 8.19143C26.4442 7.95371 26.0377 8.12208 26.0377 8.45827V15.8491C26.0377 16.0575 26.2067 16.2265 26.4151 16.2265H33.8059C34.1421 16.2265 34.3105 15.82 34.0728 15.5823Z" fill="#00A9B8"/>
<circle cx="31.6738" cy="33.3168" r="8.32622" fill="#FFD569"/>
<circle cx="31.6736" cy="33.3168" r="6.98328" fill="#FFBE16"/>
</svg>
