<svg width="17" height="17" viewBox="0 0 12 16" fill="none" xmlns="http://www.w3.org/2000/svg">
<path d="M5.96446 13.7516C6.17501 13.7516 6.85085 13.4599 7.81782 12.531C9.35406 11.062 11.1476 8.48049 11.1476 6.05019C11.1476 4.61354 10.5983 3.23573 9.62039 2.21987C8.6425 1.20401 7.31621 0.633301 5.93327 0.633301C4.55033 0.633301 3.22403 1.20401 2.24615 2.21987C1.26826 3.23573 0.718895 4.61354 0.718895 6.05019C0.718895 9.86847 5.00009 13.6706 5.96446 13.7516ZM5.93327 2.82328C6.42476 2.82328 6.90521 2.97468 7.31387 3.25834C7.72253 3.54201 8.04104 3.94518 8.22912 4.4169C8.41721 4.88861 8.46642 5.40767 8.37053 5.90844C8.27465 6.4092 8.03797 6.86919 7.69044 7.23022C7.3429 7.59125 6.90012 7.83712 6.41807 7.93673C5.93602 8.03634 5.43637 7.98521 4.98229 7.78982C4.52822 7.59443 4.14011 7.26355 3.86705 6.83902C3.594 6.41449 3.44825 5.91538 3.44825 5.4048C3.44894 4.72036 3.71097 4.06415 4.17686 3.58018C4.64274 3.0962 5.27441 2.82399 5.93327 2.82328ZM11.5999 14.2592C11.5999 14.7642 9.601 15.7444 5.93327 15.7444C2.26553 15.7444 0.266602 14.7642 0.266602 14.2592C0.266602 13.9217 1.20238 13.2952 3.28709 12.9712C3.32331 12.9652 3.3584 12.9534 3.39107 12.9361C4.36844 13.8947 5.32501 14.5104 5.90208 14.5563H5.97486C6.75467 14.5563 7.89061 13.5598 8.3481 13.1224C8.40529 13.0684 8.46247 13.009 8.51966 12.9496C8.53926 12.9562 8.55923 12.9616 8.57944 12.9658C10.6642 13.2952 11.5999 13.9217 11.5999 14.2592Z" fill="#232323"/>
</svg>
