<svg width="21" height="21" viewBox="0 0 21 21" fill="none" xmlns="http://www.w3.org/2000/svg">
<path d="M10.1268 17.248C10.3745 17.248 11.1697 16.9049 12.3074 15.8119C14.1149 14.0836 16.2251 11.0462 16.2251 8.18681C16.2251 6.4965 15.5788 4.87542 14.4282 3.68018C13.2777 2.48495 11.7172 1.81348 10.0901 1.81348C8.46295 1.81348 6.90247 2.48495 5.75193 3.68018C4.60138 4.87542 3.95501 6.4965 3.95501 8.18681C3.95501 12.6793 8.99212 17.1527 10.1268 17.248ZM10.0901 4.39013C10.6683 4.39013 11.2336 4.56827 11.7144 4.90202C12.1953 5.23577 12.57 5.71013 12.7913 6.26514C13.0126 6.82014 13.0705 7.43085 12.9577 8.02003C12.8449 8.60922 12.5664 9.15042 12.1575 9.5752C11.7486 9.99998 11.2276 10.2893 10.6605 10.4065C10.0933 10.5237 9.50544 10.4635 8.97119 10.2336C8.43693 10.0037 7.9803 9.61442 7.65903 9.11493C7.33776 8.61544 7.16628 8.02821 7.16628 7.42748C7.16709 6.62218 7.47539 5.85011 8.02353 5.28068C8.57168 4.71125 9.31488 4.39098 10.0901 4.39013V4.39013ZM16.7573 17.8453C16.7573 18.4394 14.4054 19.5927 10.0901 19.5927C5.77473 19.5927 3.42285 18.4394 3.42285 17.8453C3.42285 17.4482 4.52386 16.7111 6.97666 16.3298C7.01928 16.3228 7.06057 16.3089 7.099 16.2885C8.24894 17.4164 9.37442 18.1408 10.0534 18.1948H10.139C11.0565 18.1948 12.393 17.0224 12.9313 16.5077C12.9986 16.4442 13.0659 16.3743 13.1331 16.3044C13.1562 16.3122 13.1797 16.3186 13.2035 16.3235C15.6563 16.7111 16.7573 17.4482 16.7573 17.8453Z" fill="white"/>
</svg>
