<svg width="30" height="30" viewBox="0 0 30 30" fill="none" xmlns="http://www.w3.org/2000/svg">
<path d="M15.0562 24.6605C15.4359 24.6605 16.6547 24.1543 18.3984 22.5418C21.1688 19.9918 24.4031 15.5105 24.4031 11.2918C24.4031 8.79793 23.4124 6.40621 21.649 4.64278C19.8856 2.87936 17.4939 1.88867 15 1.88867C12.5061 1.88867 10.1144 2.87936 8.35099 4.64278C6.58756 6.40621 5.59687 8.79793 5.59687 11.2918C5.59687 17.9199 13.3172 24.5199 15.0562 24.6605ZM15 5.69023C15.8863 5.69023 16.7527 5.95305 17.4896 6.44546C18.2266 6.93787 18.801 7.63774 19.1401 8.45658C19.4793 9.27543 19.5681 10.1765 19.3951 11.0457C19.2222 11.915 18.7954 12.7135 18.1687 13.3402C17.542 13.9669 16.7435 14.3937 15.8742 14.5666C15.005 14.7395 14.1039 14.6508 13.2851 14.3116C12.4663 13.9724 11.7664 13.3981 11.274 12.6611C10.7816 11.9242 10.5188 11.0578 10.5188 10.1715C10.52 8.98336 10.9925 7.84426 11.8326 7.00413C12.6728 6.164 13.8119 5.69148 15 5.69023ZM25.2188 25.5418C25.2188 26.4184 21.6141 28.1199 15 28.1199C8.38594 28.1199 4.78125 26.4184 4.78125 25.5418C4.78125 24.9559 6.46875 23.8684 10.2281 23.3059C10.2934 23.2955 10.3567 23.275 10.4156 23.2449C12.1781 24.909 13.9031 25.9777 14.9438 26.0574H15.075C16.4813 26.0574 18.5297 24.3277 19.3547 23.5684C19.4578 23.4746 19.5609 23.3715 19.6641 23.2684C19.6994 23.2799 19.7354 23.2893 19.7719 23.2965C23.5313 23.8684 25.2188 24.9559 25.2188 25.5418Z" fill="#C0C0C0"/>
</svg>
