<svg width="25" height="25" viewBox="0 0 25 25" fill="none" xmlns="http://www.w3.org/2000/svg">
<path d="M12.5469 20.5508C12.8633 20.5508 13.8789 20.1289 15.332 18.7852C17.6406 16.6602 20.3359 12.9258 20.3359 9.41016C20.3359 7.33194 19.5104 5.33884 18.0408 3.86931C16.5713 2.39979 14.5782 1.57422 12.5 1.57422C10.4218 1.57422 8.42868 2.39979 6.95916 3.86931C5.48963 5.33884 4.66406 7.33194 4.66406 9.41016C4.66406 14.9336 11.0977 20.4336 12.5469 20.5508ZM12.5 4.74219C13.2386 4.74219 13.9606 4.9612 14.5747 5.37154C15.1888 5.78188 15.6675 6.36511 15.9501 7.04748C16.2328 7.72985 16.3067 8.4807 16.1626 9.2051C16.0185 9.9295 15.6629 10.5949 15.1406 11.1172C14.6183 11.6394 13.9529 11.9951 13.2285 12.1392C12.5041 12.2833 11.7533 12.2093 11.0709 11.9267C10.3885 11.644 9.80532 11.1654 9.39498 10.5513C8.98464 9.93715 8.76563 9.21515 8.76563 8.47656C8.76666 7.48646 9.16043 6.53721 9.86054 5.8371C10.5606 5.137 11.5099 4.74322 12.5 4.74219ZM21.0156 21.2852C21.0156 22.0156 18.0117 23.4336 12.5 23.4336C6.98828 23.4336 3.98438 22.0156 3.98438 21.2852C3.98438 20.7969 5.39062 19.8906 8.52344 19.4219C8.57787 19.4133 8.6306 19.3961 8.67969 19.3711C10.1484 20.7578 11.5859 21.6484 12.4531 21.7148H12.5625C13.7344 21.7148 15.4414 20.2734 16.1289 19.6406C16.2148 19.5625 16.3008 19.4766 16.3867 19.3906C16.4162 19.4002 16.4462 19.408 16.4766 19.4141C19.6094 19.8906 21.0156 20.7969 21.0156 21.2852Z" fill="#232323"/>
</svg>
