<svg width="15" height="15" viewBox="0 0 9 10" fill="none" xmlns="http://www.w3.org/2000/svg">
<path d="M1.80291 9.03322H7.01179C7.1579 9.03322 7.29803 8.9788 7.40134 8.88194C7.50466 8.78509 7.5627 8.65372 7.5627 8.51674V3.09369C7.5627 3.0252 7.53368 2.95952 7.48202 2.91109C7.43037 2.86266 7.3603 2.83545 7.28725 2.83545H2.61771C2.60394 2.83545 2.57694 2.83752 2.55105 2.83907L1.80291 2.83545C1.3407 2.83545 0.964975 2.50439 0.964975 2.07158C0.964975 1.63825 1.32913 1.28601 1.79134 1.28601H8.12684V7.22554C8.12684 7.36809 8.23702 7.48378 8.38962 7.48378C8.54223 7.48378 8.67775 7.36809 8.67775 7.22554V1.02777C8.67775 0.885223 8.54167 0.769531 8.38962 0.769531H1.80291C1.43832 0.769636 1.08843 0.904299 0.828934 1.14439C0.569435 1.38448 0.421189 1.7107 0.416266 2.05247L0.414062 2.04989V7.73117C0.414136 8.07647 0.560484 8.40762 0.820928 8.65178C1.08137 8.89595 1.43459 9.03315 1.80291 9.03322Z" fill="white"/>
</svg>
