<svg width="87" height="19" viewBox="0 0 87 19" fill="none" xmlns="http://www.w3.org/2000/svg">
<rect y="0.180664" width="86.6085" height="18.6393" rx="9.31963" fill="#D9D9D9"/>
<g clip-path="url(#clip0_1210_8046)">
<path d="M6.80291 13.6319H12.0118C12.1579 13.6319 12.298 13.5774 12.4013 13.4806C12.5047 13.3837 12.5627 13.2523 12.5627 13.1154V7.69233C12.5627 7.62384 12.5337 7.55815 12.482 7.50972C12.4304 7.46129 12.3603 7.43409 12.2872 7.43409H7.61771C7.60394 7.43409 7.57694 7.43615 7.55105 7.4377L6.80291 7.43409C6.3407 7.43409 5.96497 7.10302 5.96497 6.67021C5.96497 6.23688 6.32913 5.88464 6.79134 5.88464H13.1268V11.8242C13.1268 11.9667 13.237 12.0824 13.3896 12.0824C13.5422 12.0824 13.6777 11.9667 13.6777 11.8242V5.6264C13.6777 5.48386 13.5417 5.36816 13.3896 5.36816H6.80291C6.43832 5.36827 6.08843 5.50293 5.82893 5.74302C5.56943 5.98311 5.42119 6.30933 5.41627 6.6511L5.41406 6.64852V12.3298C5.41414 12.6751 5.56048 13.0062 5.82093 13.2504C6.08137 13.4946 6.43459 13.6318 6.80291 13.6319Z" fill="white"/>
</g>
<path d="M29.8074 5.79362V12.5H28.7074V7.90685L26.6617 12.5H25.8994L23.844 7.90685V12.5H22.744V5.79362H23.9309L26.2854 11.0526L28.6302 5.79362H29.8074ZM30.8866 9.81745C30.8866 9.28351 30.9959 8.81068 31.2147 8.39897C31.4398 7.98726 31.7422 7.66883 32.1217 7.44368C32.5077 7.21209 32.9323 7.09629 33.3954 7.09629C33.8136 7.09629 34.1771 7.17992 34.4858 7.34718C34.8011 7.50801 35.0519 7.71064 35.2385 7.9551V7.18314H36.3482V12.5H35.2385V11.7087C35.0519 11.9596 34.7978 12.1687 34.4762 12.336C34.1545 12.5032 33.7879 12.5868 33.3761 12.5868C32.9194 12.5868 32.5013 12.4711 32.1217 12.2395C31.7422 12.0014 31.4398 11.6734 31.2147 11.2552C30.9959 10.8306 30.8866 10.3514 30.8866 9.81745ZM35.2385 9.83675C35.2385 9.47007 35.1613 9.15163 35.0069 8.88145C34.8589 8.61126 34.6627 8.40541 34.4183 8.26388C34.1738 8.12236 33.9101 8.05159 33.627 8.05159C33.344 8.05159 33.0802 8.12236 32.8358 8.26388C32.5913 8.39897 32.3919 8.60161 32.2375 8.8718C32.0895 9.13555 32.0156 9.45077 32.0156 9.81745C32.0156 10.1841 32.0895 10.5058 32.2375 10.7824C32.3919 11.059 32.5913 11.2713 32.8358 11.4193C33.0867 11.5608 33.3504 11.6315 33.627 11.6315C33.9101 11.6315 34.1738 11.5608 34.4183 11.4193C34.6627 11.2777 34.8589 11.0719 35.0069 10.8017C35.1613 10.5251 35.2385 10.2034 35.2385 9.83675ZM39.0764 8.08054V11.0236C39.0764 11.2231 39.1215 11.3678 39.2115 11.4579C39.308 11.5415 39.4688 11.5833 39.694 11.5833H40.3695V12.5H39.501C39.0057 12.5 38.6261 12.3842 38.3624 12.1526C38.0986 11.921 37.9667 11.5447 37.9667 11.0236V8.08054H37.3395V7.18314H37.9667V5.86116H39.0764V7.18314H40.3695V8.08054H39.0764ZM46.2563 9.7113C46.2563 9.91072 46.2434 10.0908 46.2177 10.2517H42.1553C42.1874 10.6762 42.3451 11.0172 42.6281 11.2745C42.9112 11.5318 43.2585 11.6605 43.6702 11.6605C44.2621 11.6605 44.6802 11.4128 44.9247 10.9175H46.1116C45.9507 11.4064 45.658 11.8085 45.2335 12.1237C44.8153 12.4325 44.2942 12.5868 43.6702 12.5868C43.162 12.5868 42.7053 12.4743 42.3 12.2491C41.9012 12.0175 41.586 11.6959 41.3544 11.2842C41.1292 10.866 41.0166 10.3835 41.0166 9.83675C41.0166 9.28994 41.126 8.81068 41.3447 8.39897C41.5699 7.98083 41.8819 7.65918 42.2807 7.43403C42.686 7.20887 43.1492 7.09629 43.6702 7.09629C44.172 7.09629 44.6191 7.20566 45.0115 7.42438C45.4039 7.6431 45.7095 7.95188 45.9282 8.35073C46.1469 8.74314 46.2563 9.19666 46.2563 9.7113ZM45.108 9.36392C45.1016 8.95864 44.9568 8.63378 44.6738 8.38932C44.3907 8.14487 44.0401 8.02264 43.622 8.02264C43.2425 8.02264 42.9176 8.14487 42.6474 8.38932C42.3772 8.62734 42.2164 8.95221 42.1649 9.36392H45.108ZM53.7751 7.09629C54.1932 7.09629 54.5663 7.18314 54.8944 7.35683C55.2289 7.53052 55.4894 7.78784 55.676 8.12879C55.869 8.46974 55.9655 8.88145 55.9655 9.36392V12.5H54.8751V9.52796C54.8751 9.05192 54.7561 8.68846 54.5181 8.43757C54.28 8.18025 53.9552 8.05159 53.5435 8.05159C53.1318 8.05159 52.8037 8.18025 52.5592 8.43757C52.3212 8.68846 52.2022 9.05192 52.2022 9.52796V12.5H51.1118V9.52796C51.1118 9.05192 50.9928 8.68846 50.7548 8.43757C50.5168 8.18025 50.1919 8.05159 49.7802 8.05159C49.3685 8.05159 49.0404 8.18025 48.7959 8.43757C48.5579 8.68846 48.4389 9.05192 48.4389 9.52796V12.5H47.3389V7.18314H48.4389V7.79106C48.619 7.57234 48.8474 7.40186 49.124 7.27963C49.4006 7.15741 49.6965 7.09629 50.0118 7.09629C50.4363 7.09629 50.8159 7.18636 51.1504 7.36648C51.4849 7.5466 51.7422 7.80714 51.9224 8.14809C52.0832 7.82644 52.3341 7.57234 52.675 7.38578C53.016 7.19279 53.3826 7.09629 53.7751 7.09629ZM56.9986 9.81745C56.9986 9.28351 57.1079 8.81068 57.3267 8.39897C57.5518 7.98726 57.8542 7.66883 58.2337 7.44368C58.6197 7.21209 59.0443 7.09629 59.5074 7.09629C59.9256 7.09629 60.2891 7.17992 60.5978 7.34718C60.9131 7.50801 61.1639 7.71064 61.3505 7.9551V7.18314H62.4602V12.5H61.3505V11.7087C61.1639 11.9596 60.9098 12.1687 60.5882 12.336C60.2665 12.5032 59.8999 12.5868 59.4881 12.5868C59.0314 12.5868 58.6133 12.4711 58.2337 12.2395C57.8542 12.0014 57.5518 11.6734 57.3267 11.2552C57.1079 10.8306 56.9986 10.3514 56.9986 9.81745ZM61.3505 9.83675C61.3505 9.47007 61.2733 9.15163 61.1189 8.88145C60.9709 8.61126 60.7747 8.40541 60.5303 8.26388C60.2858 8.12236 60.0221 8.05159 59.739 8.05159C59.456 8.05159 59.1922 8.12236 58.9478 8.26388C58.7033 8.39897 58.5039 8.60161 58.3495 8.8718C58.2016 9.13555 58.1276 9.45077 58.1276 9.81745C58.1276 10.1841 58.2016 10.5058 58.3495 10.7824C58.5039 11.059 58.7033 11.2713 58.9478 11.4193C59.1987 11.5608 59.4624 11.6315 59.739 11.6315C60.0221 11.6315 60.2858 11.5608 60.5303 11.4193C60.7747 11.2777 60.9709 11.0719 61.1189 10.8017C61.2733 10.5251 61.3505 10.2034 61.3505 9.83675ZM65.1884 8.08054V11.0236C65.1884 11.2231 65.2335 11.3678 65.3235 11.4579C65.42 11.5415 65.5808 11.5833 65.806 11.5833H66.4815V12.5H65.613C65.1177 12.5 64.7381 12.3842 64.4744 12.1526C64.2106 11.921 64.0787 11.5447 64.0787 11.0236V8.08054H63.4515V7.18314H64.0787V5.86116H65.1884V7.18314H66.4815V8.08054H65.1884ZM68.055 6.47873C67.8556 6.47873 67.6883 6.41118 67.5532 6.27609C67.4181 6.141 67.3506 5.97374 67.3506 5.77432C67.3506 5.57489 67.4181 5.40764 67.5532 5.27254C67.6883 5.13745 67.8556 5.06991 68.055 5.06991C68.248 5.06991 68.412 5.13745 68.5471 5.27254C68.6822 5.40764 68.7498 5.57489 68.7498 5.77432C68.7498 5.97374 68.6822 6.141 68.5471 6.27609C68.412 6.41118 68.248 6.47873 68.055 6.47873ZM68.5954 7.18314V12.5H67.4953V7.18314H68.5954ZM72.1432 9.84639L74.5942 12.5H73.1082L71.1397 10.2131V12.5H70.0396V5.35939H71.1397V9.50866L73.0696 7.18314H74.5942L72.1432 9.84639ZM75.016 9.81745C75.016 9.28351 75.1253 8.81068 75.344 8.39897C75.5692 7.98726 75.8715 7.66883 76.2511 7.44368C76.6371 7.21209 77.0616 7.09629 77.5248 7.09629C77.943 7.09629 78.3064 7.17992 78.6152 7.34718C78.9304 7.50801 79.1813 7.71064 79.3679 7.9551V7.18314H80.4776V12.5H79.3679V11.7087C79.1813 11.9596 78.9272 12.1687 78.6056 12.336C78.2839 12.5032 77.9172 12.5868 77.5055 12.5868C77.0488 12.5868 76.6306 12.4711 76.2511 12.2395C75.8715 12.0014 75.5692 11.6734 75.344 11.2552C75.1253 10.8306 75.016 10.3514 75.016 9.81745ZM79.3679 9.83675C79.3679 9.47007 79.2907 9.15163 79.1363 8.88145C78.9883 8.61126 78.7921 8.40541 78.5477 8.26388C78.3032 8.12236 78.0395 8.05159 77.7564 8.05159C77.4734 8.05159 77.2096 8.12236 76.9652 8.26388C76.7207 8.39897 76.5213 8.60161 76.3669 8.8718C76.2189 9.13555 76.1449 9.45077 76.1449 9.81745C76.1449 10.1841 76.2189 10.5058 76.3669 10.7824C76.5213 11.059 76.7207 11.2713 76.9652 11.4193C77.216 11.5608 77.4798 11.6315 77.7564 11.6315C78.0395 11.6315 78.3032 11.5608 78.5477 11.4193C78.7921 11.2777 78.9883 11.0719 79.1363 10.8017C79.2907 10.5251 79.3679 10.2034 79.3679 9.83675Z" fill="white"/>
<defs>
<clipPath id="clip0_1210_8046">
<rect width="8.26369" height="8.26369" fill="white" transform="translate(5.41406 5.36816)"/>
</clipPath>
</defs>
</svg>
