<svg width="24" height="25" viewBox="0 0 24 25" fill="none" xmlns="http://www.w3.org/2000/svg">
<path d="M22.775 4.25H20.25V1.725C20.25 1.05 19.7 0.5 19.025 0.5H18.9875C18.3 0.5 17.75 1.05 17.75 1.725V4.25H15.2375C14.5625 4.25 14.0125 4.8 14 5.475V5.5125C14 6.2 14.55 6.75 15.2375 6.75H17.75V9.2625C17.75 9.9375 18.3 10.5 18.9875 10.4875H19.025C19.7 10.4875 20.25 9.9375 20.25 9.2625V6.75H22.775C23.45 6.75 24 6.2 24 5.525V5.475C24 4.8 23.45 4.25 22.775 4.25ZM16.5 9.2625V8H15.2375C14.575 8 13.95 7.7375 13.475 7.275C13.0125 6.8 12.75 6.175 12.75 5.475C12.75 5.025 12.875 4.6125 13.0875 4.25H2.75C1.375 4.25 0.25 5.375 0.25 6.75V21.75C0.25 23.125 1.375 24.25 2.75 24.25H17.75C19.125 24.25 20.25 23.125 20.25 21.75V11.4C19.875 11.6125 19.45 11.75 18.975 11.75C17.6125 11.7375 16.5 10.625 16.5 9.2625ZM16.45 21.75H4C3.4875 21.75 3.1875 21.1625 3.5 20.75L5.975 17.4625C6.2375 17.1125 6.75 17.1375 7 17.4875L9 20.5L12.2625 16.15C12.5125 15.825 13 15.8125 13.25 16.1375L16.9375 20.7375C17.2625 21.15 16.975 21.75 16.45 21.75Z" fill="#C0C0C0"/>
</svg>
