<svg width="40" height="40" viewBox="0 20 96 96" fill="none" xmlns="http://www.w3.org/2000/svg">
<path d="M10 34C10 30.6863 12.6863 28 16 28H84C87.3137 28 90 30.6863 90 34V66C90 69.3137 87.3137 72 84 72H16C12.6863 72 10 69.3137 10 66V34Z" fill="#021024" fill-opacity="0.1"/>
<path d="M10 32C10 29.7909 11.7909 28 14 28H82C84.2091 28 86 29.7909 86 32V64C86 66.2091 84.2091 68 82 68H14C11.7909 68 10 66.2091 10 64V32Z" fill="#78D3A9"/>
<path fill-rule="evenodd" clip-rule="evenodd" d="M14 26H82C85.3137 26 88 28.6863 88 32V64C88 67.3137 85.3137 70 82 70H14C10.6863 70 8 67.3137 8 64V32C8 28.6863 10.6863 26 14 26ZM14 28C11.7909 28 10 29.7909 10 32V64C10 66.2091 11.7909 68 14 68H82C84.2091 68 86 66.2091 86 64V32C86 29.7909 84.2091 28 82 28H14Z" fill="#2B6F95"/>
<path fill-rule="evenodd" clip-rule="evenodd" d="M10 32C10 29.7909 11.7909 28 14 28H36C36.5523 28 37 28.4477 37 29C37 29.5523 36.5523 30 36 30H14C12.8954 30 12 30.8954 12 32V43C12 43.5523 11.5523 44 11 44C10.4477 44 10 43.5523 10 43V32Z" fill="#9FFAD0"/>
<path d="M22 30H14C12.8954 30 12 30.8954 12 32V39.5404C12 40.809 13.1664 41.7509 14.3596 41.3202C18.0568 39.9855 22.8026 37.0479 23.8078 31.9884C24.023 30.905 23.1046 30 22 30Z" fill="#1BB093"/>
<path d="M74 66L82 66C83.1046 66 84 65.1046 84 64L84 56.4596C84 55.191 82.8336 54.2491 81.6404 54.6798C77.9432 56.0145 73.1974 58.9521 72.1922 64.0116C71.977 65.095 72.8954 66 74 66Z" fill="#1BB093"/>
<path d="M12 56L12 64C12 65.1046 12.8954 66 14 66L21.5404 66C22.809 66 23.7509 64.8336 23.3202 63.6403C21.9855 59.9432 19.0479 55.1974 13.9884 54.1922C12.905 53.977 12 54.8954 12 56Z" fill="#1BB093"/>
<path d="M84 40L84 32C84 30.8954 83.1046 30 82 30L74.4596 30C73.191 30 72.2491 31.1664 72.6798 32.3596C74.0145 36.0568 76.9521 40.8026 82.0116 41.8078C83.095 42.023 84 41.1046 84 40Z" fill="#1BB093"/>
<path d="M68 58C68 58.5523 67.5523 59 67 59C66.4477 59 66 58.5523 66 58C66 57.4477 66.4477 57 67 57C67.5523 57 68 57.4477 68 58Z" fill="#1BB093"/>
<path d="M72 57C72 57.5523 71.5523 58 71 58C70.4477 58 70 57.5523 70 57C70 56.4477 70.4477 56 71 56C71.5523 56 72 56.4477 72 57Z" fill="#1BB093"/>
<path d="M72 61C72 61.5523 71.5523 62 71 62C70.4477 62 70 61.5523 70 61C70 60.4477 70.4477 60 71 60C71.5523 60 72 60.4477 72 61Z" fill="#1BB093"/>
<path d="M67 62C67 62.5523 66.5523 63 66 63C65.4477 63 65 62.5523 65 62C65 61.4477 65.4477 61 66 61C66.5523 61 67 61.4477 67 62Z" fill="#1BB093"/>
<path d="M62 62C62 62.5523 61.5523 63 61 63C60.4477 63 60 62.5523 60 62C60 61.4477 60.4477 61 61 61C61.5523 61 62 61.4477 62 62Z" fill="#1BB093"/>
<path d="M57 65C57 65.5523 56.5523 66 56 66C55.4477 66 55 65.5523 55 65C55 64.4477 55.4477 64 56 64C56.5523 64 57 64.4477 57 65Z" fill="#1BB093"/>
<path d="M84 52C84 52.5523 83.5523 53 83 53C82.4477 53 82 52.5523 82 52C82 51.4477 82.4477 51 83 51C83.5523 51 84 51.4477 84 52Z" fill="#1BB093"/>
<path d="M75 53C75 53.5523 74.5523 54 74 54C73.4477 54 73 53.5523 73 53C73 52.4477 73.4477 52 74 52C74.5523 52 75 52.4477 75 53Z" fill="#1BB093"/>
<path d="M71 65C71 65.5523 70.5523 66 70 66C69.4477 66 69 65.5523 69 65C69 64.4477 69.4477 64 70 64C70.5523 64 71 64.4477 71 65Z" fill="#1BB093"/>
<path d="M65 65C65 65.5523 64.5523 66 64 66C63.4477 66 63 65.5523 63 65C63 64.4477 63.4477 64 64 64C64.5523 64 65 64.4477 65 65Z" fill="#1BB093"/>
<path d="M76 58C76 58.5523 75.5523 59 75 59C74.4477 59 74 58.5523 74 58C74 57.4477 74.4477 57 75 57C75.5523 57 76 57.4477 76 58Z" fill="#1BB093"/>
<path d="M80 60C80 60.5523 79.5523 61 79 61C78.4477 61 78 60.5523 78 60C78 59.4477 78.4477 59 79 59C79.5523 59 80 59.4477 80 60Z" fill="#1BB093"/>
<path d="M79 55C79 55.5523 78.5523 56 78 56C77.4477 56 77 55.5523 77 55C77 54.4477 77.4477 54 78 54C78.5523 54 79 54.4477 79 55Z" fill="#1BB093"/>
<path d="M75 63C75 63.5523 74.5523 64 74 64C73.4477 64 73 63.5523 73 63C73 62.4477 73.4477 62 74 62C74.5523 62 75 62.4477 75 63Z" fill="#1BB093"/>
<path d="M80 65C80 65.5523 79.5523 66 79 66C78.4477 66 78 65.5523 78 65C78 64.4477 78.4477 64 79 64C79.5523 64 80 64.4477 80 65Z" fill="#1BB093"/>
<path fill-rule="evenodd" clip-rule="evenodd" d="M63 48C63 56.2843 56.2843 63 48 63C39.7157 63 33 56.2843 33 48C33 39.7157 39.7157 33 48 33C56.2843 33 63 39.7157 63 48ZM48 61C55.1797 61 61 55.1797 61 48C61 40.8203 55.1797 35 48 35C40.8203 35 35 40.8203 35 48C35 55.1797 40.8203 61 48 61Z" fill="#2B6F95"/>
<path fill-rule="evenodd" clip-rule="evenodd" d="M48 37C41.9249 37 37 41.9249 37 48C37 48.5523 36.5523 49 36 49C35.4477 49 35 48.5523 35 48C35 40.8203 40.8203 35 48 35C48.5523 35 49 35.4477 49 36C49 36.5523 48.5523 37 48 37Z" fill="#9FFAD0"/>
<path fill-rule="evenodd" clip-rule="evenodd" d="M63 48C63 56.2843 56.2843 63 48 63C39.7157 63 33 56.2843 33 48C33 39.7157 39.7157 33 48 33C56.2843 33 63 39.7157 63 48ZM48 61C55.1797 61 61 55.1797 61 48C61 40.8203 55.1797 35 48 35C40.8203 35 35 40.8203 35 48C35 55.1797 40.8203 61 48 61Z" fill="#2B6F95"/>
<path d="M55 54C53.6027 52.2066 50.9912 51 48 51C45.0088 51 42.3973 52.2066 41 54C42.3973 55.7934 45.0088 57 48 57C50.9912 57 53.6027 55.7934 55 54Z" fill="#1BB093"/>
<path fill-rule="evenodd" clip-rule="evenodd" d="M39.4223 55.2292C38.8592 54.5065 38.8592 53.4935 39.4223 52.7708C41.2717 50.3971 44.522 49 48 49C51.478 49 54.7283 50.3971 56.5777 52.7708C57.1408 53.4935 57.1408 54.5065 56.5777 55.2292C54.7283 57.6029 51.478 59 48 59C44.522 59 41.2717 57.6029 39.4223 55.2292ZM41 54C42.3973 52.2066 45.0088 51 48 51C50.9912 51 53.6027 52.2066 55 54C53.6027 55.7934 50.9912 57 48 57C45.0088 57 42.3973 55.7934 41 54Z" fill="#2B6F95"/>
<path d="M52 45C52 47.2091 50.2091 49 48 49C45.7909 49 44 47.2091 44 45C44 42.7909 45.7909 41 48 41C50.2091 41 52 42.7909 52 45Z" fill="#1BB093"/>
<path fill-rule="evenodd" clip-rule="evenodd" d="M54 45C54 48.3137 51.3137 51 48 51C44.6863 51 42 48.3137 42 45C42 41.6863 44.6863 39 48 39C51.3137 39 54 41.6863 54 45ZM48 49C50.2091 49 52 47.2091 52 45C52 42.7909 50.2091 41 48 41C45.7909 41 44 42.7909 44 45C44 47.2091 45.7909 49 48 49Z" fill="#2B6F95"/>
<path fill-rule="evenodd" clip-rule="evenodd" d="M48 37C41.9249 37 37 41.9249 37 48C37 48.5523 36.5523 49 36 49C35.4477 49 35 48.5523 35 48C35 40.8203 40.8203 35 48 35C48.5523 35 49 35.4477 49 36C49 36.5523 48.5523 37 48 37Z" fill="#9FFAD0"/>
</svg>
