<svg width="30" height="30" viewBox="0 0 30 30" fill="none" xmlns="http://www.w3.org/2000/svg">
<path d="M13.0669 6.12866C13.0633 5.93997 13.0973 5.75244 13.167 5.57704C13.2367 5.40165 13.3406 5.24191 13.4728 5.10718C13.6049 4.97244 13.7626 4.86541 13.9366 4.79234C14.1106 4.71927 14.2975 4.68164 14.4862 4.68164C14.6749 4.68164 14.8618 4.71927 15.0358 4.79234C15.2098 4.86541 15.3675 4.97244 15.4996 5.10718C15.6318 5.24191 15.7357 5.40165 15.8054 5.57704C15.8751 5.75244 15.9091 5.93997 15.9055 6.12866V8.96719C15.9055 9.34367 15.7559 9.70474 15.4897 9.97095C15.2235 10.2372 14.8624 10.3867 14.4859 10.3867C14.1095 10.3867 13.7484 10.2372 13.4822 9.97095C13.216 9.70474 13.0664 9.34367 13.0664 8.96719V6.12866H13.0669Z" fill="white"/>
<path fill-rule="evenodd" clip-rule="evenodd" d="M12.3555 6.12903C12.3555 5.56438 12.5798 5.02285 12.979 4.62358C13.3783 4.22431 13.9198 4 14.4845 4C15.0492 4 15.5907 4.22431 15.99 4.62358C16.3892 5.02285 16.6135 5.56438 16.6135 6.12903V8.96757C16.6135 9.53222 16.3892 10.0737 15.99 10.473C15.5907 10.8723 15.0492 11.0966 14.4845 11.0966C13.9198 11.0966 13.3783 10.8723 12.979 10.473C12.5798 10.0737 12.3555 9.53222 12.3555 8.96757V6.12903ZM14.4845 5.41953C14.0928 5.41953 13.775 5.73729 13.775 6.12903V8.96757C13.775 9.15574 13.8498 9.3362 13.9828 9.46926C14.1159 9.60231 14.2963 9.67706 14.4845 9.67706C14.6727 9.67706 14.8531 9.60231 14.9862 9.46926C15.1193 9.3362 15.194 9.15574 15.194 8.96757V6.12903C15.194 5.73729 14.8762 5.41953 14.4845 5.41953Z" fill="#232323"/>
<path fill-rule="evenodd" clip-rule="evenodd" d="M12.3547 8.25781H3.83853C3.08571 8.25781 2.36371 8.55687 1.83139 9.0892C1.29906 9.62153 1 10.3435 1 11.0963V23.161C1 23.9139 1.29906 24.6359 1.83139 25.1682C2.36371 25.7005 3.08571 25.9996 3.83853 25.9996H25.1289C25.8817 25.9996 26.6037 25.7005 27.136 25.1682C27.6683 24.6359 27.9674 23.9139 27.9674 23.161V11.0963C27.9674 10.3435 27.6683 9.62153 27.136 9.0892C26.6037 8.55687 25.8817 8.25781 25.1289 8.25781H16.6127V8.96731C16.6127 9.53197 16.3884 10.0735 15.9891 10.4728C15.5899 10.872 15.0483 11.0963 14.4837 11.0963C13.919 11.0963 13.3775 10.872 12.9782 10.4728C12.579 10.0735 12.3547 9.53197 12.3547 8.96731V8.25781Z" fill="#232323"/>
<path fill-rule="evenodd" clip-rule="evenodd" d="M17.3244 12.5157C17.3244 12.1239 17.6416 11.8062 18.0339 11.8062H24.066C24.2542 11.8062 24.4348 11.881 24.5679 12.0141C24.701 12.1472 24.7757 12.3277 24.7757 12.516C24.7757 12.7042 24.701 12.8847 24.5679 13.0178C24.4348 13.1509 24.2542 13.2257 24.066 13.2257H18.0339C17.9406 13.2258 17.8483 13.2075 17.7621 13.1718C17.6759 13.1362 17.5976 13.0839 17.5317 13.0179C17.4657 12.952 17.4134 12.8737 17.3778 12.7875C17.3421 12.7013 17.3238 12.609 17.3239 12.5157H17.3244ZM17.3244 22.0255C17.3244 21.6333 17.6416 21.3155 18.0339 21.3155H24.066C24.2542 21.3155 24.4348 21.3903 24.5679 21.5234C24.701 21.6565 24.7757 21.837 24.7757 22.0253C24.7757 22.2135 24.701 22.394 24.5679 22.5272C24.4348 22.6603 24.2542 22.735 24.066 22.735H18.0339C17.9406 22.7351 17.8483 22.7168 17.7621 22.6811C17.6759 22.6455 17.5976 22.5932 17.5317 22.5272C17.4657 22.4613 17.4134 22.383 17.3778 22.2968C17.3421 22.2106 17.3238 22.1183 17.3239 22.025L17.3244 22.0255ZM17.3244 17.2709C17.3244 16.8791 17.6416 16.5614 18.0339 16.5614H24.066C24.2541 16.5614 24.4346 16.6361 24.5677 16.7692C24.7007 16.9022 24.7755 17.0827 24.7755 17.2709C24.7755 17.4591 24.7007 17.6395 24.5677 17.7726C24.4346 17.9056 24.2541 17.9804 24.066 17.9804H18.0339C17.9407 17.9805 17.8484 17.9622 17.7622 17.9265C17.6761 17.8909 17.5978 17.8387 17.5319 17.7728C17.4659 17.7069 17.4136 17.6286 17.3779 17.5425C17.3422 17.4564 17.3239 17.3641 17.3239 17.2709H17.3244ZM9.51777 12.8707C9.04727 12.8707 8.59604 13.0576 8.26335 13.3903C7.93066 13.723 7.74375 14.1742 7.74375 14.6447C7.74375 15.1152 7.93066 15.5664 8.26335 15.8991C8.59604 16.2318 9.04727 16.4187 9.51777 16.4187C9.98827 16.4187 10.4395 16.2318 10.7722 15.8991C11.1049 15.5664 11.2918 15.1152 11.2918 14.6447C11.2918 14.1742 11.1049 13.723 10.7722 13.3903C10.4395 13.0576 9.98827 12.8707 9.51777 12.8707ZM6.32422 14.6447C6.32422 13.7977 6.66068 12.9854 7.25959 12.3865C7.85849 11.7876 8.67079 11.4512 9.51777 11.4512C10.3647 11.4512 11.177 11.7876 11.7759 12.3865C12.3749 12.9854 12.7113 13.7977 12.7113 14.6447C12.7113 15.4917 12.3749 16.304 11.7759 16.9029C11.177 17.5018 10.3647 17.8383 9.51777 17.8383C8.67079 17.8383 7.85849 17.5018 7.25959 16.9029C6.66068 16.304 6.32422 15.4917 6.32422 14.6447Z" fill="white"/>
<path fill-rule="evenodd" clip-rule="evenodd" d="M9.51789 18.5484C7.30743 18.5484 5.61431 20.1894 5.61431 22.0965C5.61431 22.2846 5.53956 22.4651 5.4065 22.5982C5.27345 22.7312 5.09298 22.806 4.90481 22.806C4.71664 22.806 4.53618 22.7312 4.40312 22.5982C4.27006 22.4651 4.19531 22.2846 4.19531 22.0965C4.19531 19.3005 6.63305 17.1289 9.51789 17.1289C12.4027 17.1289 14.8405 19.3005 14.8405 22.0965C14.8405 22.2847 14.7657 22.4652 14.6326 22.5984C14.4995 22.7315 14.3189 22.8062 14.1307 22.8062C13.9425 22.8062 13.7619 22.7315 13.6288 22.5984C13.4957 22.4652 13.4209 22.2847 13.4209 22.0965C13.4209 20.1894 11.7284 18.5484 9.51789 18.5484Z" fill="white"/>
</svg>
