<svg width="25" height="25" viewBox="0 0 25 25" fill="none" xmlns="http://www.w3.org/2000/svg">
<path d="M12.4997 14.5829C13.9382 14.5829 15.2403 13.9996 16.183 13.0569C17.1247 12.1152 17.708 10.8131 17.708 9.37459C17.708 7.93605 17.1247 6.63397 16.183 5.6923C15.2403 4.74959 13.9382 4.16626 12.4997 4.16626C11.0611 4.16626 9.75905 4.74959 8.81634 5.6923C7.87467 6.63397 7.29134 7.93605 7.29134 9.37459C7.29134 10.8131 7.87467 12.1152 8.81634 13.0569C9.29948 13.5414 9.8736 13.9256 10.5057 14.1875C11.1378 14.4494 11.8155 14.5838 12.4997 14.5829ZM20.833 15.6246C21.1752 15.6253 21.5141 15.5584 21.8304 15.4278C22.1467 15.2971 22.434 15.1053 22.676 14.8634C22.9179 14.6214 23.1097 14.3341 23.2403 14.0178C23.371 13.7015 23.4379 13.3626 23.4372 13.0204C23.4372 12.3017 23.1465 11.6506 22.6747 11.1788C22.4331 10.9366 22.146 10.7446 21.8299 10.6137C21.5139 10.4828 21.1751 10.4157 20.833 10.4163C20.4908 10.4156 20.1519 10.4825 19.8356 10.6131C19.5194 10.7437 19.232 10.9355 18.9901 11.1775C18.7481 11.4194 18.5563 11.7068 18.4257 12.023C18.295 12.3393 18.2282 12.6783 18.2288 13.0204C18.2283 13.3626 18.2953 13.7014 18.426 14.0176C18.5566 14.3338 18.7484 14.6211 18.9904 14.8631C19.2323 15.105 19.5196 15.2968 19.8358 15.4275C20.152 15.5582 20.4909 15.6251 20.833 15.6246ZM20.833 16.2392C19.4465 16.2392 18.4038 16.6621 17.7945 17.2475C16.633 16.2923 14.7965 15.6246 12.4997 15.6246C10.1393 15.6246 8.33822 16.2996 7.19551 17.2538C6.57467 16.6652 5.52051 16.2392 4.16634 16.2392C1.88717 16.2392 0.520508 17.3746 0.520508 18.5121C0.520508 19.0798 1.88717 19.6496 4.16634 19.6496C4.79551 19.6496 5.36009 19.5965 5.85697 19.5111L5.8153 19.7923C5.8153 20.834 8.32155 21.8756 12.4997 21.8756C16.4184 21.8756 19.184 20.834 19.184 19.7923L19.1632 19.5267C19.6455 19.6027 20.1997 19.6496 20.833 19.6496C22.9695 19.6496 24.4788 19.0798 24.4788 18.5121C24.4788 17.3746 23.0486 16.2392 20.833 16.2392V16.2392ZM4.16634 15.6246C4.88509 15.6246 5.53613 15.334 6.00801 14.8621C6.25018 14.6205 6.44222 14.3334 6.57307 14.0174C6.70393 13.7013 6.77103 13.3625 6.77051 13.0204C6.77119 12.6783 6.7043 12.3393 6.57368 12.023C6.44305 11.7068 6.25125 11.4194 6.0093 11.1775C5.76734 10.9355 5.47999 10.7437 5.16372 10.6131C4.84746 10.4825 4.50852 10.4156 4.16634 10.4163C3.8242 10.4157 3.48532 10.4827 3.16912 10.6134C2.85292 10.7441 2.56562 10.9359 2.32369 11.1778C2.08176 11.4197 1.88996 11.707 1.75929 12.0232C1.62861 12.3394 1.56163 12.6783 1.56217 13.0204C1.56149 13.3626 1.62838 13.7015 1.75901 14.0178C1.88964 14.3341 2.08143 14.6214 2.32339 14.8634C2.56534 15.1053 2.8527 15.2971 3.16896 15.4278C3.48522 15.5584 3.82416 15.6253 4.16634 15.6246V15.6246Z" fill="black"/>
</svg>
