<svg width="25" height="25" viewBox="0 0 25 25" fill="none" xmlns="http://www.w3.org/2000/svg">
<path d="M10.2601 16.1974C11.7598 16.0766 13.2663 16.0766 14.766 16.1974C15.5826 16.245 16.3954 16.3472 17.1991 16.5032C18.9384 16.8554 20.0739 17.43 20.5605 18.3567C20.926 19.08 20.926 19.9411 20.5605 20.6643C20.0739 21.5911 18.9835 22.2027 17.1811 22.5178C16.378 22.6798 15.565 22.7851 14.748 22.8329C13.991 22.9163 13.234 22.9163 12.468 22.9163H11.0892C10.8008 22.8793 10.5215 22.8607 10.2511 22.8607C9.43399 22.8187 8.62085 22.7165 7.81794 22.5549C6.07868 22.2213 4.9432 21.6282 4.45657 20.7014C4.26871 20.3424 4.16967 19.9414 4.16808 19.5337C4.16428 19.1235 4.26032 18.7189 4.44756 18.3567C4.92518 17.43 6.06065 16.8276 7.81794 16.5032C8.62439 16.3449 9.4403 16.2428 10.2601 16.1974ZM12.504 2.08301C15.5251 2.08301 17.9742 4.60157 17.9742 7.70838C17.9742 10.8152 15.5251 13.3337 12.504 13.3337C9.48298 13.3337 7.03392 10.8152 7.03392 7.70838C7.03392 4.60157 9.48298 2.08301 12.504 2.08301Z" fill="#232323"/>
</svg>
