<svg width="19" height="24" viewBox="0 0 19 24" fill="none" xmlns="http://www.w3.org/2000/svg">
<path d="M6.99689 16.0932C8.67214 15.9582 10.3551 15.9582 12.0303 16.0932C12.9426 16.1464 13.8506 16.2605 14.7484 16.4349C16.6913 16.8283 17.9598 17.4701 18.5034 18.5054C18.9117 19.3134 18.9117 20.2752 18.5034 21.0832C17.9598 22.1185 16.7417 22.8017 14.7283 23.1537C13.8311 23.3346 12.923 23.4523 12.0102 23.5057C11.1646 23.5989 10.319 23.5989 9.46329 23.5989H7.92305C7.60091 23.5575 7.28883 23.5368 6.98682 23.5368C6.07403 23.4898 5.16568 23.3757 4.26876 23.1951C2.32584 22.8225 1.05741 22.1599 0.513797 21.1246C0.303943 20.7236 0.193308 20.2756 0.191528 19.8202C0.187282 19.362 0.294571 18.91 0.503731 18.5054C1.03728 17.4701 2.30571 16.7972 4.26876 16.4349C5.16963 16.258 6.08108 16.1439 6.99689 16.0932ZM9.50355 0.326172C12.8784 0.326172 15.6142 3.13964 15.6142 6.61022C15.6142 10.0808 12.8784 12.8943 9.50355 12.8943C6.12875 12.8943 3.39294 10.0808 3.39294 6.61022C3.39294 3.13964 6.12875 0.326172 9.50355 0.326172Z" fill="#F7FAFF"/>
</svg>
