<svg width="10" height="24" viewBox="0 0 10 24" fill="none" xmlns="http://www.w3.org/2000/svg">
<path d="M1.23658 17.3541C0.879858 17.7757 0.932472 18.4067 1.3541 18.7634C1.77572 19.1201 2.4067 19.0675 2.76342 18.6459L1.23658 17.3541ZM7.07627 12.0002L7.83969 12.6461L8.38617 12.0002L7.83969 11.3543L7.07627 12.0002ZM2.76342 5.35441C2.4067 4.93279 1.77572 4.88017 1.3541 5.2369C0.932472 5.59362 0.879858 6.2246 1.23658 6.64622L2.76342 5.35441ZM2.76342 18.6459L7.83969 12.6461L6.31285 11.3543L1.23658 17.3541L2.76342 18.6459ZM7.83969 11.3543L2.76342 5.35441L1.23658 6.64622L6.31285 12.6461L7.83969 11.3543Z" fill="white"/>
</svg>
