<svg width="11" height="18" viewBox="0 0 11 18" fill="none" xmlns="http://www.w3.org/2000/svg">
<path d="M0.646528 14.9467C0.0140903 15.6942 0.107369 16.8128 0.854871 17.4453C1.60237 18.0777 2.72104 17.9844 3.35347 17.2369L0.646528 14.9467ZM8 9.00016L9.35348 10.1453L10.3223 9.00016L9.35348 7.85503L8 9.00016ZM3.35347 0.76339C2.72104 0.0158882 1.60237 -0.0773907 0.854871 0.555046C0.107369 1.18748 0.0140903 2.30615 0.646528 3.05365L3.35347 0.76339ZM3.35347 17.2369L9.35348 10.1453L6.64653 7.85503L0.646528 14.9467L3.35347 17.2369ZM9.35348 7.85503L3.35347 0.76339L0.646528 3.05365L6.64653 10.1453L9.35348 7.85503Z" fill="#232323"/>
</svg>
