<svg width="48" height="49" viewBox="0 0 48 49" fill="none" xmlns="http://www.w3.org/2000/svg">
<circle cx="23.7835" cy="23.3031" r="23.2757" fill="#53C5E0" fill-opacity="0.14"/>
<path d="M10.5469 18.8821C10.5469 16.9387 12.1223 15.3633 14.0657 15.3633V15.3633V36.4761H12.4236C11.3871 36.4761 10.5469 35.6359 10.5469 34.5994V18.8821Z" fill="#00A9B8"/>
<path d="M14.0664 15.3633H35.1792C37.7704 15.3633 39.871 17.4638 39.871 20.055V43.5137C39.871 46.1049 37.7704 48.2054 35.1792 48.2054H18.7581C16.167 48.2054 14.0664 46.1049 14.0664 43.5137V15.3633Z" fill="#53C5E0"/>
<rect x="18.7578" y="22.3984" width="16.4211" height="2.34587" rx="1.17293" fill="#00A9B8"/>
<rect x="18.7578" y="29.4365" width="16.4211" height="2.34587" rx="1.17293" fill="#00A9B8"/>
<rect x="18.7578" y="36.4746" width="16.4211" height="2.34587" rx="1.17293" fill="#00A9B8"/>
</svg>
