<svg width="25" height="19" viewBox="0 0 25 19" fill="none" xmlns="http://www.w3.org/2000/svg">
<path d="M20.7031 0.679688H3.51562C2.58354 0.680721 1.68993 1.05145 1.03084 1.71053C0.371761 2.36962 0.00103393 3.26323 0 4.19531V14.8047C0 16.743 1.57734 18.3203 3.51562 18.3203H20.7031C22.6414 18.3203 24.2188 16.743 24.2188 14.8047V4.19531C24.2188 2.25703 22.6414 0.679688 20.7031 0.679688ZM19.6641 3.02344L18.5859 3.875L12.8359 8.41406C12.4062 8.75 11.8125 8.75 11.3828 8.41406L5.83594 4.03125L4.55703 3.02344H19.6641ZM20.7031 15.9766H3.51562C2.86953 15.9766 2.34375 15.4508 2.34375 14.8047V4.26953L9.92969 10.2578C10.5703 10.7656 11.3438 11.0156 12.1094 11.0156C12.875 11.0156 13.6484 10.7656 14.2891 10.2578L21.875 4.27187V14.8047C21.875 15.4508 21.3492 15.9766 20.7031 15.9766Z" fill="#232323"/>
</svg>
