<svg width="24" height="24" viewBox="0 0 24 24" fill="none" xmlns="http://www.w3.org/2000/svg">
<path fill-rule="evenodd" clip-rule="evenodd" d="M13.3656 1.34904C13.3656 0.603985 12.7616 0 12.0165 0C11.2715 0 10.6675 0.603985 10.6675 1.34904V10.7104L1.35358 10.6732C0.608534 10.6702 0.00251847 11.2718 7.82526e-06 12.0168C-0.00250282 12.7619 0.599442 13.3682 1.34449 13.3712L10.6675 13.4085V22.651C10.6675 23.396 11.2715 24 12.0165 24C12.7616 24 13.3656 23.396 13.3656 22.651V13.4193L22.6473 13.4563C23.3924 13.4593 23.9984 12.8578 24.0009 12.1127C24.0034 11.3677 23.4014 10.7613 22.6564 10.7583L13.3656 10.7212V1.34904Z" fill="#00A9B8"/>
</svg>
