<svg width="75" height="70" viewBox="0 0 75 70" fill="none" xmlns="http://www.w3.org/2000/svg">
<g filter="url(#filter0_d_2333_5240)">
<circle cx="42.5" cy="38.5" r="32.5" fill="#00A9B8"/>
<path fill-rule="evenodd" clip-rule="evenodd" d="M44.3851 25.1016C44.3851 24.0536 43.5356 23.2041 42.4876 23.2041C41.4396 23.2041 40.5901 24.0536 40.5901 25.1016V36.506H29.1045C28.0566 36.506 27.207 37.3555 27.207 38.4035C27.207 39.4514 28.0566 40.301 29.1045 40.301H40.5901V51.8948C40.5901 52.9428 41.4396 53.7923 42.4876 53.7923C43.5356 53.7923 44.3851 52.9428 44.3851 51.8948V40.301H55.8978C56.9457 40.301 57.7953 39.4514 57.7953 38.4035C57.7953 37.3555 56.9457 36.506 55.8978 36.506H44.3851V25.1016Z" fill="white"/>
</g>
<defs>
<filter id="filter0_d_2333_5240" x="0" y="0" width="85" height="85" filterUnits="userSpaceOnUse" color-interpolation-filters="sRGB">
<feFlood flood-opacity="0" result="BackgroundImageFix"/>
<feColorMatrix in="SourceAlpha" type="matrix" values="0 0 0 0 0 0 0 0 0 0 0 0 0 0 0 0 0 0 127 0" result="hardAlpha"/>
<feOffset dy="4"/>
<feGaussianBlur stdDeviation="5"/>
<feComposite in2="hardAlpha" operator="out"/>
<feColorMatrix type="matrix" values="0 0 0 0 0 0 0 0 0 0.662745 0 0 0 0 0.721569 0 0 0 0.25 0"/>
<feBlend mode="normal" in2="BackgroundImageFix" result="effect1_dropShadow_2333_5240"/>
<feBlend mode="normal" in="SourceGraphic" in2="effect1_dropShadow_2333_5240" result="shape"/>
</filter>
</defs>
</svg>
