<svg width="29" height="29" viewBox="0 0 29 29" fill="none" xmlns="http://www.w3.org/2000/svg">
<path fill-rule="evenodd" clip-rule="evenodd" d="M14.5117 0.716797C13.4955 0.716797 12.6717 1.54059 12.6717 2.5568V12.6766H2.55484C1.53864 12.6766 0.714844 13.5004 0.714844 14.5166C0.714844 15.5328 1.53864 16.3566 2.55485 16.3566H12.6717L12.6717 26.4768C12.6717 27.493 13.4955 28.3168 14.5117 28.3168C15.528 28.3168 16.3517 27.493 16.3517 26.4768V16.3566H26.4748C27.491 16.3566 28.3148 15.5328 28.3148 14.5166C28.3148 13.5004 27.491 12.6766 26.4748 12.6766L16.3517 12.6766V2.5568C16.3517 1.54059 15.528 0.716797 14.5117 0.716797Z" fill="white"/>
</svg>
