<svg width="30" height="30" viewBox="0 0 30 30" fill="none" xmlns="http://www.w3.org/2000/svg">
<path d="M15 15.3281C16.851 15.3281 18.3516 13.8276 18.3516 11.9766C18.3516 10.1255 16.851 8.625 15 8.625C13.149 8.625 11.6484 10.1255 11.6484 11.9766C11.6484 13.8276 13.149 15.3281 15 15.3281Z" fill="#C0C0C0"/>
<path d="M21.2817 21.4687C21.3755 21.4922 21.4223 21.5156 21.4926 21.5156C21.7036 21.5156 21.8208 21.4219 21.8911 21.3515C21.9614 21.2812 22.0551 21.1406 22.0551 20.9297C22.0317 18.6328 23.4848 16.6406 25.6645 15.9609C25.7114 15.9375 25.7817 15.914 25.8286 15.8672C25.9926 15.75 26.0395 15.5859 26.0629 15.4922C26.0864 15.375 26.0629 15.2109 25.9458 15.0469C24.5864 13.2187 24.5864 10.7578 25.9458 8.92966L26.0161 8.83591C26.0161 8.81248 26.0395 8.78904 26.0395 8.7656C26.1098 8.5781 26.0395 8.41404 25.9926 8.32029C25.9458 8.22654 25.852 8.08591 25.6411 8.03904C23.4848 7.35935 22.0317 5.36716 22.0551 3.09373C22.0551 2.99998 22.0551 2.9531 22.0317 2.88279C21.9614 2.69529 21.8442 2.60154 21.727 2.55466C21.6333 2.50779 21.4692 2.46091 21.2817 2.53123C20.7426 2.71873 20.1801 2.81248 19.6411 2.81248C17.977 2.81248 16.4067 2.0156 15.4458 0.656226C15.3989 0.609351 15.352 0.562476 15.3051 0.515601C15.0473 0.328101 14.6723 0.398414 14.4848 0.656226C13.5239 2.0156 11.9536 2.81248 10.3129 2.81248C9.75045 2.81248 9.18795 2.71873 8.67232 2.53123C8.60201 2.50779 8.55514 2.50779 8.48482 2.50779C8.29732 2.50779 8.1567 2.60154 8.08639 2.67185C8.01607 2.74216 7.92232 2.88279 7.92232 3.09373C7.94576 5.36716 6.49264 7.35935 4.31295 8.03904C4.24264 8.06248 4.19576 8.08591 4.12545 8.13279C3.86764 8.32029 3.82076 8.69529 4.00826 8.9531C5.36764 10.7812 5.36764 13.2422 4.00826 15.0703C3.96139 15.1172 3.93795 15.1875 3.91451 15.2344C3.8442 15.4219 3.91451 15.5859 3.96139 15.6797C4.00826 15.7734 4.12545 15.914 4.31295 15.9609C6.49264 16.664 7.92232 18.6562 7.89889 20.9297C7.89889 21 7.89889 21.0703 7.92232 21.1406C7.99264 21.3281 8.10982 21.4219 8.22701 21.4687C8.32076 21.5156 8.48482 21.5625 8.67232 21.4922C9.23482 21.3047 9.79732 21.2109 10.3364 21.2109C11.977 21.2109 13.5239 21.9844 14.5083 23.3672C14.5551 23.414 14.602 23.4609 14.6489 23.5078C14.8129 23.625 14.977 23.625 15.0942 23.6015C15.2114 23.5781 15.352 23.5312 15.4692 23.3672C16.7817 21.4922 19.1255 20.7422 21.2817 21.4687ZM15.0004 17.6953C11.8364 17.6953 9.2817 15.1406 9.2817 11.9765C9.2817 8.81248 11.8364 6.25779 15.0004 6.25779C18.1645 6.25779 20.7192 8.81248 20.7192 11.9765C20.7192 15.1406 18.1645 17.6953 15.0004 17.6953Z" fill="#C0C0C0"/>
<path d="M9.09375 22.7344C8.625 22.8984 8.13281 22.8516 7.66406 22.6641L7.61719 22.6406C7.17188 22.4063 6.82031 22.0313 6.65625 21.5625C6.60938 21.3281 6.5625 21.0938 6.58594 20.8828C6.58594 19.9688 6.28125 19.125 5.74219 18.4688L1.03125 25.6406H5.20313L7.14844 29.625L11.6484 22.7344C11.25 22.5938 10.8047 22.5 10.3594 22.5C9.9375 22.5234 9.51562 22.5938 9.09375 22.7344ZM24.2578 18.4453C23.6953 19.125 23.3906 19.9688 23.4141 20.9063C23.4141 21.4219 23.2266 21.9141 22.8516 22.2656C22.5234 22.5938 22.0547 22.8047 21.5859 22.8281C21.3516 22.8516 21.0938 22.8047 20.8359 22.7109C20.0156 22.4297 19.1484 22.4531 18.3516 22.7344L22.8516 29.625L24.7969 25.6406H28.9688L24.2578 18.4453Z" fill="#C0C0C0"/>
</svg>
