<svg width="61" height="61" viewBox="0 0 61 61" fill="none" xmlns="http://www.w3.org/2000/svg">
<circle cx="27.2596" cy="27.2596" r="27.2596" fill="#53C5E0" fill-opacity="0.15"/>
<path fill-rule="evenodd" clip-rule="evenodd" d="M30.717 44.3597L23.392 57.0466C23.3071 57.193 23.1788 57.3094 23.0247 57.3797C22.8707 57.4499 22.6987 57.4705 22.5325 57.4386C22.3662 57.4066 22.2141 57.3237 22.0971 57.2014C21.98 57.0791 21.904 56.9234 21.8794 56.756L21.0072 50.8177L15.429 53.03C15.2704 53.093 15.096 53.1046 14.9304 53.0631C14.7649 53.0216 14.6166 52.9291 14.5065 52.7987C14.3964 52.6683 14.3301 52.5066 14.3169 52.3364C14.3037 52.1663 14.3443 51.9963 14.433 51.8505L21.6998 39.2596C21.7623 39.1512 21.8489 39.0586 21.953 38.989C22.057 38.9195 22.1756 38.8748 22.2997 38.8585C22.4238 38.8422 22.5499 38.8547 22.6684 38.895C22.7869 38.9354 22.8945 39.0025 22.9828 39.0911C23.9705 40.0887 25.0932 40.9428 26.3183 41.6285C27.536 42.3111 28.844 42.8183 30.2036 43.135C30.33 43.1642 30.4476 43.223 30.5467 43.3066C30.6458 43.3902 30.7236 43.4962 30.7737 43.6158C30.8237 43.7355 30.8445 43.8653 30.8344 43.9946C30.8242 44.1239 30.7835 44.2489 30.7155 44.3593M45.4968 39.3329L52.7866 51.9595C52.8707 52.106 52.9072 52.2749 52.891 52.443C52.8748 52.6111 52.8068 52.77 52.6963 52.8976C52.5858 53.0253 52.4383 53.1155 52.2742 53.1556C52.1102 53.1957 51.9378 53.1838 51.7808 53.1216L46.2025 50.9093L45.3303 56.8476C45.3052 57.0188 45.2264 57.1777 45.1052 57.3012C44.9839 57.4247 44.8266 57.5066 44.6559 57.5349C44.4851 57.5632 44.3098 57.5366 44.1552 57.4588C44.0005 57.381 43.8746 57.2561 43.7956 57.1021L36.4305 44.3498C36.3666 44.2392 36.3295 44.1152 36.3222 43.9877C36.315 43.8602 36.3377 43.7328 36.3887 43.6157C36.4396 43.4986 36.5173 43.395 36.6155 43.3134C36.7138 43.2318 36.8298 43.1744 36.9542 43.1457C38.3159 42.8339 39.6266 42.3311 40.8475 41.6522C42.0741 40.9699 43.1987 40.1187 44.1885 39.1236C44.2796 39.0316 44.3913 38.9627 44.5144 38.9225C44.6375 38.8822 44.7683 38.8719 44.8962 38.8923C45.024 38.9126 45.1452 38.9632 45.2496 39.0397C45.3541 39.1161 45.4388 39.2164 45.4968 39.3321V39.3329Z" fill="#00A9B8"/>
<path fill-rule="evenodd" clip-rule="evenodd" d="M33.6033 13.0879C36.7189 13.0879 39.7645 14.0118 42.3551 15.7427C44.9456 17.4736 46.9647 19.9339 48.1569 22.8123C49.3492 25.6907 49.6612 28.8581 49.0534 31.9138C48.4455 34.9696 46.9452 37.7764 44.7422 39.9795C42.5391 42.1825 39.7323 43.6828 36.6765 44.2907C33.6208 44.8985 30.4534 44.5865 27.575 43.3942C24.6966 42.202 22.2363 40.1829 20.5054 37.5924C18.7745 35.0018 17.8506 31.9562 17.8506 28.8406C17.8505 26.7719 18.258 24.7235 19.0496 22.8123C19.8412 20.901 21.0016 19.1644 22.4643 17.7016C23.9271 16.2389 25.6637 15.0785 27.5749 14.2869C29.4862 13.4953 31.5346 13.0878 33.6033 13.0879Z" fill="#53C5E0"/>
<path d="M41.6005 20.843C39.7502 18.9926 37.3156 17.8411 34.7115 17.5845C32.1074 17.328 29.4948 17.9823 27.3191 19.436C25.1433 20.8898 23.5389 23.053 22.7793 25.557C22.0197 28.0611 22.1518 30.751 23.1532 33.1686C24.1546 35.5861 25.9632 37.5817 28.271 38.8152C30.5787 40.0487 33.2428 40.4439 35.8092 39.9334C38.3757 39.4228 40.6857 38.0382 42.3457 36.0154C44.0057 33.9926 44.913 31.4568 44.9129 28.8401C44.9148 27.3546 44.6232 25.8834 44.0547 24.511C43.4862 23.1386 42.6522 21.8921 41.6005 20.843ZM33.603 15.8955C36.5979 15.8955 39.5002 16.9339 41.8153 18.8338C44.1304 20.7337 45.7151 23.3776 46.2994 26.3149C46.8837 29.2523 46.4314 32.3014 45.0197 34.9426C43.6079 37.5839 41.324 39.654 38.557 40.8001C35.7901 41.9462 32.7114 42.0974 29.8454 41.228C26.9795 40.3587 24.5037 38.5225 22.8398 36.0323C21.1759 33.5421 20.427 30.552 20.7206 27.5716C21.0141 24.5911 22.3321 21.8046 24.4498 19.6869C25.6505 18.4831 27.0773 17.5285 28.6481 16.8778C30.2189 16.2272 31.9028 15.8933 33.603 15.8955Z" fill="#00A9B8"/>
<path d="M34.588 22.2935L35.798 26.0417L39.7464 26.0342C39.9635 26.035 40.1749 26.1044 40.3502 26.2324C40.5256 26.3605 40.6561 26.5406 40.723 26.7472C40.79 26.9538 40.79 27.1762 40.723 27.3828C40.6561 27.5894 40.5256 27.7695 40.3502 27.8975V27.8995L37.1527 30.2133L38.3817 33.965C38.4516 34.1787 38.4497 34.4093 38.3764 34.6218C38.303 34.8343 38.1622 35.0169 37.9754 35.142C37.7887 35.267 37.5661 35.3276 37.3417 35.3145C37.1173 35.3013 36.9034 35.2152 36.7324 35.0692L33.6036 32.7871L30.4132 35.1144C30.2375 35.2424 30.0258 35.3114 29.8084 35.3116C29.5911 35.3118 29.3792 35.2431 29.2033 35.1154C29.0274 34.9877 28.8965 34.8075 28.8294 34.6008C28.7623 34.394 28.7624 34.1713 28.8297 33.9646H28.8269L30.056 30.2129L26.8581 27.8987C26.6762 27.7672 26.5422 27.58 26.4764 27.3654C26.4106 27.1508 26.4167 26.9206 26.4937 26.7098C26.5706 26.4989 26.7143 26.319 26.9029 26.1973C27.0915 26.0755 27.3146 26.0187 27.5384 26.0353L31.4119 26.0429L32.6239 22.2876C32.6912 22.0797 32.8228 21.8985 32.9998 21.7703C33.1767 21.6421 33.3898 21.5734 33.6083 21.5742C33.8269 21.575 34.0395 21.6452 34.2155 21.7747C34.3915 21.9042 34.5218 22.0863 34.5876 22.2947" fill="#00A9B8"/>
<path d="M59.8745 15.1656L56.1004 13.7686L54.6911 9.14975C54.6645 9.06299 54.6108 8.98706 54.5378 8.93312C54.4648 8.87918 54.3765 8.85007 54.2857 8.85007C54.195 8.85007 54.1066 8.87918 54.0336 8.93312C53.9606 8.98706 53.9069 9.06299 53.8803 9.14975L52.4714 13.7686L48.6969 15.1656C48.6158 15.1957 48.5458 15.25 48.4963 15.321C48.4469 15.3921 48.4204 15.4766 48.4204 15.5632C48.4204 15.6498 48.4469 15.7343 48.4963 15.8053C48.5458 15.8764 48.6158 15.9306 48.6969 15.9608L52.4697 17.3573L53.879 22.117C53.9049 22.2047 53.9585 22.2818 54.0318 22.3365C54.1051 22.3913 54.1942 22.4209 54.2857 22.4209C54.3772 22.4209 54.4663 22.3913 54.5396 22.3365C54.6129 22.2818 54.6665 22.2047 54.6924 22.117L56.1021 17.3573L59.8749 15.9608C59.9564 15.931 60.0268 15.8768 60.0765 15.8057C60.1262 15.7345 60.1529 15.6498 60.1528 15.563C60.1528 15.4762 60.126 15.3916 60.0762 15.3205C60.0265 15.2494 59.956 15.1953 59.8745 15.1656Z" fill="#FFBB0C"/>
<path d="M51.393 19.8317L50.4121 19.4686L50.0304 18.0691C50.006 17.9793 49.9527 17.9 49.8787 17.8434C49.8048 17.7869 49.7143 17.7562 49.6212 17.7562C49.5281 17.7562 49.4375 17.7869 49.3636 17.8434C49.2896 17.9 49.2363 17.9793 49.2119 18.0691L48.8302 19.4686L47.8493 19.8317C47.7681 19.8618 47.6981 19.916 47.6487 19.9871C47.5992 20.0582 47.5728 20.1427 47.5728 20.2293C47.5728 20.3158 47.5992 20.4003 47.6487 20.4714C47.6981 20.5425 47.7681 20.5967 47.8493 20.6269L48.8251 20.9886L49.2098 22.5247C49.2328 22.6164 49.2857 22.6978 49.3603 22.756C49.4348 22.8141 49.5266 22.8457 49.6212 22.8457C49.7157 22.8457 49.8075 22.8141 49.8821 22.756C49.9566 22.6978 50.0095 22.6164 50.0325 22.5247L50.4172 20.9886L51.393 20.6269C51.4742 20.5967 51.5442 20.5425 51.5936 20.4714C51.6431 20.4003 51.6696 20.3158 51.6696 20.2293C51.6696 20.1427 51.6431 20.0582 51.5936 19.9871C51.5442 19.916 51.4742 19.8618 51.393 19.8317Z" fill="#FFBB0C"/>
<path d="M49.5533 10.6442L48.5503 10.2731L48.1792 9.27013C48.1492 9.18883 48.0949 9.11868 48.0238 9.06914C47.9527 9.0196 47.8681 8.99304 47.7814 8.99304C47.6947 8.99304 47.6101 9.0196 47.539 9.06914C47.4679 9.11868 47.4136 9.18883 47.3836 9.27013L47.0121 10.2731L46.0095 10.6442C45.9282 10.6743 45.8581 10.7285 45.8085 10.7996C45.759 10.8707 45.7324 10.9553 45.7324 11.042C45.7324 11.1287 45.759 11.2133 45.8085 11.2844C45.8581 11.3555 45.9282 11.4098 46.0095 11.4398L47.0121 11.8109L47.3836 12.8139C47.4135 12.8954 47.4676 12.9657 47.5388 13.0154C47.6099 13.0651 47.6946 13.0918 47.7814 13.0918C47.8682 13.0918 47.9529 13.0651 48.024 13.0154C48.0952 12.9657 48.1493 12.8954 48.1792 12.8139L48.5503 11.8109L49.5533 11.4398C49.6346 11.4098 49.7047 11.3555 49.7543 11.2844C49.8038 11.2133 49.8304 11.1287 49.8304 11.042C49.8304 10.9553 49.8038 10.8707 49.7543 10.7996C49.7047 10.7285 49.6346 10.6743 49.5533 10.6442Z" fill="#FFBB0C"/>
</svg>
