<svg width="25" height="25" viewBox="0 0 25 25" fill="none" xmlns="http://www.w3.org/2000/svg">
<path d="M14.7412 16.1977C13.2415 16.0769 11.735 16.0769 10.2353 16.1977C9.41866 16.2453 8.60589 16.3475 7.80213 16.5036C6.06287 16.8557 4.92739 17.4303 4.44076 18.3571C4.07528 19.0804 4.07528 19.9414 4.44076 20.6647C4.92739 21.5914 6.01781 22.2031 7.82016 22.5182C8.62328 22.6801 9.43623 22.7854 10.2533 22.8333C11.0103 22.9167 11.7673 22.9167 12.5333 22.9167H13.9121C14.2005 22.8796 14.4798 22.8611 14.7502 22.8611C15.5673 22.819 16.3804 22.7168 17.1833 22.5552C18.9226 22.2216 20.0581 21.6285 20.5447 20.7017C20.7326 20.3427 20.8316 19.9417 20.8332 19.534C20.837 19.1239 20.741 18.7192 20.5537 18.3571C20.0761 17.4303 18.9406 16.8279 17.1833 16.5036C16.3769 16.3453 15.561 16.2431 14.7412 16.1977ZM12.4972 2.08334C9.47618 2.08334 7.02713 4.60191 7.02713 7.70871C7.02713 10.8155 9.47618 13.3341 12.4972 13.3341C15.5183 13.3341 17.9674 10.8155 17.9674 7.70871C17.9674 4.60191 15.5183 2.08334 12.4972 2.08334Z" fill="#DDDDDD"/>
</svg>
