<svg width="30" height="30" viewBox="0 0 30 30" fill="none" xmlns="http://www.w3.org/2000/svg">
<path d="M14.625 13.25C17.7316 13.25 20.25 10.7316 20.25 7.625C20.25 4.5184 17.7316 2 14.625 2C11.5184 2 9 4.5184 9 7.625C9 10.7316 11.5184 13.25 14.625 13.25Z" fill="#00A9B8"/>
<path d="M24.9527 25.2401C24.5361 23.292 23.5807 21.5088 22.2014 20.1047C21.8667 19.7597 21.5039 19.4446 21.117 19.1629C19.3552 17.8057 17.2077 17.081 15.0053 17.1005C12.3124 17.0863 9.72329 18.1662 7.80256 20.1047C6.42326 21.5088 5.46794 23.292 5.05131 25.2401C4.9789 25.5845 4.98281 25.9413 5.06276 26.284C5.14271 26.6267 5.29665 26.9466 5.5132 27.2199C5.73747 27.4992 6.01988 27.7232 6.33963 27.8755C6.65938 28.0278 7.00832 28.1045 7.36076 28.0999H22.6499C23.0034 28.1001 23.3524 28.0187 23.671 27.8616C23.9897 27.7045 24.2699 27.4758 24.4908 27.1925C24.7035 26.9223 24.8552 26.6071 24.935 26.2695C25.0149 25.9319 25.0209 25.5803 24.9527 25.2401V25.2401Z" fill="#00A9B8"/>
</svg>
