<svg width="62" height="62" viewBox="0 0 62 62" fill="none" xmlns="http://www.w3.org/2000/svg">
<circle cx="27.0067" cy="26.93" r="26.93" fill="#53C5E0" fill-opacity="0.15"/>
<path d="M35.6802 32.3077C40.6624 32.3077 44.7012 28.2688 44.7012 23.2866C44.7012 18.3045 40.6624 14.2656 35.6802 14.2656C30.698 14.2656 26.6592 18.3045 26.6592 23.2866C26.6592 28.2688 30.698 32.3077 35.6802 32.3077Z" fill="#53C5E0"/>
<path d="M35.6801 33.9492C31.7651 33.9492 28.0104 35.5045 25.242 38.2728C22.4737 41.0412 20.9185 44.7959 20.9185 48.7109V55.2716C20.9185 55.7066 21.0913 56.1238 21.3989 56.4314C21.7065 56.739 22.1236 56.9118 22.5586 56.9118H48.8016C49.2366 56.9118 49.6538 56.739 49.9614 56.4314C50.269 56.1238 50.4418 55.7066 50.4418 55.2716V48.7109C50.4418 44.7959 48.8866 41.0412 46.1182 38.2728C43.3499 35.5045 39.5952 33.9492 35.6801 33.9492Z" fill="#53C5E0"/>
<path d="M35.6802 14.2656V32.3077C38.0727 32.3077 40.3672 31.3572 42.059 29.6655C43.7508 27.9737 44.7012 25.6792 44.7012 23.2866C44.7012 20.8941 43.7508 18.5996 42.059 16.9078C40.3672 15.2161 38.0727 14.2656 35.6802 14.2656Z" fill="#00A9B8"/>
<path d="M35.6802 33.9492V56.9118H48.8017C49.2367 56.9118 49.6539 56.739 49.9614 56.4314C50.269 56.1238 50.4418 55.7066 50.4418 55.2716V48.7109C50.4418 44.7959 48.8866 41.0412 46.1183 38.2728C43.3499 35.5045 39.5952 33.9492 35.6802 33.9492Z" fill="#00A9B8"/>
</svg>
