<svg width="75" height="61" viewBox="0 0 75 61" fill="none" xmlns="http://www.w3.org/2000/svg">
<circle cx="29.2921" cy="29.2921" r="29.2921" fill="#53C5E0" fill-opacity="0.15"/>
<path d="M48.1065 55.0837H23.8346V56.5115C23.8346 57.2688 23.5338 57.9951 22.9983 58.5306C22.4627 59.0661 21.7364 59.367 20.9791 59.367C20.2218 59.367 19.4955 59.0661 18.9599 58.5306C18.4244 57.9951 18.1236 57.2688 18.1236 56.5115V19.3897C18.1236 18.6324 17.8227 17.9061 17.2872 17.3705C16.7517 16.835 16.0254 16.5342 15.2681 16.5342H43.8233C44.9593 16.5342 46.0487 16.9855 46.852 17.7887C47.6553 18.592 48.1065 19.6815 48.1065 20.8175V55.0837Z" fill="#53C5E0"/>
<path d="M43.1094 23.316C43.11 21.0284 42.8222 18.7498 42.2527 16.5342H15.2681C16.0254 16.5342 16.7517 16.835 17.2872 17.3705C17.8227 17.9061 18.1236 18.6324 18.1236 19.3897V50.6576C24.9348 50.0036 31.261 46.8451 35.8769 41.794C40.4928 36.7429 43.07 30.1585 43.1094 23.316Z" fill="#53C5E0"/>
<path d="M48.1061 55.0837H23.8342V56.5115C23.8342 57.2688 23.5333 57.9951 22.9978 58.5306C22.4623 59.0661 21.736 59.367 20.9787 59.367H48.1061C48.8634 59.367 49.5898 59.0661 50.1253 58.5306C50.6608 57.9951 50.9616 57.2688 50.9616 56.5115V55.0837H48.1061ZM15.2676 16.5342C16.025 16.5342 16.7513 16.835 17.2868 17.3705C17.8223 17.9061 18.1231 18.6324 18.1231 19.3897V25.1007H12.4121V19.3897C12.4121 18.6324 12.713 17.9061 13.2485 17.3705C13.784 16.835 14.5103 16.5342 15.2676 16.5342Z" fill="#00A9B8"/>
<path d="M28.1178 28.6699H23.8345V45.803H28.1178V28.6699Z" fill="#00A9B8"/>
<path d="M35.2569 35.8086H30.9736V45.8029H35.2569V35.8086Z" fill="#00A9B8"/>
<path d="M42.3951 32.9531H38.1118V45.803H42.3951V32.9531Z" fill="#00A9B8"/>
<g clip-path="url(#clip0_1745_6190)">
<path d="M58.6855 45.8167C58.9203 45.492 59.0585 45.0982 59.0585 44.6699C59.0585 43.5922 58.188 42.7217 57.1103 42.7217C56.0326 42.7217 55.1621 43.5922 55.1621 44.6699C55.1621 45.0982 55.3003 45.492 55.5352 45.8167C55.5352 45.8167 57.5248 49.2986 55.5352 53.5266H57.1103H58.6855C56.6958 49.2986 58.6855 45.8167 58.6855 45.8167Z" fill="#FABD3B"/>
<path d="M63.5911 26.0225H57.0833H50.5754C50.5754 26.0225 48.876 44.5787 57.0833 44.5787C65.5669 44.5787 63.5911 26.0225 63.5911 26.0225Z" fill="#FFD759"/>
<path d="M60.6335 54.086C60.6335 54.39 60.3848 54.6387 60.0808 54.6387H54.1464C53.8425 54.6387 53.5938 54.39 53.5938 54.086C53.5938 53.7821 53.8425 53.5333 54.1464 53.5333H60.0808C60.3848 53.5264 60.6335 53.7751 60.6335 54.086Z" fill="#FAB72F"/>
<path d="M61.235 54.6377H52.9932V58.2992H61.235V54.6377Z" fill="#FFD759"/>
<path d="M61.2281 58.2988H57.1107H52.9932L52.1089 60.0121H57.1107H62.1124L61.2281 58.2988Z" fill="#FFD759"/>
<path d="M64.1713 26.0234C64.1713 26.3274 63.9226 26.5761 63.6186 26.5761H50.603C50.299 26.5761 50.0503 26.3274 50.0503 26.0234C50.0503 25.7194 50.299 25.4707 50.603 25.4707H63.6186C63.9226 25.4707 64.1713 25.7194 64.1713 26.0234Z" fill="#FAB72F"/>
<path d="M60.6341 55.2256H53.5874V57.8439H60.6341V55.2256Z" fill="#FAB72F"/>
<path d="M57.1105 37.6635C59.5334 37.6635 61.4974 35.6994 61.4974 33.2766C61.4974 30.8537 59.5334 28.8896 57.1105 28.8896C54.6877 28.8896 52.7236 30.8537 52.7236 33.2766C52.7236 35.6994 54.6877 37.6635 57.1105 37.6635Z" fill="#FAB72F"/>
<path d="M56.7033 36.0329V32.4128C56.7033 32.2263 56.7102 32.0467 56.7448 31.8532L55.5427 32.1641L55.4114 31.4042L56.7033 30.893H57.8363V36.0329H56.7033ZM51.591 38.5752C48.6549 36.779 45.6221 32.3368 45.4701 29.6218C45.4286 28.9171 45.6221 28.2954 45.9813 28.0121C46.5616 27.5631 47.0867 27.5562 47.6462 27.6667C48.5651 27.8532 49.3457 28.4681 49.8915 29.0691C49.8708 29.0691 49.857 29.0622 49.8362 29.0622C49.477 29.0622 49.1868 29.3524 49.1868 29.7116C49.1868 30.0709 49.477 30.361 49.8362 30.361C50.154 30.361 50.4235 30.1261 50.4718 29.8221C50.5685 29.9741 50.6445 30.1123 50.6929 30.2159L50.762 29.7738C50.7205 29.6702 49.6428 27.3074 47.8466 26.8584C47.2663 26.7133 46.6998 26.7202 46.1333 26.9551C46.0987 26.4301 45.6635 26.0225 45.1385 26.0225C44.5858 26.0225 44.1367 26.4715 44.1367 27.0242C44.1367 27.5078 44.4821 27.9154 44.9381 28.0121C44.7309 28.4128 44.5927 28.9586 44.6341 29.6632C44.7861 32.3783 47.287 36.0053 50.5478 38.2298C50.154 38.2713 49.8432 38.6098 49.8432 39.0174C49.8432 39.4526 50.1955 39.8049 50.6307 39.8049C51.066 39.8049 51.4183 39.4526 51.4183 39.0174C51.4183 38.9276 51.4045 38.8378 51.3699 38.7549C51.439 38.7963 51.515 38.8378 51.5841 38.8792V38.5752H51.591ZM70.0851 27.0242C70.0851 26.4715 69.6361 26.0225 69.0834 26.0225C68.5514 26.0225 68.1162 26.437 68.0816 26.962C67.5013 26.7064 66.921 26.6995 66.3269 26.8446C64.5307 27.2936 63.4529 29.6632 63.4115 29.76L63.4806 30.2021C63.5289 30.0985 63.6049 29.9672 63.7016 29.8083C63.75 30.1123 64.0194 30.3472 64.3372 30.3472C64.6965 30.3472 64.9866 30.057 64.9866 29.6978C64.9866 29.3385 64.6965 29.0484 64.3372 29.0484C64.3165 29.0484 64.3027 29.0553 64.282 29.0553C64.8277 28.4543 65.6084 27.8463 66.5272 27.6529C67.0868 27.5354 67.6119 27.5423 68.1922 27.9983C68.5583 28.2815 68.7449 28.9033 68.7034 29.608C68.5514 32.3299 65.5255 36.7652 62.5825 38.5614V38.8654C62.6515 38.8239 62.7275 38.7825 62.7966 38.741C62.769 38.8239 62.7483 38.9138 62.7483 39.0036C62.7483 39.4388 63.1006 39.7911 63.5358 39.7911C63.9711 39.7911 64.3234 39.4388 64.3234 39.0036C64.3234 38.596 64.0125 38.2644 63.6187 38.216C66.8796 35.9914 69.3873 32.3714 69.5324 29.6494C69.5739 28.9517 69.4288 28.4059 69.2285 28.0052C69.719 27.943 70.0851 27.5285 70.0851 27.0242Z" fill="#FFD759"/>
</g>
<defs>
<clipPath id="clip0_1745_6190">
<rect width="35.3716" height="35.3716" fill="white" transform="translate(39.4248 25.0557)"/>
</clipPath>
</defs>
</svg>
