<svg width="30" height="30" viewBox="0 0 30 30" fill="none" xmlns="http://www.w3.org/2000/svg">
<path d="M29.0063 8.2875C28.8656 7.65 28.4813 7.09687 27.9281 6.75L19.425 1.32187C19.0219 1.06875 18.5625 0.9375 18.1031 0.9375C17.2594 0.9375 16.4813 1.36875 16.0313 2.08125L15.375 3.1125C15.7031 3.29062 16.0125 3.50625 16.275 3.7875C16.9125 4.44375 17.2594 5.33437 17.2594 6.27187V27.4125C17.6438 27.2156 17.9813 26.925 18.2156 26.55L28.6781 10.1437C29.0344 9.58125 29.1469 8.925 29.0063 8.2875Z" fill="#232323"/>
<path d="M13.4813 4.69687H3.39375C2.03437 4.69687 0.9375 5.80312 0.9375 7.15312V26.6062C0.9375 27.9656 2.03437 29.0625 3.39375 29.0625H13.4813C14.8313 29.0625 15.9375 27.9656 15.9375 26.6062V7.15312C15.9375 6.51562 15.6938 5.90624 15.2625 5.46562C14.8031 4.97812 14.1563 4.69687 13.4813 4.69687ZM6.5625 20.4C6.5625 20.9156 6.14063 21.3375 5.625 21.3375C5.10938 21.3375 4.6875 20.9156 4.6875 20.4V9.60937C4.6875 9.09374 5.10938 8.67187 5.625 8.67187C6.14063 8.67187 6.5625 9.09374 6.5625 9.60937V20.4ZM11.5219 22.8562C11.5219 23.3719 11.1 23.7937 10.5844 23.7937C10.0688 23.7937 9.64688 23.3719 9.64688 22.8562V12.0656C9.64688 11.55 10.0688 11.1281 10.5844 11.1281C11.1 11.1281 11.5219 11.55 11.5219 12.0656V22.8562Z" fill="#232323"/>
</svg>
