<svg width="246" height="180" viewBox="0 0 246 180" fill="none" xmlns="http://www.w3.org/2000/svg">
<path opacity="0.2" d="M32.4705 91.1905C29.2436 92.1654 26.2232 94.5257 25.4171 97.8005C24.4952 101.564 26.6212 105.358 26.9286 109.222C27.9211 121.883 9.90979 130.815 12.4792 143.252C13.4995 148.197 17.6232 151.834 21.6864 154.84C28.1957 159.638 35.4178 163.878 43.4158 165.075C55.5552 166.893 68.2386 161.548 80.0379 164.926C89.5549 167.652 96.8375 175.639 106.289 178.587C113.483 180.831 121.235 179.947 128.709 179.038C132.739 178.549 136.961 177.985 140.213 175.566C146.259 171.065 146.639 162.175 150.687 155.804C156.94 145.98 170.649 144.05 182.143 145.96C193.637 147.869 204.799 152.57 216.445 152.187C218.934 152.104 221.483 151.766 223.655 150.545C226.295 149.061 228.078 146.446 229.655 143.859C239.511 127.628 244.921 109.089 245.341 90.1048C245.409 86.8426 245.293 83.4393 243.759 80.5601C241.82 76.9175 237.943 74.7385 234.083 73.2724C224.816 69.7457 214.578 69.1689 205.497 65.1913C196.738 61.3547 189.645 54.6263 182.017 48.8602C166.817 37.3915 149.198 29.5451 130.505 25.9191C126.124 25.0727 121.577 24.4681 117.224 25.4455C112.209 26.5715 107.886 29.6977 103.999 33.0632C93.6585 42.0159 85.3708 53.062 75.8412 62.8737C69.2672 69.6402 62.1088 75.8132 54.4493 81.3208C50.9226 83.8625 47.1743 86.8804 43.2445 88.7596C39.6473 90.4776 36.2743 90.0443 32.4705 91.1905Z" fill="#00A9B8"/>
<path d="M172.138 13.1084C172.138 13.1084 169.099 22.0877 172.958 25.2857C176.816 28.4838 159.16 29.3457 159.16 29.3457L161.556 26.9478C161.556 26.9478 163.25 19.875 162.082 13.9703L172.138 13.1084Z" fill="#F7C4A7"/>
<path d="M152.583 166.689L148.562 166.688L146.649 151.179L152.583 151.179L152.583 166.689Z" fill="#F7C4A7"/>
<path d="M152.724 170.883L140.359 170.883V170.727C140.359 169.45 140.866 168.226 141.769 167.323C142.671 166.421 143.895 165.914 145.172 165.914H145.172L147.431 164.2L151.645 165.914L152.724 165.914L152.724 170.883Z" fill="#2F2E41"/>
<path d="M193.041 166.689L189.02 166.688L187.107 151.179L193.042 151.179L193.041 166.689Z" fill="#F7C4A7"/>
<path d="M193.183 170.883L180.817 170.883V170.727C180.817 169.45 181.325 168.226 182.227 167.323C183.13 166.421 184.354 165.914 185.63 165.914H185.631L187.889 164.2L192.103 165.914L193.183 165.914L193.183 170.883Z" fill="#2F2E41"/>
<path d="M155.863 77.5853C155.863 77.5853 153.222 80.388 153.111 82.2063C152.999 84.0246 154.375 80.7218 152.999 84.0246C151.623 87.3273 151.623 85.1255 151.623 87.3273C151.623 89.5292 148.707 91.6792 148.707 91.6792L143.898 111.463L146.669 157.786H152.724C158.351 140.633 160.969 127.387 157.953 121.456L166.362 102.766C166.362 102.766 182.251 152.486 182.901 153.072C183.55 153.658 183.55 152.832 183.55 153.658C183.55 154.483 182.724 153.658 183.55 154.483L187.403 158.337L193.183 157.786C193.183 157.786 193.956 121.788 187.514 115.567C187.514 115.567 189.002 96.3017 187.514 96.3558C186.027 96.4099 186.027 98.887 186.027 96.4099C186.027 93.9328 187.79 93.2719 187.79 93.2719L182.835 75.8726L155.863 77.5853Z" fill="#618FD8"/>
<path d="M138.427 98.6837C138.848 98.451 139.213 98.1296 139.498 97.7417C139.783 97.3539 139.98 96.9089 140.075 96.4374C140.171 95.966 140.163 95.4794 140.052 95.0113C139.941 94.5432 139.73 94.1047 139.433 93.7263L147.403 79.2162L143.932 76.0249L134.592 93.328C133.992 93.8752 133.613 94.6235 133.528 95.431C133.443 96.2385 133.658 97.0492 134.13 97.7093C134.603 98.3695 135.302 98.8333 136.093 99.0129C136.885 99.1925 137.716 99.0753 138.427 98.6837Z" fill="#E6E6E6"/>
<path d="M157.866 30.8296L156.008 64.1103L147.058 85.025L141.232 92.7505L141.895 89.2498L137.879 87.2406L137.502 87.0535L145.211 57.136L145.921 45.5103C146.044 43.5097 146.58 41.5562 147.496 39.7735C148.412 37.9908 149.689 36.4176 151.244 35.1534L155.703 31.5314L157.866 30.8296Z" fill="#E6E6E6"/>
<path d="M138.427 98.6837C138.848 98.451 139.213 98.1296 139.498 97.7417C139.783 97.3539 139.98 96.9089 140.075 96.4374C140.171 95.966 140.163 95.4794 140.052 95.0113C139.941 94.5432 139.73 94.1047 139.433 93.7263L147.403 79.2162L143.932 76.0249L134.592 93.328C133.992 93.8752 133.613 94.6235 133.528 95.431C133.443 96.2385 133.658 97.0492 134.13 97.7093C134.603 98.3695 135.302 98.8333 136.093 99.0129C136.885 99.1925 137.716 99.0753 138.427 98.6837Z" fill="#F7C4A7"/>
<path d="M157.866 30.8296L156.008 64.1103L147.058 85.025L141.232 92.7505L141.895 89.2498L137.879 87.2406L137.502 87.0535L145.211 57.136L145.921 45.5103C146.044 43.5097 146.58 41.5562 147.496 39.7735C148.412 37.9908 149.689 36.4176 151.244 35.1534L155.703 31.5314L157.866 30.8296Z" fill="#E14B5A"/>
<path d="M166.635 21.1826C171.349 21.1826 175.17 17.3615 175.17 12.6479C175.17 7.93438 171.349 4.11328 166.635 4.11328C161.922 4.11328 158.101 7.93438 158.101 12.6479C158.101 17.3615 161.922 21.1826 166.635 21.1826Z" fill="#F7C4A7"/>
<path d="M173.637 17.0593C173.704 17.5692 172.781 17.6231 172.573 17.1528C172.365 16.6826 172.635 16.1496 172.897 15.7073L173.506 14.6807C173.621 14.4873 173.688 14.2694 173.701 14.045C173.714 13.8206 173.674 13.5963 173.583 13.3907C173.492 13.1852 173.353 13.0043 173.178 12.8632C173.003 12.7221 172.797 12.6249 172.577 12.5796C173.134 11.3267 172.529 9.76285 171.42 8.95782C170.31 8.15278 168.658 9.65905 167.311 9.91736C165.965 10.1757 164.887 9.14502 163.659 9.75604L164.397 8.05597L160.315 9.81469L161.263 7.90224C160.233 7.95836 159.794 9.21311 159.589 10.2242C159.37 11.3016 158.796 12.6483 157.625 12.4251C157.347 12.3632 157.093 12.224 156.89 12.0238C156.688 11.8235 156.547 11.5702 156.482 11.293C155.577 7.80349 158.205 3.98863 161.688 3.3766C162.06 2.3482 162.752 1.46611 163.662 0.859537C164.573 0.252962 165.653 -0.046224 166.746 0.00579695C167.838 0.0578179 168.885 0.458312 169.734 1.14862C170.582 1.83893 171.187 2.78278 171.461 3.84192L172.603 2.44374L172.825 4.42479C173.646 4.33756 174.421 4.91695 174.82 5.63947C175.219 6.36199 175.03 7.29482 175.413 8.02589C177.129 11.3024 176.562 14.9912 173.912 17.5041" fill="#2F2E41"/>
<path d="M31.6724 39.416C31.6724 39.416 49.4544 57.1981 39.4159 83.5852C29.3775 109.972 56.6236 153.852 56.6236 153.852C56.6236 153.852 56.3314 153.809 55.7898 153.713C19.2635 147.267 1.12623 105.496 21.4299 74.4662C28.9694 62.9289 35.1789 49.3965 31.6724 39.416Z" fill="#00B86B"/>
<path d="M0 111.337C0 111.337 20.291 108.106 22.14 126.291C23.989 144.476 61.1577 146.997 61.1577 146.997C61.1577 146.997 60.9058 147.164 60.46 147.461C29.7703 167.613 0.43328 160.293 4.85423 133.543C6.5017 123.595 6.36566 113.607 0 111.337Z" fill="white"/>
<g opacity="0.3">
<path d="M0 111.337C0 111.337 20.291 108.106 22.14 126.291C23.989 144.476 61.1577 146.997 61.1577 146.997C61.1577 146.997 60.9058 147.164 60.46 147.461C29.7703 167.613 0.43328 160.293 4.85423 133.543C6.5017 123.595 6.36566 113.607 0 111.337Z" fill="#00B86B"/>
</g>
<path opacity="0.3" d="M26.5358 111.113C29.6174 111.113 32.1155 104.596 32.1155 96.5557C32.1155 88.5157 29.6174 81.998 26.5358 81.998C23.4542 81.998 20.9561 88.5157 20.9561 96.5557C20.9561 104.596 23.4542 111.113 26.5358 111.113Z" fill="black"/>
<path opacity="0.3" d="M26.0259 149.426C27.4946 147.958 26.0352 144.117 22.7662 140.848C19.4972 137.579 15.6565 136.119 14.1877 137.588C12.719 139.057 14.1784 142.898 17.4474 146.167C20.7164 149.436 24.5571 150.895 26.0259 149.426Z" fill="black"/>
<path d="M187.062 39.2339L181.466 62.6647L182.788 71.38L184.374 81.821L178.891 81.466L170.406 80.9147L154.652 79.8951L153.273 33.6566L160.501 26.1043L161.792 22.4377L172.241 22.3735L174.741 26.7765L181.168 28.6041C181.994 29.1283 182.77 29.7275 183.486 30.394C185.072 31.8629 186.477 33.7283 187.134 35.639C187.332 36.1959 187.458 36.7759 187.508 37.3647L187.062 39.2339Z" fill="#FFBB0C"/>
<path d="M170.948 28.9683H74.1865C73.0172 28.9683 71.8959 29.4327 71.0691 30.2595C70.2423 31.0863 69.7778 32.2077 69.7778 33.3769V90.0915C69.7778 91.2607 70.2423 92.3821 71.0691 93.2089C71.8959 94.0357 73.0172 94.5002 74.1865 94.5002H170.948C172.117 94.5002 173.239 94.0357 174.065 93.2089C174.892 92.3821 175.357 91.2607 175.357 90.0915V33.3769C175.357 32.2077 174.892 31.0863 174.065 30.2595C173.239 29.4327 172.117 28.9683 170.948 28.9683Z" fill="url(#paint0_linear_233_2098)"/>
<path d="M169.534 29.7397H75.5982C73.0696 29.7397 71.0198 31.7896 71.0198 34.3182V89.1505C71.0198 91.6791 73.0696 93.7289 75.5982 93.7289H169.534C172.063 93.7289 174.113 91.6791 174.113 89.1505V34.3182C174.113 31.7896 172.063 29.7397 169.534 29.7397Z" fill="#00A9B8"/>
<path opacity="0.3" d="M174.113 40.9373H71.0198V52.6684H174.113V40.9373Z" fill="black"/>
<path d="M164.338 61.3792H80.7969V67.0667H164.338V61.3792Z" fill="#D6D6E3"/>
<path opacity="0.3" d="M87.7281 89.464C92.2441 89.464 95.9051 85.8031 95.9051 81.2871C95.9051 76.771 92.2441 73.1101 87.7281 73.1101C83.2121 73.1101 79.5511 76.771 79.5511 81.2871C79.5511 85.8031 83.2121 89.464 87.7281 89.464Z" fill="black"/>
<path d="M170.27 96.6643C170.683 96.4167 171.037 96.0826 171.307 95.6849C171.578 95.2872 171.759 94.8354 171.838 94.3609C171.917 93.8864 171.892 93.4003 171.764 92.9365C171.637 92.4726 171.41 92.0419 171.1 91.6743L178.549 76.8902L174.967 73.8242L166.247 91.4482C165.667 92.0164 165.316 92.7777 165.259 93.5877C165.203 94.3977 165.446 95.2002 165.942 95.8432C166.438 96.4861 167.152 96.9248 167.95 97.0761C168.748 97.2275 169.573 97.0809 170.27 96.6643Z" fill="#F7C4A7"/>
<path d="M187.134 35.6391L187.508 37.3648L186.613 61.4866L182.788 71.38L178.891 81.466L178.412 82.7084L172.865 90.6345L173.401 87.1113L169.315 85.2459L168.934 85.076L170.406 80.9147L173.793 71.3536L175.259 67.215L175.576 54.9011L175.87 43.2593C175.922 41.2557 176.388 39.2845 177.24 37.4704C178.092 35.6564 179.311 34.0388 180.821 32.7201L183.487 30.394C185.073 31.863 186.477 33.7284 187.134 35.6391Z" fill="#FFBB0C"/>
<path d="M78.5641 11.623C78.5641 11.623 68.828 24.5534 75.7932 39.6249C82.7584 54.6965 63.6538 78.9122 63.6538 78.9122" stroke="#535461" stroke-width="0.503812" stroke-miterlimit="10"/>
<path d="M82.93 6.78399C82.1567 10.1117 78.4562 12.0942 78.4562 12.0942C78.4562 12.0942 76.0127 8.68084 76.786 5.35316C77.5594 2.02548 79.557 -0.35251 81.2599 0.0429827C82.9628 0.438475 83.7034 3.45631 82.93 6.78399Z" fill="#8ED16F"/>
<path opacity="0.3" d="M80.4443 6.20446C80.6874 5.15973 80.567 4.23894 80.1754 4.14781C79.7838 4.05668 79.2693 4.82973 79.0261 5.87446C78.783 6.91919 78.9034 7.83999 79.295 7.93112C79.6866 8.02225 80.2011 7.24919 80.4443 6.20446Z" fill="black"/>
<path d="M81.2471 21.5686C78.0327 22.7274 74.3574 20.697 74.3574 20.697C74.3574 20.697 75.894 16.79 79.1109 15.6337C82.3277 14.4775 85.4085 14.878 86.0005 16.5053C86.5925 18.1326 84.4614 20.4099 81.2471 21.5686Z" fill="#8ED16F"/>
<path opacity="0.3" d="M80.3441 19.0027C81.3524 18.638 82.059 18.036 81.9223 17.6581C81.7856 17.2801 80.8574 17.2694 79.8491 17.6341C78.8408 17.9988 78.1343 18.6008 78.271 18.9788C78.4077 19.3567 79.3359 19.3674 80.3441 19.0027Z" fill="black"/>
<path d="M80.499 33.3499C77.2847 34.5087 73.6094 32.4783 73.6094 32.4783C73.6094 32.4783 75.146 28.5712 78.3628 27.415C81.5797 26.2587 84.6605 26.6593 85.2525 28.2866C85.8444 29.9139 83.7133 32.1936 80.499 33.3499Z" fill="#8ED16F"/>
<path opacity="0.3" d="M79.6336 30.9625C80.6428 30.5992 81.3505 29.998 81.2143 29.6197C81.0781 29.2414 80.1496 29.2292 79.1404 29.5926C78.1311 29.9559 77.4234 30.5572 77.5596 30.9355C77.6958 31.3138 78.6243 31.3259 79.6336 30.9625Z" fill="black"/>
<path d="M84.2549 47.1717C81.0405 48.3304 77.3652 46.3001 77.3652 46.3001C77.3652 46.3001 78.9019 42.393 82.1187 41.2368C85.3355 40.0805 88.4164 40.481 89.0083 42.1084C89.6003 43.7357 87.4692 46.0205 84.2549 47.1717Z" fill="#8ED16F"/>
<path opacity="0.3" d="M83.3899 44.7907C84.3991 44.4273 85.1069 43.8261 84.9707 43.4478C84.8345 43.0695 83.9059 43.0574 82.8967 43.4207C81.8875 43.7841 81.1797 44.3853 81.3159 44.7636C81.4521 45.1419 82.3807 45.154 83.3899 44.7907Z" fill="black"/>
<path d="M81.8115 59.8128C78.5972 60.9716 74.9219 58.9412 74.9219 58.9412C74.9219 58.9412 76.4585 55.0341 79.6753 53.8779C82.8922 52.7216 85.973 53.1222 86.565 54.7495C87.157 56.3768 85.0283 58.6565 81.8115 59.8128Z" fill="#8ED16F"/>
<path opacity="0.3" d="M80.9535 57.2166C81.9618 56.8519 82.6684 56.2499 82.5317 55.8719C82.395 55.494 81.4668 55.4833 80.4585 55.848C79.4502 56.2127 78.7436 56.8147 78.8803 57.1926C79.017 57.5706 79.9452 57.5813 80.9535 57.2166Z" fill="black"/>
<path d="M66.7348 24.9166C69.1077 27.3752 73.3019 27.1837 73.3019 27.1837C73.3019 27.1837 73.6471 22.9995 71.2741 20.5409C68.9011 18.0823 65.9614 17.0697 64.7069 18.2738C63.4524 19.4779 64.3618 22.4579 66.7348 24.9166Z" fill="#8ED16F"/>
<path opacity="0.3" d="M70.4438 24.0434C70.733 23.7642 70.3636 22.9122 69.6186 22.1405C68.8736 21.3687 68.0352 20.9695 67.7459 21.2488C67.4567 21.528 67.8261 22.38 68.5711 23.1517C69.3161 23.9235 70.1545 24.3227 70.4438 24.0434Z" fill="black"/>
<path d="M65.372 63.959C67.7449 66.4176 71.9392 66.2262 71.9392 66.2262C71.9392 66.2262 72.2843 62.042 69.9113 59.5834C67.5384 57.1248 64.5986 56.1122 63.3441 57.3163C62.0896 58.5204 62.999 61.5004 65.372 63.959Z" fill="#8ED16F"/>
<path opacity="0.3" d="M69.0776 63.0898C69.3668 62.8106 68.9974 61.9586 68.2524 61.1869C67.5074 60.4151 66.669 60.0159 66.3797 60.2952C66.0905 60.5744 66.4599 61.4264 67.2049 62.1981C67.9499 62.9698 68.7883 63.3691 69.0776 63.0898Z" fill="black"/>
<path d="M68.5186 38.7155C71.5767 40.2421 75.4637 38.6551 75.4637 38.6551C75.4637 38.6551 74.3931 34.5969 71.3374 33.0703C68.2818 31.5438 65.1708 31.5589 64.3924 33.1308C63.614 34.7027 65.4605 37.189 68.5186 38.7155Z" fill="#8ED16F"/>
<path opacity="0.3" d="M71.7148 36.6484C71.8943 36.2887 71.2618 35.6088 70.302 35.1298C69.3422 34.6509 68.4187 34.5543 68.2391 34.914C68.0596 35.2738 68.6921 35.9537 69.6519 36.4326C70.6117 36.9116 71.5353 37.0082 71.7148 36.6484Z" fill="black"/>
<path d="M69.8006 52.4621C72.8587 53.9887 76.7456 52.4017 76.7456 52.4017C76.7456 52.4017 75.675 48.3435 72.6194 46.8169C69.5638 45.2904 66.4527 45.3055 65.6743 46.8774C64.8959 48.4493 66.755 50.9507 69.8006 52.4621Z" fill="#8ED16F"/>
<path opacity="0.3" d="M72.998 50.3965C73.1775 50.0367 72.545 49.3568 71.5852 48.8779C70.6254 48.3989 69.7019 48.3023 69.5223 48.6621C69.3428 49.0218 69.9753 49.7017 70.9351 50.1807C71.8949 50.6596 72.8185 50.7563 72.998 50.3965Z" fill="black"/>
<defs>
<linearGradient id="paint0_linear_233_2098" x1="122.567" y1="94.5002" x2="122.567" y2="28.9683" gradientUnits="userSpaceOnUse">
<stop stop-color="#808080" stop-opacity="0.25"/>
<stop offset="0.54" stop-color="#808080" stop-opacity="0.12"/>
<stop offset="1" stop-color="#808080" stop-opacity="0.1"/>
</linearGradient>
</defs>
</svg>
