<svg width="71" height="60" viewBox="0 0 71 60" fill="none" xmlns="http://www.w3.org/2000/svg">
<circle cx="28.7349" cy="28.7349" r="28.7349" fill="#53C5E0" fill-opacity="0.15"/>
<path d="M65.6625 27.7107H17.4697V49.3974C17.4697 51.3147 18.2313 53.1534 19.587 54.5091C20.9427 55.8647 22.7814 56.6264 24.6986 56.6264H58.4336C60.3508 56.6264 62.1895 55.8647 63.5452 54.5091C64.9009 53.1534 65.6625 51.3147 65.6625 49.3974V27.7107ZM29.5179 22.8914C28.8788 22.8914 28.2659 22.6376 27.814 22.1857C27.3622 21.7338 27.1083 21.1209 27.1083 20.4818V10.8432C27.1083 10.2042 27.3622 9.59126 27.814 9.13936C28.2659 8.68747 28.8788 8.43359 29.5179 8.43359C30.157 8.43359 30.7699 8.68747 31.2218 9.13936C31.6737 9.59126 31.9276 10.2042 31.9276 10.8432V20.4818C31.9276 21.1209 31.6737 21.7338 31.2218 22.1857C30.7699 22.6376 30.157 22.8914 29.5179 22.8914ZM53.6143 22.8914C52.9752 22.8914 52.3623 22.6376 51.9104 22.1857C51.4585 21.7338 51.2047 21.1209 51.2047 20.4818V10.8432C51.2047 10.2042 51.4585 9.59126 51.9104 9.13936C52.3623 8.68747 52.9752 8.43359 53.6143 8.43359C54.2534 8.43359 54.8663 8.68747 55.3182 9.13936C55.7701 9.59126 56.0239 10.2042 56.0239 10.8432V20.4818C56.0239 21.1209 55.7701 21.7338 55.3182 22.1857C54.8663 22.6376 54.2534 22.8914 53.6143 22.8914Z" fill="#53C5E0"/>
<path d="M58.4336 13.2529H56.0239V20.4818C56.0239 21.1209 55.7701 21.7338 55.3182 22.1857C54.8663 22.6376 54.2534 22.8915 53.6143 22.8915C52.9752 22.8915 52.3623 22.6376 51.9104 22.1857C51.4585 21.7338 51.2047 21.1209 51.2047 20.4818V13.2529H31.9276V20.4818C31.9276 21.1209 31.6737 21.7338 31.2218 22.1857C30.7699 22.6376 30.157 22.8915 29.5179 22.8915C28.8788 22.8915 28.2659 22.6376 27.814 22.1857C27.3622 21.7338 27.1083 21.1209 27.1083 20.4818V13.2529H24.6986C22.7814 13.2529 20.9427 14.0145 19.587 15.3702C18.2313 16.7259 17.4697 18.5646 17.4697 20.4818V27.7108H65.6625V20.4818C65.6625 18.5646 64.9009 16.7259 63.5452 15.3702C62.1895 14.0145 60.3508 13.2529 58.4336 13.2529Z" fill="#00A9B8"/>
<path d="M56.024 33.4932C52.8677 33.5013 49.8401 34.7457 47.5903 36.9596V34.698C47.5903 34.3784 47.4634 34.072 47.2374 33.846C47.0115 33.6201 46.705 33.4932 46.3855 33.4932C46.0659 33.4932 45.7595 33.6201 45.5335 33.846C45.3076 34.072 45.1807 34.3784 45.1807 34.698V40.1197C45.1806 40.2779 45.2118 40.4346 45.2723 40.5808C45.3328 40.727 45.4216 40.8598 45.5335 40.9717C45.6453 41.0836 45.7782 41.1723 45.9244 41.2329C46.0706 41.2934 46.2273 41.3245 46.3855 41.3245H51.8072C52.1267 41.3245 52.4332 41.1976 52.6591 40.9716C52.8851 40.7457 53.012 40.4392 53.012 40.1197C53.012 39.8001 52.8851 39.4937 52.6591 39.2677C52.4332 39.0418 52.1267 38.9149 51.8072 38.9149H49.0583C50.157 37.76 51.5252 36.896 53.0402 36.4003C54.5551 35.9047 56.1694 35.7929 57.7383 36.075C59.3071 36.3571 60.7813 37.0243 62.0287 38.0167C63.2761 39.0091 64.2575 40.2957 64.8851 41.7609C65.5126 43.2262 65.7665 44.8243 65.6241 46.4119C65.4816 47.9995 64.9472 49.527 64.0689 50.8571C63.1905 52.1873 61.9957 53.2785 60.5916 54.033C59.1875 54.7875 57.618 55.1816 56.024 55.1799C55.7045 55.1799 55.398 55.3068 55.1721 55.5328C54.9462 55.7587 54.8192 56.0652 54.8192 56.3847C54.8192 56.7043 54.9462 57.0107 55.1721 57.2367C55.398 57.4626 55.7045 57.5895 56.024 57.5895C59.2194 57.5895 62.2839 56.3202 64.5434 54.0607C66.8029 51.8012 68.0722 48.7367 68.0722 45.5414C68.0722 42.346 66.8029 39.2815 64.5434 37.022C62.2839 34.7625 59.2194 33.4932 56.024 33.4932Z" fill="#00A9B8"/>
<path d="M58.4338 46.7468H56.0242C55.8659 46.7468 55.7092 46.7157 55.563 46.6551C55.4168 46.5946 55.284 46.5058 55.1721 46.394C55.0602 46.2821 54.9715 46.1492 54.911 46.003C54.8504 45.8569 54.8193 45.7002 54.8193 45.5419V41.9275C54.8193 41.6079 54.9463 41.3015 55.1722 41.0755C55.3982 40.8496 55.7046 40.7227 56.0242 40.7227C56.3437 40.7227 56.6501 40.8496 56.8761 41.0755C57.102 41.3015 57.229 41.6079 57.229 41.9275V44.3371H58.4338C58.7533 44.3371 59.0598 44.4641 59.2857 44.69C59.5117 44.9159 59.6386 45.2224 59.6386 45.5419C59.6386 45.8615 59.5117 46.1679 59.2857 46.3939C59.0598 46.6198 58.7533 46.7468 58.4338 46.7468Z" fill="#00A9B8"/>
<path d="M56.0243 35.9033C54.7199 35.9084 53.4301 36.178 52.2328 36.6957C51.0356 37.2134 49.9557 37.9685 49.0586 38.9154H51.8074C52.127 38.9154 52.4334 39.0423 52.6594 39.2683C52.8853 39.4942 53.0122 39.8007 53.0122 40.1202C53.0122 40.4397 52.8853 40.7462 52.6594 40.9721C52.4334 41.1981 52.127 41.325 51.8074 41.325H46.3857C46.0939 41.3229 45.813 41.2138 45.5963 41.0184C45.3795 40.8229 45.2421 40.5547 45.21 40.2646C44.3077 42.0994 43.8882 44.1339 43.9914 46.176C44.0945 48.218 44.7168 50.2 45.7995 51.9345C46.8821 53.669 48.3893 55.0986 50.1784 56.0883C51.9676 57.0779 53.9797 57.5948 56.0243 57.5901C55.7048 57.5901 55.3983 57.4631 55.1724 57.2372C54.9464 57.0112 54.8195 56.7048 54.8195 56.3853C54.8195 56.0657 54.9464 55.7593 55.1724 55.5333C55.3983 55.3074 55.7048 55.1804 56.0243 55.1804C58.5806 55.1804 61.0322 54.1649 62.8398 52.3574C64.6474 50.5498 65.6628 48.0982 65.6628 45.5419C65.6628 42.9856 64.6474 40.534 62.8398 38.7264C61.0322 36.9188 58.5806 35.9033 56.0243 35.9033ZM58.4339 46.7467H56.0243C55.8661 46.7467 55.7094 46.7156 55.5632 46.6551C55.417 46.5945 55.2842 46.5058 55.1723 46.3939C55.0604 46.282 54.9716 46.1492 54.9111 46.003C54.8506 45.8568 54.8194 45.7001 54.8195 45.5419V41.9274C54.8195 41.6079 54.9464 41.3014 55.1724 41.0755C55.3983 40.8495 55.7048 40.7226 56.0243 40.7226C56.3438 40.7226 56.6503 40.8495 56.8762 41.0755C57.1022 41.3014 57.2291 41.6079 57.2291 41.9274V44.3371H58.4339C58.7535 44.3371 59.0599 44.464 59.2859 44.6899C59.5118 44.9159 59.6388 45.2223 59.6388 45.5419C59.6388 45.8614 59.5118 46.1679 59.2859 46.3938C59.0599 46.6198 58.7535 46.7467 58.4339 46.7467Z" fill="#FFBB0C"/>
<path d="M25.9519 30.2168C24.6796 30.2168 23.6387 31.2578 23.6387 32.53V33.6867C23.6387 34.959 24.6796 35.9999 25.9519 35.9999C27.2242 35.9999 28.2652 34.959 28.2652 33.6867V32.53C28.2652 31.2578 27.2242 30.2168 25.9519 30.2168Z" fill="#00A9B8"/>
<path d="M25.9519 38.8916C24.6796 38.8916 23.6387 39.9326 23.6387 41.2049V42.3615C23.6387 43.6338 24.6796 44.6747 25.9519 44.6747C27.2242 44.6747 28.2652 43.6338 28.2652 42.3615V41.2049C28.2652 39.9326 27.2242 38.8916 25.9519 38.8916Z" fill="#00A9B8"/>
<path d="M25.9519 47.5664C24.6796 47.5664 23.6387 48.6074 23.6387 49.8797V51.0363C23.6387 52.3086 24.6796 53.3495 25.9519 53.3495C27.2242 53.3495 28.2652 52.3086 28.2652 51.0363V49.8797C28.2652 48.6074 27.2242 47.5664 25.9519 47.5664Z" fill="#00A9B8"/>
<path d="M36.3616 30.2168C35.0893 30.2168 34.0483 31.2578 34.0483 32.53V33.6867C34.0483 34.959 35.0893 35.9999 36.3616 35.9999C37.6339 35.9999 38.6748 34.959 38.6748 33.6867V32.53C38.6748 31.2578 37.6339 30.2168 36.3616 30.2168Z" fill="#00A9B8"/>
<path d="M36.3616 38.8916C35.0893 38.8916 34.0483 39.9326 34.0483 41.2049V42.3615C34.0483 43.6338 35.0893 44.6747 36.3616 44.6747C37.6339 44.6747 38.6748 43.6338 38.6748 42.3615V41.2049C38.6748 39.9326 37.6339 38.8916 36.3616 38.8916Z" fill="#00A9B8"/>
<path d="M36.3616 47.5664C35.0893 47.5664 34.0483 48.6074 34.0483 49.8797V51.0363C34.0483 52.3086 35.0893 53.3495 36.3616 53.3495C37.6339 53.3495 38.6748 52.3086 38.6748 51.0363V49.8797C38.6748 48.6074 37.6339 47.5664 36.3616 47.5664Z" fill="#00A9B8"/>
</svg>
