<svg width="25" height="25" viewBox="0 0 25 25" fill="none" xmlns="http://www.w3.org/2000/svg">
<path d="M9.52468 21.648V18.4534C9.52467 17.6438 10.1829 16.9861 10.9983 16.981H13.9923C14.8113 16.981 15.4752 17.6402 15.4752 18.4534V21.6388C15.4752 22.3409 16.0458 22.9115 16.753 22.9166H18.7956C19.7496 22.9191 20.6653 22.5446 21.3408 21.8757C22.0162 21.2069 22.3958 20.2987 22.3958 19.3516V10.2769C22.3958 9.51184 22.0542 8.78614 21.4631 8.29529L14.5239 2.78568C13.3109 1.82198 11.5785 1.85311 10.4014 2.85975L3.61143 8.29529C2.9924 8.77167 2.62241 9.49952 2.60413 10.2769V19.3423C2.60413 21.3163 4.21598 22.9166 6.20431 22.9166H8.20026C8.54076 22.9191 8.86818 22.7865 9.10983 22.5483C9.35148 22.3102 9.48738 21.9861 9.48737 21.648H9.52468Z" fill="#DDDDDD"/>
</svg>
