<svg width="25" height="25" viewBox="0 0 25 25" fill="none" xmlns="http://www.w3.org/2000/svg">
<path d="M9.52471 21.648V18.4534C9.5247 17.6439 10.183 16.9862 10.9984 16.9811H13.9923C14.8113 16.9811 15.4753 17.6403 15.4753 18.4534V21.6388C15.4753 22.3409 16.0458 22.9116 16.7531 22.9167H18.7956C19.7496 22.9191 20.6654 22.5446 21.3408 21.8757C22.0162 21.2069 22.3958 20.2987 22.3958 19.3516V10.2769C22.3958 9.51187 22.0542 8.78617 21.4631 8.29532L14.5239 2.78571C13.3109 1.82201 11.5785 1.85314 10.4014 2.85979L3.61146 8.29532C2.99243 8.7717 2.62244 9.49955 2.60416 10.2769V19.3423C2.60416 21.3164 4.21601 22.9167 6.20434 22.9167H8.20029C8.5408 22.9191 8.86821 22.7865 9.10986 22.5484C9.35151 22.3102 9.48741 21.9861 9.4874 21.648H9.52471Z" fill="#01A2B0"/>
</svg>
