<svg width="25" height="25" viewBox="0 0 25 25" fill="none" xmlns="http://www.w3.org/2000/svg">
<path d="M5.20833 13.7295V16.6566C5.20833 17.417 5.625 18.1253 6.29167 18.4899L11.5 21.3337C12.125 21.6774 12.875 21.6774 13.5 21.3337L18.7083 18.4899C19.375 18.1253 19.7917 17.417 19.7917 16.6566V13.7295L13.5 17.167C12.875 17.5107 12.125 17.5107 11.5 17.167L5.20833 13.7295ZM11.5 3.66699L2.71875 8.45866C2 8.85449 2 9.89616 2.71875 10.292L11.5 15.0837C12.125 15.4274 12.875 15.4274 13.5 15.0837L21.875 10.5107V16.667C21.875 17.2399 22.3437 17.7087 22.9167 17.7087C23.4896 17.7087 23.9583 17.2399 23.9583 16.667V9.98991C23.9583 9.60449 23.75 9.26074 23.4167 9.07324L13.5 3.66699C12.875 3.33366 12.125 3.33366 11.5 3.66699Z" fill="#232323"/>
</svg>
