<svg width="17" height="17" viewBox="0 0 17 17" fill="none" xmlns="http://www.w3.org/2000/svg">
<path d="M9.34844 13.6133H7.64844V16.9997H9.34844V13.6133Z" fill="black"/>
<path d="M13.6 2.03187L8.5 0L3.4 2.03187V5.14741H0V17H5.95V11.9203H11.05V17H17V5.14741H13.6V2.03187ZM4.25 13.6135H2.55V11.9203H4.25V13.6135ZM4.25 10.2271H2.55V8.53386H4.25V10.2271ZM7.65 10.2271H5.95V8.53386H7.65V10.2271ZM7.65 3.45418H9.35V6.84064H7.65V3.45418ZM11.05 10.2271H9.35V8.53386H11.05V10.2271ZM14.45 13.6135H12.75V11.9203H14.45V13.6135ZM14.45 8.53386V10.2271H12.75V8.53386H14.45Z" fill="black"/>
</svg>
