<svg width="25" height="25" viewBox="0 0 30 30" fill="none" xmlns="http://www.w3.org/2000/svg">
<path d="M16.25 22.5H13.75V27.5H16.25V22.5Z" fill="white"/>
<path d="M22.5 5.40002L15 2.40002L7.5 5.40002V10H2.5V27.5H11.25V20H18.75V27.5H27.5V10H22.5V5.40002ZM8.75 22.5H6.25V20H8.75V22.5ZM8.75 17.5H6.25V15H8.75V17.5ZM13.75 17.5H11.25V15H13.75V17.5ZM13.75 7.50002H16.25V12.5H13.75V7.50002ZM18.75 17.5H16.25V15H18.75V17.5ZM23.75 22.5H21.25V20H23.75V22.5ZM23.75 15V17.5H21.25V15H23.75Z" fill="white"/>
</svg>
