<svg width="82" height="82" viewBox="0 0 82 82" fill="none" xmlns="http://www.w3.org/2000/svg">
<path d="M71.6494 66.1624L68.8397 57.7335C68.6795 57.2527 68.7317 56.7358 68.9638 56.2852C71.0753 52.1828 71.9473 47.3392 71.0338 42.2338C69.6331 34.4072 63.902 27.9038 56.4687 25.4097C58.3867 30.042 58.9716 35.1927 58.0134 40.3016C56.0667 50.6857 47.7516 58.9192 37.3227 60.7895C35.9727 61.0316 34.6088 61.1495 33.2553 61.1839C36.4226 64.601 40.6502 67.0301 45.3662 67.8759C50.4403 68.7859 55.2613 67.9388 59.3514 65.8589C59.8001 65.6307 60.3134 65.5799 60.7912 65.7391L69.2522 68.5594C70.7338 69.0534 72.1434 67.644 71.6494 66.1624Z" fill="#232323"/>
<path d="M28.3734 13.7322C19.5844 15.3653 12.5412 22.5059 10.9662 31.3055C10.0527 36.411 10.9247 41.2546 13.0362 45.357C13.2683 45.8075 13.3205 46.3245 13.1605 46.8053L10.3506 55.2341C9.8568 56.7157 11.2662 58.1251 12.7478 57.6314L21.2088 54.811C21.6867 54.6518 22.2002 54.7026 22.6488 54.9308C26.7387 57.0107 31.5596 57.8578 36.6338 56.9478C45.4118 55.3736 52.5343 48.3477 54.1775 39.5824C57.0728 24.1411 43.8101 10.8638 28.3734 13.7322ZM33.969 42.1657H23.0409C21.963 42.1657 21.0894 41.2922 21.0894 40.2142C21.0894 39.1364 21.963 38.2627 23.0409 38.2627H33.969C35.047 38.2627 35.9205 39.1364 35.9205 40.2142C35.9205 41.2922 35.047 42.1657 33.969 42.1657ZM41.7748 34.3598H23.0407C21.9629 34.3598 21.0892 33.4864 21.0892 32.4083C21.0892 31.3305 21.9629 30.4568 23.0407 30.4568H41.7747C42.8527 30.4568 43.7262 31.3305 43.7262 32.4083C43.7263 33.4864 42.8528 34.3598 41.7748 34.3598Z" fill="#232323"/>
</svg>
