<svg width="201" height="444" viewBox="0 0 201 444" fill="none" xmlns="http://www.w3.org/2000/svg">
<path d="M180.987 38.3133C181.26 38.2081 181.55 38.1515 181.843 38.1461H188.499C188.705 38.1494 188.91 38.1117 189.102 38.0351C189.293 37.9585 189.468 37.8446 189.615 37.7C189.762 37.5554 189.879 37.383 189.959 37.1928C190.039 37.0026 190.08 36.7984 190.08 36.5921V22.3543C190.082 21.9328 189.916 21.5279 189.62 21.228C189.323 20.9281 188.921 20.7577 188.499 20.7539H181.843C181.658 20.7561 181.474 20.7908 181.301 20.8563L179.123 21.6551C178.994 21.7018 178.861 21.7379 178.726 21.7628V39.1476C178.754 39.1393 178.782 39.1233 178.809 39.1134L180.987 38.3133ZM181.281 24.2323H183.898C184.02 24.2323 184.137 24.2807 184.223 24.3669C184.309 24.4531 184.357 24.5699 184.357 24.6918C184.357 24.8136 184.309 24.9305 184.223 25.0166C184.137 25.1028 184.02 25.1512 183.898 25.1512H181.281C181.159 25.1512 181.042 25.1028 180.956 25.0166C180.87 24.9305 180.821 24.8136 180.821 24.6918C180.821 24.5699 180.87 24.4531 180.956 24.3669C181.042 24.2807 181.159 24.2323 181.281 24.2323ZM181.281 27.4482H187.478C187.6 27.4482 187.717 27.4967 187.803 27.5828C187.889 27.669 187.938 27.7858 187.938 27.9077C187.938 28.0295 187.889 28.1464 187.803 28.2325C187.717 28.3187 187.6 28.3671 187.478 28.3671H181.281C181.159 28.3671 181.042 28.3187 180.956 28.2325C180.87 28.1464 180.821 28.0295 180.821 27.9077C180.821 27.7858 180.87 27.669 180.956 27.5828C181.042 27.4967 181.159 27.4482 181.281 27.4482ZM181.281 30.6642H187.478C187.6 30.6642 187.717 30.7126 187.803 30.7987C187.889 30.8849 187.938 31.0017 187.938 31.1236C187.938 31.2454 187.889 31.3623 187.803 31.4484C187.717 31.5346 187.6 31.583 187.478 31.583H181.281C181.159 31.583 181.042 31.5346 180.956 31.4484C180.87 31.3623 180.821 31.2454 180.821 31.1236C180.821 31.0017 180.87 30.8849 180.956 30.7987C181.042 30.7126 181.159 30.6642 181.281 30.6642ZM181.281 33.8801H187.478C187.6 33.8801 187.717 33.9285 187.803 34.0146C187.889 34.1008 187.938 34.2176 187.938 34.3395C187.938 34.4613 187.889 34.5782 187.803 34.6643C187.717 34.7505 187.6 34.7989 187.478 34.7989H181.281C181.159 34.7989 181.042 34.7505 180.956 34.6643C180.87 34.5782 180.821 34.4613 180.821 34.3395C180.821 34.2176 180.87 34.1008 180.956 34.0146C181.042 33.9285 181.159 33.8801 181.281 33.8801ZM168.034 38.1461H174.69C174.983 38.1515 175.273 38.2081 175.547 38.3133L177.724 39.1215C177.752 39.1315 177.78 39.1393 177.807 39.1478V21.7628C177.672 21.7367 177.539 21.6995 177.41 21.6517L175.233 20.8563C175.059 20.7908 174.876 20.7561 174.69 20.7539H168.034C167.613 20.7577 167.21 20.9281 166.914 21.228C166.617 21.5279 166.452 21.9328 166.453 22.3543V36.5921C166.453 36.7984 166.495 37.0026 166.575 37.1928C166.654 37.383 166.771 37.5554 166.918 37.7C167.066 37.8446 167.24 37.9585 167.432 38.0351C167.623 38.1117 167.828 38.1494 168.034 38.1461ZM169.055 24.2323H171.672C171.794 24.2323 171.911 24.2807 171.997 24.3669C172.083 24.4531 172.132 24.5699 172.132 24.6918C172.132 24.8136 172.083 24.9305 171.997 25.0166C171.911 25.1028 171.794 25.1512 171.672 25.1512H169.055C168.933 25.1512 168.816 25.1028 168.73 25.0166C168.644 24.9305 168.596 24.8136 168.596 24.6918C168.596 24.5699 168.644 24.4531 168.73 24.3669C168.816 24.2807 168.933 24.2323 169.055 24.2323ZM169.055 27.4482H175.253C175.375 27.4482 175.491 27.4967 175.578 27.5828C175.664 27.669 175.712 27.7858 175.712 27.9077C175.712 28.0295 175.664 28.1464 175.578 28.2325C175.491 28.3187 175.375 28.3671 175.253 28.3671H169.055C168.933 28.3671 168.816 28.3187 168.73 28.2325C168.644 28.1464 168.596 28.0295 168.596 27.9077C168.596 27.7858 168.644 27.669 168.73 27.5828C168.816 27.4967 168.933 27.4482 169.055 27.4482ZM169.055 30.6642H175.253C175.375 30.6642 175.491 30.7126 175.578 30.7987C175.664 30.8849 175.712 31.0017 175.712 31.1236C175.712 31.2454 175.664 31.3623 175.578 31.4484C175.491 31.5346 175.375 31.583 175.253 31.583H169.055C168.933 31.583 168.816 31.5346 168.73 31.4484C168.644 31.3623 168.596 31.2454 168.596 31.1236C168.596 31.0017 168.644 30.8849 168.73 30.7987C168.816 30.7126 168.933 30.6642 169.055 30.6642ZM169.055 33.8801H175.253C175.375 33.8801 175.491 33.9285 175.578 34.0146C175.664 34.1008 175.712 34.2176 175.712 34.3395C175.712 34.4613 175.664 34.5782 175.578 34.6643C175.491 34.7505 175.375 34.7989 175.253 34.7989H169.055C168.933 34.7989 168.816 34.7505 168.73 34.6643C168.644 34.5782 168.596 34.4613 168.596 34.3395C168.596 34.2176 168.644 34.1008 168.73 34.0146C168.816 33.9285 168.933 33.8801 169.055 33.8801Z" fill="#029DAB"/>
<path d="M190.999 36.5934C190.998 36.9203 190.933 37.2439 190.807 37.5455C190.681 37.8471 190.496 38.1208 190.264 38.3507C190.031 38.5806 189.756 38.7622 189.453 38.885C189.15 39.0078 188.825 39.0694 188.498 39.0662H181.842C181.657 39.0713 181.473 39.1089 181.3 39.177L179.122 39.9843C178.569 40.1844 177.962 40.1823 177.41 39.9782L175.232 39.1781C175.059 39.1097 174.876 39.0719 174.69 39.0665H168.034C167.707 39.0697 167.383 39.0081 167.08 38.8853C166.777 38.7624 166.501 38.5808 166.268 38.3509C166.036 38.1209 165.851 37.8473 165.725 37.5456C165.599 37.2439 165.534 36.9203 165.534 36.5934V23.8398H163.762V41.4945H192.771V23.8398H190.999V36.5934Z" fill="#029DAB"/>
<path d="M167.283 429.43C167.009 429.325 166.72 429.269 166.427 429.263H159.77C159.564 429.267 159.359 429.229 159.168 429.152C158.976 429.076 158.802 428.962 158.655 428.817C158.508 428.673 158.391 428.5 158.311 428.31C158.231 428.12 158.19 427.916 158.189 427.709V413.472C158.188 413.05 158.354 412.645 158.65 412.345C158.946 412.045 159.349 411.875 159.77 411.871H166.427C166.612 411.873 166.795 411.908 166.969 411.973L169.147 412.772C169.276 412.819 169.408 412.855 169.543 412.88V430.265C169.516 430.256 169.488 430.241 169.461 430.231L167.283 429.43ZM166.989 415.35H164.372C164.25 415.35 164.133 415.398 164.047 415.484C163.961 415.57 163.912 415.687 163.912 415.809C163.912 415.931 163.961 416.048 164.047 416.134C164.133 416.22 164.25 416.268 164.372 416.268H166.989C167.111 416.268 167.228 416.22 167.314 416.134C167.4 416.048 167.448 415.931 167.448 415.809C167.448 415.687 167.4 415.57 167.314 415.484C167.228 415.398 167.111 415.35 166.989 415.35ZM166.989 418.565H160.791C160.669 418.565 160.553 418.614 160.466 418.7C160.38 418.786 160.332 418.903 160.332 419.025C160.332 419.147 160.38 419.264 160.466 419.35C160.553 419.436 160.669 419.484 160.791 419.484H166.989C167.111 419.484 167.228 419.436 167.314 419.35C167.4 419.264 167.448 419.147 167.448 419.025C167.448 418.903 167.4 418.786 167.314 418.7C167.228 418.614 167.111 418.565 166.989 418.565ZM166.989 421.781H160.791C160.669 421.781 160.553 421.83 160.466 421.916C160.38 422.002 160.332 422.119 160.332 422.241C160.332 422.363 160.38 422.479 160.466 422.566C160.553 422.652 160.669 422.7 160.791 422.7H166.989C167.111 422.7 167.228 422.652 167.314 422.566C167.4 422.479 167.448 422.363 167.448 422.241C167.448 422.119 167.4 422.002 167.314 421.916C167.228 421.83 167.111 421.781 166.989 421.781ZM166.989 424.997H160.791C160.669 424.997 160.553 425.046 160.466 425.132C160.38 425.218 160.332 425.335 160.332 425.457C160.332 425.579 160.38 425.695 160.466 425.782C160.553 425.868 160.669 425.916 160.791 425.916H166.989C167.111 425.916 167.228 425.868 167.314 425.782C167.4 425.695 167.448 425.579 167.448 425.457C167.448 425.335 167.4 425.218 167.314 425.132C167.228 425.046 167.111 424.997 166.989 424.997ZM180.235 429.263H173.579C173.286 429.269 172.996 429.325 172.723 429.43L170.545 430.239C170.518 430.249 170.49 430.256 170.462 430.265V412.88C170.597 412.854 170.73 412.817 170.859 412.769L173.037 411.973C173.21 411.908 173.394 411.873 173.579 411.871H180.235C180.657 411.875 181.06 412.045 181.356 412.345C181.652 412.645 181.818 413.05 181.816 413.472V427.709C181.816 427.916 181.775 428.12 181.695 428.31C181.615 428.5 181.498 428.673 181.351 428.817C181.204 428.962 181.029 429.076 180.838 429.152C180.646 429.229 180.441 429.267 180.235 429.263ZM179.214 415.35H176.597C176.476 415.35 176.359 415.398 176.273 415.484C176.186 415.57 176.138 415.687 176.138 415.809C176.138 415.931 176.186 416.048 176.273 416.134C176.359 416.22 176.476 416.268 176.597 416.268H179.214C179.336 416.268 179.453 416.22 179.539 416.134C179.625 416.048 179.674 415.931 179.674 415.809C179.674 415.687 179.625 415.57 179.539 415.484C179.453 415.398 179.336 415.35 179.214 415.35ZM179.214 418.565H173.017C172.895 418.565 172.778 418.614 172.692 418.7C172.606 418.786 172.557 418.903 172.557 419.025C172.557 419.147 172.606 419.264 172.692 419.35C172.778 419.436 172.895 419.484 173.017 419.484H179.214C179.336 419.484 179.453 419.436 179.539 419.35C179.625 419.264 179.674 419.147 179.674 419.025C179.674 418.903 179.625 418.786 179.539 418.7C179.453 418.614 179.336 418.565 179.214 418.565ZM179.214 421.781H173.017C172.895 421.781 172.778 421.83 172.692 421.916C172.606 422.002 172.557 422.119 172.557 422.241C172.557 422.363 172.606 422.479 172.692 422.566C172.778 422.652 172.895 422.7 173.017 422.7H179.214C179.336 422.7 179.453 422.652 179.539 422.566C179.625 422.479 179.674 422.363 179.674 422.241C179.674 422.119 179.625 422.002 179.539 421.916C179.453 421.83 179.336 421.781 179.214 421.781ZM179.214 424.997H173.017C172.895 424.997 172.778 425.046 172.692 425.132C172.606 425.218 172.557 425.335 172.557 425.457C172.557 425.579 172.606 425.695 172.692 425.782C172.778 425.868 172.895 425.916 173.017 425.916H179.214C179.336 425.916 179.453 425.868 179.539 425.782C179.625 425.695 179.674 425.579 179.674 425.457C179.674 425.335 179.625 425.218 179.539 425.132C179.453 425.046 179.336 424.997 179.214 424.997Z" fill="#029DAB"/>
<path d="M157.271 427.709C157.271 428.036 157.337 428.359 157.463 428.661C157.589 428.962 157.773 429.236 158.006 429.466C158.238 429.696 158.514 429.877 158.817 430C159.12 430.123 159.444 430.185 159.771 430.181H166.427C166.613 430.187 166.796 430.224 166.969 430.292L169.147 431.1C169.701 431.3 170.307 431.298 170.86 431.093L173.037 430.293C173.21 430.225 173.394 430.187 173.58 430.182H180.236C180.563 430.185 180.887 430.123 181.19 430.001C181.493 429.878 181.769 429.696 182.001 429.466C182.234 429.236 182.418 428.962 182.544 428.661C182.67 428.359 182.735 428.036 182.736 427.709V414.955H184.508V432.61H155.499V414.955H157.271V427.709Z" fill="#029DAB"/>
<path d="M70.264 333.579C70.5375 333.474 70.8273 333.417 71.1202 333.412H77.7764C77.9827 333.415 78.1875 333.377 78.3791 333.301C78.5707 333.224 78.7451 333.11 78.8922 332.966C79.0394 332.821 79.1563 332.649 79.2362 332.458C79.3161 332.268 79.3573 332.064 79.3576 331.858V317.62C79.3589 317.198 79.1933 316.793 78.8971 316.494C78.6008 316.194 78.1979 316.023 77.7764 316.02H71.1202C70.9349 316.022 70.7514 316.056 70.5781 316.122L68.4002 316.921C68.2712 316.967 68.1384 317.004 68.0034 317.028V334.413C68.0311 334.405 68.059 334.389 68.0863 334.379L70.264 333.579ZM70.5579 319.498H73.1751C73.297 319.498 73.4138 319.546 73.5 319.633C73.5862 319.719 73.6346 319.836 73.6346 319.957C73.6346 320.079 73.5862 320.196 73.5 320.282C73.4138 320.368 73.297 320.417 73.1751 320.417H70.5579C70.4361 320.417 70.3192 320.368 70.2331 320.282C70.1469 320.196 70.0985 320.079 70.0985 319.957C70.0985 319.836 70.1469 319.719 70.2331 319.633C70.3192 319.546 70.4361 319.498 70.5579 319.498ZM70.5579 322.714H76.7556C76.8775 322.714 76.9943 322.762 77.0805 322.848C77.1667 322.935 77.2151 323.051 77.2151 323.173C77.2151 323.295 77.1667 323.412 77.0805 323.498C76.9943 323.584 76.8775 323.633 76.7556 323.633H70.5579C70.4361 323.633 70.3192 323.584 70.2331 323.498C70.1469 323.412 70.0985 323.295 70.0985 323.173C70.0985 323.051 70.1469 322.935 70.2331 322.848C70.3192 322.762 70.4361 322.714 70.5579 322.714ZM70.5579 325.93H76.7556C76.8775 325.93 76.9943 325.978 77.0805 326.064C77.1667 326.151 77.2151 326.267 77.2151 326.389C77.2151 326.511 77.1667 326.628 77.0805 326.714C76.9943 326.8 76.8775 326.849 76.7556 326.849H70.5579C70.4361 326.849 70.3192 326.8 70.2331 326.714C70.1469 326.628 70.0985 326.511 70.0985 326.389C70.0985 326.267 70.1469 326.151 70.2331 326.064C70.3192 325.978 70.4361 325.93 70.5579 325.93ZM70.5579 329.146H76.7556C76.8775 329.146 76.9943 329.194 77.0805 329.28C77.1667 329.366 77.2151 329.483 77.2151 329.605C77.2151 329.727 77.1667 329.844 77.0805 329.93C76.9943 330.016 76.8775 330.065 76.7556 330.065H70.5579C70.4361 330.065 70.3192 330.016 70.2331 329.93C70.1469 329.844 70.0985 329.727 70.0985 329.605C70.0985 329.483 70.1469 329.366 70.2331 329.28C70.3192 329.194 70.4361 329.146 70.5579 329.146ZM57.3117 333.412H63.9678C64.2608 333.417 64.5505 333.474 64.824 333.579L67.0018 334.387C67.0291 334.397 67.0569 334.405 67.0846 334.413V317.028C66.9495 317.002 66.8168 316.965 66.6877 316.917L64.51 316.122C64.3366 316.056 64.1531 316.022 63.9678 316.02H57.3117C56.8901 316.023 56.4873 316.194 56.191 316.494C55.8947 316.793 55.7292 317.198 55.7305 317.62V331.858C55.7307 332.064 55.772 332.268 55.8519 332.458C55.9318 332.649 56.0487 332.821 56.1958 332.966C56.343 333.11 56.5174 333.224 56.7089 333.301C56.9005 333.377 57.1054 333.415 57.3117 333.412ZM58.3324 319.498H60.9494C61.0713 319.498 61.1881 319.546 61.2743 319.633C61.3605 319.719 61.4089 319.836 61.4089 319.957C61.4089 320.079 61.3605 320.196 61.2743 320.282C61.1881 320.368 61.0713 320.417 60.9494 320.417H58.3324C58.2106 320.417 58.0937 320.368 58.0076 320.282C57.9214 320.196 57.873 320.079 57.873 319.957C57.873 319.836 57.9214 319.719 58.0076 319.633C58.0937 319.546 58.2106 319.498 58.3324 319.498ZM58.3324 322.714H64.5301C64.652 322.714 64.7688 322.762 64.855 322.848C64.9411 322.935 64.9895 323.051 64.9895 323.173C64.9895 323.295 64.9411 323.412 64.855 323.498C64.7688 323.584 64.652 323.633 64.5301 323.633H58.3324C58.2106 323.633 58.0937 323.584 58.0076 323.498C57.9214 323.412 57.873 323.295 57.873 323.173C57.873 323.051 57.9214 322.935 58.0076 322.848C58.0937 322.762 58.2106 322.714 58.3324 322.714ZM58.3324 325.93H64.5301C64.652 325.93 64.7688 325.978 64.855 326.064C64.9411 326.151 64.9895 326.267 64.9895 326.389C64.9895 326.511 64.9411 326.628 64.855 326.714C64.7688 326.8 64.652 326.849 64.5301 326.849H58.3324C58.2106 326.849 58.0937 326.8 58.0076 326.714C57.9214 326.628 57.873 326.511 57.873 326.389C57.873 326.267 57.9214 326.151 58.0076 326.064C58.0937 325.978 58.2106 325.93 58.3324 325.93ZM58.3324 329.146H64.5301C64.652 329.146 64.7688 329.194 64.855 329.28C64.9411 329.366 64.9895 329.483 64.9895 329.605C64.9895 329.727 64.9411 329.844 64.855 329.93C64.7688 330.016 64.652 330.065 64.5301 330.065H58.3324C58.2106 330.065 58.0937 330.016 58.0076 329.93C57.9214 329.844 57.873 329.727 57.873 329.605C57.873 329.483 57.9214 329.366 58.0076 329.28C58.0937 329.194 58.2106 329.146 58.3324 329.146Z" fill="#029DAB"/>
<path d="M80.2759 331.859C80.2755 332.186 80.2103 332.51 80.0842 332.811C79.9581 333.113 79.7735 333.386 79.5411 333.616C79.3087 333.846 79.033 334.028 78.73 334.151C78.427 334.273 78.1027 334.335 77.7758 334.332H71.1197C70.9339 334.337 70.7504 334.374 70.5775 334.443L68.3997 335.25C67.846 335.45 67.2395 335.448 66.6873 335.244L64.5094 334.444C64.3366 334.375 64.1531 334.338 63.9672 334.332H57.3111C56.9842 334.335 56.6598 334.274 56.3568 334.151C56.0539 334.028 55.7782 333.846 55.5457 333.617C55.3133 333.387 55.1287 333.113 55.0026 332.811C54.8765 332.51 54.8114 332.186 54.8111 331.859V319.105H53.0391V336.76H82.0479V319.105H80.2759V331.859Z" fill="#029DAB"/>
<path d="M52.7008 195.862C52.4273 195.757 52.1376 195.7 51.8446 195.695H45.1884C44.9822 195.698 44.7773 195.66 44.5857 195.584C44.3942 195.507 44.2198 195.393 44.0726 195.249C43.9255 195.104 43.8086 194.932 43.7287 194.742C43.6488 194.551 43.6075 194.347 43.6073 194.141V179.903C43.606 179.482 43.7715 179.077 44.0678 178.777C44.364 178.477 44.7669 178.307 45.1884 178.303H51.8446C52.0299 178.305 52.2134 178.34 52.3868 178.405L54.5646 179.204C54.6937 179.251 54.8264 179.287 54.9614 179.312V196.696C54.9337 196.688 54.9059 196.672 54.8786 196.662L52.7008 195.862ZM52.4069 181.781H49.7897C49.6679 181.781 49.551 181.83 49.4648 181.916C49.3787 182.002 49.3303 182.119 49.3303 182.241C49.3303 182.362 49.3787 182.479 49.4648 182.565C49.551 182.652 49.6679 182.7 49.7897 182.7H52.4069C52.5288 182.7 52.6456 182.652 52.7318 182.565C52.8179 182.479 52.8663 182.362 52.8663 182.241C52.8663 182.119 52.8179 182.002 52.7318 181.916C52.6456 181.83 52.5288 181.781 52.4069 181.781ZM52.4069 184.997H46.2092C46.0874 184.997 45.9705 185.045 45.8843 185.132C45.7982 185.218 45.7498 185.335 45.7498 185.456C45.7498 185.578 45.7982 185.695 45.8843 185.781C45.9705 185.868 46.0874 185.916 46.2092 185.916H52.4069C52.5288 185.916 52.6456 185.868 52.7318 185.781C52.8179 185.695 52.8663 185.578 52.8663 185.456C52.8663 185.335 52.8179 185.218 52.7318 185.132C52.6456 185.045 52.5288 184.997 52.4069 184.997ZM52.4069 188.213H46.2092C46.0874 188.213 45.9705 188.261 45.8843 188.348C45.7982 188.434 45.7498 188.551 45.7498 188.672C45.7498 188.794 45.7982 188.911 45.8843 188.997C45.9705 189.083 46.0874 189.132 46.2092 189.132H52.4069C52.5288 189.132 52.6456 189.083 52.7318 188.997C52.8179 188.911 52.8663 188.794 52.8663 188.672C52.8663 188.551 52.8179 188.434 52.7318 188.348C52.6456 188.261 52.5288 188.213 52.4069 188.213ZM52.4069 191.429H46.2092C46.0874 191.429 45.9705 191.477 45.8843 191.563C45.7982 191.65 45.7498 191.766 45.7498 191.888C45.7498 192.01 45.7982 192.127 45.8843 192.213C45.9705 192.299 46.0874 192.348 46.2092 192.348H52.4069C52.5288 192.348 52.6456 192.299 52.7318 192.213C52.8179 192.127 52.8663 192.01 52.8663 191.888C52.8663 191.766 52.8179 191.65 52.7318 191.563C52.6456 191.477 52.5288 191.429 52.4069 191.429ZM65.6532 195.695H58.997C58.7041 195.7 58.4143 195.757 58.1408 195.862L55.9631 196.67C55.9358 196.68 55.9079 196.688 55.8802 196.697V179.312C56.0153 179.286 56.1481 179.248 56.2771 179.2L58.4549 178.405C58.6282 178.34 58.8117 178.305 58.997 178.303H65.6532C66.0747 178.307 66.4776 178.477 66.7738 178.777C67.0701 179.077 67.2357 179.482 67.2344 179.903V194.141C67.2341 194.347 67.1928 194.551 67.113 194.742C67.0331 194.932 66.9162 195.104 66.769 195.249C66.6219 195.393 66.4475 195.507 66.2559 195.584C66.0643 195.66 65.8595 195.698 65.6532 195.695ZM64.6324 181.781H62.0154C61.8936 181.781 61.7767 181.83 61.6905 181.916C61.6044 182.002 61.556 182.119 61.556 182.241C61.556 182.362 61.6044 182.479 61.6905 182.565C61.7767 182.652 61.8936 182.7 62.0154 182.7H64.6324C64.7543 182.7 64.8711 182.652 64.9573 182.565C65.0434 182.479 65.0918 182.362 65.0918 182.241C65.0918 182.119 65.0434 182.002 64.9573 181.916C64.8711 181.83 64.7543 181.781 64.6324 181.781ZM64.6324 184.997H58.4347C58.3129 184.997 58.196 185.045 58.1099 185.132C58.0237 185.218 57.9753 185.335 57.9753 185.456C57.9753 185.578 58.0237 185.695 58.1099 185.781C58.196 185.868 58.3129 185.916 58.4347 185.916H64.6324C64.7543 185.916 64.8711 185.868 64.9573 185.781C65.0434 185.695 65.0918 185.578 65.0918 185.456C65.0918 185.335 65.0434 185.218 64.9573 185.132C64.8711 185.045 64.7543 184.997 64.6324 184.997ZM64.6324 188.213H58.4347C58.3129 188.213 58.196 188.261 58.1099 188.348C58.0237 188.434 57.9753 188.551 57.9753 188.672C57.9753 188.794 58.0237 188.911 58.1099 188.997C58.196 189.083 58.3129 189.132 58.4347 189.132H64.6324C64.7543 189.132 64.8711 189.083 64.9573 188.997C65.0434 188.911 65.0918 188.794 65.0918 188.672C65.0918 188.551 65.0434 188.434 64.9573 188.348C64.8711 188.261 64.7543 188.213 64.6324 188.213ZM64.6324 191.429H58.4347C58.3129 191.429 58.196 191.477 58.1099 191.563C58.0237 191.65 57.9753 191.766 57.9753 191.888C57.9753 192.01 58.0237 192.127 58.1099 192.213C58.196 192.299 58.3129 192.348 58.4347 192.348H64.6324C64.7543 192.348 64.8711 192.299 64.9573 192.213C65.0434 192.127 65.0918 192.01 65.0918 191.888C65.0918 191.766 65.0434 191.65 64.9573 191.563C64.8711 191.477 64.7543 191.429 64.6324 191.429Z" fill="#029DAB"/>
<path d="M42.689 194.14C42.6894 194.467 42.7545 194.791 42.8806 195.092C43.0067 195.394 43.1913 195.668 43.4238 195.898C43.6562 196.127 43.9318 196.309 44.2348 196.432C44.5378 196.555 44.8621 196.616 45.189 196.613H51.8451C52.0309 196.618 52.2144 196.656 52.3873 196.724L54.5652 197.531C55.1188 197.731 55.7254 197.729 56.2776 197.525L58.4554 196.725C58.6283 196.657 58.8118 196.619 58.9976 196.613H65.6537C65.9807 196.617 66.305 196.555 66.608 196.432C66.911 196.309 67.1867 196.128 67.4191 195.898C67.6515 195.668 67.8361 195.394 67.9622 195.092C68.0883 194.791 68.1534 194.467 68.1537 194.14V181.387H69.9258V199.041H40.917V181.387H42.689V194.14Z" fill="#029DAB"/>
<g clip-path="url(#clip0_1967_18784)">
<path d="M84.3403 21.8057C84.3403 21.4901 84.0821 21.2319 83.7665 21.2319H57.3707C57.0551 21.2319 56.7969 21.4901 56.7969 21.8057V24.101C56.7969 24.4166 57.0551 24.6748 57.3707 24.6748H59.5397C59.2643 24.9789 59.0922 25.3806 59.0922 25.8225C59.0922 26.3274 59.316 26.7865 59.666 27.1021C59.9701 27.3775 60.3775 27.5439 60.8136 27.5439C61.7604 27.5439 62.5351 26.7693 62.5351 25.8225C62.5351 25.3806 62.3629 24.9789 62.0875 24.6748H79.0497C78.7742 24.9789 78.6021 25.3806 78.6021 25.8225C78.6021 26.7693 79.3767 27.5439 80.3236 27.5439C80.7597 27.5439 81.1671 27.3775 81.4712 27.1021C81.8212 26.7865 82.045 26.3274 82.045 25.8225C82.045 25.3806 81.8729 24.9789 81.5974 24.6748H83.7665C84.0821 24.6748 84.3403 24.4166 84.3403 24.101V21.8057ZM62.5351 16.0675H59.666V20.0842H64.2566V9.18164H59.666V12.0507H62.5351C62.8507 12.0507 63.1089 12.309 63.1089 12.6246C63.1089 12.9402 62.8507 13.1984 62.5351 13.1984H59.666V14.9199H62.5351C62.8507 14.9199 63.1089 15.1781 63.1089 15.4937C63.1089 15.8093 62.8507 16.0675 62.5351 16.0675Z" fill="#029DAB"/>
<path d="M69.9968 1.7207H65.4062V5.16363H69.9968V1.7207Z" fill="#029DAB"/>
<path d="M69.9968 6.3125H65.4062V7.46014H69.9968V6.3125Z" fill="#029DAB"/>
<path d="M75.7312 22.9512H71.1406V24.0988H75.7312V22.9512Z" fill="#029DAB"/>
<path d="M75.735 20.0837V7.45968H71.1445V20.0837H75.735ZM73.0323 8.77373C73.2447 8.56141 73.6348 8.56141 73.8472 8.77373C73.9504 8.88275 74.0136 9.03195 74.0136 9.18114C74.0136 9.33034 73.9504 9.47953 73.8472 9.58855C73.7381 9.69184 73.5947 9.75496 73.4397 9.75496C73.2906 9.75496 73.1414 9.69184 73.0323 9.58855C72.929 9.47953 72.8659 9.33034 72.8659 9.18114C72.8659 9.02621 72.929 8.88275 73.0323 8.77373ZM73.0323 11.069C73.2447 10.8567 73.6348 10.8567 73.8472 11.069C73.9504 11.178 74.0136 11.3272 74.0136 11.4764C74.0136 11.6256 73.9504 11.7748 73.8472 11.8838C73.8185 11.9068 73.7898 11.9297 73.7611 11.9527C73.7267 11.9757 73.6922 11.9929 73.6578 12.0043C73.6234 12.0216 73.5889 12.033 73.5545 12.0388C73.5143 12.0445 73.4799 12.0502 73.4397 12.0502C73.2906 12.0502 73.1414 11.9871 73.0323 11.8838C72.929 11.7748 72.8659 11.6314 72.8659 11.4764C72.8659 11.3272 72.929 11.178 73.0323 11.069ZM73.0323 13.3643C73.1701 13.2323 73.3652 13.1749 73.5545 13.2094C73.5889 13.2151 73.6234 13.2266 73.6578 13.2438C73.6922 13.2553 73.7267 13.2725 73.7611 13.2954C73.7898 13.3127 73.8185 13.3413 73.8472 13.3643C73.9504 13.4733 74.0136 13.6225 74.0136 13.7717C74.0136 13.9209 73.9504 14.0701 73.8472 14.1791C73.7381 14.2824 73.5947 14.3455 73.4397 14.3455C73.2906 14.3455 73.1414 14.2824 73.0323 14.1791C72.9807 14.1217 72.9405 14.0644 72.9118 13.9898C72.8831 13.9209 72.8659 13.8463 72.8659 13.7717C72.8659 13.6225 72.929 13.4733 73.0323 13.3643ZM81.4732 24.6743V27.1016C81.1691 27.377 80.7617 27.5434 80.3256 27.5434C79.3788 27.5434 78.6041 26.7688 78.6041 25.822C78.6041 25.3801 78.7763 24.9784 79.0517 24.6743H81.4732ZM81.4732 20.0837V18.9361V6.88586H78.6041C78.2885 6.88586 78.0303 6.62764 78.0303 6.31204C78.0303 5.99643 78.2885 5.73821 78.6041 5.73821H81.4732V4.01675H78.6041C78.2885 4.01675 78.0303 3.75853 78.0303 3.44293C78.0303 3.12733 78.2885 2.86911 78.6041 2.86911H81.4732V0H76.8827V20.0837H81.4732ZM65.4062 8.60732V20.0837H66.5539H67.1277H68.2754H68.8492H69.9968V8.60732H65.4062ZM67.1736 17.5704C67.2023 17.4958 67.2425 17.4384 67.2941 17.3811C67.3515 17.3294 67.4089 17.2892 67.4835 17.2605C67.5868 17.2146 67.7015 17.2032 67.8106 17.2261C67.8507 17.2319 67.8852 17.2433 67.9196 17.2605C67.954 17.272 67.9884 17.2892 68.0171 17.3122C68.0516 17.3294 68.0803 17.3581 68.1089 17.3811C68.2122 17.4901 68.2754 17.6393 68.2754 17.7885C68.2754 17.8229 68.2696 17.8631 68.2639 17.9032C68.2581 17.9377 68.2467 17.9721 68.2295 18.0065C68.218 18.0409 68.2008 18.0754 68.1778 18.1098C68.1549 18.1385 68.1319 18.1672 68.1089 18.1959C68.0803 18.2188 68.0516 18.2418 68.0171 18.2647C67.9884 18.2877 67.954 18.3049 67.9196 18.3164C67.8852 18.3336 67.8507 18.3451 67.8106 18.3508C67.7761 18.3565 67.736 18.3623 67.7015 18.3623C67.5523 18.3623 67.4031 18.2992 67.2941 18.1959C67.1908 18.0868 67.1277 17.9434 67.1277 17.7885C67.1277 17.7139 67.1449 17.6393 67.1736 17.5704Z" fill="#029DAB"/>
</g>
<g clip-path="url(#clip1_1967_18784)">
<path d="M136.125 162.276C136.125 161.961 135.867 161.703 135.552 161.703H109.156C108.84 161.703 108.582 161.961 108.582 162.276V164.572C108.582 164.887 108.84 165.146 109.156 165.146H111.325C111.049 165.45 110.877 165.851 110.877 166.293C110.877 166.798 111.101 167.257 111.451 167.573C111.755 167.848 112.163 168.015 112.599 168.015C113.546 168.015 114.32 167.24 114.32 166.293C114.32 165.851 114.148 165.45 113.873 165.146H130.835C130.559 165.45 130.387 165.851 130.387 166.293C130.387 167.24 131.162 168.015 132.109 168.015C132.545 168.015 132.952 167.848 133.256 167.573C133.606 167.257 133.83 166.798 133.83 166.293C133.83 165.851 133.658 165.45 133.383 165.146H135.552C135.867 165.146 136.125 164.887 136.125 164.572V162.276ZM114.32 156.538H111.451V160.555H116.042V149.652H111.451V152.521H114.32C114.636 152.521 114.894 152.78 114.894 153.095C114.894 153.411 114.636 153.669 114.32 153.669H111.451V155.391H114.32C114.636 155.391 114.894 155.649 114.894 155.964C114.894 156.28 114.636 156.538 114.32 156.538Z" fill="#029DAB"/>
<path d="M121.778 142.193H117.188V145.636H121.778V142.193Z" fill="#029DAB"/>
<path d="M121.778 146.783H117.188V147.931H121.778V146.783Z" fill="#029DAB"/>
<path d="M127.516 163.424H122.926V164.571H127.516V163.424Z" fill="#029DAB"/>
<path d="M127.516 160.554V147.93H122.926V160.554H127.516ZM124.814 149.244C125.026 149.032 125.416 149.032 125.628 149.244C125.732 149.353 125.795 149.503 125.795 149.652C125.795 149.801 125.732 149.95 125.628 150.059C125.519 150.163 125.376 150.226 125.221 150.226C125.072 150.226 124.923 150.163 124.814 150.059C124.71 149.95 124.647 149.801 124.647 149.652C124.647 149.497 124.71 149.353 124.814 149.244ZM124.814 151.54C125.026 151.327 125.416 151.327 125.628 151.54C125.732 151.649 125.795 151.798 125.795 151.947C125.795 152.096 125.732 152.246 125.628 152.355C125.6 152.377 125.571 152.4 125.542 152.423C125.508 152.446 125.473 152.464 125.439 152.475C125.405 152.492 125.37 152.504 125.336 152.509C125.296 152.515 125.261 152.521 125.221 152.521C125.072 152.521 124.923 152.458 124.814 152.355C124.71 152.246 124.647 152.102 124.647 151.947C124.647 151.798 124.71 151.649 124.814 151.54ZM124.814 153.835C124.951 153.703 125.146 153.646 125.336 153.68C125.37 153.686 125.405 153.697 125.439 153.715C125.473 153.726 125.508 153.743 125.542 153.766C125.571 153.783 125.6 153.812 125.628 153.835C125.732 153.944 125.795 154.093 125.795 154.242C125.795 154.392 125.732 154.541 125.628 154.65C125.519 154.753 125.376 154.816 125.221 154.816C125.072 154.816 124.923 154.753 124.814 154.65C124.762 154.592 124.722 154.535 124.693 154.46C124.664 154.392 124.647 154.317 124.647 154.242C124.647 154.093 124.71 153.944 124.814 153.835ZM133.254 165.145V167.572C132.95 167.848 132.543 168.014 132.107 168.014C131.16 168.014 130.385 167.239 130.385 166.293C130.385 165.851 130.558 165.449 130.833 165.145H133.254ZM133.254 160.554V159.407V147.357H130.385C130.07 147.357 129.812 147.098 129.812 146.783C129.812 146.467 130.07 146.209 130.385 146.209H133.254V144.487H130.385C130.07 144.487 129.812 144.229 129.812 143.914C129.812 143.598 130.07 143.34 130.385 143.34H133.254V140.471H128.664V160.554H133.254ZM117.188 149.078V160.554H118.335H118.909H120.057H120.63H121.778V149.078H117.188ZM118.955 158.041C118.984 157.967 119.024 157.909 119.075 157.852C119.133 157.8 119.19 157.76 119.265 157.731C119.368 157.685 119.483 157.674 119.592 157.697C119.632 157.703 119.666 157.714 119.701 157.731C119.735 157.743 119.77 157.76 119.798 157.783C119.833 157.8 119.862 157.829 119.89 157.852C119.993 157.961 120.057 158.11 120.057 158.259C120.057 158.294 120.051 158.334 120.045 158.374C120.039 158.408 120.028 158.443 120.011 158.477C119.999 158.512 119.982 158.546 119.959 158.581C119.936 158.609 119.913 158.638 119.89 158.667C119.862 158.69 119.833 158.712 119.798 158.735C119.77 158.758 119.735 158.776 119.701 158.787C119.666 158.804 119.632 158.816 119.592 158.822C119.557 158.827 119.517 158.833 119.483 158.833C119.334 158.833 119.184 158.77 119.075 158.667C118.972 158.558 118.909 158.414 118.909 158.259C118.909 158.185 118.926 158.11 118.955 158.041Z" fill="#029DAB"/>
</g>
<g clip-path="url(#clip2_1967_18784)">
<path d="M12.73 250.415C12.73 250.099 12.9882 249.841 13.3038 249.841H39.6996C40.0152 249.841 40.2734 250.099 40.2734 250.415V252.71C40.2734 253.026 40.0152 253.284 39.6996 253.284H37.5306C37.806 253.588 37.9782 253.99 37.9782 254.432C37.9782 254.937 37.7544 255.396 37.4043 255.711C37.1002 255.987 36.6928 256.153 36.2567 256.153C35.3099 256.153 34.5352 255.379 34.5352 254.432C34.5352 253.99 34.7074 253.588 34.9828 253.284H18.0206C18.2961 253.588 18.4682 253.99 18.4682 254.432C18.4682 255.379 17.6936 256.153 16.7468 256.153C16.3107 256.153 15.9032 255.987 15.5991 255.711C15.2491 255.396 15.0253 254.937 15.0253 254.432C15.0253 253.99 15.1974 253.588 15.4729 253.284H13.3038C12.9882 253.284 12.73 253.026 12.73 252.71V250.415ZM34.5352 244.677H37.4043V248.694H32.8138V237.791H37.4043V240.66H34.5352C34.2196 240.66 33.9614 240.918 33.9614 241.234C33.9614 241.55 34.2196 241.808 34.5352 241.808H37.4043V243.529H34.5352C34.2196 243.529 33.9614 243.787 33.9614 244.103C33.9614 244.419 34.2196 244.677 34.5352 244.677Z" fill="#029DAB"/>
<path d="M27.0735 230.332H31.6641V233.775H27.0735V230.332Z" fill="#029DAB"/>
<path d="M27.0735 234.922H31.6641V236.07H27.0735V234.922Z" fill="#029DAB"/>
<path d="M21.3391 251.562H25.9297V252.71H21.3391V251.562Z" fill="#029DAB"/>
<path d="M21.3353 248.693V236.069H25.9258V248.693H21.3353ZM24.038 237.383C23.8257 237.171 23.4355 237.171 23.2232 237.383C23.1199 237.492 23.0567 237.641 23.0567 237.791C23.0567 237.94 23.1199 238.089 23.2232 238.198C23.3322 238.301 23.4756 238.364 23.6306 238.364C23.7798 238.364 23.9289 238.301 24.038 238.198C24.1413 238.089 24.2044 237.94 24.2044 237.791C24.2044 237.636 24.1413 237.492 24.038 237.383ZM24.038 239.678C23.8257 239.466 23.4355 239.466 23.2232 239.678C23.1199 239.787 23.0567 239.937 23.0567 240.086C23.0567 240.235 23.1199 240.384 23.2232 240.493C23.2518 240.516 23.2805 240.539 23.3092 240.562C23.3437 240.585 23.3781 240.602 23.4125 240.614C23.4469 240.631 23.4814 240.642 23.5158 240.648C23.556 240.654 23.5904 240.66 23.6306 240.66C23.7798 240.66 23.9289 240.597 24.038 240.493C24.1413 240.384 24.2044 240.241 24.2044 240.086C24.2044 239.937 24.1413 239.787 24.038 239.678ZM24.038 241.974C23.9003 241.842 23.7052 241.784 23.5158 241.819C23.4814 241.824 23.4469 241.836 23.4125 241.853C23.3781 241.865 23.3437 241.882 23.3092 241.905C23.2805 241.922 23.2518 241.951 23.2232 241.974C23.1199 242.083 23.0567 242.232 23.0567 242.381C23.0567 242.53 23.1199 242.679 23.2232 242.789C23.3322 242.892 23.4756 242.955 23.6306 242.955C23.7798 242.955 23.9289 242.892 24.038 242.789C24.0896 242.731 24.1298 242.674 24.1585 242.599C24.1872 242.53 24.2044 242.456 24.2044 242.381C24.2044 242.232 24.1413 242.083 24.038 241.974ZM15.5971 253.284V255.711C15.9012 255.986 16.3086 256.153 16.7447 256.153C17.6915 256.153 18.4662 255.378 18.4662 254.431C18.4662 253.989 18.294 253.588 18.0186 253.284H15.5971ZM15.5971 248.693V247.545V235.495H18.4662C18.7818 235.495 19.04 235.237 19.04 234.921C19.04 234.606 18.7818 234.348 18.4662 234.348H15.5971V232.626H18.4662C18.7818 232.626 19.04 232.368 19.04 232.052C19.04 231.737 18.7818 231.478 18.4662 231.478H15.5971V228.609H20.1876V248.693H15.5971ZM31.6641 237.217V248.693H30.5164H29.9426H28.795H28.2211H27.0735V237.217H31.6641ZM29.8967 246.18C29.868 246.105 29.8278 246.048 29.7762 245.99C29.7188 245.939 29.6614 245.899 29.5868 245.87C29.4835 245.824 29.3688 245.813 29.2598 245.835C29.2196 245.841 29.1852 245.853 29.1507 245.87C29.1163 245.881 29.0819 245.899 29.0532 245.922C29.0187 245.939 28.9901 245.967 28.9614 245.99C28.8581 246.099 28.795 246.249 28.795 246.398C28.795 246.432 28.8007 246.472 28.8064 246.513C28.8122 246.547 28.8236 246.581 28.8409 246.616C28.8523 246.65 28.8696 246.685 28.8925 246.719C28.9155 246.748 28.9384 246.777 28.9614 246.805C28.9901 246.828 29.0187 246.851 29.0532 246.874C29.0819 246.897 29.1163 246.914 29.1507 246.926C29.1852 246.943 29.2196 246.954 29.2598 246.96C29.2942 246.966 29.3343 246.972 29.3688 246.972C29.518 246.972 29.6672 246.909 29.7762 246.805C29.8795 246.696 29.9426 246.553 29.9426 246.398C29.9426 246.323 29.9254 246.249 29.8967 246.18Z" fill="#029DAB"/>
</g>
<g clip-path="url(#clip3_1967_18784)">
<path d="M173.031 369.403C173.031 369.088 173.289 368.83 173.605 368.83H200C200.316 368.83 200.574 369.088 200.574 369.403V371.699C200.574 372.014 200.316 372.272 200 372.272H197.831C198.107 372.577 198.279 372.978 198.279 373.42C198.279 373.925 198.055 374.384 197.705 374.7C197.401 374.975 196.994 375.142 196.557 375.142C195.611 375.142 194.836 374.367 194.836 373.42C194.836 372.978 195.008 372.577 195.284 372.272H178.321C178.597 372.577 178.769 372.978 178.769 373.42C178.769 374.367 177.994 375.142 177.048 375.142C176.611 375.142 176.204 374.975 175.9 374.7C175.55 374.384 175.326 373.925 175.326 373.42C175.326 372.978 175.498 372.577 175.774 372.272H173.605C173.289 372.272 173.031 372.014 173.031 371.699V369.403ZM194.836 363.665H197.705V367.682H193.115V356.779H197.705V359.648H194.836C194.52 359.648 194.262 359.907 194.262 360.222C194.262 360.538 194.52 360.796 194.836 360.796H197.705V362.518H194.836C194.52 362.518 194.262 362.776 194.262 363.091C194.262 363.407 194.52 363.665 194.836 363.665Z" fill="#029DAB"/>
<path d="M187.378 349.32H191.969V352.763H187.378V349.32Z" fill="#029DAB"/>
<path d="M187.378 353.91H191.969V355.058H187.378V353.91Z" fill="#029DAB"/>
<path d="M181.636 370.551H186.227V371.698H181.636V370.551Z" fill="#029DAB"/>
<path d="M181.64 367.681V355.057H186.231V367.681H181.64ZM184.343 356.371C184.13 356.159 183.74 356.159 183.528 356.371C183.425 356.48 183.361 356.63 183.361 356.779C183.361 356.928 183.425 357.077 183.528 357.186C183.637 357.289 183.78 357.353 183.935 357.353C184.084 357.353 184.234 357.289 184.343 357.186C184.446 357.077 184.509 356.928 184.509 356.779C184.509 356.624 184.446 356.48 184.343 356.371ZM184.343 358.667C184.13 358.454 183.74 358.454 183.528 358.667C183.425 358.776 183.361 358.925 183.361 359.074C183.361 359.223 183.425 359.372 183.528 359.481C183.557 359.504 183.585 359.527 183.614 359.55C183.648 359.573 183.683 359.591 183.717 359.602C183.752 359.619 183.786 359.631 183.82 359.636C183.861 359.642 183.895 359.648 183.935 359.648C184.084 359.648 184.234 359.585 184.343 359.481C184.446 359.372 184.509 359.229 184.509 359.074C184.509 358.925 184.446 358.776 184.343 358.667ZM184.343 360.962C184.205 360.83 184.01 360.773 183.82 360.807C183.786 360.813 183.752 360.824 183.717 360.841C183.683 360.853 183.648 360.87 183.614 360.893C183.585 360.91 183.557 360.939 183.528 360.962C183.425 361.071 183.361 361.22 183.361 361.369C183.361 361.519 183.425 361.668 183.528 361.777C183.637 361.88 183.78 361.943 183.935 361.943C184.084 361.943 184.234 361.88 184.343 361.777C184.394 361.719 184.434 361.662 184.463 361.587C184.492 361.519 184.509 361.444 184.509 361.369C184.509 361.22 184.446 361.071 184.343 360.962ZM175.902 372.272V374.699C176.206 374.975 176.613 375.141 177.049 375.141C177.996 375.141 178.771 374.366 178.771 373.42C178.771 372.978 178.599 372.576 178.323 372.272H175.902ZM175.902 367.681V366.534V354.484H178.771C179.086 354.484 179.345 354.225 179.345 353.91C179.345 353.594 179.086 353.336 178.771 353.336H175.902V351.614H178.771C179.086 351.614 179.345 351.356 179.345 351.041C179.345 350.725 179.086 350.467 178.771 350.467H175.902V347.598H180.492V367.681H175.902ZM191.969 356.205V367.681H190.821H190.247H189.1H188.526H187.378V356.205H191.969ZM190.201 365.168C190.173 365.093 190.133 365.036 190.081 364.979C190.023 364.927 189.966 364.887 189.892 364.858C189.788 364.812 189.673 364.801 189.564 364.824C189.524 364.83 189.49 364.841 189.455 364.858C189.421 364.87 189.387 364.887 189.358 364.91C189.323 364.927 189.295 364.956 189.266 364.979C189.163 365.088 189.1 365.237 189.1 365.386C189.1 365.421 189.105 365.461 189.111 365.501C189.117 365.535 189.128 365.57 189.146 365.604C189.157 365.639 189.174 365.673 189.197 365.707C189.22 365.736 189.243 365.765 189.266 365.794C189.295 365.816 189.323 365.839 189.358 365.862C189.387 365.885 189.421 365.903 189.455 365.914C189.49 365.931 189.524 365.943 189.564 365.948C189.599 365.954 189.639 365.96 189.673 365.96C189.823 365.96 189.972 365.897 190.081 365.794C190.184 365.685 190.247 365.541 190.247 365.386C190.247 365.312 190.23 365.237 190.201 365.168Z" fill="#029DAB"/>
</g>
<g clip-path="url(#clip4_1967_18784)">
<path d="M83.2426 399.7C83.2426 399.385 82.9844 399.126 82.6688 399.126H56.273C55.9574 399.126 55.6992 399.385 55.6992 399.7V401.996C55.6992 402.311 55.9574 402.569 56.273 402.569H58.4421C58.1667 402.873 57.9945 403.275 57.9945 403.717C57.9945 404.222 58.2183 404.681 58.5683 404.997C58.8725 405.272 59.2799 405.438 59.716 405.438C60.6628 405.438 61.4374 404.664 61.4374 403.717C61.4374 403.275 61.2653 402.873 60.9899 402.569H77.952C77.6766 402.873 77.5044 403.275 77.5044 403.717C77.5044 404.664 78.2791 405.438 79.2259 405.438C79.662 405.438 80.0694 405.272 80.3735 404.997C80.7236 404.681 80.9474 404.222 80.9474 403.717C80.9474 403.275 80.7752 402.873 80.4998 402.569H82.6688C82.9844 402.569 83.2426 402.311 83.2426 401.996V399.7ZM61.4374 393.962H58.5683V397.979H63.1589V387.076H58.5683V389.945H61.4374C61.753 389.945 62.0113 390.203 62.0113 390.519C62.0113 390.835 61.753 391.093 61.4374 391.093H58.5683V392.814H61.4374C61.753 392.814 62.0113 393.073 62.0113 393.388C62.0113 393.704 61.753 393.962 61.4374 393.962Z" fill="#029DAB"/>
<path d="M68.8953 379.617H64.3047V383.06H68.8953V379.617Z" fill="#029DAB"/>
<path d="M68.8953 384.207H64.3047V385.355H68.8953V384.207Z" fill="#029DAB"/>
<path d="M74.6335 400.85H70.043V401.997H74.6335V400.85Z" fill="#029DAB"/>
<path d="M74.6335 397.978V385.354H70.0429V397.978H74.6335ZM71.9308 386.668C72.1431 386.456 72.5333 386.456 72.7456 386.668C72.8489 386.777 72.912 386.926 72.912 387.076C72.912 387.225 72.8489 387.374 72.7456 387.483C72.6366 387.586 72.4931 387.649 72.3382 387.649C72.189 387.649 72.0398 387.586 71.9308 387.483C71.8275 387.374 71.7644 387.225 71.7644 387.076C71.7644 386.921 71.8275 386.777 71.9308 386.668ZM71.9308 388.964C72.1431 388.751 72.5333 388.751 72.7456 388.964C72.8489 389.073 72.912 389.222 72.912 389.371C72.912 389.52 72.8489 389.669 72.7456 389.778C72.7169 389.801 72.6882 389.824 72.6595 389.847C72.6251 389.87 72.5907 389.887 72.5562 389.899C72.5218 389.916 72.4874 389.928 72.453 389.933C72.4128 389.939 72.3784 389.945 72.3382 389.945C72.189 389.945 72.0398 389.882 71.9308 389.778C71.8275 389.669 71.7644 389.526 71.7644 389.371C71.7644 389.222 71.8275 389.073 71.9308 388.964ZM71.9308 391.259C72.0685 391.127 72.2636 391.069 72.453 391.104C72.4874 391.11 72.5218 391.121 72.5562 391.138C72.5907 391.15 72.6251 391.167 72.6595 391.19C72.6882 391.207 72.7169 391.236 72.7456 391.259C72.8489 391.368 72.912 391.517 72.912 391.666C72.912 391.815 72.8489 391.965 72.7456 392.074C72.6366 392.177 72.4931 392.24 72.3382 392.24C72.189 392.24 72.0398 392.177 71.9308 392.074C71.8791 392.016 71.839 391.959 71.8103 391.884C71.7816 391.815 71.7644 391.741 71.7644 391.666C71.7644 391.517 71.8275 391.368 71.9308 391.259ZM80.3717 402.569V404.996C80.0676 405.272 79.6601 405.438 79.224 405.438C78.2772 405.438 77.5026 404.663 77.5026 403.716C77.5026 403.275 77.6747 402.873 77.9502 402.569H80.3717ZM80.3717 397.978V396.831V384.78H77.5026C77.187 384.78 76.9288 384.522 76.9288 384.207C76.9288 383.891 77.187 383.633 77.5026 383.633H80.3717V381.911H77.5026C77.187 381.911 76.9288 381.653 76.9288 381.337C76.9288 381.022 77.187 380.764 77.5026 380.764H80.3717V377.895H75.7811V397.978H80.3717ZM64.3047 386.502V397.978H65.4523H66.0262H67.1738H67.7476H68.8953V386.502H64.3047ZM66.0721 395.465C66.1007 395.39 66.1409 395.333 66.1926 395.276C66.2499 395.224 66.3073 395.184 66.3819 395.155C66.4852 395.109 66.6 395.098 66.709 395.121C66.7492 395.126 66.7836 395.138 66.818 395.155C66.8525 395.167 66.8869 395.184 66.9156 395.207C66.95 395.224 66.9787 395.253 67.0074 395.276C67.1107 395.385 67.1738 395.534 67.1738 395.683C67.1738 395.717 67.1681 395.758 67.1623 395.798C67.1566 395.832 67.1451 395.867 67.1279 395.901C67.1164 395.935 67.0992 395.97 67.0762 396.004C67.0533 396.033 67.0303 396.062 67.0074 396.09C66.9787 396.113 66.95 396.136 66.9156 396.159C66.8869 396.182 66.8525 396.199 66.818 396.211C66.7836 396.228 66.7492 396.24 66.709 396.245C66.6746 396.251 66.6344 396.257 66.6 396.257C66.4508 396.257 66.3016 396.194 66.1926 396.09C66.0893 395.981 66.0262 395.838 66.0262 395.683C66.0262 395.608 66.0434 395.534 66.0721 395.465Z" fill="#029DAB"/>
</g>
<path d="M24.7536 22.2648V21.1172H1.80078V22.2648H4.09607V33.7413H1.80078V34.8889H12.5083L8.26201 39.6746L9.11126 40.432L12.7034 36.4038V39.4795H13.851V36.4038L17.4432 40.432L18.2924 39.6746L14.0461 34.8889H24.7536V33.7413H22.4583V22.2648H24.7536Z" fill="#029DAB"/>
<path d="M106.289 55.8683V54.7207H83.3359V55.8683H85.6312V67.3448H83.3359V68.4924H94.0434L89.7972 73.2781L90.6464 74.0355L94.2385 70.0073V73.083H95.3862V70.0073L98.9783 74.0355L99.8276 73.2781L95.5813 68.4924H106.289V67.3448H103.994V55.8683H106.289Z" fill="#029DAB"/>
<path d="M106.289 55.8683V54.7207H83.3359V55.8683H85.6312V67.3448H83.3359V68.4924H94.0434L89.7972 73.2781L90.6464 74.0355L94.2385 70.0073V73.083H95.3862V70.0073L98.9783 74.0355L99.8276 73.2781L95.5813 68.4924H106.289V67.3448H103.994V55.8683H106.289Z" fill="#029DAB"/>
<path d="M19.2497 159.431V158.283H-3.70312V159.431H-1.40784V170.907H-3.70312V172.055H7.00438L2.7581 176.841L3.60736 177.598L7.19948 173.57V176.645H8.34712V173.57L11.9392 177.598L12.7885 176.841L8.54222 172.055H19.2497V170.907H16.9544V159.431H19.2497Z" fill="#029DAB"/>
<path d="M161.281 284.845V283.697H138.328V284.845H140.623V296.321H138.328V297.469H149.036L144.789 302.255L145.639 303.012L149.231 298.984V302.06H150.378V298.984L153.97 303.012L154.82 302.255L150.573 297.469H161.281V296.321H158.986V284.845H161.281Z" fill="#029DAB"/>
<path d="M38.4372 362.519V361.371H15.4844V362.519H17.7797V373.995H15.4844V375.143H26.1919L21.9456 379.928L22.7949 380.686L26.387 376.658V379.733H27.5346V376.658L31.1267 380.686L31.976 379.928L27.7297 375.143H38.4372V373.995H36.1419V362.519H38.4372Z" fill="#029DAB"/>
<g clip-path="url(#clip5_1967_18784)">
<path d="M132.556 79.0879L128.333 83.4088L129.677 84.2316L133.37 80.5391L132.556 79.0879ZM151.851 79.9951L152.733 81.4756C151.103 82.4465 150.665 83.395 150.61 84.5673C150.555 85.7396 151.027 87.1908 151.609 88.7367C152.191 90.2826 152.871 91.9197 153.038 93.6119C153.205 95.3041 152.755 97.1065 151.189 98.5473C150.101 99.5458 148.81 99.5974 147.957 99.3168C147.107 99.0379 146.563 98.4905 146.563 98.4905L147.766 97.2631C147.766 97.2631 148.066 97.542 148.496 97.6831C148.927 97.8243 149.355 97.8966 150.025 97.2803C151.22 96.182 151.457 95.1096 151.326 93.7806C151.196 92.4499 150.591 90.9195 149.999 89.3444C149.407 87.771 148.811 86.1511 148.889 84.4898C148.968 82.8286 149.86 81.1829 151.85 79.9951H151.851ZM134.508 81.8508L131.101 85.2559L138.152 97.9328H144.585L144.582 96.5143L141.872 93.8615C141.391 94.0918 140.851 94.1681 140.325 94.08C139.799 93.9919 139.313 93.7436 138.934 93.3692C138.453 92.8834 138.183 92.2277 138.183 91.5444C138.183 90.8611 138.453 90.2054 138.934 89.7197C139.419 89.2385 140.075 88.9686 140.759 88.9686C141.443 88.9686 142.099 89.2385 142.585 89.7197C142.957 90.0969 143.205 90.5792 143.294 91.1016C143.384 91.624 143.311 92.1613 143.086 92.641L145.782 95.2817L147.191 95.2473L147.185 88.9071L134.508 81.8508ZM140.757 90.6802C140.54 90.6802 140.321 90.7646 140.149 90.935C139.805 91.2793 139.805 91.8095 140.149 92.1521C140.493 92.4964 141.023 92.4964 141.366 92.1521C141.71 91.8078 141.71 91.2793 141.366 90.935C141.194 90.7629 140.975 90.6802 140.757 90.6802Z" fill="#029DAB"/>
</g>
<g clip-path="url(#clip6_1967_18784)">
<path d="M173.296 177.143L177.519 181.463L176.174 182.286L172.482 178.594L173.296 177.143ZM154 178.05L153.119 179.53C154.749 180.501 155.186 181.45 155.241 182.622C155.296 183.794 154.825 185.246 154.243 186.791C153.661 188.337 152.981 189.974 152.814 191.667C152.647 193.359 153.096 195.161 154.663 196.602C155.751 197.6 157.042 197.652 157.894 197.372C158.744 197.093 159.288 196.545 159.288 196.545L158.085 195.318C158.085 195.318 157.786 195.597 157.355 195.738C156.925 195.879 156.496 195.951 155.827 195.335C154.632 194.237 154.394 193.164 154.525 191.835C154.656 190.505 155.26 188.974 155.852 187.399C156.445 185.826 157.04 184.206 156.963 182.545C156.884 180.883 155.992 179.238 154.002 178.05H154ZM171.344 179.906L174.751 183.311L167.7 195.987H161.266L161.27 194.569L163.979 191.916C164.46 192.146 165.001 192.223 165.527 192.135C166.052 192.047 166.538 191.798 166.918 191.424C167.399 190.938 167.668 190.282 167.668 189.599C167.668 188.916 167.399 188.26 166.918 187.774C166.432 187.293 165.776 187.023 165.092 187.023C164.409 187.023 163.753 187.293 163.267 187.774C162.894 188.152 162.647 188.634 162.557 189.156C162.468 189.679 162.54 190.216 162.766 190.696L160.07 193.336L158.66 193.302L158.667 186.962L171.344 179.906ZM165.095 188.735C165.312 188.735 165.53 188.819 165.703 188.99C166.047 189.334 166.047 189.864 165.703 190.207C165.358 190.551 164.828 190.551 164.486 190.207C164.141 189.862 164.141 189.334 164.486 188.99C164.658 188.818 164.876 188.735 165.095 188.735Z" fill="#029DAB"/>
</g>
<g clip-path="url(#clip7_1967_18784)">
<path d="M27.3194 114.896L31.5422 119.217L30.1977 120.04L26.5052 116.348L27.3194 114.896ZM8.02356 115.804L7.14217 117.284C8.77239 118.255 9.20964 119.204 9.26473 120.376C9.31982 121.548 8.84814 122.999 8.26628 124.545C7.68443 126.091 7.00445 127.728 6.83747 129.42C6.67049 131.113 7.11979 132.915 8.68632 134.356C9.77428 135.354 11.0654 135.406 11.9175 135.125C12.7679 134.847 13.3119 134.299 13.3119 134.299L12.1086 133.072C12.1086 133.072 11.8091 133.351 11.3787 133.492C10.9483 133.633 10.5197 133.705 9.85003 133.089C8.65533 131.991 8.41777 130.918 8.5486 129.589C8.67943 128.258 9.28367 126.728 9.87585 125.153C10.468 123.58 11.0637 121.96 10.9862 120.298C10.907 118.637 10.0153 116.992 8.02528 115.804H8.02356ZM25.3673 117.659L28.7741 121.064L21.723 133.741H15.2899L15.2933 132.323L18.0029 129.67C18.4838 129.9 19.0241 129.977 19.55 129.889C20.0759 129.8 20.5618 129.552 20.9414 129.178C21.4221 128.692 21.6917 128.036 21.6917 127.353C21.6917 126.67 21.4221 126.014 20.9414 125.528C20.4556 125.047 19.7995 124.777 19.1158 124.777C18.4321 124.777 17.776 125.047 17.2902 125.528C16.9179 125.905 16.6703 126.388 16.5807 126.91C16.4911 127.433 16.5639 127.97 16.7893 128.45L14.0934 131.09L12.6836 131.056L12.6904 124.716L25.3673 117.659ZM19.1184 126.489C19.3353 126.489 19.5539 126.573 19.7261 126.744C20.0704 127.088 20.0704 127.618 19.7261 127.961C19.3818 128.305 18.8516 128.305 18.509 127.961C18.1647 127.616 18.1647 127.088 18.509 126.744C18.6811 126.571 18.8998 126.489 19.1184 126.489Z" fill="#029DAB"/>
</g>
<g clip-path="url(#clip8_1967_18784)">
<path d="M27.3194 114.896L31.5422 119.217L30.1977 120.04L26.5052 116.348L27.3194 114.896ZM8.02356 115.804L7.14217 117.284C8.77239 118.255 9.20964 119.204 9.26473 120.376C9.31982 121.548 8.84814 122.999 8.26628 124.545C7.68443 126.091 7.00445 127.728 6.83747 129.42C6.67049 131.113 7.11979 132.915 8.68632 134.356C9.77428 135.354 11.0654 135.406 11.9175 135.125C12.7679 134.847 13.3119 134.299 13.3119 134.299L12.1086 133.072C12.1086 133.072 11.8091 133.351 11.3787 133.492C10.9483 133.633 10.5197 133.705 9.85003 133.089C8.65533 131.991 8.41777 130.918 8.5486 129.589C8.67943 128.258 9.28367 126.728 9.87585 125.153C10.468 123.58 11.0637 121.96 10.9862 120.298C10.907 118.637 10.0153 116.992 8.02528 115.804H8.02356ZM25.3673 117.659L28.7741 121.064L21.723 133.741H15.2899L15.2933 132.323L18.0029 129.67C18.4838 129.9 19.0241 129.977 19.55 129.889C20.0759 129.8 20.5618 129.552 20.9414 129.178C21.4221 128.692 21.6917 128.036 21.6917 127.353C21.6917 126.67 21.4221 126.014 20.9414 125.528C20.4556 125.047 19.7995 124.777 19.1158 124.777C18.4321 124.777 17.776 125.047 17.2902 125.528C16.9179 125.905 16.6703 126.388 16.5807 126.91C16.4911 127.433 16.5639 127.97 16.7893 128.45L14.0934 131.09L12.6836 131.056L12.6904 124.716L25.3673 117.659ZM19.1184 126.489C19.3353 126.489 19.5539 126.573 19.7261 126.744C20.0704 127.088 20.0704 127.618 19.7261 127.961C19.3818 128.305 18.8516 128.305 18.509 127.961C18.1647 127.616 18.1647 127.088 18.509 126.744C18.6811 126.571 18.8998 126.489 19.1184 126.489Z" fill="#029DAB"/>
</g>
<g clip-path="url(#clip9_1967_18784)">
<path d="M86.2782 263.078L82.0555 267.399L83.3999 268.222L87.0925 264.529L86.2782 263.078ZM105.574 263.985L106.455 265.466C104.825 266.437 104.388 267.385 104.333 268.558C104.278 269.73 104.75 271.181 105.331 272.727C105.913 274.273 106.593 275.91 106.76 277.602C106.927 279.294 106.478 281.097 104.911 282.538C103.823 283.536 102.532 283.588 101.68 283.307C100.83 283.028 100.286 282.481 100.286 282.481L101.489 281.253C101.489 281.253 101.789 281.532 102.219 281.673C102.649 281.815 103.078 281.887 103.748 281.271C104.942 280.172 105.18 279.1 105.049 277.771C104.918 276.44 104.314 274.91 103.722 273.335C103.13 271.761 102.534 270.141 102.611 268.48C102.691 266.819 103.582 265.173 105.572 263.985H105.574ZM88.2304 265.841L84.8236 269.246L91.8747 281.923H98.3078L98.3044 280.505L95.5948 277.852C95.1138 278.082 94.5736 278.158 94.0477 278.07C93.5217 277.982 93.0358 277.734 92.6562 277.359C92.1756 276.874 91.906 276.218 91.906 275.535C91.906 274.851 92.1756 274.196 92.6562 273.71C93.142 273.229 93.7981 272.959 94.4818 272.959C95.1656 272.959 95.8217 273.229 96.3075 273.71C96.6797 274.087 96.9274 274.569 97.017 275.092C97.1065 275.614 97.0337 276.151 96.8084 276.631L99.5042 279.272L100.914 279.238L100.907 272.897L88.2304 265.841ZM94.4793 274.67C94.2624 274.67 94.0437 274.755 93.8716 274.925C93.5273 275.27 93.5273 275.8 93.8716 276.142C94.2159 276.487 94.7461 276.487 95.0887 276.142C95.433 275.798 95.433 275.27 95.0887 274.925C94.9165 274.753 94.6979 274.67 94.4793 274.67Z" fill="#029DAB"/>
</g>
<path d="M139.344 5.31055C138.793 5.31055 138.241 5.51878 137.822 5.93845L136.68 7.08032L140.894 11.8301L142.305 10.4214C142.708 10.0171 142.934 9.46964 142.934 8.89889C142.934 8.32814 142.708 7.78065 142.305 7.37638L140.867 5.93845C140.667 5.73882 140.429 5.5807 140.168 5.47322C139.907 5.36574 139.627 5.31101 139.344 5.31219V5.31055ZM136.07 7.6903L121.723 22.037L123.638 23.9954L137.892 9.74307L136.07 7.6903ZM138.464 10.3888L124.241 24.6119L126.157 26.5687L140.286 12.44L138.464 10.3888ZM121.214 22.7478L120.607 24.446L123.844 27.6179L125.427 27.0518L121.214 22.7478ZM120.288 25.3391L119.142 28.55C119.115 28.6267 119.11 28.7094 119.128 28.7887C119.146 28.868 119.186 28.9405 119.243 28.998C119.301 29.0555 119.373 29.0955 119.453 29.1136C119.532 29.1316 119.615 29.1268 119.691 29.0998L122.945 27.9384L120.288 25.3391Z" fill="#029DAB"/>
<path d="M162.652 230.617C163.203 230.617 163.755 230.825 164.174 231.245L165.316 232.387L161.102 237.137L159.691 235.728C159.289 235.324 159.062 234.776 159.062 234.206C159.062 233.635 159.289 233.087 159.691 232.683L161.129 231.245C161.329 231.045 161.567 230.887 161.828 230.78C162.089 230.672 162.369 230.618 162.652 230.619V230.617ZM165.926 232.997L180.273 247.344L178.358 249.302L164.104 235.05L165.926 232.997ZM163.532 235.695L177.755 249.919L175.839 251.875L161.71 237.747L163.532 235.695ZM180.782 248.054L181.389 249.753L178.152 252.925L176.569 252.358L180.782 248.054ZM181.708 250.646L182.854 253.857C182.881 253.933 182.886 254.016 182.868 254.095C182.85 254.175 182.81 254.247 182.753 254.305C182.695 254.362 182.623 254.402 182.543 254.42C182.464 254.438 182.381 254.433 182.305 254.406L179.051 253.245L181.708 250.646Z" fill="#029DAB"/>
<path d="M129.43 328.119C128.879 328.119 128.327 328.327 127.908 328.747L126.766 329.889L130.98 334.639L132.391 333.23C132.793 332.826 133.02 332.278 133.02 331.707C133.02 331.137 132.793 330.589 132.391 330.185L130.953 328.747C130.753 328.547 130.515 328.389 130.254 328.282C129.993 328.174 129.713 328.12 129.43 328.121V328.119ZM126.156 330.499L111.809 344.846L113.724 346.804L127.978 332.552L126.156 330.499ZM128.55 333.197L114.327 347.421L116.243 349.377L130.372 335.249L128.55 333.197ZM111.3 345.556L110.693 347.255L113.93 350.427L115.513 349.86L111.3 345.556ZM110.374 348.148L109.228 351.359C109.201 351.435 109.196 351.518 109.214 351.597C109.232 351.677 109.272 351.749 109.329 351.807C109.387 351.864 109.459 351.904 109.539 351.922C109.618 351.94 109.701 351.935 109.777 351.908L113.031 350.747L110.374 348.148Z" fill="#029DAB"/>
<path d="M16.6714 418.461C17.2228 418.461 17.7743 418.669 18.1939 419.089L19.3358 420.231L15.1213 424.98L13.711 423.572C13.3081 423.167 13.0819 422.62 13.0819 422.049C13.0819 421.479 13.3081 420.931 13.711 420.527L15.1489 419.089C15.3489 418.889 15.5863 418.731 15.8476 418.624C16.1089 418.516 16.3889 418.461 16.6714 418.463V418.461ZM19.9458 420.841L34.2925 435.187L32.378 437.146L18.124 422.893L19.9458 420.841ZM17.5514 423.539L31.7745 437.762L29.8584 439.719L15.7296 425.59L17.5514 423.539ZM34.8016 435.898L35.4084 437.596L32.1714 440.768L30.5887 440.202L34.8016 435.898ZM35.7272 438.489L36.8739 441.7C36.901 441.777 36.9057 441.86 36.8877 441.939C36.8697 442.018 36.8297 442.091 36.7722 442.148C36.7147 442.206 36.6421 442.246 36.5629 442.264C36.4836 442.282 36.4008 442.277 36.3241 442.25L33.0709 441.089L35.7272 438.489Z" fill="#029DAB"/>
<path d="M79.852 119.34C79.3006 119.34 78.7492 119.548 78.3295 119.968L77.1876 121.11L81.4022 125.859L82.8125 124.451C83.2153 124.046 83.4416 123.499 83.4416 122.928C83.4416 122.357 83.2153 121.81 82.8125 121.406L81.3745 119.968C81.1746 119.768 80.9371 119.61 80.6758 119.503C80.4145 119.395 80.1346 119.34 79.852 119.341V119.34ZM76.5776 121.72L62.2309 136.066L64.1455 138.025L78.3995 123.772L76.5776 121.72ZM78.972 124.418L64.7489 138.641L66.6651 140.598L80.7938 126.469L78.972 124.418ZM61.7218 136.777L61.1151 138.475L64.352 141.647L65.9347 141.081L61.7218 136.777ZM60.7963 139.368L59.6495 142.579C59.6225 142.656 59.6177 142.739 59.6357 142.818C59.6537 142.897 59.6938 142.97 59.7513 143.027C59.8087 143.085 59.8813 143.125 59.9606 143.143C60.0399 143.161 60.1226 143.156 60.1993 143.129L63.4525 141.968L60.7963 139.368Z" fill="#029DAB"/>
<path d="M55.0745 86.1083H54.2138V83.5261H42.1635C41.9352 83.5261 41.7163 83.4354 41.5549 83.274C41.3935 83.1126 41.3028 82.8937 41.3028 82.6654C41.3028 82.4371 41.3935 82.2182 41.5549 82.0568C41.7163 81.8953 41.9352 81.8046 42.1635 81.8046H54.2138V79.2225H30.2682C30.168 79.4985 30.1156 79.7896 30.1133 80.0832V85.2476C30.1133 85.9324 30.3853 86.5892 30.8696 87.0735C31.3538 87.5577 32.0106 87.8298 32.6955 87.8298H55.0745C55.3028 87.8298 55.5217 87.7391 55.6831 87.5777C55.8446 87.4163 55.9352 87.1973 55.9352 86.969C55.9352 86.7408 55.8446 86.5218 55.6831 86.3604C55.5217 86.199 55.3028 86.1083 55.0745 86.1083ZM54.2138 77.501V74.9188H42.1635C41.9352 74.9188 41.7163 74.8281 41.5549 74.6667C41.3935 74.5053 41.3028 74.2863 41.3028 74.0581C41.3028 73.8298 41.3935 73.6109 41.5549 73.4494C41.7163 73.288 41.9352 73.1973 42.1635 73.1973H54.2138V70.6151H30.2682C30.168 70.8911 30.1156 71.1822 30.1133 71.4759V76.6403C30.1156 76.9339 30.168 77.225 30.2682 77.501H54.2138ZM51.6316 68.8937V67.1722H42.1635C41.9352 67.1722 41.7163 67.0815 41.5549 66.9201C41.3935 66.7587 41.3028 66.5398 41.3028 66.3115C41.3028 66.0832 41.3935 65.8643 41.5549 65.7028C41.7163 65.5414 41.9352 65.4507 42.1635 65.4507H51.6316V63.7293H52.4923C52.7206 63.7293 52.9395 63.6386 53.1009 63.4772C53.2624 63.3158 53.353 63.0968 53.353 62.8685C53.353 62.6403 53.2624 62.4213 53.1009 62.2599C52.9395 62.0985 52.7206 62.0078 52.4923 62.0078H35.2777C34.5928 62.0078 33.936 62.2799 33.4518 62.7641C32.9675 63.2484 32.6955 63.9052 32.6955 64.59V68.0329C32.6978 68.3266 32.7502 68.6177 32.8504 68.8937H51.6316Z" fill="#029DAB"/>
<path d="M141.012 402.856H140.151V400.274H128.101C127.873 400.274 127.654 400.183 127.492 400.022C127.331 399.861 127.24 399.642 127.24 399.413C127.24 399.185 127.331 398.966 127.492 398.805C127.654 398.643 127.873 398.553 128.101 398.553H140.151V395.97H116.206C116.106 396.247 116.053 396.538 116.051 396.831V401.996C116.051 402.68 116.323 403.337 116.807 403.822C117.291 404.306 117.948 404.578 118.633 404.578H141.012C141.24 404.578 141.459 404.487 141.621 404.326C141.782 404.164 141.873 403.945 141.873 403.717C141.873 403.489 141.782 403.27 141.621 403.108C141.459 402.947 141.24 402.856 141.012 402.856ZM140.151 394.249V391.667H128.101C127.873 391.667 127.654 391.576 127.492 391.415C127.331 391.253 127.24 391.034 127.24 390.806C127.24 390.578 127.331 390.359 127.492 390.197C127.654 390.036 127.873 389.945 128.101 389.945H140.151V387.363H116.206C116.106 387.639 116.053 387.93 116.051 388.224V393.388C116.053 393.682 116.106 393.973 116.206 394.249H140.151ZM137.569 385.642V383.92H128.101C127.873 383.92 127.654 383.83 127.492 383.668C127.331 383.507 127.24 383.288 127.24 383.06C127.24 382.831 127.331 382.612 127.492 382.451C127.654 382.289 127.873 382.199 128.101 382.199H137.569V380.477H138.43C138.658 380.477 138.877 380.387 139.038 380.225C139.2 380.064 139.291 379.845 139.291 379.617C139.291 379.388 139.2 379.169 139.038 379.008C138.877 378.847 138.658 378.756 138.43 378.756H121.215C120.53 378.756 119.874 379.028 119.389 379.512C118.905 379.996 118.633 380.653 118.633 381.338V384.781C118.635 385.075 118.688 385.366 118.788 385.642H137.569Z" fill="#029DAB"/>
<path d="M114.575 233.739H113.714V231.157H101.664C101.435 231.157 101.216 231.066 101.055 230.905C100.893 230.743 100.803 230.525 100.803 230.296C100.803 230.068 100.893 229.849 101.055 229.688C101.216 229.526 101.435 229.436 101.664 229.436H113.714V226.853H89.7682C89.668 227.129 89.6156 227.42 89.6133 227.714V232.878C89.6133 233.563 89.8853 234.22 90.3696 234.704C90.8538 235.189 91.5106 235.461 92.1955 235.461H114.575C114.803 235.461 115.022 235.37 115.183 235.209C115.345 235.047 115.435 234.828 115.435 234.6C115.435 234.372 115.345 234.153 115.183 233.991C115.022 233.83 114.803 233.739 114.575 233.739ZM113.714 225.132V222.55H101.664C101.435 222.55 101.216 222.459 101.055 222.298C100.893 222.136 100.803 221.917 100.803 221.689C100.803 221.461 100.893 221.242 101.055 221.08C101.216 220.919 101.435 220.828 101.664 220.828H113.714V218.246H89.7682C89.668 218.522 89.6156 218.813 89.6133 219.107V224.271C89.6156 224.565 89.668 224.856 89.7682 225.132H113.714ZM111.132 216.525V214.803H101.664C101.435 214.803 101.216 214.712 101.055 214.551C100.893 214.39 100.803 214.171 100.803 213.942C100.803 213.714 100.893 213.495 101.055 213.334C101.216 213.172 101.435 213.082 101.664 213.082H111.132V211.36H111.992C112.221 211.36 112.44 211.269 112.601 211.108C112.762 210.947 112.853 210.728 112.853 210.499C112.853 210.271 112.762 210.052 112.601 209.891C112.44 209.729 112.221 209.639 111.992 209.639H94.7777C94.0928 209.639 93.436 209.911 92.9518 210.395C92.4675 210.879 92.1955 211.536 92.1955 212.221V215.664C92.1978 215.957 92.2502 216.249 92.3504 216.525H111.132Z" fill="#029DAB"/>
<path d="M1.23018 327.938H2.09091V325.356H14.1412C14.3694 325.356 14.5884 325.266 14.7498 325.104C14.9112 324.943 15.0019 324.724 15.0019 324.495C15.0019 324.267 14.9112 324.048 14.7498 323.887C14.5884 323.725 14.3694 323.635 14.1412 323.635H2.09091V321.053H26.0365C26.1367 321.329 26.1891 321.62 26.1914 321.913V327.078C26.1914 327.762 25.9194 328.419 25.4351 328.904C24.9508 329.388 24.2941 329.66 23.6092 329.66H1.23018C1.0019 329.66 0.782967 329.569 0.621548 329.408C0.460129 329.246 0.369446 329.027 0.369446 328.799C0.369446 328.571 0.460129 328.352 0.621548 328.19C0.782967 328.029 1.0019 327.938 1.23018 327.938ZM2.09091 319.331V316.749H14.1412C14.3694 316.749 14.5884 316.658 14.7498 316.497C14.9112 316.335 15.0019 316.116 15.0019 315.888C15.0019 315.66 14.9112 315.441 14.7498 315.28C14.5884 315.118 14.3694 315.027 14.1412 315.027H2.09091V312.445H26.0365C26.1367 312.721 26.1891 313.012 26.1914 313.306V318.47C26.1891 318.764 26.1367 319.055 26.0365 319.331H2.09091ZM4.67311 310.724V309.002H14.1412C14.3694 309.002 14.5884 308.912 14.7498 308.75C14.9112 308.589 15.0019 308.37 15.0019 308.142C15.0019 307.913 14.9112 307.694 14.7498 307.533C14.5884 307.372 14.3694 307.281 14.1412 307.281H4.67311V305.559H3.81237C3.58409 305.559 3.36516 305.469 3.20374 305.307C3.04233 305.146 2.95164 304.927 2.95164 304.699C2.95164 304.47 3.04233 304.251 3.20374 304.09C3.36516 303.929 3.58409 303.838 3.81237 303.838H21.027C21.7119 303.838 22.3686 304.11 22.8529 304.594C23.3372 305.078 23.6092 305.735 23.6092 306.42V309.863C23.6069 310.157 23.5545 310.448 23.4543 310.724H4.67311Z" fill="#029DAB"/>
<path d="M191.141 145.6H190.28V143.018H178.23C178.002 143.018 177.783 142.928 177.621 142.766C177.46 142.605 177.369 142.386 177.369 142.158C177.369 141.929 177.46 141.71 177.621 141.549C177.783 141.388 178.002 141.297 178.23 141.297H190.28V138.715H166.335C166.234 138.991 166.182 139.282 166.18 139.575V144.74C166.18 145.425 166.452 146.081 166.936 146.566C167.42 147.05 168.077 147.322 168.762 147.322H191.141C191.369 147.322 191.588 147.231 191.75 147.07C191.911 146.908 192.002 146.69 192.002 146.461C192.002 146.233 191.911 146.014 191.75 145.853C191.588 145.691 191.369 145.6 191.141 145.6ZM190.28 136.993V134.411H178.23C178.002 134.411 177.783 134.32 177.621 134.159C177.46 133.997 177.369 133.779 177.369 133.55C177.369 133.322 177.46 133.103 177.621 132.942C177.783 132.78 178.002 132.69 178.23 132.69H190.28V130.107H166.335C166.234 130.383 166.182 130.674 166.18 130.968V136.132C166.182 136.426 166.234 136.717 166.335 136.993H190.28ZM187.698 128.386V126.664H178.23C178.002 126.664 177.783 126.574 177.621 126.412C177.46 126.251 177.369 126.032 177.369 125.804C177.369 125.575 177.46 125.356 177.621 125.195C177.783 125.034 178.002 124.943 178.23 124.943H187.698V123.221H188.559C188.787 123.221 189.006 123.131 189.167 122.969C189.329 122.808 189.419 122.589 189.419 122.361C189.419 122.132 189.329 121.914 189.167 121.752C189.006 121.591 188.787 121.5 188.559 121.5H171.344C170.659 121.5 170.002 121.772 169.518 122.256C169.034 122.741 168.762 123.397 168.762 124.082V127.525C168.764 127.819 168.817 128.11 168.917 128.386H187.698Z" fill="#029DAB"/>
<defs>
<clipPath id="clip0_1967_18784">
<rect width="27.5434" height="27.5434" fill="white" transform="translate(56.7969)"/>
</clipPath>
<clipPath id="clip1_1967_18784">
<rect width="27.5434" height="27.5434" fill="white" transform="translate(108.582 140.471)"/>
</clipPath>
<clipPath id="clip2_1967_18784">
<rect width="27.5434" height="27.5434" fill="white" transform="matrix(-1 0 0 1 40.2734 228.609)"/>
</clipPath>
<clipPath id="clip3_1967_18784">
<rect width="27.5434" height="27.5434" fill="white" transform="matrix(-1 0 0 1 200.574 347.598)"/>
</clipPath>
<clipPath id="clip4_1967_18784">
<rect width="27.5434" height="27.5434" fill="white" transform="translate(55.6992 377.895)"/>
</clipPath>
<clipPath id="clip5_1967_18784">
<rect width="27.5434" height="27.5434" fill="white" transform="matrix(-1 0 0 1 153.203 73.8164)"/>
</clipPath>
<clipPath id="clip6_1967_18784">
<rect width="27.5434" height="27.5434" fill="white" transform="translate(152.648 171.871)"/>
</clipPath>
<clipPath id="clip7_1967_18784">
<rect width="27.5434" height="27.5434" fill="white" transform="translate(6.67188 109.623)"/>
</clipPath>
<clipPath id="clip8_1967_18784">
<rect width="27.5434" height="27.5434" fill="white" transform="translate(6.67188 109.623)"/>
</clipPath>
<clipPath id="clip9_1967_18784">
<rect width="27.5434" height="27.5434" fill="white" transform="matrix(-1 0 0 1 106.926 257.807)"/>
</clipPath>
</defs>
</svg>
