<svg width="65" height="61" viewBox="0 0 65 61" fill="none" xmlns="http://www.w3.org/2000/svg">
<circle cx="27.0798" cy="27.2683" r="26.9304" fill="#53C5E0" fill-opacity="0.15"/>
<g clip-path="url(#clip0_1745_9901)">
<path fill-rule="evenodd" clip-rule="evenodd" d="M17.274 18.8874C17.274 20.5173 18.5891 21.8325 20.2209 21.8343H20.8088L26.6934 21.8472L26.6822 15.9616V15.3737C26.6817 14.5919 26.3707 13.8424 25.8178 13.2897C25.2648 12.7371 24.515 12.4258 23.7332 12.4258C23.3472 12.4241 22.9647 12.4997 22.6078 12.6466C22.2508 12.7935 21.9264 13.0094 21.6535 13.2824C21.3805 13.5553 21.1644 13.8795 21.0175 14.2365C20.8705 14.5935 20.7958 14.9757 20.7976 15.3617V15.9515L20.2096 15.9496C19.8233 15.9476 19.4405 16.0226 19.0831 16.1695C18.7258 16.3165 18.4012 16.533 18.128 16.8062C17.8548 17.0794 17.6385 17.4039 17.4916 17.7612C17.3446 18.1185 17.27 18.5011 17.272 18.8874H17.274Z" fill="#FFBB0C"/>
<path fill-rule="evenodd" clip-rule="evenodd" d="M52.8042 18.8962C52.8042 19.678 52.4938 20.4281 51.9412 20.9811C51.3886 21.5341 50.639 21.8445 49.8573 21.845H49.2694L43.3828 21.857L43.3942 15.9723V15.3844C43.398 13.7526 44.7132 12.4394 46.3431 12.4356C46.7294 12.4336 47.1123 12.5076 47.4696 12.6546C47.8269 12.8015 48.1516 13.0181 48.4247 13.2912C48.6979 13.5644 48.9142 13.889 49.0611 14.2463C49.208 14.6036 49.2826 14.9861 49.2806 15.3724V15.9603H49.8685C50.2546 15.9586 50.637 16.0333 50.994 16.1802C51.351 16.3271 51.6754 16.544 51.9483 16.8169C52.2213 17.0899 52.4374 17.414 52.5843 17.771C52.7312 18.128 52.806 18.5102 52.8042 18.8962Z" fill="#FFBB0C"/>
<path fill-rule="evenodd" clip-rule="evenodd" d="M29.453 6.2864C28.981 6.93829 28.7872 7.75098 28.9142 8.54572C29.0412 9.34046 29.4787 10.0517 30.1304 10.524L30.6181 10.8799L35.5161 14.4443L39.0631 9.53385L39.4177 9.03973C39.8891 8.38795 40.0825 7.57552 39.9554 6.78123C39.8284 5.98695 39.3912 5.27624 38.7401 4.80398C38.4194 4.56938 38.0554 4.40011 37.6691 4.30694C37.2828 4.21378 36.8819 4.19852 36.4895 4.26113C36.0971 4.32374 35.721 4.46279 35.3829 4.67153C35.0448 4.88027 34.7513 5.15446 34.5195 5.47721L34.1653 5.96859L33.6737 5.61225C33.353 5.37765 32.989 5.20929 32.6027 5.11613C32.2164 5.02297 31.8155 5.00771 31.4231 5.07032C31.0307 5.13292 30.6545 5.27197 30.3164 5.48072C29.9783 5.68946 29.6848 5.96365 29.453 6.2864Z" fill="#FFBB0C"/>
<path d="M53.4252 28.2705H15.7395C14.1785 28.2705 12.9131 29.5359 12.9131 31.0969V53.7083C12.9131 55.2693 14.1785 56.5347 15.7395 56.5347H53.4252C54.9861 56.5347 56.2516 55.2693 56.2516 53.7083V31.0969C56.2516 29.5359 54.9861 28.2705 53.4252 28.2705Z" fill="#53C5E0"/>
<path d="M15.8575 28.2705C15.0529 28.2705 14.3294 28.6057 13.8149 29.1427L14.0768 29.3534L32.4373 42.5213C33.7092 43.4333 35.1657 43.4333 36.4376 42.5213L55.2691 29.0148L55.3577 28.9449C54.8521 28.512 54.2087 28.2736 53.5431 28.2723H15.8575V28.2705Z" fill="#00A9B8"/>
<path fill-rule="evenodd" clip-rule="evenodd" d="M29.9777 38.3124C29.4092 38.8816 29.0898 39.6526 29.0898 40.457C29.0898 41.2615 29.4092 42.0334 29.9777 42.6026L30.4035 43.0323L34.6808 47.3244L38.9544 43.0323L39.3821 42.6026C39.9506 42.0334 40.2699 41.2615 40.2699 40.457C40.2699 39.6526 39.9506 38.8816 39.3821 38.3124C39.1023 38.03 38.7694 37.8057 38.4025 37.6527C38.0355 37.4997 37.642 37.4208 37.2444 37.4208C36.8469 37.4208 36.4532 37.4997 36.0863 37.6527C35.7194 37.8057 35.3865 38.03 35.1067 38.3124L34.679 38.742L34.2531 38.3124C33.9733 38.0297 33.6402 37.8049 33.2731 37.6518C32.906 37.4986 32.5122 37.4199 32.1144 37.4199C31.7167 37.4199 31.3228 37.4986 30.9557 37.6518C30.5886 37.8049 30.2556 38.0297 29.9757 38.3124H29.9777Z" fill="#FFBB0C"/>
</g>
<defs>
<clipPath id="clip0_1745_9901">
<rect width="60.297" height="60.297" fill="white" transform="translate(4.55322)"/>
</clipPath>
</defs>
</svg>
