<svg width="30" height="33" viewBox="0 0 30 33" fill="none" xmlns="http://www.w3.org/2000/svg">
<path d="M0 3.5188C0 1.57542 1.57542 0 3.5188 0V0V21.1128H1.8767C0.840226 21.1128 0 20.2726 0 19.2361V3.5188Z" fill="#09A9DB"/>
<path d="M3.51953 0H24.6323C27.2235 0 29.3241 2.10056 29.3241 4.69174V28.1504C29.3241 30.7416 27.2235 32.8422 24.6323 32.8422H8.21126C5.62009 32.8422 3.51953 30.7416 3.51953 28.1504V0Z" fill="#09A9DB"/>
<rect x="8.21094" y="7.03516" width="16.4211" height="2.34587" rx="1.17293" fill="white"/>
<rect x="8.21094" y="14.0742" width="16.4211" height="2.34587" rx="1.17293" fill="white"/>
<path d="M8.21094 22.2823C8.21094 21.6345 8.73608 21.1094 9.38387 21.1094H23.4591C24.1069 21.1094 24.632 21.6345 24.632 22.2823V22.2823C24.632 22.9301 24.1069 23.4552 23.4591 23.4552H9.38387C8.73608 23.4552 8.21094 22.9301 8.21094 22.2823V22.2823Z" fill="white"/>
</svg>
