<svg width="81" height="72" viewBox="0 0 81 72" fill="none" xmlns="http://www.w3.org/2000/svg">
<g clip-path="url(#clip0_1078_7580)">
<path d="M41.4809 0.157151L38.8453 0.830301L6.37422 9.12366L3.73863 9.79681C2.45934 10.1251 1.36376 10.9425 0.692252 12.0698C0.0207427 13.1971 -0.171858 14.5422 0.156703 15.8099L11.5852 59.7023C11.9167 60.9693 12.742 62.0544 13.8802 62.7195C15.0184 63.3845 16.3765 63.5753 17.6566 63.2499L17.6634 63.2482L55.392 53.612L55.3988 53.6102C56.6781 53.282 57.7737 52.4645 58.4452 51.3372C59.1167 50.2099 59.3093 48.8649 58.9808 47.5971L47.5522 3.70475C47.2208 2.43773 46.3954 1.35265 45.2572 0.687576C44.119 0.0225007 42.7609 -0.168258 41.4809 0.157151Z" fill="#F2F2F2"/>
<path d="M41.8422 1.53336L38.7205 2.33066L7.22151 10.3758L4.09988 11.173C3.18886 11.4068 2.40867 11.9889 1.93047 12.7917C1.45227 13.5945 1.31512 14.5523 1.54909 15.4551L12.9776 59.3475C13.2136 60.2498 13.8014 61.0225 14.6119 61.4961C15.4225 61.9697 16.3896 62.1055 17.3012 61.8738L17.308 61.8721L55.0366 52.2359L55.0435 52.2341C55.9545 52.0004 56.7347 51.4182 57.2128 50.6155C57.691 49.8127 57.8282 48.8549 57.5942 47.9521L46.1657 4.0597C45.9297 3.15743 45.3419 2.38472 44.5314 1.91111C43.7209 1.43749 42.7537 1.30164 41.8422 1.53336Z" fill="white"/>
<path d="M39.4827 15.7469L20.3967 20.6216C20.1835 20.676 19.9573 20.6444 19.7677 20.5336C19.578 20.4228 19.4406 20.242 19.3857 20.0308C19.3307 19.8197 19.3627 19.5956 19.4745 19.4078C19.5864 19.22 19.769 19.0839 19.9822 19.0295L39.0682 14.1548C39.2813 14.1005 39.5074 14.1323 39.6968 14.2431C39.8863 14.3539 40.0236 14.5347 40.0785 14.7457C40.1334 14.9567 40.1016 15.1807 39.9898 15.3684C39.8781 15.5562 39.6957 15.6923 39.4827 15.7469Z" fill="#F2F2F2"/>
<path d="M43.4975 17.5869L21.0959 23.3084C20.8828 23.3629 20.6565 23.3312 20.4669 23.2204C20.2773 23.1096 20.1399 22.9288 20.0849 22.7177C20.0299 22.5065 20.0619 22.2824 20.1737 22.0946C20.2856 21.9068 20.4682 21.7708 20.6814 21.7163L43.0829 15.9948C43.2961 15.9404 43.5224 15.972 43.712 16.0828C43.9016 16.1936 44.039 16.3744 44.094 16.5856C44.1489 16.7967 44.117 17.0208 44.0051 17.2086C43.8933 17.3964 43.7106 17.5325 43.4975 17.5869Z" fill="#F2F2F2"/>
<path d="M42.6194 27.7871L23.5334 32.6618C23.4279 32.6888 23.318 32.6949 23.2101 32.6798C23.1021 32.6647 22.9983 32.6287 22.9044 32.5738C22.8105 32.519 22.7284 32.4463 22.6629 32.3601C22.5974 32.2738 22.5496 32.1756 22.5224 32.071C22.4952 31.9665 22.489 31.8577 22.5043 31.7508C22.5195 31.6439 22.5559 31.541 22.6112 31.448C22.6666 31.355 22.74 31.2738 22.8271 31.2089C22.9142 31.1439 23.0133 31.0967 23.1189 31.0697L42.2049 26.195C42.3104 26.168 42.4203 26.1619 42.5283 26.177C42.6362 26.1921 42.7401 26.2281 42.834 26.283C42.9278 26.3378 43.0099 26.4105 43.0754 26.4967C43.141 26.583 43.1887 26.6812 43.2159 26.7858C43.2432 26.8903 43.2493 26.9991 43.2341 27.106C43.2188 27.2129 43.1825 27.3158 43.1271 27.4088C43.0717 27.5018 42.9984 27.583 42.9113 27.6479C42.8242 27.7129 42.725 27.7601 42.6194 27.7871Z" fill="#F2F2F2"/>
<path d="M46.6342 29.627L24.2326 35.3485C24.1271 35.3754 24.0172 35.3815 23.9093 35.3664C23.8013 35.3513 23.6975 35.3153 23.6036 35.2605C23.5097 35.2056 23.4277 35.133 23.3621 35.0467C23.2966 34.9604 23.2488 34.8622 23.2216 34.7577C23.1944 34.6532 23.1882 34.5443 23.2035 34.4374C23.2187 34.3305 23.2551 34.2277 23.3105 34.1347C23.3658 34.0417 23.4392 33.9604 23.5263 33.8955C23.6134 33.8306 23.7125 33.7833 23.8181 33.7564L46.2196 28.0348C46.4328 27.9804 46.6591 28.012 46.8487 28.1228C47.0383 28.2336 47.1757 28.4145 47.2307 28.6256C47.2857 28.8367 47.2537 29.0608 47.1418 29.2486C47.03 29.4364 46.8474 29.5725 46.6342 29.627Z" fill="#F2F2F2"/>
<path d="M45.7556 39.8271L26.6696 44.7019C26.4565 44.7561 26.2303 44.7244 26.0408 44.6136C25.8514 44.5028 25.7141 44.322 25.6591 44.1109C25.6042 43.8999 25.6361 43.6759 25.7478 43.4882C25.8596 43.3004 26.042 43.1643 26.255 43.1097L45.3411 38.235C45.5542 38.1806 45.7805 38.2122 45.9701 38.323C46.1597 38.4338 46.2971 38.6147 46.3521 38.8258C46.4071 39.0369 46.3751 39.261 46.2632 39.4488C46.1514 39.6366 45.9688 39.7727 45.7556 39.8271Z" fill="#F2F2F2"/>
<path d="M49.7677 41.667L27.3662 47.3885C27.2606 47.4156 27.1506 47.4218 27.0426 47.4067C26.9346 47.3917 26.8307 47.3557 26.7367 47.3009C26.6428 47.246 26.5606 47.1734 26.495 47.0871C26.4294 47.0008 26.3817 46.9025 26.3544 46.7979C26.3272 46.6933 26.321 46.5844 26.3363 46.4775C26.3516 46.3705 26.388 46.2676 26.4435 46.1746C26.4989 46.0816 26.5723 46.0003 26.6595 45.9354C26.7467 45.8705 26.846 45.8233 26.9516 45.7964L49.3532 40.0749C49.5663 40.0204 49.7926 40.0521 49.9822 40.1629C50.1718 40.2737 50.3092 40.4545 50.3642 40.6656C50.4192 40.8768 50.3872 41.1009 50.2754 41.2887C50.1635 41.4765 49.9809 41.6125 49.7677 41.667Z" fill="#F2F2F2"/>
<path d="M17.1381 25.6192L10.3837 27.3443C10.2815 27.3703 10.173 27.355 10.0822 27.3019C9.99128 27.2488 9.92537 27.1622 9.89891 27.061L8.34845 21.1063C8.32221 21.0051 8.33759 20.8977 8.39121 20.8077C8.44483 20.7177 8.53232 20.6524 8.63447 20.6262L15.3888 18.9011C15.491 18.8751 15.5995 18.8903 15.6904 18.9434C15.7813 18.9965 15.8472 19.0832 15.8736 19.1843L17.4241 25.139C17.4503 25.2402 17.4349 25.3477 17.3813 25.4377C17.3277 25.5277 17.2402 25.593 17.1381 25.6192Z" fill="#E6E6E6"/>
<path d="M20.2748 37.6602L13.5204 39.3853C13.4182 39.4113 13.3098 39.396 13.2189 39.3429C13.128 39.2898 13.0621 39.2032 13.0356 39.102L11.4852 33.1473C11.4589 33.0461 11.4743 32.9387 11.5279 32.8487C11.5816 32.7587 11.669 32.6934 11.7712 32.6672L18.5255 30.9421C18.6278 30.9161 18.7362 30.9313 18.8271 30.9844C18.918 31.0375 18.9839 31.1242 19.0103 31.2254L20.5608 37.18C20.587 37.2813 20.5717 37.3887 20.518 37.4787C20.4644 37.5687 20.3769 37.634 20.2748 37.6602Z" fill="#E6E6E6"/>
<path d="M23.4115 49.7002L16.6571 51.4253C16.5549 51.4513 16.4465 51.4361 16.3556 51.383C16.2647 51.3299 16.1988 51.2432 16.1723 51.1421L14.6219 45.1874C14.5957 45.0862 14.611 44.9787 14.6646 44.8887C14.7183 44.7987 14.8058 44.7334 14.9079 44.7072L21.6623 42.9821C21.7645 42.9561 21.8729 42.9714 21.9638 43.0245C22.0547 43.0776 22.1206 43.1642 22.1471 43.2654L23.6975 49.2201C23.7238 49.3213 23.7084 49.4287 23.6548 49.5187C23.6011 49.6087 23.5137 49.674 23.4115 49.7002Z" fill="#E6E6E6"/>
<path d="M67.8053 11.2832H28.8283C27.5068 11.2847 26.2398 11.8053 25.3053 12.7308C24.3709 13.6563 23.8452 14.9111 23.8438 16.22V61.5483C23.8452 62.8572 24.3709 64.112 25.3053 65.0375C26.2398 65.963 27.5068 66.4836 28.8283 66.485H67.8053C69.1269 66.4836 70.3938 65.963 71.3283 65.0375C72.2627 64.112 72.7884 62.8572 72.7899 61.5483V16.22C72.7884 14.9111 72.2627 13.6563 71.3283 12.7308C70.3938 11.8053 69.1269 11.2847 67.8053 11.2832Z" fill="#E6E6E6"/>
<path d="M67.808 12.7041H28.8309C27.8898 12.7051 26.9875 13.0759 26.3221 13.7349C25.6566 14.394 25.2823 15.2876 25.2812 16.2197V61.548C25.2823 62.4801 25.6566 63.3737 26.3221 64.0327C26.9875 64.6918 27.8898 65.0625 28.8309 65.0636H67.808C68.749 65.0625 69.6513 64.6918 70.3167 64.0327C70.9822 63.3737 71.3565 62.4801 71.3575 61.548V16.2197C71.3565 15.2876 70.9822 14.394 70.3167 13.735C69.6513 13.0759 68.749 12.7052 67.808 12.7041Z" fill="white"/>
<path d="M71.8999 72.0002C76.9251 72.0002 80.9989 67.9655 80.9989 62.9884C80.9989 58.0113 76.9251 53.9766 71.8999 53.9766C66.8746 53.9766 62.8008 58.0113 62.8008 62.9884C62.8008 67.9655 66.8746 72.0002 71.8999 72.0002Z" fill="#00A9B8"/>
<path d="M76.2536 61.8129H73.0887V58.6784C73.0887 58.3666 72.9636 58.0677 72.7411 57.8472C72.5185 57.6268 72.2166 57.5029 71.9019 57.5029C71.5871 57.5029 71.2852 57.6268 71.0626 57.8472C70.8401 58.0677 70.715 58.3666 70.715 58.6784V61.8129H67.5501C67.2353 61.8129 66.9335 61.9368 66.7109 62.1572C66.4883 62.3777 66.3633 62.6766 66.3633 62.9884C66.3633 63.3001 66.4883 63.5991 66.7109 63.8196C66.9335 64.04 67.2353 64.1638 67.5501 64.1638H70.715V67.2984C70.715 67.6101 70.8401 67.9091 71.0626 68.1296C71.2852 68.35 71.5871 68.4739 71.9019 68.4739C72.2166 68.4739 72.5185 68.35 72.7411 68.1296C72.9636 67.9091 73.0887 67.6101 73.0887 67.2984V64.1638H76.2536C76.5683 64.1638 76.8702 64.04 77.0928 63.8196C77.3154 63.5991 77.4404 63.3001 77.4404 62.9884C77.4404 62.6766 77.3154 62.3777 77.0928 62.1572C76.8702 61.9368 76.5683 61.8129 76.2536 61.8129Z" fill="white"/>
<path d="M61.9399 37.612H42.2294C42.1203 37.6121 42.0123 37.5909 41.9115 37.5497C41.8107 37.5084 41.7191 37.4479 41.6419 37.3715C41.5647 37.2952 41.5035 37.2045 41.4617 37.1047C41.4199 37.0049 41.3984 36.8979 41.3984 36.7899C41.3984 36.6818 41.4199 36.5749 41.4617 36.4751C41.5035 36.3753 41.5647 36.2846 41.6419 36.2082C41.7191 36.1319 41.8107 36.0713 41.9115 36.0301C42.0123 35.9888 42.1203 35.9677 42.2294 35.9678H61.9399C62.1598 35.968 62.3707 36.0547 62.5262 36.2089C62.6817 36.363 62.769 36.572 62.769 36.7899C62.769 37.0077 62.6817 37.2167 62.5262 37.3709C62.3707 37.525 62.1598 37.6117 61.9399 37.612Z" fill="#E6E6E6"/>
<path d="M65.3639 40.3864H42.2294C42.1203 40.3865 42.0123 40.3653 41.9115 40.3241C41.8107 40.2828 41.7191 40.2223 41.6419 40.1459C41.5647 40.0696 41.5035 39.9789 41.4617 39.8791C41.4199 39.7793 41.3984 39.6723 41.3984 39.5643C41.3984 39.4563 41.4199 39.3493 41.4617 39.2495C41.5035 39.1497 41.5647 39.059 41.6419 38.9826C41.7191 38.9063 41.8107 38.8458 41.9115 38.8045C42.0123 38.7632 42.1203 38.7421 42.2294 38.7422H65.3639C65.584 38.7422 65.7951 38.8288 65.9508 38.983C66.1065 39.1371 66.1939 39.3463 66.1939 39.5643C66.1939 39.7823 66.1065 39.9914 65.9508 40.1456C65.7951 40.2998 65.584 40.3864 65.3639 40.3864Z" fill="#E6E6E6"/>
<path d="M61.9399 50.0465H42.2294C42.1203 50.0467 42.0123 50.0255 41.9115 49.9842C41.8107 49.943 41.7191 49.8824 41.6419 49.8061C41.5647 49.7297 41.5035 49.6391 41.4617 49.5393C41.4199 49.4395 41.3984 49.3325 41.3984 49.2244C41.3984 49.1164 41.4199 49.0094 41.4617 48.9096C41.5035 48.8098 41.5647 48.7192 41.6419 48.6428C41.7191 48.5665 41.8107 48.5059 41.9115 48.4647C42.0123 48.4234 42.1203 48.4022 42.2294 48.4023H61.9399C62.16 48.4023 62.3711 48.489 62.5268 48.6431C62.6825 48.7973 62.7699 49.0064 62.7699 49.2244C62.7699 49.4425 62.6825 49.6516 62.5268 49.8058C62.3711 49.9599 62.16 50.0465 61.9399 50.0465Z" fill="#E6E6E6"/>
<path d="M65.3639 52.821H42.2294C42.1203 52.8211 42.0123 52.7999 41.9115 52.7586C41.8107 52.7174 41.7191 52.6569 41.6419 52.5805C41.5647 52.5041 41.5035 52.4135 41.4617 52.3137C41.4199 52.2139 41.3984 52.1069 41.3984 51.9989C41.3984 51.8908 41.4199 51.7838 41.4617 51.684C41.5035 51.5842 41.5647 51.4936 41.6419 51.4172C41.7191 51.3409 41.8107 51.2803 41.9115 51.2391C42.0123 51.1978 42.1203 51.1766 42.2294 51.1768H65.3639C65.4729 51.1766 65.581 51.1978 65.6818 51.2391C65.7826 51.2803 65.8742 51.3409 65.9514 51.4172C66.0286 51.4936 66.0898 51.5842 66.1316 51.684C66.1733 51.7838 66.1948 51.8908 66.1948 51.9989C66.1948 52.1069 66.1733 52.2139 66.1316 52.3137C66.0898 52.4135 66.0286 52.5041 65.9514 52.5805C65.8742 52.6569 65.7826 52.7174 65.6818 52.7586C65.581 52.7999 65.4729 52.8211 65.3639 52.821Z" fill="#E6E6E6"/>
<path d="M37.8148 41.6459H30.8394C30.7339 41.6458 30.6327 41.6042 30.5581 41.5303C30.4835 41.4564 30.4415 41.3562 30.4414 41.2517V35.1022C30.4415 34.9977 30.4835 34.8975 30.5581 34.8236C30.6327 34.7497 30.7339 34.7081 30.8394 34.708H37.8148C37.9203 34.7081 38.0215 34.7497 38.0961 34.8236C38.1707 34.8975 38.2127 34.9977 38.2128 35.1022V41.2517C38.2127 41.3562 38.1707 41.4564 38.0961 41.5303C38.0215 41.6042 37.9203 41.6458 37.8148 41.6459Z" fill="#E6E6E6"/>
<path d="M37.8148 54.0805H30.8394C30.7339 54.0803 30.6327 54.0388 30.5581 53.9649C30.4835 53.891 30.4415 53.7908 30.4414 53.6863V47.5368C30.4415 47.4323 30.4835 47.3321 30.5581 47.2582C30.6327 47.1843 30.7339 47.1427 30.8394 47.1426H37.8148C37.9203 47.1427 38.0215 47.1843 38.0961 47.2582C38.1707 47.3321 38.2127 47.4323 38.2128 47.5368V53.6863C38.2127 53.7908 38.1707 53.891 38.0961 53.9649C38.0215 54.0388 37.9203 54.0803 37.8148 54.0805Z" fill="#E6E6E6"/>
<path d="M61.9633 23.7702H47.4316C47.2115 23.7702 47.0003 23.6836 46.8447 23.5294C46.689 23.3752 46.6016 23.1661 46.6016 22.9481C46.6016 22.73 46.689 22.5209 46.8447 22.3668C47.0003 22.2126 47.2115 22.126 47.4316 22.126H61.9633C62.1835 22.126 62.3946 22.2126 62.5503 22.3668C62.7059 22.5209 62.7934 22.73 62.7934 22.9481C62.7934 23.1661 62.7059 23.3752 62.5503 23.5294C62.3946 23.6836 62.1835 23.7702 61.9633 23.7702Z" fill="#CCCCCC"/>
<path d="M65.3873 26.5446H47.4316C47.3226 26.5446 47.2147 26.5233 47.114 26.482C47.0133 26.4407 46.9218 26.3801 46.8447 26.3038C46.7676 26.2275 46.7065 26.1368 46.6647 26.0371C46.623 25.9374 46.6016 25.8304 46.6016 25.7225C46.6016 25.6145 46.623 25.5076 46.6647 25.4079C46.7065 25.3081 46.7676 25.2175 46.8447 25.1412C46.9218 25.0648 47.0133 25.0043 47.114 24.963C47.2147 24.9217 47.3226 24.9004 47.4316 24.9004H65.3873C65.6075 24.9004 65.8186 24.987 65.9743 25.1412C66.1299 25.2954 66.2174 25.5045 66.2174 25.7225C66.2174 25.9405 66.1299 26.1496 65.9743 26.3038C65.8186 26.458 65.6075 26.5446 65.3873 26.5446Z" fill="#CCCCCC"/>
<path d="M44.213 29.9074H30.816C30.7105 29.9073 30.6093 29.8657 30.5347 29.7918C30.4601 29.7179 30.4181 29.6177 30.418 29.5132V19.1579C30.4181 19.0534 30.4601 18.9532 30.5347 18.8793C30.6093 18.8054 30.7105 18.7638 30.816 18.7637H44.213C44.3185 18.7638 44.4196 18.8054 44.4943 18.8793C44.5689 18.9532 44.6108 19.0534 44.611 19.1579V29.5132C44.6108 29.6177 44.5689 29.7179 44.4943 29.7918C44.4196 29.8657 44.3185 29.9073 44.213 29.9074Z" fill="#00A9B8"/>
</g>
<defs>
<clipPath id="clip0_1078_7580">
<rect width="81" height="72" fill="white"/>
</clipPath>
</defs>
</svg>
