<svg width="225" height="173" viewBox="0 0 225 173" fill="none" xmlns="http://www.w3.org/2000/svg">
<path d="M50.8739 162.907C50.9504 163.454 50.9806 164.005 50.9642 164.557C47.3048 164.616 43.6314 164.739 39.944 164.926C39.9188 164.782 39.8936 164.635 39.8726 164.486C39.6349 162.946 39.8125 161.372 40.3869 159.924C41.1468 158.073 42.5636 156.748 44.3374 156.492C46.1111 156.236 47.8407 157.109 49.0897 158.667C50.0515 159.896 50.6675 161.36 50.8739 162.907Z" fill="#03727C"/>
<path d="M38.5989 155.691C38.0272 151.714 40.027 148.136 43.0655 147.699C46.1041 147.262 49.0308 150.132 49.6025 154.11C50.1742 158.087 48.1744 161.665 45.1359 162.102C42.0973 162.539 39.1706 159.669 38.5989 155.691Z" fill="#03727C"/>
<path d="M37.3347 146.889C36.763 142.912 38.7628 139.334 41.8014 138.897C44.8399 138.46 47.7667 141.33 48.3384 145.307C48.9101 149.285 46.9103 152.863 43.8717 153.3C40.8331 153.736 37.9064 150.866 37.3347 146.889Z" fill="#03727C"/>
<path d="M36.0701 138.089C35.4983 134.112 37.4981 130.533 40.5367 130.096C43.5753 129.66 46.502 132.53 47.0737 136.507C47.6454 140.484 45.6456 144.063 42.6071 144.499C39.5685 144.936 36.6418 142.066 36.0701 138.089Z" fill="#03727C"/>
<path d="M34.8035 129.287C34.2317 125.309 36.2315 121.731 39.2701 121.294C42.3087 120.857 45.2354 123.728 45.8071 127.705C46.3788 131.682 44.379 135.26 41.3405 135.697C38.3019 136.134 35.3752 133.264 34.8035 129.287Z" fill="#03727C"/>
<path d="M11.0627 71.217C10.1728 70.3666 9.34373 69.4548 8.58155 68.4882L22.6937 64.055L7.0786 66.4164C5.11052 63.3689 3.78476 59.9519 3.18239 56.3745C2.58001 52.797 2.71368 49.1343 3.57522 45.6103L26.111 53.4693L4.72552 42.0293C6.08761 38.6373 8.13359 35.5622 10.736 32.9955C13.3384 30.4288 16.4414 28.4255 19.8518 27.1103C23.2622 25.7952 26.9069 25.1964 30.5588 25.3513C34.2108 25.5062 37.7916 26.4114 41.0784 28.0106C44.3652 29.6098 47.2875 31.8687 49.6632 34.6466C52.0389 37.4244 53.8172 40.6617 54.8872 44.1568C55.9572 47.6519 56.296 51.3299 55.8825 54.9616C55.469 58.5933 54.3121 62.101 52.4839 65.2661C53.8664 66.5872 55.1029 68.0531 56.172 69.6385L38.8105 82.0819L57.8513 72.4933C59.8543 76.4436 60.8407 80.831 60.7212 85.2585C60.6017 89.6859 59.3801 94.0137 57.167 97.8502C60.7828 101.298 63.3556 105.693 64.5912 110.533C65.8268 115.374 65.6753 120.465 64.1541 125.223C62.633 129.982 59.8035 134.216 55.9891 137.442C52.1748 140.669 47.5296 142.757 42.5846 143.467C37.6396 144.178 32.5944 143.483 28.0259 141.461C23.4573 139.44 19.5498 136.174 16.7501 132.036C13.9504 127.898 12.3715 123.056 12.1938 118.064C12.0162 113.071 13.2471 108.129 15.7457 103.803C11.4245 99.6833 8.61348 94.2305 7.76417 88.3207C6.91486 82.4109 8.07655 76.3872 11.0627 71.217V71.217Z" fill="#9AF2CD"/>
<path opacity="0.1" d="M60.4649 80.7468C61.3232 86.6566 60.1612 92.6831 57.1672 97.8502C60.783 101.298 63.3558 105.693 64.5914 110.533C65.827 115.374 65.6756 120.464 64.1544 125.223C62.6332 129.982 59.8037 134.216 55.9894 137.442C52.175 140.669 47.5298 142.757 42.5848 143.467C37.6398 144.178 32.5946 143.483 28.0261 141.461C23.4576 139.44 19.5501 136.173 16.7504 132.036C13.9506 127.898 12.3717 123.056 12.1941 118.064C12.0165 113.071 13.2473 108.129 15.746 103.803C11.5688 99.8254 60.0388 77.7892 60.4649 80.7468Z" fill="#A7A7A7"/>
<path d="M148.356 162.907C148.28 163.454 148.25 164.005 148.266 164.557C151.925 164.616 155.599 164.739 159.286 164.926C159.311 164.782 159.337 164.635 159.358 164.486C159.595 162.946 159.418 161.372 158.843 159.924C158.083 158.073 156.667 156.748 154.893 156.492C153.119 156.236 151.389 157.109 150.141 158.667C149.179 159.896 148.563 161.36 148.356 162.907Z" fill="#03727C"/>
<path d="M160.631 155.691C161.203 151.714 159.203 148.136 156.165 147.699C153.126 147.262 150.199 150.132 149.628 154.11C149.056 158.087 151.056 161.665 154.094 162.102C157.133 162.539 160.06 159.669 160.631 155.691Z" fill="#03727C"/>
<path d="M161.896 146.889C162.467 142.912 160.467 139.334 157.429 138.897C154.39 138.46 151.464 141.33 150.892 145.307C150.32 149.285 152.32 152.863 155.359 153.3C158.397 153.736 161.324 150.866 161.896 146.889Z" fill="#03727C"/>
<path d="M163.16 138.089C163.732 134.112 161.732 130.533 158.694 130.096C155.655 129.66 152.728 132.53 152.157 136.507C151.585 140.484 153.585 144.063 156.623 144.499C159.662 144.936 162.588 142.066 163.16 138.089Z" fill="#03727C"/>
<path d="M164.427 129.287C164.998 125.309 162.999 121.731 159.96 121.294C156.922 120.857 153.995 123.728 153.423 127.705C152.851 131.682 154.851 135.26 157.89 135.697C160.928 136.134 163.855 133.264 164.427 129.287Z" fill="#03727C"/>
<path d="M188.168 71.217C189.057 70.3666 189.886 69.4548 190.649 68.4882L176.537 64.055L192.152 66.4164C194.12 63.3689 195.445 59.9519 196.048 56.3745C196.65 52.797 196.517 49.1343 195.655 45.6103L173.119 53.4693L194.505 42.0293C193.143 38.6373 191.097 35.5622 188.494 32.9955C185.892 30.4288 182.789 28.4255 179.378 27.1103C175.968 25.7952 172.323 25.1964 168.671 25.3513C165.019 25.5062 161.439 26.4114 158.152 28.0106C154.865 29.6098 151.943 31.8687 149.567 34.6466C147.191 37.4244 145.413 40.6617 144.343 44.1568C143.273 47.6519 142.934 51.3299 143.348 54.9616C143.761 58.5933 144.918 62.101 146.746 65.2661C145.364 66.5872 144.127 68.0531 143.058 69.6385L160.42 82.0819L141.379 72.4933C139.376 76.4436 138.39 80.831 138.509 85.2585C138.628 89.6859 139.85 94.0137 142.063 97.8502C138.447 101.298 135.875 105.693 134.639 110.533C133.403 115.374 133.555 120.465 135.076 125.223C136.597 129.982 139.427 134.216 143.241 137.442C147.055 140.669 151.701 142.757 156.646 143.467C161.591 144.178 166.636 143.483 171.204 141.461C175.773 139.44 179.68 136.174 182.48 132.036C185.28 127.898 186.859 123.056 187.036 118.064C187.214 113.071 185.983 108.129 183.485 103.803C187.806 99.6833 190.617 94.2305 191.466 88.3207C192.315 82.4109 191.154 76.3872 188.168 71.217V71.217Z" fill="#9AF2CD"/>
<path opacity="0.1" d="M138.765 80.7468C137.907 86.6566 139.069 92.6831 142.063 97.8502C138.447 101.298 135.874 105.693 134.639 110.533C133.403 115.374 133.555 120.464 135.076 125.223C136.597 129.982 139.427 134.216 143.241 137.442C147.055 140.669 151.7 142.757 156.645 143.467C161.59 144.178 166.636 143.483 171.204 141.461C175.773 139.44 179.68 136.173 182.48 132.036C185.28 127.898 186.859 123.056 187.036 118.064C187.214 113.071 185.983 108.129 183.484 103.803C187.661 99.8254 139.191 77.7892 138.765 80.7468Z" fill="#E5E5E5"/>
<path d="M93.2212 172.899C144.706 172.899 186.442 170.127 186.442 166.707C186.442 163.287 144.706 160.515 93.2212 160.515C41.7366 160.515 0 163.287 0 166.707C0 170.127 41.7366 172.899 93.2212 172.899Z" fill="#C6EAF1"/>
<path d="M146.835 116.611C146.655 115.087 146.211 113.605 145.524 112.233C145.104 111.397 144.593 110.597 144.329 109.702C144.115 108.975 144.073 108.209 143.902 107.47C143.731 106.731 143.429 106.025 143.186 105.303C141.466 100.174 142.758 94.5626 142.204 89.1867C141.996 87.2035 141.389 85.0284 139.669 83.995C138.647 83.3814 137.42 83.2865 136.218 83.2352L135.669 83.2105L134.787 83.1668C133.511 83.1041 132.231 83.0566 130.988 83.3245C129.469 83.6569 127.668 84.7264 127.189 86.2783C126.927 86.1435 126.663 86.0238 126.42 85.9117C125.441 85.4776 124.415 85.1589 123.363 84.9619C124.266 84.7346 125.137 84.3977 125.958 83.9589C127.858 82.8533 128.298 79.624 128.686 77.4641C129.073 75.3043 128.72 73.0722 128.076 70.9732C127.863 70.2283 127.574 69.5077 127.212 68.8228C126.712 67.9207 126.031 67.1315 125.212 66.5043C124.394 65.8772 123.454 65.4256 122.453 65.1778C121.452 64.93 120.41 64.8913 119.394 65.0642C118.377 65.237 117.407 65.6177 116.544 66.1823C114.771 67.343 113.124 69.0318 111.772 70.6635C111.582 70.8877 110.788 71.6817 111.052 72.0161C111.2 72.206 111.688 72.054 112.201 71.8261C111.806 72.7175 111.603 73.6817 111.605 74.6565C111.606 75.8809 111.926 77.0839 112.533 78.1471C113.14 79.2102 114.014 80.097 115.068 80.7201L115.258 82.4677V82.481C115.278 83.0642 115.288 83.6474 115.296 84.2287C115.296 84.6371 115.296 85.055 115.284 85.4729C114.496 86.3648 113.531 87.0829 112.45 87.5815C113.343 87.7297 114.194 87.5207 115.022 87.1636C114.887 87.6302 114.661 88.0654 114.357 88.4439C114.585 88.3641 114.813 88.2919 115.041 88.216C114.922 88.4074 114.816 88.6066 114.724 88.8124C114.583 89.1377 114.481 89.4781 114.418 89.8268C113.934 90.5336 113.515 91.2825 113.166 92.0646V92.0646C113.006 92.4198 112.864 92.7807 112.735 93.1474V93.172C112.608 93.5368 112.496 93.9066 112.399 94.2814C112.353 94.4612 112.311 94.6417 112.273 94.8228C112.273 94.8361 112.273 94.8494 112.273 94.8627C112.197 95.2293 112.135 95.5979 112.083 95.9702C112.083 95.9949 112.083 96.0196 112.083 96.0462C112.062 96.219 112.043 96.3938 112.03 96.5686C112.03 96.5686 112.03 96.5856 112.03 96.5951C112.015 96.7851 112.004 96.9656 111.998 97.1517C111.998 97.1764 111.998 97.1992 111.998 97.2239C111.998 97.3816 111.998 97.5412 111.998 97.6988V97.8071C111.998 98.1642 112.021 98.5233 112.055 98.8823C112.055 98.926 112.055 98.9716 112.068 99.0153C112.083 99.1615 112.1 99.3078 112.121 99.456C112.121 99.4902 112.121 99.5243 112.135 99.5566C112.159 99.7333 112.188 99.9081 112.22 100.083C112.22 100.121 112.237 100.161 112.245 100.199C112.271 100.339 112.3 100.478 112.332 100.619L112.366 100.763C112.408 100.938 112.452 101.111 112.501 101.285C112.53 101.384 112.558 101.475 112.589 101.58C112.679 101.94 112.743 102.306 112.779 102.676L111.739 102.71C109.516 102.773 107.294 102.874 105.074 103.012C104.796 101.943 103.85 101.325 102.659 101.179C102.47 101.156 102.28 101.145 102.089 101.145V101.145C102.295 100.972 102.477 100.773 102.633 100.554C102.839 100.27 102.987 99.9466 103.066 99.6041C102.76 99.7784 102.492 100.013 102.279 100.294C102.209 100.389 102.146 100.484 102.089 100.571V100.001C102.09 99.9891 102.087 99.9771 102.083 99.966C102.079 99.9548 102.072 99.9446 102.063 99.9361C102.055 99.9276 102.045 99.9209 102.033 99.9164C102.022 99.9119 102.01 99.9097 101.998 99.91H101.808C101.796 99.9097 101.784 99.9119 101.773 99.9164C101.762 99.9209 101.752 99.9276 101.743 99.9361C101.735 99.9446 101.728 99.9548 101.724 99.966C101.719 99.9771 101.717 99.9891 101.717 100.001V101.162H101.679H101.615C101.489 101.173 101.368 101.188 101.248 101.211C99.9543 101.452 99.0063 102.283 99.0063 103.681C99.0067 104.121 99.1027 104.556 99.2877 104.955C99.4727 105.355 99.7422 105.709 100.078 105.994C100.133 106.43 100.232 106.859 100.372 107.275C100.503 107.687 100.674 108.135 101.058 108.34C101.292 108.447 101.549 108.494 101.806 108.477C103.919 108.477 105.917 107.503 108.02 107.337C109.319 107.233 110.624 107.434 111.928 107.394C112.117 107.394 112.307 107.375 112.497 107.36C110.716 116.184 108.559 125.12 109.686 134.033C109.76 134.625 109.876 135.267 110.319 135.67C110.906 136.206 111.81 136.118 112.598 136.05C114.761 135.853 116.943 136.027 119.047 136.565C119.343 136.647 119.654 136.658 119.955 136.597C120.02 136.583 120.083 136.564 120.145 136.542L120.198 136.521C120.238 136.506 120.276 136.491 120.312 136.474L120.367 136.445L120.461 136.388C120.476 136.377 120.493 136.367 120.506 136.356C120.539 136.333 120.57 136.308 120.599 136.28L120.626 136.257C120.661 136.222 120.695 136.186 120.727 136.147L120.749 136.113C120.771 136.084 120.792 136.054 120.81 136.024C120.82 136.008 120.829 135.993 120.837 135.978C120.844 135.963 120.867 135.921 120.88 135.892C120.894 135.864 120.896 135.858 120.901 135.841C120.907 135.824 120.926 135.778 120.937 135.746C120.949 135.714 120.937 135.716 120.953 135.699C120.968 135.682 120.979 135.604 120.989 135.556V135.526C120.989 135.486 121.004 135.444 121.01 135.404C121.015 135.364 121.01 135.362 121.01 135.342C121.01 135.321 121.01 135.279 121.01 135.248V135.18C121.01 135.15 121.01 135.119 121.01 135.089V134.92C121.01 134.901 121.01 134.88 121.01 134.859C121.01 134.69 120.991 134.519 120.973 134.356C121.109 134.395 121.248 134.425 121.388 134.445V134.445C121.518 134.466 121.65 134.475 121.783 134.473H121.802C121.864 134.473 121.927 134.473 121.992 134.458C122.047 134.45 122.101 134.438 122.155 134.424H122.18C122.229 134.409 122.278 134.39 122.324 134.367L122.347 134.354C122.386 134.332 122.424 134.306 122.459 134.278L122.476 134.264C122.512 134.231 122.544 134.194 122.571 134.154L122.588 134.126C122.616 134.08 122.639 134.031 122.655 133.98C122.763 133.613 122.516 133.199 122.911 132.863C123.291 134.08 123.671 135.3 123.734 136.559C123.755 137.019 123.734 137.509 124.003 137.889C124.179 138.096 124.369 138.291 124.573 138.47C125.155 139.099 125.168 140.047 125.128 140.898C125.111 141.242 125.092 141.586 125.067 141.929C124.753 146.518 123.82 151.042 122.294 155.381C122.145 155.842 121.95 156.288 121.712 156.71C121.327 157.309 120.845 157.839 120.286 158.279C119.494 158.952 118.645 159.555 117.75 160.082C117.292 160.324 116.86 160.611 116.46 160.939C116.445 160.895 116.428 160.853 116.416 160.808C116.395 160.72 116.367 160.618 116.281 160.586C116.217 160.571 116.149 160.582 116.091 160.616C115.201 161.007 114.31 161.399 113.453 161.856C113.02 162.053 112.639 162.348 112.34 162.717C112.066 163.097 111.985 163.667 112.268 164.047C112.516 164.379 112.963 164.489 113.375 164.563C113.903 164.656 114.433 164.723 114.963 164.772C114.691 164.932 114.453 165.144 114.262 165.395C113.989 165.775 113.907 166.345 114.19 166.725C114.439 167.057 114.885 167.168 115.297 167.242C118.665 167.836 122.119 167.432 125.538 167.331C126.65 167.295 127.785 167.287 128.838 166.926C129.045 166.865 129.239 166.764 129.408 166.628C129.886 166.206 129.839 165.466 129.755 164.837L129.408 162.269C129.356 162.269 129.307 162.286 129.258 162.297C129.549 159.884 130.071 157.505 130.817 155.193C131.976 151.593 133.701 148.046 133.678 144.279C133.678 144.188 133.678 144.089 133.678 144.006C133.646 142.826 133.435 141.66 133.298 140.486C133.084 138.522 133.108 136.54 133.121 134.567C133.105 133.793 133.159 133.019 133.283 132.255C133.283 132.228 133.294 132.203 133.3 132.177L136.455 132.093C136.805 132.111 137.154 132.046 137.474 131.903C137.625 131.837 137.746 131.717 137.814 131.566C137.882 131.416 137.892 131.246 137.842 131.088C139.187 131.698 140.986 130.868 141.383 129.455C141.41 129.355 141.433 129.254 141.449 129.153C141.448 129.145 141.448 129.137 141.449 129.13C141.463 129.035 141.472 128.94 141.476 128.847C141.476 128.832 141.476 128.814 141.476 128.799C141.496 128.147 141.395 127.496 141.178 126.881C140.532 125.051 139.506 123.385 138.541 121.7C138.043 120.829 137.561 119.945 137.092 119.058L137.504 119.588C137.649 119.804 137.838 119.986 138.06 120.122C138.83 120.519 139.635 119.719 140.418 119.351C141.457 118.861 142.673 119.149 143.82 119.231C144.967 119.313 146.35 119.016 146.761 117.952C146.894 117.518 146.919 117.058 146.835 116.611V116.611ZM127.054 88.0621C127.054 88.4686 127.081 88.8808 127.113 89.2949C126.727 88.6648 126.282 88.0732 125.783 87.5283L127.054 88.0621Z" fill="url(#paint0_linear_221_2478)"/>
<path d="M102.236 100.636C102.446 100.357 102.71 100.124 103.013 99.95C102.935 100.292 102.79 100.615 102.585 100.9C102.255 101.35 101.907 101.66 101.81 101.586C101.713 101.511 101.901 101.086 102.236 100.636Z" fill="#2BAC17"/>
<path opacity="0.1" d="M133.333 111.511C133.487 111.304 133.681 111.13 133.903 111C133.845 111.253 133.738 111.492 133.586 111.703C133.339 112.037 133.081 112.273 133.016 112.214C132.951 112.155 133.086 111.845 133.333 111.511Z" fill="#3CCE41"/>
<path d="M101.774 100.258H101.964C101.976 100.258 101.988 100.26 101.999 100.265C102.01 100.269 102.02 100.276 102.029 100.284C102.037 100.293 102.044 100.303 102.048 100.314C102.053 100.325 102.055 100.337 102.055 100.349V102.501H101.694V100.349C101.694 100.326 101.702 100.305 101.717 100.288C101.732 100.271 101.752 100.26 101.774 100.258V100.258Z" fill="#602301"/>
<path d="M105.085 104.021C105.085 104.827 104.765 105.6 104.195 106.17C103.625 106.74 102.852 107.06 102.046 107.06C101.24 107.06 100.467 106.74 99.8966 106.17C99.3266 105.6 99.0063 104.827 99.0063 104.021C99.0063 102.628 99.9429 101.804 101.221 101.563C101.493 101.513 101.769 101.488 102.046 101.489C102.236 101.488 102.427 101.5 102.616 101.523C104.021 101.698 105.085 102.537 105.085 104.021Z" fill="#F73B3B"/>
<path opacity="0.1" d="M102.616 101.523C102.561 101.627 102.262 101.713 101.902 101.713C101.666 101.73 101.43 101.681 101.221 101.57C101.493 101.52 101.769 101.495 102.046 101.496C102.236 101.493 102.427 101.502 102.616 101.523Z" fill="black"/>
<path opacity="0.1" d="M102.553 106.988C101.747 106.988 100.974 106.668 100.404 106.098C99.8338 105.528 99.5135 104.755 99.5135 103.949C99.5135 102.581 100.416 101.762 101.658 101.506C101.512 101.517 101.366 101.536 101.221 101.563C99.9429 101.804 99.0063 102.628 99.0063 104.021C99.0063 104.827 99.3266 105.6 99.8966 106.17C100.467 106.74 101.24 107.06 102.046 107.06C102.275 107.061 102.504 107.034 102.728 106.982C102.669 106.986 102.616 106.988 102.553 106.988Z" fill="black"/>
<path d="M115.951 163.235C116.371 163.614 117.013 163.605 117.583 163.563L120.18 163.373C122.242 163.221 124.376 163.05 126.196 162.068C126.388 161.98 126.559 161.85 126.695 161.688C126.84 161.44 126.915 161.157 126.914 160.87C127.159 158.056 127.719 155.279 128.581 152.589C129.721 149.008 131.431 145.479 131.408 141.731C131.408 141.64 131.408 141.541 131.408 141.459C131.376 140.285 131.169 139.125 131.041 137.956C130.831 136.002 130.852 134.032 130.867 132.068C130.85 131.298 130.904 130.528 131.026 129.767C131.146 129.15 131.596 128.531 131.321 127.987C130.787 126.933 128.851 126.545 127.81 126.507C126.408 126.458 125.029 126.825 123.675 127.189C123.263 127.301 122.831 127.421 122.52 127.712C122.102 128.103 121.982 128.717 121.967 129.288C121.895 131.824 123.356 134.184 123.472 136.716C123.492 137.172 123.472 137.666 123.737 138.046C123.913 138.253 124.103 138.446 124.307 138.625C124.877 139.25 124.894 140.192 124.854 141.039C124.837 141.381 124.818 141.723 124.796 142.065C124.485 146.629 123.563 151.13 122.054 155.448C121.909 155.909 121.718 156.354 121.485 156.778C121.103 157.372 120.627 157.899 120.075 158.339C119.293 159.007 118.454 159.607 117.569 160.132C116.979 160.482 116.348 160.816 115.943 161.371C115.539 161.926 115.449 162.767 115.951 163.235Z" fill="#EBD1C3"/>
<path opacity="0.1" d="M115.951 163.235C116.371 163.614 117.013 163.605 117.583 163.563L120.18 163.373C122.242 163.221 124.376 163.05 126.196 162.068C126.388 161.98 126.559 161.85 126.695 161.688C126.84 161.44 126.915 161.157 126.914 160.87C127.159 158.056 127.719 155.279 128.581 152.589C129.721 149.008 131.431 145.479 131.408 141.731C131.408 141.64 131.408 141.541 131.408 141.459C131.376 140.285 131.169 139.125 131.041 137.956C130.831 136.002 130.852 134.032 130.867 132.068C130.85 131.298 130.904 130.528 131.026 129.767C131.146 129.15 131.596 128.531 131.321 127.987C130.787 126.933 128.851 126.545 127.81 126.507C126.408 126.458 125.029 126.825 123.675 127.189C123.263 127.301 122.831 127.421 122.52 127.712C122.102 128.103 121.982 128.717 121.967 129.288C121.895 131.824 123.356 134.184 123.472 136.716C123.492 137.172 123.472 137.666 123.737 138.046C123.913 138.253 124.103 138.446 124.307 138.625C124.877 139.25 124.894 140.192 124.854 141.039C124.837 141.381 124.818 141.723 124.796 142.065C124.485 146.629 123.563 151.13 122.054 155.448C121.909 155.909 121.718 156.354 121.485 156.778C121.103 157.372 120.627 157.899 120.075 158.339C119.293 159.007 118.454 159.607 117.569 160.132C116.979 160.482 116.348 160.816 115.943 161.371C115.539 161.926 115.449 162.767 115.951 163.235Z" fill="#E3C7B6"/>
<path d="M115.951 163.235C116.371 163.614 117.013 163.605 117.583 163.563L120.18 163.373C122.242 163.221 124.376 163.05 126.196 162.068C126.388 161.98 126.559 161.85 126.695 161.688C126.84 161.44 126.915 161.157 126.914 160.87C127.159 158.056 127.719 155.279 128.581 152.589C129.721 149.008 131.431 145.479 131.408 141.731C129.213 141.974 127.004 142.083 124.796 142.058C124.485 146.621 123.563 151.122 122.054 155.44C121.909 155.901 121.718 156.347 121.485 156.77C121.103 157.364 120.627 157.892 120.075 158.332C119.293 159 118.454 159.6 117.569 160.125C116.979 160.474 116.348 160.809 115.943 161.363C115.539 161.918 115.449 162.767 115.951 163.235Z" fill="#EEEFF3"/>
<path opacity="0.1" d="M115.951 163.235C116.371 163.614 117.013 163.605 117.583 163.563L120.18 163.373C122.242 163.221 124.376 163.05 126.196 162.068C126.388 161.98 126.559 161.85 126.695 161.688C126.84 161.44 126.915 161.157 126.914 160.87C127.159 158.056 127.719 155.279 128.581 152.589C129.721 149.008 131.431 145.479 131.408 141.731C129.213 141.974 127.004 142.083 124.796 142.058C124.485 146.621 123.563 151.122 122.054 155.44C121.909 155.901 121.718 156.347 121.485 156.77C121.103 157.364 120.627 157.892 120.075 158.332C119.293 159 118.454 159.6 117.569 160.125C116.979 160.474 116.348 160.809 115.943 161.363C115.539 161.918 115.449 162.767 115.951 163.235Z" fill="#5A5A5A"/>
<path d="M121.688 162.433C122.312 162.209 122.911 161.923 123.477 161.578L126.34 159.963C126.599 159.796 126.887 159.679 127.189 159.62L127.531 162.175C127.617 162.801 127.662 163.539 127.189 163.958C127.02 164.093 126.827 164.194 126.619 164.255C125.58 164.614 124.459 164.621 123.359 164.656C119.982 164.764 116.57 165.159 113.242 164.566C112.836 164.494 112.395 164.376 112.15 164.053C111.871 163.673 111.95 163.123 112.22 162.737C112.516 162.37 112.892 162.077 113.32 161.88C114.167 161.424 115.047 161.037 115.926 160.647C115.981 160.615 116.045 160.604 116.107 160.617C116.192 160.645 116.219 160.75 116.242 160.837C116.395 161.46 116.897 161.952 117.469 162.247C117.476 162.247 120.423 162.836 121.688 162.433Z" fill="black"/>
<path opacity="0.1" d="M121.688 162.433C122.312 162.209 122.911 161.923 123.477 161.578L126.34 159.963C126.599 159.796 126.887 159.679 127.189 159.62L127.531 162.175C127.617 162.801 127.662 163.539 127.189 163.958C127.02 164.093 126.827 164.194 126.619 164.255C125.58 164.614 124.459 164.621 123.359 164.656C119.982 164.764 116.57 165.159 113.242 164.566C112.836 164.494 112.395 164.376 112.15 164.053C111.871 163.673 111.95 163.123 112.22 162.737C112.516 162.37 112.892 162.077 113.32 161.88C114.167 161.424 115.047 161.037 115.926 160.647C115.981 160.615 116.045 160.604 116.107 160.617C116.192 160.645 116.219 160.75 116.242 160.837C116.395 161.46 116.897 161.952 117.469 162.247C117.476 162.247 120.423 162.836 121.688 162.433Z" fill="black"/>
<path d="M117.851 165.894C118.27 166.274 118.913 166.265 119.482 166.223L122.079 166.033C124.142 165.881 126.275 165.71 128.095 164.728C128.288 164.64 128.458 164.51 128.595 164.348C128.74 164.099 128.815 163.817 128.813 163.529C129.059 160.715 129.619 157.938 130.481 155.249C131.621 151.668 133.331 148.138 133.308 144.39C133.308 144.299 133.308 144.2 133.308 144.119C133.275 142.945 133.068 141.784 132.941 140.616C132.73 138.661 132.751 136.691 132.766 134.727C132.75 133.957 132.804 133.187 132.926 132.427C133.046 131.809 133.496 131.19 133.22 130.647C132.687 129.592 130.751 129.205 129.71 129.167C128.308 129.118 126.929 129.484 125.574 129.849C125.162 129.961 124.731 130.081 124.419 130.371C124.002 130.763 123.882 131.376 123.867 131.948C123.795 134.484 125.255 136.843 125.371 139.375C125.392 139.831 125.371 140.325 125.637 140.705C125.813 140.912 126.003 141.106 126.207 141.285C126.777 141.91 126.794 142.852 126.754 143.699C126.737 144.041 126.718 144.383 126.695 144.725C126.385 149.288 125.463 153.79 123.954 158.108C123.809 158.569 123.618 159.014 123.384 159.437C123.003 160.031 122.527 160.559 121.975 160.999C121.192 161.667 120.354 162.267 119.469 162.792C118.878 163.142 118.248 163.476 117.843 164.031C117.438 164.585 117.349 165.427 117.851 165.894Z" fill="#FFDECB"/>
<path d="M117.851 165.894C118.27 166.274 118.913 166.265 119.482 166.223L122.079 166.033C124.142 165.881 126.275 165.71 128.095 164.728C128.288 164.64 128.458 164.51 128.595 164.348C128.74 164.099 128.815 163.817 128.813 163.529C129.059 160.715 129.619 157.938 130.481 155.249C131.621 151.668 133.331 148.138 133.308 144.391C131.112 144.633 128.904 144.742 126.695 144.717C126.385 149.281 125.463 153.782 123.954 158.1C123.809 158.561 123.618 159.006 123.384 159.43C123.003 160.024 122.527 160.551 121.975 160.991C121.192 161.659 120.354 162.259 119.469 162.784C118.878 163.134 118.248 163.468 117.843 164.023C117.438 164.578 117.349 165.427 117.851 165.894Z" fill="#EEEFF3"/>
<path d="M123.587 165.092C124.211 164.869 124.811 164.582 125.377 164.238L128.24 162.623C128.498 162.455 128.786 162.339 129.089 162.279L129.431 164.834C129.516 165.461 129.562 166.198 129.089 166.618C128.92 166.753 128.726 166.853 128.519 166.914C127.48 167.273 126.359 167.281 125.259 167.315C121.882 167.423 118.47 167.818 115.142 167.226C114.735 167.154 114.295 167.036 114.05 166.713C113.77 166.333 113.85 165.782 114.12 165.396C114.415 165.03 114.792 164.737 115.22 164.54C116.067 164.084 116.946 163.696 117.826 163.307C117.88 163.275 117.945 163.264 118.006 163.276C118.092 163.305 118.118 163.409 118.141 163.497C118.295 164.12 118.797 164.612 119.368 164.906C119.376 164.906 122.322 165.495 123.587 165.092Z" fill="black"/>
<path d="M114.167 88.8381C115.092 87.6984 115.117 86.1065 115.094 84.6438C115.094 84.0739 115.077 83.485 115.056 82.9056V82.8923C115.031 81.8275 114.918 80.7665 114.72 79.72V79.72C114.62 79.2178 114.487 78.7228 114.321 78.2383C114.446 78.2098 114.572 78.1832 114.701 78.1604C116.692 77.7672 118.741 77.7672 120.732 78.1604C121.076 78.2288 121.946 78.2136 122.442 78.3827C122.583 78.4164 122.706 78.5026 122.786 78.6239C122.883 78.8272 122.683 79.416 122.539 79.9384C122.459 80.1739 122.415 80.4196 122.406 80.6679C122.425 80.9012 122.461 81.1329 122.512 81.3612C122.602 81.7811 122.719 82.1971 122.774 82.6226C122.871 83.3482 122.786 84.0872 122.833 84.8185C122.881 85.5499 123.092 86.3192 123.648 86.796C120.414 87.0733 117.229 87.7595 114.167 88.8381V88.8381Z" fill="#FFDECB"/>
<path opacity="0.1" d="M123.27 81.2777C123.017 81.2986 122.767 81.3233 122.51 81.3518C119.98 81.6219 117.483 82.1437 115.056 82.9095V82.8962L114.72 79.7238C114.72 79.5339 114.72 79.3439 114.72 79.1444C114.72 78.8196 114.71 78.491 114.703 78.1642C116.694 77.771 118.743 77.771 120.734 78.1642C121.078 78.2326 121.948 78.2174 122.444 78.3865C122.444 78.6961 122.444 79.0058 122.455 79.3154C122.468 79.5262 122.496 79.7358 122.541 79.9423V79.9423C122.632 80.4551 122.888 80.9241 123.27 81.2777V81.2777Z" fill="#EB8246"/>
<path d="M118.478 82.1496C122.359 82.1496 125.506 79.0028 125.506 75.121C125.506 71.2393 122.359 68.0925 118.478 68.0925C114.596 68.0925 111.449 71.2393 111.449 75.121C111.449 79.0028 114.596 82.1496 118.478 82.1496Z" fill="#FFDECB"/>
<path d="M112.304 101.623C111.056 97.2059 112.195 92.4626 115.176 88.9749C115.839 88.198 116.506 87.4001 117.376 86.9347C118.411 86.3838 119.636 86.3649 120.808 86.3535C121.844 86.3535 122.911 86.3535 123.863 86.7657C125.149 87.3147 126.036 88.5076 126.785 89.6911C127.582 90.9524 128.304 92.3182 128.426 93.8075C128.49 94.6909 128.335 95.5875 128.466 96.467C128.633 97.5821 129.254 98.5813 129.509 99.6792C129.647 100.272 129.676 100.885 129.765 101.49C129.9 102.316 130.095 103.131 130.35 103.929C132.238 110.196 134.822 116.231 138.055 121.922C139.005 123.599 140.021 125.258 140.659 127.075C140.948 127.898 141.157 128.785 140.921 129.632C140.528 131.038 138.752 131.864 137.424 131.258C137.473 131.415 137.463 131.583 137.396 131.733C137.329 131.882 137.209 132.001 137.06 132.068C136.744 132.21 136.399 132.275 136.053 132.258L124.321 132.569C124.013 132.577 123.706 132.618 123.407 132.693C122.028 133.046 122.546 133.642 122.398 134.14C122.218 134.748 121.346 134.699 120.738 134.52C120.831 135.407 120.852 136.492 119.707 136.75C119.409 136.81 119.102 136.8 118.81 136.72C116.731 136.184 114.576 136.011 112.439 136.207C111.656 136.279 110.761 136.366 110.182 135.827C109.745 135.426 109.631 134.788 109.557 134.199C108.389 124.891 110.792 115.569 112.596 106.373C112.839 105.133 112.752 103.123 112.387 101.911L112.304 101.623Z" fill="#FFBB0C"/>
<path d="M127.88 95.2076C128.156 96.0016 128.5 96.7823 128.593 97.6182C128.667 98.2868 128.577 98.9631 128.617 99.6337C128.69 100.378 128.844 101.113 129.075 101.824C129.441 103.207 129.892 104.567 130.426 105.895C130.68 106.493 130.975 107.152 130.77 107.77C130.564 108.387 129.928 108.769 129.746 109.382C129.556 110.03 129.936 110.712 130.42 111.185C130.904 111.658 131.51 111.994 131.959 112.498C132.447 113.047 132.719 113.748 133.062 114.397C133.551 115.257 134.111 116.073 134.736 116.838L137.033 119.819C137.176 120.034 137.364 120.215 137.584 120.351C138.343 120.746 139.139 119.95 139.912 119.591C140.938 119.103 142.139 119.39 143.273 119.471C144.407 119.553 145.773 119.259 146.177 118.199C146.311 117.768 146.339 117.312 146.259 116.869C146.081 115.353 145.643 113.88 144.964 112.513C144.549 111.681 144.044 110.885 143.784 109.994C143.571 109.27 143.529 108.509 143.36 107.774C143.191 107.038 142.893 106.335 142.654 105.617C140.955 100.515 142.232 94.9321 141.683 89.5828C141.48 87.6091 140.877 85.4455 139.179 84.4178C138.17 83.808 136.959 83.713 135.76 83.6579L135.218 83.6332L134.347 83.5895C133.085 83.5268 131.82 83.4794 130.591 83.7472C128.862 84.1271 126.782 85.4701 126.714 87.4002C126.64 90.051 127.034 92.6942 127.88 95.2076Z" fill="#0C9CAF"/>
<path opacity="0.1" d="M134.356 83.582C134.59 84.8746 134.706 86.1855 134.704 87.499C134.738 91.2488 135.143 94.9834 135.549 98.7067L135.817 101.176C135.867 101.632 135.926 102.111 136.197 102.477C136.469 102.844 137.039 103.036 137.398 102.753C137.618 101.881 137.574 100.965 137.531 100.067C137.436 98.1558 137.341 96.2442 137.248 94.3319C137.156 92.4703 137.058 90.6067 136.832 88.7565C136.654 87.3234 136.393 85.9019 136.049 84.4995C135.984 84.2089 135.893 83.9248 135.777 83.6504L135.236 83.6257L134.356 83.582Z" fill="black"/>
<path d="M121.944 85.189C120.78 85.0218 119.56 84.9363 118.455 85.3409C117.399 85.7304 116.555 86.5301 115.795 87.3716C115.277 87.9139 114.849 88.5353 114.526 89.2124C113.879 90.7017 114.131 92.4189 114.526 93.9956C115.603 98.3381 117.742 102.527 121.175 105.393C122.22 106.242 123.332 107.005 124.501 107.673C126.021 108.564 127.59 109.382 129.271 109.897C129.74 110.042 130.24 110.163 130.721 110.061C131.201 109.958 131.655 109.569 131.67 109.077C128.916 107.528 126.446 105.528 123.994 103.537C123.322 103.019 122.692 102.447 122.111 101.828C121.241 100.849 120.628 99.6678 119.784 98.6667C119.025 97.7682 118.075 97.0103 117.505 95.9826C117.147 95.2807 116.908 94.5246 116.796 93.7448C116.515 92.1549 116.462 90.4661 117.093 88.9787C117.723 87.4913 119.169 86.2699 120.784 86.2964C121.612 86.3097 122.4 86.6384 123.164 86.9594L127.97 88.9882C127.911 88.9616 128.245 88.1277 128.23 88.0118C128.185 87.649 128.12 87.6433 127.85 87.3678C127.39 86.9081 126.676 86.5852 126.093 86.3173C124.771 85.7444 123.374 85.3644 121.944 85.189V85.189Z" fill="#0C9CAF"/>
<path d="M112.378 73.7913C113.749 73.4866 115.018 72.8322 116.061 71.8916L115.056 77.165C116.057 76.7055 117.028 76.1826 117.963 75.5997C118.098 78.0122 117.902 80.4798 117.013 82.7251C116.124 84.9705 114.484 86.9803 112.285 87.9776C114.238 88.3043 115.991 86.9024 117.729 85.9545C118.941 85.2953 121.012 85.9735 122.337 85.5745C123.462 85.244 124.617 84.9553 125.631 84.3645C127.516 83.2646 127.943 80.0524 128.325 77.9058C128.707 75.7593 128.359 73.5367 127.725 71.4471C127.514 70.7071 127.228 69.9904 126.872 69.3082C126.382 68.4122 125.713 67.6275 124.905 67.0036C124.097 66.3796 123.168 65.9301 122.177 65.6834C121.187 65.4367 120.156 65.3981 119.149 65.5702C118.143 65.7422 117.183 66.1211 116.331 66.6829C114.579 67.836 112.955 69.5323 111.618 71.1413C111.428 71.3635 110.643 72.1538 110.904 72.4862C111.221 72.8889 113.083 71.7416 113.398 71.5858C113.307 71.9296 112.741 73.702 112.378 73.7913Z" fill="#FF640C"/>
<g opacity="0.1">
<path d="M120.282 135.231C119.985 135.291 119.678 135.28 119.385 135.2C117.307 134.665 115.152 134.491 113.014 134.687C112.232 134.759 111.337 134.847 110.757 134.307C110.32 133.906 110.207 133.268 110.132 132.679C108.964 123.371 111.367 114.05 113.172 104.854C113.415 103.613 113.328 101.604 112.963 100.392L112.877 100.097C112.174 97.5858 112.216 94.9242 112.997 92.436C111.701 95.3235 111.456 98.5733 112.304 101.623L112.389 101.917C112.754 103.129 112.841 105.146 112.598 106.379C110.799 115.575 108.396 124.902 109.559 134.205C109.633 134.794 109.749 135.432 110.184 135.833C110.754 136.366 111.658 136.279 112.44 136.213C114.578 136.017 116.733 136.19 118.812 136.726C119.104 136.806 119.411 136.816 119.708 136.756C120.643 136.545 120.801 135.783 120.778 135.029C120.626 135.126 120.458 135.194 120.282 135.231Z" fill="black"/>
<path d="M137.998 129.739C138.047 129.895 138.037 130.064 137.97 130.213C137.902 130.362 137.783 130.481 137.633 130.548C137.317 130.691 136.972 130.756 136.626 130.738L124.894 131.05C124.586 131.057 124.28 131.099 123.981 131.173C122.601 131.526 123.12 132.123 122.972 132.62C122.791 133.228 121.92 133.179 121.312 133C121.369 133.542 121.397 134.155 121.152 134.611C121.686 134.691 122.26 134.621 122.402 134.14C122.545 133.66 122.032 133.046 123.411 132.693C123.71 132.618 124.016 132.577 124.324 132.569L136.049 132.258C136.395 132.275 136.74 132.21 137.056 132.068C137.205 132.001 137.325 131.882 137.392 131.733C137.46 131.583 137.47 131.415 137.42 131.258C138.75 131.864 140.524 131.038 140.918 129.632C140.977 129.419 141.01 129.2 141.016 128.979C140.306 129.83 139.02 130.21 137.998 129.739Z" fill="black"/>
</g>
<path d="M122.259 90.0548C123.269 92.2003 124.161 94.3988 124.932 96.6408C125.555 98.4473 126.104 100.345 125.897 102.245C125.69 104.144 124.567 106.063 122.744 106.661C121.969 106.916 121.139 106.918 120.324 106.937C118.372 106.982 116.424 107.14 114.49 107.408C113.59 107.557 112.683 107.657 111.772 107.71C110.484 107.752 109.196 107.55 107.912 107.655C105.833 107.824 103.86 108.794 101.774 108.794C101.52 108.81 101.265 108.763 101.033 108.658C100.653 108.453 100.484 108.008 100.355 107.598C100.064 106.671 99.8364 105.607 100.328 104.769C100.934 103.738 102.312 103.531 103.506 103.439C106.196 103.25 108.889 103.117 111.586 103.041C113.886 102.976 116.378 102.889 118.162 101.433C118.282 101.347 118.381 101.234 118.449 101.103C118.516 100.881 118.508 100.642 118.426 100.425C117.719 97.6621 117.416 94.8116 117.526 91.962C117.513 91.7064 117.58 91.4532 117.716 91.2364C117.877 91.0625 118.087 90.9408 118.318 90.8868C119.91 90.3758 121.615 90.3284 123.234 90.7501" fill="#FFDECB"/>
<path d="M78.6236 114.349C78.1392 111.815 77.5978 109.275 77.5085 106.697C77.4553 105.178 77.5617 103.631 77.366 102.115C77.2692 101.371 77.1001 100.639 76.9329 99.9081L76.2605 96.9808C76.3367 96.4196 76.3149 95.8495 76.1959 95.2958C76.1285 95.0038 76.039 94.7174 75.928 94.4391C76.5558 93.5556 77.0731 92.5987 77.4686 91.5897C77.6472 91.1337 77.8011 90.6493 77.7308 90.1668C77.594 89.2417 76.6974 88.632 75.8635 88.176C75.3582 87.9006 74.8263 87.6347 74.2488 87.591C73.845 87.5747 73.4428 87.652 73.0738 87.8167C72.7047 87.9815 72.3787 88.2293 72.1212 88.5408C71.9809 87.7919 72.0279 87.0199 72.258 86.2935C71.7622 86.0713 71.2626 85.8623 70.7592 85.6591C70.6864 85.0026 70.661 84.3417 70.6832 83.6816C70.6946 82.8894 70.7079 82.0897 70.7535 81.2957C72.1044 80.8026 73.2722 79.9081 74.1 78.7322C74.9279 77.5563 75.3762 76.1553 75.3848 74.7173C75.3848 74.6356 75.3848 74.5558 75.3848 74.476C75.7529 73.8142 75.9858 73.0858 76.07 72.3331C76.1541 71.5804 76.0878 70.8185 75.8749 70.0917C75.3183 68.1921 73.8632 66.6268 72.1098 65.6599C70.3565 64.693 68.3239 64.2846 66.3122 64.2124C65.6371 64.1729 64.9596 64.2157 64.2948 64.3397C63.5833 64.5148 62.8938 64.7697 62.2394 65.0996C61.2345 65.5631 60.222 66.0703 59.4698 66.87C58.1648 68.2624 57.8722 70.3083 58.0147 72.1889C58.2047 74.6584 59.0291 77.0481 59.9827 79.3467C60.2999 80.1065 60.6381 80.8777 61.1605 81.5255C61.5651 82.0251 62.2679 82.0555 62.8264 81.706C62.7821 82.3128 62.7681 82.9214 62.7846 83.5296C61.7531 83.4935 60.7482 83.6626 59.92 84.2439C59.5401 84.5155 59.1792 84.9429 59.2627 85.4026C59.5165 85.4094 59.7596 85.5055 59.9494 85.6741C60.1392 85.8426 60.2633 86.0728 60.2999 86.3239C60.3417 86.7285 60.1385 87.1142 59.9409 87.4637C59.8554 87.6195 59.7699 87.7771 59.6826 87.9329C58.8657 88.8067 58.028 89.9009 57.9539 90.9856C57.8206 90.9982 57.6881 91.0179 57.5569 91.0445C56.816 91.1812 56.079 91.4339 55.3514 91.6238L50.0857 93.0106L48.7845 93.3715L46.6949 93.9224C45.3652 94.2719 44.0107 94.6309 42.8311 95.3338C41.6514 96.0366 40.6503 97.1403 40.4129 98.4701C40.2951 99.1311 40.3673 99.8188 40.2229 100.474C40.2229 100.505 40.2115 100.533 40.2039 100.562C40.0833 100.976 39.921 101.378 39.7195 101.76C38.5399 104.247 37.7002 106.958 37.8579 109.695C37.9548 111.376 38.4278 113.015 38.8875 114.634C39.37 116.289 39.8462 117.944 40.316 119.599C40.6258 120.784 41.0187 121.946 41.4919 123.076C42.3024 124.885 43.5046 126.493 45.0118 127.781C45.4348 128.16 45.9078 128.48 46.4176 128.731C47.1948 129.067 48.0434 129.205 48.8871 129.132C49.115 129.117 49.3392 129.092 49.5614 129.056C51.1932 128.797 52.7148 128.011 54.111 127.126C54.6948 126.756 55.2647 126.366 55.8206 125.957C55.8912 126.596 56.0184 127.226 56.2006 127.842C56.324 128.265 56.476 128.7 56.4266 129.139C56.3582 129.751 55.9137 130.252 55.6839 130.826C55.1957 132.038 55.6972 133.389 55.7788 134.688C55.8567 135.906 55.5604 137.114 55.3229 138.313C54.9264 140.312 54.692 142.339 54.622 144.376C54.6199 145.147 54.5691 145.917 54.47 146.682C54.2934 147.761 53.8792 148.802 53.807 149.893C53.6969 151.591 54.4301 153.253 54.3636 154.953C54.2858 156.95 53.1137 158.889 53.5221 160.842C53.5734 161.087 53.7121 161.37 53.9362 161.433L53.826 161.533C53.4898 161.845 53.1631 162.421 53.5449 162.673C53.6328 162.725 53.7304 162.759 53.8317 162.772C54.4225 162.895 55.0171 163.008 55.6117 163.112C55.5986 163.661 55.6678 164.209 55.8168 164.738C55.9251 164.816 56.0353 164.886 56.1455 164.953C56.0619 165.177 56.0676 165.393 56.2651 165.523C56.353 165.575 56.4506 165.608 56.552 165.621C61.4453 166.631 66.4427 167.046 71.4355 166.856C72.3283 166.822 73.261 166.757 74.0227 166.301C74.7845 165.846 75.2993 164.875 74.9364 164.075C74.6154 163.368 73.7758 163.063 73.0216 162.827L72.1364 162.553C72.2498 162.352 72.3159 162.128 72.3298 161.898C72.3436 161.667 72.3047 161.437 72.2162 161.224C71.8952 160.517 71.0555 160.211 70.3014 159.976L68.2631 159.343C67.9948 159.28 67.7426 159.161 67.5223 158.996C67.3763 158.85 67.2416 158.694 67.1195 158.528C66.8254 158.192 66.439 157.95 66.0083 157.831C65.9853 157.399 65.9949 156.966 66.0368 156.536L66.6066 149.657C66.7339 148.099 66.8593 146.511 66.4965 144.99C66.3502 144.372 66.1165 143.74 66.259 143.12C66.4813 142.11 67.5451 141.548 68.2707 140.797C69.3649 139.657 69.7049 138.037 69.9557 136.495C70.994 130.129 71.3202 123.668 70.9283 117.231C73.2087 116.588 75.5557 116.21 77.9226 116.106C78.3253 116.089 78.5229 115.899 78.6483 115.523C78.7737 115.147 78.6977 114.738 78.6236 114.349ZM67.2544 114.685C67.2677 114.619 67.2829 114.552 67.2943 114.486L67.452 114.687L67.2544 114.685Z" fill="url(#paint1_linear_221_2478)"/>
<path d="M44.5001 94.5L58.0001 91H61.0001L59.0001 123.5L55.5001 126C55.5001 126 51.2738 130.145 48 129.5C44.3399 128.779 42.8159 125.259 41.0001 122C39.3159 118.977 38.5001 113.5 38.5001 113.5C38.5001 113.5 37.6096 108.538 38.0002 106C38.3907 103.462 40.5001 100.5 40.5001 100.5C40.5001 100.5 40.2374 98.1996 41.0001 97C41.8184 95.7131 44.5001 94.5 44.5001 94.5Z" fill="#00A9B8"/>
<path d="M63.5502 79.8178C63.5008 80.4789 63.2672 81.1134 63.1817 81.7725C63.0848 82.4982 63.1703 83.2371 63.1228 83.9685C63.0753 84.6998 62.8644 85.4692 62.3079 85.946C65.5428 86.2261 68.7292 86.9155 71.7907 87.9976C70.8656 86.8578 70.8409 85.2659 70.8637 83.8032C70.8941 81.6395 70.9321 79.4341 71.6388 77.392C69.5311 76.9209 67.3487 76.8924 65.2295 77.3084C64.7698 77.3996 63.3773 77.3426 63.1703 77.7719C63.0202 78.0873 63.5844 79.3391 63.5502 79.8178Z" fill="#F7C4A7"/>
<path d="M67.3797 158.538C67.4939 158.706 67.6209 158.866 67.7597 159.015C67.9736 159.18 68.2203 159.299 68.4834 159.362L70.4742 159.995C71.2132 160.23 72.0338 160.534 72.3472 161.241C72.7006 162.039 72.1972 163.009 71.4525 163.463C70.7079 163.917 69.7961 163.984 68.9241 164.018C64.0422 164.206 59.1557 163.792 54.375 162.785C54.2763 162.771 54.1815 162.737 54.0958 162.687C53.7158 162.43 54.0407 161.856 54.3693 161.547C55.6515 160.331 57.0459 159.056 58.7916 158.775C59.7091 158.625 60.6304 158.686 61.5422 158.467C62.1976 158.31 62.8169 158.038 63.4703 157.877C64.688 157.578 66.5097 157.472 67.3797 158.538Z" fill="#46455B"/>
<path opacity="0.1" d="M67.3797 158.538C67.4939 158.706 67.6209 158.866 67.7597 159.015C67.9736 159.18 68.2203 159.299 68.4834 159.362L70.4742 159.995C71.2132 160.23 72.0338 160.534 72.3472 161.241C72.7006 162.039 72.1972 163.009 71.4525 163.463C70.7079 163.917 69.7961 163.984 68.9241 164.018C64.0422 164.206 59.1557 163.792 54.375 162.785C54.2763 162.771 54.1815 162.737 54.0958 162.687C53.7158 162.43 54.0407 161.856 54.3693 161.547C55.6515 160.331 57.0459 159.056 58.7916 158.775C59.7091 158.625 60.6304 158.686 61.5422 158.467C62.1976 158.31 62.8169 158.038 63.4703 157.877C64.688 157.578 66.5097 157.472 67.3797 158.538Z" fill="black"/>
<path d="M57.3841 115.572C56.4017 118.165 56.3413 121.016 57.2131 123.648C56.5501 123.575 56.2633 124.472 56.2804 125.141C56.304 126.072 56.445 126.996 56.7002 127.891C56.8218 128.317 56.9699 128.75 56.9224 129.187C56.8541 129.799 56.4209 130.3 56.1949 130.872C55.72 132.082 56.2082 133.431 56.2899 134.728C56.3659 135.946 56.0752 137.152 55.8416 138.349C55.4545 140.346 55.2258 142.37 55.1577 144.403C55.1563 145.173 55.1062 145.943 55.0076 146.707C54.8367 147.786 54.4378 148.825 54.3618 149.914C54.2535 151.608 54.9696 153.27 54.9051 154.968C54.8291 156.961 53.6817 158.899 54.0825 160.857C54.1395 161.133 54.2934 161.457 54.5764 161.461C57.441 161.497 60.1176 160.701 62.9518 161.117C63.2406 154.56 63.5217 147.972 64.8134 141.534C65.9532 135.803 67.8851 130.137 67.7046 124.293C67.6002 120.952 66.8061 117.675 66.3236 114.366C63.2951 113.694 60.1261 114.121 57.3841 115.572Z" fill="#587BB3"/>
<path opacity="0.1" d="M57.3841 115.572C56.4017 118.165 56.3413 121.016 57.2131 123.648C56.5501 123.575 56.2633 124.472 56.2804 125.141C56.304 126.072 56.445 126.996 56.7002 127.891C56.8218 128.317 56.9699 128.75 56.9224 129.187C56.8541 129.799 56.4209 130.3 56.1949 130.872C55.72 132.082 56.2082 133.431 56.2899 134.728C56.3659 135.946 56.0752 137.152 55.8416 138.349C55.4545 140.346 55.2258 142.37 55.1577 144.403C55.1563 145.173 55.1062 145.943 55.0076 146.707C54.8367 147.786 54.4378 148.825 54.3618 149.914C54.2535 151.608 54.9696 153.27 54.9051 154.968C54.8291 156.961 53.6817 158.899 54.0825 160.857C54.1395 161.133 54.2934 161.457 54.5764 161.461C57.441 161.497 60.1176 160.701 62.9518 161.117C63.2406 154.56 63.5217 147.972 64.8134 141.534C65.9532 135.803 67.8851 130.137 67.7046 124.293C67.6002 120.952 66.8061 117.675 66.3236 114.366C63.2951 113.694 60.1261 114.121 57.3841 115.572V115.572Z" fill="#618FD8"/>
<path d="M70.0392 161.387C70.1533 161.556 70.2803 161.715 70.4191 161.864C70.633 162.03 70.8797 162.148 71.1428 162.212L73.1336 162.844C73.8726 163.08 74.6932 163.384 75.0067 164.09C75.36 164.888 74.8566 165.859 74.1119 166.313C73.3673 166.767 72.4555 166.833 71.5836 166.867C66.7016 167.056 61.8151 166.641 57.0344 165.635C56.9358 165.62 56.8409 165.587 56.7552 165.536C56.3753 165.279 56.7001 164.706 57.0287 164.396C58.311 163.18 59.7053 161.906 61.451 161.625C62.3685 161.474 63.2898 161.535 64.2017 161.317C64.857 161.159 65.4763 160.887 66.1298 160.726C67.3474 160.428 69.1691 160.321 70.0392 161.387Z" fill="#46455B"/>
<path d="M58.3719 115.76C57.6387 116.71 57.4221 117.964 57.5209 119.153C57.6197 120.342 58.0205 121.484 58.4137 122.61C57.8913 123.091 57.9996 123.919 58.068 124.626C58.3169 127.251 57.405 129.871 57.538 132.503C57.5931 133.611 57.8344 134.703 57.8913 135.811C57.954 137.021 57.8002 138.231 57.6558 139.433C56.7336 147.131 56.2263 154.873 56.1361 162.626C56.1361 163.34 56.1247 164.066 56.3261 164.749C57.7071 165.766 59.4414 165.902 61.1131 165.523C62.7848 165.143 64.3101 164.295 65.8089 163.46C66.63 163.035 67.4086 162.532 68.1341 161.959C68.356 161.802 68.5202 161.576 68.6014 161.317C68.7609 160.557 67.7047 160.213 67.0988 159.721C66.2173 159.005 66.2306 157.679 66.3218 156.547L66.8727 149.678C66.9981 148.122 67.1197 146.536 66.7663 145.016C66.622 144.401 66.3997 143.768 66.5327 143.149C66.7492 142.142 67.7902 141.58 68.4988 140.829C69.5702 139.69 69.9007 138.073 70.1476 136.534C71.3115 129.235 71.5591 121.818 70.8847 114.457C69.4885 114.942 67.8339 114.678 66.3617 114.791C64.8895 114.905 63.4268 115.397 61.9356 115.437C60.6933 115.466 59.1356 114.78 58.3719 115.76Z" fill="#618FD8"/>
<path d="M68.4302 81.8789C72.3119 81.8789 75.4587 78.7321 75.4587 74.8503C75.4587 70.9685 72.3119 67.8217 68.4302 67.8217C64.5484 67.8217 61.4016 70.9685 61.4016 74.8503C61.4016 78.7321 64.5484 81.8789 68.4302 81.8789Z" fill="#F7C4A7"/>
<path d="M72.4022 86.4114C70.15 85.3769 67.8016 84.5663 65.3908 83.9913C63.6925 83.5867 61.753 83.3435 60.334 84.3598C59.9541 84.6315 59.6102 85.0589 59.6919 85.5186C59.9423 85.5269 60.1816 85.6239 60.3671 85.7923C60.5526 85.9607 60.6721 86.1896 60.7044 86.438C60.7462 86.8407 60.5487 87.2263 60.3549 87.5778L58.7155 90.6171C58.4014 91.1647 58.1314 91.7364 57.9082 92.3268C57.5777 93.2918 57.5055 94.3252 57.4352 95.3434L57.2452 98.1016C57.1275 99.8398 57.0078 101.586 57.1654 103.32C57.2832 104.629 57.5568 105.943 57.3706 107.244C57.2205 108.291 56.7779 109.273 56.5291 110.303C56.0618 112.24 56.2745 114.364 55.3684 116.142C55.7364 115.972 56.1518 115.935 56.5443 116.036C59.2949 116.543 61.4586 118.714 64.1294 119.544C64.8038 118.56 65.7175 117.835 66.4716 116.919C67.0325 116.233 67.4039 115.412 67.5487 114.537C68.1186 115.297 68.603 115.89 68.943 116.771C69.0036 116.976 69.1072 117.166 69.247 117.328C69.606 117.677 70.1968 117.542 70.6774 117.396C73.0336 116.685 75.4694 116.272 77.9282 116.167C78.3233 116.15 78.5152 115.96 78.6387 115.584C78.7621 115.208 78.6938 114.801 78.6197 114.414C78.1467 111.881 77.6186 109.345 77.5312 106.771C77.478 105.252 77.5825 103.711 77.3906 102.195C77.2956 101.453 77.1304 100.721 76.967 99.9917L75.6107 93.9643C75.5347 93.628 75.1738 93.4077 75.0199 93.098C74.3968 91.8367 73.2058 90.9249 72.5903 89.6597C72.1254 88.6381 72.0583 87.4798 72.4022 86.4114V86.4114Z" fill="#FFBB0C"/>
<path d="M62.5414 77.6636C62.5332 77.5652 62.5565 77.4667 62.6079 77.3824C62.6831 77.3035 62.7773 77.2453 62.8815 77.2134C63.1647 77.0789 63.3964 76.8557 63.5414 76.5777C63.6864 76.2997 63.7368 75.982 63.685 75.6728L64.3499 75.5341L64.3708 73.2185C65.3586 72.6714 66.7054 73.0855 67.6343 72.4416C68.1567 72.0768 68.4245 71.4576 68.7437 70.9067C69.0628 70.3558 69.5377 69.8011 70.1722 69.7555C69.954 70.3105 69.8605 70.9067 69.8982 71.5018C69.936 72.097 70.1041 72.6765 70.3906 73.1995C71.0558 72.8628 71.6113 72.3436 71.992 71.7026L72.3225 73.6022C72.3292 73.7193 72.3793 73.8297 72.4631 73.9119C72.636 74.0391 72.8696 73.8796 73.0216 73.7219L73.8821 72.8766C74.2443 73.7853 74.4925 74.7354 74.6211 75.7051C76.0344 74.3336 76.4732 72.13 75.9299 70.238C75.3866 68.346 73.9638 66.7788 72.2503 65.8119C70.5369 64.845 68.5499 64.4385 66.5838 64.3663C65.9238 64.3277 65.2616 64.3704 64.612 64.4936C63.9151 64.6689 63.2408 64.9238 62.6022 65.2534C61.6201 65.715 60.6285 66.2222 59.8953 67.0201C58.6187 68.4106 58.3319 70.4546 58.4725 72.339C58.6624 74.8085 59.464 77.1925 60.3968 79.4872C60.7064 80.2471 61.0369 81.0164 61.5479 81.6642C62.3173 82.6387 64.2074 81.8294 63.9661 79.9032C63.799 78.5279 62.5414 79.0579 62.5414 77.6636Z" fill="#EB840C"/>
<path d="M50.2207 129.105C50.0022 129.141 49.7838 129.166 49.5615 129.181C48.7383 129.252 47.9106 129.114 47.1547 128.78C46.6547 128.529 46.1919 128.209 45.7794 127.831C44.3011 126.537 43.1265 124.933 42.3392 123.133C41.8764 122.003 41.4924 120.843 41.1899 119.66C40.7239 118.006 40.2591 116.352 39.7956 114.697C39.3416 113.078 38.8838 111.441 38.7888 109.758C38.6349 107.024 39.4556 104.317 40.6086 101.834C40.8053 101.452 40.9637 101.051 41.0816 100.638C41.0816 100.609 41.0949 100.581 41.1006 100.55C44.2008 101.095 47.9203 107.026 49.8389 114.797C51.2522 120.608 51.313 125.959 50.2207 129.105Z" fill="#017D8D"/>
<path d="M60.8734 87.2547C62.2393 86.0846 64.1028 85.4425 65.8713 85.7351C66.9123 85.9041 67.8792 86.3733 68.8119 86.8748C70.6298 87.8398 72.4212 88.9511 73.7319 90.5373C74.5179 91.5377 75.1705 92.636 75.6733 93.8046C75.9199 94.3152 76.111 94.8508 76.2432 95.4022C76.7067 97.5487 75.5688 99.682 74.4728 101.585L72.3642 105.244C71.3954 106.925 70.419 108.618 69.1576 110.094C68.5764 110.774 67.9381 111.403 67.3017 112.031L64.5074 114.79C64.4571 114.849 64.3914 114.893 64.3174 114.917C64.2564 114.92 64.1954 114.91 64.1387 114.888C64.082 114.865 64.0308 114.83 63.9888 114.786L63.0656 114.051C63.9159 113.463 64.7062 112.793 65.4249 112.05C66.6331 110.8 67.6266 109.362 68.6144 107.93L71.6879 103.474C72.5864 102.169 73.5248 100.732 73.4242 99.152C73.3767 98.3922 73.0917 97.6779 72.7935 96.9808C72.2654 95.741 71.6917 94.5208 71.0725 93.3202C70.3772 91.9734 69.6174 90.6437 68.6163 89.5058C67.6152 88.3679 66.35 87.4162 64.893 87.004C64.4585 86.862 63.9979 86.8179 63.5443 86.8748C62.5451 87.0401 61.8346 87.8987 61.2021 88.6966L59.2759 91.1661C58.837 91.7264 58.4343 92.3761 58.4077 91.3123C58.3621 89.7945 59.897 88.2311 60.8734 87.2547Z" fill="#00A2B8"/>
<path d="M61.4703 103.914C61.8502 105.377 62.4106 107.037 63.8182 107.592C64.8155 107.985 65.9838 107.666 66.8462 107.022C67.7086 106.378 68.3203 105.47 68.8826 104.553C69.3585 103.728 69.8831 102.933 70.4536 102.17C71.58 100.757 73.113 99.6364 73.8729 97.9913C74.097 97.5012 74.2528 96.9769 74.5074 96.5058C74.7794 96.0715 75.0869 95.6604 75.4268 95.2768C76.3014 94.1932 77.0007 92.9791 77.4992 91.6789C77.674 91.2249 77.8241 90.7386 77.7557 90.258C77.6208 89.3329 76.7451 88.725 75.9302 88.271C75.4344 87.9955 74.9158 87.7277 74.3516 87.6859C73.5271 87.6213 72.716 88.0658 72.2088 88.7174C71.7206 89.3913 71.4477 90.1973 71.4262 91.0292C71.3692 92.0417 71.5667 93.0941 71.2362 94.0515C71.0614 94.4982 70.82 94.9157 70.5201 95.2901C69.453 96.7176 68.1323 97.9366 66.624 98.886C66.5826 98.1675 66.4268 97.4602 66.1624 96.7908C66.018 96.4222 63.1876 96.7908 62.819 96.8515C62.0896 96.9579 60.6763 97.0415 60.2166 97.7368C59.7569 98.432 60.3267 99.6003 60.5129 100.301L61.4703 103.914Z" fill="#F7C4A7"/>
<path d="M61.4017 87.952C60.9812 88.2993 60.5898 88.6805 60.2315 89.0917C59.3881 90.108 58.9759 91.4301 58.8695 92.7466C58.7631 94.063 58.9436 95.3851 59.1696 96.6864C59.3748 97.854 59.6173 99.0134 59.8972 100.165C59.975 99.2964 60.6779 98.5784 61.4928 98.265C62.3078 97.9515 63.2025 97.9857 64.0706 98.113C65.188 98.2785 66.278 98.5935 67.3114 99.0495L67.7122 93.4323C67.7966 92.6746 67.7921 91.9095 67.6989 91.1528C67.5726 90.4506 67.2983 89.7833 66.8941 89.1954C66.4899 88.6075 65.9652 88.1123 65.3548 87.743C63.8313 86.816 62.7694 86.7571 61.4017 87.952Z" fill="#D1990A"/>
<path opacity="0.1" d="M55.8246 108.658L55.306 108.747C54.7722 107.345 54.2403 105.941 53.6154 104.577C53.2905 103.865 52.9391 103.162 52.6656 102.427C51.6398 99.6042 51.8145 96.2551 49.913 93.93C49.7773 93.7573 49.6224 93.6005 49.4514 93.4627L50.7166 93.1227C51.8244 94.8743 52.6058 96.8122 53.0227 98.8424C53.2278 99.834 53.3437 100.848 53.6781 101.802C53.9624 102.525 54.2878 103.232 54.6526 103.918C55.3744 105.398 55.9177 107.015 55.8246 108.658Z" fill="#000D0F"/>
<g clip-path="url(#clip0_221_2478)">
<path d="M169.152 19.9978L167.618 22.6879C165.358 21.4031 162.866 20.5762 160.285 20.2545C157.705 19.9328 155.086 20.1226 152.579 20.813C150.072 21.5035 147.725 22.681 145.674 24.2784C143.622 25.8758 141.904 27.8618 140.62 30.123L137.93 28.5917C140.932 23.3132 145.907 19.4428 151.762 17.8313C157.616 16.2198 163.871 16.9991 169.152 19.9978Z" fill="#00A9B8"/>
<path d="M185.706 12.0848C171.614 -3.02119 147.857 -3.84892 132.749 10.241C125.594 16.9313 121.343 26.1574 120.907 35.9432C120.471 45.729 123.885 55.2965 130.416 62.5965C136.948 69.8965 146.079 74.3485 155.852 74.9991C165.626 75.6497 175.266 72.4472 182.708 66.0773C183.1 65.7421 183.485 65.3972 183.865 65.0427C184.246 64.6888 184.616 64.3267 184.978 63.9604C191.769 57.0778 195.636 47.8368 195.772 38.169C195.908 28.5013 192.301 19.1553 185.706 12.0848V12.0848ZM188.755 38.7169C188.481 46.6038 185.157 54.0766 179.483 59.5615C173.809 65.0464 166.227 68.1153 158.336 68.1218C157.976 68.1218 157.613 68.1156 157.249 68.1032C153.249 67.9746 149.315 67.0542 145.673 65.3951C142.031 63.736 138.754 61.3711 136.033 58.4374C124.575 46.1457 125.247 26.839 137.531 15.3812C141.937 11.2711 147.462 8.55979 153.409 7.59025C159.356 6.62072 165.456 7.43648 170.939 9.93437C176.423 12.4323 181.042 16.5001 184.213 21.6234C187.384 26.7466 188.964 32.6953 188.755 38.7169V38.7169Z" fill="#00A9B8"/>
<path d="M169.152 19.9978L167.618 22.6879C165.358 21.4031 162.866 20.5762 160.285 20.2545C157.705 19.9328 155.086 20.1226 152.579 20.813C150.072 21.5035 147.725 22.681 145.674 24.2784C143.622 25.8758 141.904 27.8618 140.62 30.123L137.93 28.5917C140.932 23.3132 145.907 19.4428 151.762 17.8313C157.616 16.2198 163.871 16.9991 169.152 19.9978Z" fill="white"/>
<path d="M221.404 94.1952L195.925 67.8569L185.785 77.3199L211.269 103.673C211.888 104.337 212.633 104.873 213.461 105.249C214.288 105.625 215.182 105.833 216.09 105.862H216.336C217.687 105.86 219.008 105.465 220.137 104.723C221.266 103.981 222.154 102.926 222.692 101.687C223.23 100.448 223.395 99.0793 223.166 97.7481C222.937 96.4168 222.325 95.1813 221.404 94.1931V94.1952Z" fill="#00A9B8"/>
<path d="M183.94 62.845L181.67 64.9623L190.802 74.7509L193.071 72.6336L183.94 62.845Z" fill="#00A9B8"/>
<path d="M169.152 19.9978L167.618 22.6879C165.358 21.4031 162.866 20.5762 160.285 20.2545C157.705 19.9328 155.086 20.1226 152.579 20.813C150.072 21.5035 147.725 22.681 145.674 24.2784C143.622 25.8758 141.904 27.8618 140.62 30.123L137.93 28.5917C140.932 23.3132 145.907 19.4428 151.762 17.8313C157.616 16.2198 163.871 16.9991 169.152 19.9978Z" fill="#00A9B8"/>
</g>
<defs>
<linearGradient id="paint0_linear_221_2478" x1="122.941" y1="167.555" x2="122.941" y2="64.9685" gradientUnits="userSpaceOnUse">
<stop stop-color="#808080" stop-opacity="0.25"/>
<stop offset="0.54" stop-color="#808080" stop-opacity="0.12"/>
<stop offset="1" stop-color="#808080" stop-opacity="0.1"/>
</linearGradient>
<linearGradient id="paint1_linear_221_2478" x1="58.2787" y1="166.911" x2="58.2787" y2="64.2124" gradientUnits="userSpaceOnUse">
<stop stop-color="#808080" stop-opacity="0.25"/>
<stop offset="0.54" stop-color="#808080" stop-opacity="0.12"/>
<stop offset="1" stop-color="#808080" stop-opacity="0.1"/>
</linearGradient>
<clipPath id="clip0_221_2478">
<rect width="105.949" height="105.949" fill="white" transform="translate(119)"/>
</clipPath>
</defs>
</svg>
