<svg width="23" height="23" viewBox="0 0 23 23" fill="none" xmlns="http://www.w3.org/2000/svg">
<path d="M9.3244 5.30022C9.02596 1.86741 5.44471 0.183036 5.29315 0.114286C5.15147 0.0476821 4.99269 0.0264023 4.83846 0.0533482C0.70409 0.739286 0.0822146 3.14554 0.0572146 3.24554C0.023201 3.38489 0.0286109 3.53096 0.0728396 3.66741C5.00409 18.9674 15.2525 21.8033 18.6213 22.7362C18.8807 22.808 19.0947 22.8658 19.2572 22.919C19.4426 22.9796 19.6441 22.9678 19.8213 22.8862C19.9244 22.8393 22.3588 21.6924 22.9541 17.9518C22.9805 17.7885 22.9542 17.621 22.8791 17.4737C22.826 17.3705 21.5525 14.9471 18.0213 14.0908C17.9015 14.0602 17.776 14.0591 17.6557 14.0877C17.5354 14.1163 17.4239 14.1737 17.3307 14.2549C16.2166 15.2065 14.6775 16.2205 14.0135 16.3252C9.5619 14.1487 7.07596 9.9721 6.98221 9.17991C6.92753 8.7346 7.94784 7.17054 9.12128 5.89866C9.19503 5.81861 9.25121 5.72401 9.28619 5.62094C9.32117 5.51788 9.33419 5.40863 9.3244 5.30022Z" fill="#232323"/>
</svg>
