<svg width="34" height="35" viewBox="0 0 34 35" fill="none" xmlns="http://www.w3.org/2000/svg">
<g clip-path="url(#clip0_40_197)">
<path d="M17.0002 3.97195C14.2683 3.97195 11.5978 4.78204 9.32638 6.29978C7.05492 7.81752 5.28454 9.97473 4.2391 12.4986C3.19367 15.0225 2.92013 17.7998 3.45309 20.4791C3.98605 23.1585 5.30156 25.6197 7.23328 27.5514C9.16499 29.4831 11.6261 30.7986 14.3055 31.3316C16.9849 31.8645 19.7621 31.591 22.286 30.5455C24.8099 29.5001 26.9671 27.7297 28.4849 25.4583C30.0026 23.1868 30.8127 20.5163 30.8127 17.7845C30.8085 14.1225 29.3519 10.6116 26.7624 8.02222C24.173 5.43279 20.6622 3.97619 17.0002 3.97195ZM17.0001 10.347C17.3153 10.347 17.6234 10.4404 17.8855 10.6155C18.1476 10.7907 18.3519 11.0396 18.4725 11.3308C18.5931 11.622 18.6247 11.9425 18.5632 12.2516C18.5017 12.5608 18.3499 12.8448 18.127 13.0677C17.9041 13.2905 17.6201 13.4423 17.311 13.5038C17.0018 13.5653 16.6814 13.5338 16.3902 13.4131C16.0989 13.2925 15.85 13.0882 15.6749 12.8261C15.4998 12.5641 15.4063 12.2559 15.4063 11.9407C15.4063 11.7314 15.4475 11.5242 15.5276 11.3308C15.6077 11.1374 15.7251 10.9617 15.8731 10.8138C16.0211 10.6658 16.1968 10.5484 16.3902 10.4683C16.5835 10.3882 16.7908 10.347 17.0001 10.347H17.0001ZM18.0627 25.222H17.0002C16.8606 25.222 16.7224 25.1946 16.5935 25.1412C16.4645 25.0879 16.3474 25.0096 16.2487 24.9109C16.15 24.8123 16.0718 24.6951 16.0184 24.5662C15.965 24.4372 15.9376 24.299 15.9377 24.1595V17.7845C15.6559 17.7845 15.3856 17.6725 15.1864 17.4733C14.9871 17.274 14.8752 17.0037 14.8752 16.722C14.8752 16.4402 14.9871 16.1699 15.1864 15.9707C15.3856 15.7714 15.6559 15.6595 15.9377 15.6595H17.0002C17.1397 15.6594 17.2779 15.6868 17.4069 15.7402C17.5358 15.7935 17.653 15.8718 17.7517 15.9705C17.8503 16.0692 17.9286 16.1863 17.982 16.3153C18.0353 16.4442 18.0628 16.5824 18.0627 16.722V23.097C18.3445 23.097 18.6147 23.2089 18.814 23.4082C19.0132 23.6074 19.1252 23.8777 19.1252 24.1595C19.1252 24.4412 19.0132 24.7115 18.814 24.9108C18.6147 25.11 18.3445 25.222 18.0627 25.222Z" fill="#232323"/>
</g>
<defs>
<clipPath id="clip0_40_197">
<rect width="34" height="34" fill="white" transform="translate(0 0.784454)"/>
</clipPath>
</defs>
</svg>
