<svg width="25" height="25" viewBox="0 0 20 20" fill="none" xmlns="http://www.w3.org/2000/svg">
<path d="M18.6123 5.93754V6.45629H1.4248V5.93754C1.42483 5.30481 1.66478 4.69563 2.09625 4.23284C2.52773 3.77005 3.11863 3.48808 3.7498 3.44379H16.2498C16.8876 3.47892 17.4878 3.75689 17.9272 4.22064C18.3665 4.68439 18.6117 5.29873 18.6123 5.93754Z" fill="white"/>
<path d="M16.2504 2.81878H3.93164C3.87767 2.81236 3.82312 2.81236 3.76914 2.81878C2.96883 2.86045 2.21511 3.208 1.66375 3.7896C1.1124 4.37119 0.805559 5.14238 0.806643 5.94378V6.46253H2.05664V5.93753C2.05664 5.44025 2.25419 4.96334 2.60582 4.61171C2.95745 4.26008 3.43436 4.06253 3.93164 4.06253H16.1191C16.6164 4.06253 17.0933 4.26008 17.445 4.61171C17.7966 4.96334 17.9941 5.44025 17.9941 5.93753V6.45628H19.2441V5.93753C19.2432 5.13206 18.9314 4.35804 18.3736 3.77696C17.8158 3.19588 17.0552 2.85261 16.2504 2.81878Z" fill="white"/>
<path d="M19.2441 7.70624V14.8437C19.2441 15.4183 19.131 15.9872 18.9111 16.518C18.6912 17.0488 18.369 17.5311 17.9627 17.9373C17.5565 18.3436 17.0742 18.6658 16.5434 18.8857C16.0126 19.1056 15.4437 19.2187 14.8691 19.2187H5.18164C4.02132 19.2187 2.90852 18.7578 2.08805 17.9373C1.26758 17.1169 0.806641 16.0041 0.806641 14.8437V7.70624H2.05664V14.8437C2.05664 15.6725 2.38588 16.4674 2.97193 17.0534C3.55798 17.6395 4.35284 17.9687 5.18164 17.9687H14.8691C15.6979 17.9687 16.4928 17.6395 17.0788 17.0534C17.6649 16.4674 17.9941 15.6725 17.9941 14.8437V7.70624H19.2441Z" fill="white"/>
<path fill-rule="evenodd" clip-rule="evenodd" d="M4.3748 4.06246C4.20904 4.06246 4.05007 3.99662 3.93286 3.87941C3.81565 3.7622 3.7498 3.60322 3.7498 3.43746V1.39996C3.7498 1.2342 3.81565 1.07523 3.93286 0.958022C4.05007 0.840811 4.20904 0.774963 4.3748 0.774963C4.54057 0.774963 4.69954 0.840811 4.81675 0.958022C4.93396 1.07523 4.9998 1.2342 4.9998 1.39996V3.44371C4.99816 3.60839 4.93158 3.76576 4.81455 3.88162C4.69752 3.99748 4.53949 4.06247 4.3748 4.06246ZM9.9998 4.06246C9.83404 4.06246 9.67507 3.99662 9.55786 3.87941C9.44065 3.7622 9.3748 3.60322 9.3748 3.43746V1.40621C9.3748 1.24045 9.44065 1.08148 9.55786 0.964272C9.67507 0.847061 9.83404 0.781213 9.9998 0.781213C10.1656 0.781213 10.3245 0.847061 10.4417 0.964272C10.559 1.08148 10.6248 1.24045 10.6248 1.40621V3.43746C10.6248 3.60322 10.559 3.7622 10.4417 3.87941C10.3245 3.99662 10.1656 4.06246 9.9998 4.06246ZM15.6248 4.06246C15.459 4.06246 15.3001 3.99662 15.1829 3.87941C15.0657 3.7622 14.9998 3.60322 14.9998 3.43746V1.40621C14.9998 1.24045 15.0657 1.08148 15.1829 0.964272C15.3001 0.847061 15.459 0.781213 15.6248 0.781213C15.7906 0.781213 15.9495 0.847061 16.0667 0.964272C16.184 1.08148 16.2498 1.24045 16.2498 1.40621V3.43746C16.2498 3.60322 16.184 3.7622 16.0667 3.87941C15.9495 3.99662 15.7906 4.06246 15.6248 4.06246ZM18.6123 7.70621V14.8437C18.6123 15.8383 18.2172 16.7921 17.514 17.4954C16.8107 18.1986 15.8569 18.5937 14.8623 18.5937H5.1748C4.18024 18.5937 3.22642 18.1986 2.52315 17.4954C1.81989 16.7921 1.4248 15.8383 1.4248 14.8437V7.70621H18.6123ZM4.72616 9.97382C4.72616 9.81561 4.85441 9.68736 5.01261 9.68736H7.60376C7.76197 9.68736 7.89022 9.81561 7.89022 9.97382V12.565C7.89022 12.7232 7.76197 12.8514 7.60376 12.8514H5.01261C4.85441 12.8514 4.72616 12.7232 4.72616 12.565V9.97382ZM12.3564 9.68736C12.1982 9.68736 12.0699 9.81561 12.0699 9.97382V12.565C12.0699 12.7232 12.1982 12.8514 12.3564 12.8514H14.9475C15.1057 12.8514 15.234 12.7232 15.234 12.565V9.97382C15.234 9.81561 15.1057 9.68736 14.9475 9.68736H12.3564ZM12.0699 14.2316C12.0699 14.0734 12.1982 13.9452 12.3564 13.9452H14.9475C15.1057 13.9452 15.234 14.0734 15.234 14.2316V16.8228C15.234 16.981 15.1057 17.1092 14.9475 17.1092H12.3564C12.1982 17.1092 12.0699 16.981 12.0699 16.8228V14.2316ZM5.01261 13.9452C4.85441 13.9452 4.72616 14.0734 4.72616 14.2316V16.8228C4.72616 16.981 4.85441 17.1092 5.01261 17.1092H7.60376C7.76197 17.1092 7.89022 16.981 7.89022 16.8228V14.2316C7.89022 14.0734 7.76197 13.9452 7.60376 13.9452H5.01261Z" fill="white"/>
</svg>
