<svg width="17" height="17" viewBox="0 0 10 9" fill="none" xmlns="http://www.w3.org/2000/svg">
<path d="M8.9282 0.804382C8.64432 0.804382 8.37206 0.913404 8.17133 1.10746C7.9706 1.30152 7.85783 1.56472 7.85783 1.83916V8.73772H9.99857V1.83916C9.99857 1.56472 9.8858 1.30152 9.68506 1.10746C9.48433 0.913404 9.21208 0.804382 8.9282 0.804382ZM6.43067 2.18409C6.14679 2.18409 5.87453 2.29311 5.6738 2.48717C5.47307 2.68123 5.3603 2.94443 5.3603 3.21887V8.73772H7.50104V3.21887C7.50104 2.94443 7.38827 2.68123 7.18753 2.48717C6.9868 2.29311 6.71455 2.18409 6.43067 2.18409ZM3.93314 3.5638C3.64926 3.5638 3.377 3.67282 3.17627 3.86688C2.97554 4.06094 2.86277 4.32414 2.86277 4.59859V8.73772H5.00351V4.59859C5.00351 4.32414 4.89074 4.06094 4.69 3.86688C4.48927 3.67282 4.21702 3.5638 3.93314 3.5638ZM1.4356 4.94351C1.15172 4.94351 0.879472 5.05253 0.678739 5.24659C0.478005 5.44065 0.365234 5.70385 0.365234 5.9783V8.73772H2.50598V5.9783C2.50598 5.70385 2.3932 5.44065 2.19247 5.24659C1.99174 5.05253 1.71948 4.94351 1.4356 4.94351Z" fill="#232323"/>
</svg>
