<svg width="26" height="26" viewBox="0 0 26 26" fill="none" xmlns="http://www.w3.org/2000/svg">
<path d="M21.9375 3.25H21.125V2.4375C21.125 1.95 20.8 1.625 20.3125 1.625C19.825 1.625 19.5 1.95 19.5 2.4375V3.25H16.25V2.4375C16.25 1.95 15.925 1.625 15.4375 1.625C14.95 1.625 14.625 1.95 14.625 2.4375V3.25H11.375V2.4375C11.375 1.95 11.05 1.625 10.5625 1.625C10.075 1.625 9.75 1.95 9.75 2.4375V3.25H6.5V2.4375C6.5 1.95 6.175 1.625 5.6875 1.625C5.2 1.625 4.875 1.95 4.875 2.4375V3.25H4.0625C2.68125 3.25 1.625 4.30625 1.625 5.6875V8.125H24.375V5.6875C24.375 4.30625 23.3188 3.25 21.9375 3.25ZM17.875 6.5H8.125C7.6375 6.5 7.3125 6.175 7.3125 5.6875C7.3125 5.2 7.6375 4.875 8.125 4.875H17.875C18.3625 4.875 18.6875 5.2 18.6875 5.6875C18.6875 6.175 18.3625 6.5 17.875 6.5ZM17.0625 13.8125H16.25C15.7625 13.8125 15.4375 14.1375 15.4375 14.625V19.5C15.4375 19.9875 15.7625 20.3125 16.25 20.3125H17.0625C17.55 20.3125 17.875 19.9875 17.875 19.5V14.625C17.875 14.1375 17.55 13.8125 17.0625 13.8125Z" fill="white"/>
<path d="M1.625 9.75V21.9375C1.625 23.3188 2.68125 24.375 4.0625 24.375H21.9375C23.3188 24.375 24.375 23.3188 24.375 21.9375V9.75H1.625ZM12.1875 15.4375C12.1875 16.0875 11.9437 16.6562 11.5375 17.0625C11.9437 17.4688 12.1875 18.0375 12.1875 18.6875V19.5C12.1875 20.8813 11.1313 21.9375 9.75 21.9375H8.9375C7.55625 21.9375 6.5 20.8813 6.5 19.5C6.5 19.0125 6.825 18.6875 7.3125 18.6875C7.8 18.6875 8.125 19.0125 8.125 19.5C8.125 19.9875 8.45 20.3125 8.9375 20.3125H9.75C10.2375 20.3125 10.5625 19.9875 10.5625 19.5V18.6875C10.5625 18.2 10.2375 17.875 9.75 17.875C9.5875 17.875 9.425 17.7937 9.34375 17.7125C9.2625 17.7125 9.2625 17.6313 9.18125 17.6313C9.18125 17.6313 9.1 17.55 9.1 17.4688C9.01875 17.3875 8.9375 17.225 8.9375 17.0625C8.9375 16.9 9.01875 16.7375 9.1 16.6562C9.1 16.575 9.18125 16.575 9.18125 16.4937L9.2625 16.4125C9.425 16.3313 9.5875 16.25 9.75 16.25C10.2375 16.25 10.5625 15.925 10.5625 15.4375V14.625C10.5625 14.1375 10.2375 13.8125 9.75 13.8125H8.9375C8.45 13.8125 8.125 14.1375 8.125 14.625C8.125 15.1125 7.8 15.4375 7.3125 15.4375C6.825 15.4375 6.5 15.1125 6.5 14.625C6.5 13.2437 7.55625 12.1875 8.9375 12.1875H9.75C11.1313 12.1875 12.1875 13.2437 12.1875 14.625V15.4375ZM19.5 19.5C19.5 20.8813 18.4438 21.9375 17.0625 21.9375H16.25C14.8687 21.9375 13.8125 20.8813 13.8125 19.5V14.625C13.8125 13.2437 14.8687 12.1875 16.25 12.1875H17.0625C18.4438 12.1875 19.5 13.2437 19.5 14.625V19.5Z" fill="white"/>
</svg>
