<svg width="31" height="30" viewBox="0 0 31 30" fill="none" xmlns="http://www.w3.org/2000/svg">
<path d="M6.75156 16.4746V19.9871C6.75156 20.8996 7.25156 21.7496 8.05156 22.1871L14.3016 25.5996C15.0516 26.0121 15.9516 26.0121 16.7016 25.5996L22.9516 22.1871C23.7516 21.7496 24.2516 20.8996 24.2516 19.9871V16.4746L16.7016 20.5996C15.9516 21.0121 15.0516 21.0121 14.3016 20.5996L6.75156 16.4746ZM14.3016 4.39961L3.76406 10.1496C2.90156 10.6246 2.90156 11.8746 3.76406 12.3496L14.3016 18.0996C15.0516 18.5121 15.9516 18.5121 16.7016 18.0996L26.7516 12.6121V19.9996C26.7516 20.6871 27.3141 21.2496 28.0016 21.2496C28.6891 21.2496 29.2516 20.6871 29.2516 19.9996V11.9871C29.2516 11.5246 29.0016 11.1121 28.6016 10.8871L16.7016 4.39961C15.9516 3.99961 15.0516 3.99961 14.3016 4.39961Z" fill="#C0C0C0"/>
</svg>
