<svg width="86" height="86" viewBox="0 0 86 86" fill="none" xmlns="http://www.w3.org/2000/svg">
<ellipse cx="39.4222" cy="39.8854" rx="39.4222" ry="39.8854" fill="#53C5E0" fill-opacity="0.14"/>
<g clip-path="url(#clip0_1767_15529)">
<path d="M46.9157 66.8292L11.1685 50.2537C9.88132 49.6562 9.88132 47.8067 11.1685 47.2092L45.5365 31.2738C46.8502 30.6652 48.3603 30.6652 49.674 31.2738L84.0404 47.2108C85.3276 47.8083 85.3276 49.6577 84.0404 50.2553L48.2933 66.8292C47.8569 67.0326 47.352 67.0326 46.9157 66.8292Z" fill="#00A9B8"/>
<path d="M67.8532 51.3135C67.8532 47.8306 58.7836 45.0068 47.5946 45.0068C36.4056 45.0068 27.3359 47.8306 27.3359 51.3135C27.3359 53.1992 27.3359 62.0411 27.3359 63.9268H67.8532C67.8532 62.0411 67.8532 53.1992 67.8532 51.3135Z" fill="#53C5E0"/>
<path d="M47.5946 70.2354C58.7831 70.2354 67.8532 67.4118 67.8532 63.9287C67.8532 60.4457 58.7831 57.6221 47.5946 57.6221C36.406 57.6221 27.3359 60.4457 27.3359 63.9287C27.3359 67.4118 36.406 70.2354 47.5946 70.2354Z" fill="#53C5E0"/>
<path d="M47.6029 67.8711C57.0701 67.8711 64.7448 65.7534 64.7448 63.1411C64.7448 60.5288 57.0701 58.4111 47.6029 58.4111C38.1356 58.4111 30.4609 60.5288 30.4609 63.1411C30.4609 65.7534 38.1356 67.8711 47.6029 67.8711Z" fill="#00A9B8"/>
<path d="M78.7693 73.3892C77.9075 73.3892 77.2109 72.6829 77.2109 71.8126V45.0093C77.2109 44.139 77.9075 43.4326 78.7693 43.4326C79.6311 43.4326 80.3277 44.139 80.3277 45.0093V71.8126C80.3277 72.6829 79.6311 73.3892 78.7693 73.3892Z" fill="#FFBB0C"/>
<path d="M78.7691 70.2334C80.4904 70.2334 81.8858 68.8216 81.8858 67.0801C81.8858 65.3386 80.4904 63.9268 78.7691 63.9268C77.0477 63.9268 75.6523 65.3386 75.6523 67.0801C75.6523 68.8216 77.0477 70.2334 78.7691 70.2334Z" fill="#FFBB0C"/>
</g>
<path fill-rule="evenodd" clip-rule="evenodd" d="M75.3917 14.894C75.3917 14.115 74.7601 13.4834 73.981 13.4834C73.2019 13.4834 72.5704 14.115 72.5704 14.894L72.5704 20.7361H66.0122C65.2331 20.7361 64.6016 21.3677 64.6016 22.1467C64.6016 22.9258 65.2331 23.5574 66.0122 23.5574H72.5704L72.5704 32.2169C72.5704 32.9959 73.2019 33.6275 73.981 33.6275C74.7601 33.6275 75.3917 32.9959 75.3917 32.2169V23.5574H83.1011C83.8802 23.5574 84.5118 22.9258 84.5118 22.1467C84.5118 21.3677 83.8802 20.7361 83.1011 20.7361H75.3917V14.894Z" fill="#FFBB0C"/>
<defs>
<clipPath id="clip0_1767_15529">
<rect width="74.8011" height="75.6799" fill="white" transform="translate(10.2031 10.3203)"/>
</clipPath>
</defs>
</svg>
