<svg width="26" height="26" viewBox="0 0 26 26" fill="none" xmlns="http://www.w3.org/2000/svg">
<path d="M2.4375 17.875V7.3125C2.00652 7.3125 1.5932 7.48371 1.28845 7.78845C0.983705 8.0932 0.8125 8.50652 0.8125 8.9375V20.3125C0.8125 20.7435 0.983705 21.1568 1.28845 21.4615C1.5932 21.7663 2.00652 21.9375 2.4375 21.9375H10.0588C8.53682 20.8802 6.72814 20.3132 4.875 20.3125C4.22853 20.3125 3.60855 20.0557 3.15143 19.5986C2.69431 19.1415 2.4375 18.5215 2.4375 17.875ZM23.5625 7.3125V17.875C23.5625 18.5215 23.3057 19.1415 22.8486 19.5986C22.3915 20.0557 21.7715 20.3125 21.125 20.3125C19.2719 20.3132 17.4632 20.8802 15.9413 21.9375H23.5625C23.9935 21.9375 24.4068 21.7663 24.7115 21.4615C25.0163 21.1568 25.1875 20.7435 25.1875 20.3125V8.9375C25.1875 8.50652 25.0163 8.0932 24.7115 7.78845C24.4068 7.48371 23.9935 7.3125 23.5625 7.3125Z" fill="white"/>
<path d="M4.875 4.0625C4.65951 4.0625 4.45285 4.1481 4.30048 4.30048C4.1481 4.45285 4.0625 4.65951 4.0625 4.875V17.875C4.0625 18.0905 4.1481 18.2972 4.30048 18.4495C4.45285 18.6019 4.65951 18.6875 4.875 18.6875C7.31935 18.69 9.69073 19.5206 11.6025 21.0437L12.1875 21.515V4.20875C11.927 4.11416 11.6522 4.0647 11.375 4.0625H4.875ZM21.9375 17.875V4.875C21.9375 4.65951 21.8519 4.45285 21.6995 4.30048C21.5472 4.1481 21.3405 4.0625 21.125 4.0625H14.625C14.3478 4.0647 14.073 4.11416 13.8125 4.20875V21.515L14.3975 21.0437C16.3093 19.5206 18.6807 18.69 21.125 18.6875C21.3405 18.6875 21.5472 18.6019 21.6995 18.4495C21.8519 18.2972 21.9375 18.0905 21.9375 17.875Z" fill="white"/>
</svg>
