<svg width="20" height="21" viewBox="0 0 20 21" fill="none" xmlns="http://www.w3.org/2000/svg">
<path d="M10.0013 2.16602C5.41797 2.16602 1.66797 5.91602 1.66797 10.4993C1.66797 15.0827 5.41797 18.8327 10.0013 18.8327C14.5846 18.8327 18.3346 15.0827 18.3346 10.4993C18.3346 5.91602 14.5846 2.16602 10.0013 2.16602ZM12.5013 11.3327H10.0013C9.5013 11.3327 9.16797 10.9993 9.16797 10.4993V6.33268C9.16797 5.83268 9.5013 5.49935 10.0013 5.49935C10.5013 5.49935 10.8346 5.83268 10.8346 6.33268V9.66602H12.5013C13.0013 9.66602 13.3346 9.99935 13.3346 10.4993C13.3346 10.9993 13.0013 11.3327 12.5013 11.3327Z" fill="#53C5E0"/>
</svg>
