<svg width="25" height="25" viewBox="0 0 25 25" fill="none" xmlns="http://www.w3.org/2000/svg">
<path d="M17.2037 3.125C20.7963 3.125 22.9166 5.19228 22.9166 8.73104H18.5092V8.76715C16.4637 8.76715 14.8055 10.3838 14.8055 12.3781C14.8055 14.3724 16.4637 15.9891 18.5092 15.9891H22.9166V16.3141C22.9166 19.8077 20.7963 21.875 17.2037 21.875H7.79628C4.20368 21.875 2.08331 19.8077 2.08331 16.3141V8.68591C2.08331 5.19228 4.20368 3.125 7.79628 3.125H17.2037ZM22.1389 10.2838C22.5684 10.2838 22.9166 10.6233 22.9166 11.0421V13.6781C22.9116 14.0948 22.5663 14.4315 22.1389 14.4364H18.5926C17.557 14.45 16.6515 13.7587 16.4166 12.7753C16.299 12.1649 16.4641 11.535 16.8678 11.0544C17.2714 10.5738 17.8722 10.2917 18.5092 10.2838H22.1389ZM19.0092 11.5025H18.6666C18.4563 11.5001 18.2537 11.5798 18.1041 11.724C17.9545 11.8682 17.8704 12.0647 17.8704 12.2698C17.8703 12.7001 18.2254 13.0502 18.6666 13.0552H19.0092C19.449 13.0552 19.8055 12.7076 19.8055 12.2788C19.8055 11.8501 19.449 11.5025 19.0092 11.5025ZM12.8981 7.17832H7.0185C6.58231 7.17829 6.22727 7.52041 6.2222 7.94565C6.2222 8.37591 6.57722 8.7261 7.0185 8.73104H12.8981C13.3379 8.73104 13.6944 8.38345 13.6944 7.95468C13.6944 7.52591 13.3379 7.17832 12.8981 7.17832Z" fill="#DDDDDD"/>
</svg>
