<svg width="69" height="69" viewBox="0 0 69 69" fill="none" xmlns="http://www.w3.org/2000/svg">
<path d="M60.375 34.5C60.375 48.7904 48.7904 60.375 34.5 60.375C29.0494 60.375 23.9923 58.6896 19.8217 55.8116L10.9773 58.0227L13.2949 49.3316C10.352 45.1318 8.625 40.0176 8.625 34.5C8.625 20.2096 20.2096 8.625 34.5 8.625C48.7904 8.625 60.375 20.2096 60.375 34.5Z" fill="#5BD066"/>
<path fill-rule="evenodd" clip-rule="evenodd" d="M34.5 64.6875C51.1721 64.6875 64.6875 51.1721 64.6875 34.5C64.6875 17.8279 51.1721 4.3125 34.5 4.3125C17.8279 4.3125 4.3125 17.8279 4.3125 34.5C4.3125 39.9141 5.73777 44.9953 8.23359 49.3888L4.3125 64.6875L20.0852 61.0301C24.3686 63.3624 29.2795 64.6875 34.5 64.6875ZM34.5 60.0433C48.6072 60.0433 60.0433 48.6072 60.0433 34.5C60.0433 20.3928 48.6072 8.95673 34.5 8.95673C20.3928 8.95673 8.95673 20.3928 8.95673 34.5C8.95673 39.9468 10.6616 44.9955 13.5668 49.1414L11.2788 57.7212L20.0098 55.5384C24.1271 58.3795 29.1192 60.0433 34.5 60.0433Z" fill="white" stroke="#C0C0C0" stroke-width="0.851852"/>
<path d="M26.9532 20.4841C26.2354 19.0425 25.1344 19.1701 24.0221 19.1701C22.0342 19.1701 18.9346 21.5512 18.9346 25.9827C18.9346 29.6145 20.5349 33.5901 25.9276 39.5372C31.132 45.2767 37.9702 48.2457 43.6472 48.1446C49.3242 48.0435 50.4922 43.1583 50.4922 41.5085C50.4922 40.7773 50.0385 40.4124 49.7259 40.3133C47.7913 39.3848 44.2233 37.6549 43.4114 37.3299C42.5995 37.0048 42.1756 37.4445 41.9121 37.6836C41.1759 38.3852 39.7165 40.4529 39.2168 40.918C38.7171 41.3831 37.9722 41.1477 37.6621 40.9719C36.5213 40.5141 33.4282 39.1382 30.9626 36.7481C27.9134 33.7923 27.7344 32.7753 27.1599 31.87C26.7003 31.1458 27.0376 30.7015 27.2059 30.5073C27.8628 29.7493 28.77 28.5789 29.1768 27.9973C29.5836 27.4157 29.2607 26.5327 29.0669 25.9827C28.2334 23.6174 27.5274 21.6374 26.9532 20.4841Z" fill="white"/>
</svg>
