<svg width="40" height="40" viewBox="0 0 40 40" fill="none" xmlns="http://www.w3.org/2000/svg">
<circle cx="18.3673" cy="18.3673" r="18.3673" fill="#53C5E0" fill-opacity="0.14"/>
<path d="M33.9119 23.6735H14.6939C13.3413 23.6735 12.2449 24.7699 12.2449 26.1224V36.5816C12.2449 37.9341 13.3413 39.0306 14.6938 39.0306H34.0595C35.4256 39.0306 36.5275 37.913 36.5082 36.547L36.3606 26.0879C36.3417 24.749 35.2509 23.6735 33.9119 23.6735Z" fill="#00A9B8"/>
<path d="M34.6206 26.5307H14.0235C13.1218 26.5307 12.5294 25.5891 12.9196 24.7762L15.8513 18.6697C16.0551 18.2452 16.4843 17.9752 16.9552 17.9752H31.88C32.3623 17.9752 32.7997 18.2583 32.9972 18.6983L35.7378 24.8048C36.1014 25.615 35.5086 26.5307 34.6206 26.5307Z" fill="#53C5E0" stroke="#00A9B8" stroke-width="0.816326"/>
<line x1="20.4306" y1="21.7858" x2="28.0292" y2="21.7858" stroke="#00A9B8" stroke-width="2.44898" stroke-linecap="round"/>
<circle cx="24.1582" cy="16.8112" r="5.38265" fill="#FFD569"/>
<circle cx="24.1577" cy="16.8114" r="4.51448" fill="#FFBE16"/>
</svg>
